<?xml version="1.0" encoding="UTF-8" standalone="no"?>
<svg
        xmlns="http://www.w3.org/2000/svg"
        version="1.0"
        width="179.12292mm"
        height="225.77779mm"
        viewBox="0 0 179.12292 225.77779">
    <style>
        /* <![CDATA[ */
    path {
      fill: #000000;
      fill-opacity: 1;
      fill-rule: nonzero;
      stroke: none;
    }
    /* ]]> */
    </style>
    <path
            d="m 69.144444,0.17638889 -3.615831,2.46944441 -0.176671,68.6152777 0,0 0,0.97028 0,2.822222 -0.08805,4.40944 -0.08805,2.734169 -0.264725,2.998611 -0.264724,3.351389 -0.440831,3.615831 -0.529167,3.792503 -0.61722,4.056944 -0.793891,4.145 -0.969998,4.32167 -1.146669,4.49777 -1.322775,4.49806 -1.587783,4.58611 -1.675553,4.67417 -0.969998,2.29333 -1.058333,2.38111 -1.058333,2.29306 -1.146669,2.29305 -1.234723,2.29306 -1.234722,2.29305 -1.411111,2.20501 -1.411111,2.20472 -1.499447,2.20472 -1.499164,2.205 -1.675836,2.11667 -1.675553,2.11666 -1.852224,2.02833 -1.851943,2.02862 -1.940277,1.94027 -2.028332,1.94028 -2.205002,1.85194 -2.204861,1.76389 -2.293055,1.76389 -2.38125,1.58778 -2.557639,1.58722 -2.557639,1.58778 -2.734028,1.41112 -2.734028,1.32277 -2.9104164,1.32278 -2.9986112,1.14667 -3.0868055,1.14666 -3.17500001,0.97 0,0 1.14652781,3.35139 0,0 2.0284722,-0.44083 2.1166667,-0.6175 2.2048611,-0.70556 2.2930555,-0.88194 2.2930558,-1.05834 2.38125,-1.05833 2.38125,-1.32277 2.38125,-1.32306 2.469444,-1.49917 2.469445,-1.67583 2.469444,-1.76389 2.381391,-1.85194 2.469445,-2.02862 2.469444,-2.11666 2.381109,-2.29306 2.381109,-2.38111 2.381391,-2.55778 2.293056,-2.64583 2.205002,-2.73417 2.116666,-2.91028 2.116667,-3.08694 2.028331,-3.08667 1.940278,-3.35139 1.763889,-3.43972 1.763889,-3.52778 1.5875,-3.61583 1.499446,-3.88055 1.322776,-3.88056 1.234722,-4.05694 1.058334,-4.23334 0.881944,-4.32167 0.793891,-4.40944 0,0 -0.08833,23.01861 0,0 0.441113,0.97028 0.61722,0.97 0.705555,1.05833 0.793892,0.97 0.969997,0.97028 0.969998,1.05833 1.058333,1.05834 1.235005,1.05833 2.645551,2.11667 2.998893,2.11666 3.175,2.20472 3.527778,2.11667 3.703885,2.205 3.968891,2.20501 4.056944,2.11666 4.233329,2.20472 4.32139,2.11667 4.49806,2.11667 4.40972,2.02861 4.49778,1.93999 8.90778,3.88056 8.64305,3.52778 8.11389,3.175 7.40833,2.73417 6.43806,2.29305 5.11556,1.76389 3.70388,1.14667 1.23501,0.35278 0.79361,0.1761 0,0 0.52916,-1.41111 0.61722,-1.93999 0,0 -5.20333,-1.67584 -5.99722,-2.11666 -6.79111,-2.3814 -7.40834,-2.82222 -7.76111,-2.99833 -8.02555,-3.26333 -8.11389,-3.43944 -8.02555,-3.52778 -7.84945,-3.70445 -3.79222,-1.85194 -3.70445,-1.85195 -3.527778,-1.85222 -3.351106,-1.85222 -3.263336,-1.76389 -3.086664,-1.85195 -2.822223,-1.76388 -2.55778,-1.76389 -2.381109,-1.67584 -2.028613,-1.67555 -1.851942,-1.67556 -1.499447,-1.58778 -0.61722,-0.79361 -0.529449,-0.70555 -0.440831,-0.70556 -0.352778,-0.79361 0,-125.67722111 z"
    />
    <path
            d="m 147.90194,150.54806 0,0 -2.20472,-1.23501 -2.29305,-1.41111 -2.38111,-1.58722 -2.46945,-1.67583 -2.64611,-1.76389 -2.5575,-2.02861 -2.73417,-2.11667 -2.73389,-2.29277 -2.73388,-2.38139 -2.73417,-2.64584 -2.73417,-2.73388 -2.82222,-2.91056 -2.73389,-3.08667 -2.64583,-3.26333 -2.64584,-3.43944 -2.64583,-3.61612 -2.46944,-3.79222 -2.46945,-3.96889 -2.381389,-4.145 -2.20472,-4.321666 L 94.544444,91.545833 92.515831,86.871387 91.634169,84.401942 90.751942,81.932498 89.87028,79.375 89.076389,76.817502 88.282498,74.171387 87.488889,71.4375 86.871387,68.703613 86.165831,65.969444 85.548611,63.147222 85.019444,60.236947 84.578613,57.326389 84.1375,54.327778 l -0.441113,-3.086947 -0.264443,-3.086664 -0.352777,-3.175 -0.176389,-3.175 -0.176389,-3.263336 -0.08834,-3.351107 0,-3.351671 0,-3.439442 0,0 -0.969997,0.705556 -1.058334,0.61722 -1.058333,0.705555 -0.176389,100.894448 3.439724,2.205 0,0 0,-68.703332 0,0 0.793609,4.321386 0.881945,4.233334 1.146669,4.14528 1.23444,4.144998 1.411111,4.056944 1.587782,3.968609 1.763889,3.880555 1.851942,3.880556 2.028613,3.7925 2.116667,3.61583 2.20472,3.61612 2.381389,3.52777 2.38111,3.43945 2.46945,3.35167 2.55778,3.175 2.64555,3.175 2.73417,2.99833 2.73416,2.91055 2.73389,2.73389 2.82222,2.64612 2.82223,2.55749 2.82222,2.3814 2.82222,2.29277 2.82222,2.11667 2.82222,2.02861 2.82223,1.85194 2.73388,1.67584 2.73417,1.5875 2.64584,1.41111 2.55778,1.23472 2.55749,1.05833 2.46945,0.97028 0,0 3.96861,1.41111 4.32167,1.49917 5.64444,1.67583 8.02555,2.29278 0,0 0.44112,-1.41111 0.52916,-1.58722 0,0 -6.52639,-1.94056 -3.79222,-1.05833 -3.96889,-1.23444 -4.14499,-1.41112 -4.23334,-1.58778 -2.11666,-0.79361 -2.11667,-0.97028 -2.02861,-0.88166 -2.02862,-1.05833 0,0 z"
    />
    <path
            d="m 75.847222,195.61528 0,0 -2.822222,-0.35278 -2.822222,-0.52917 -2.734169,-0.6175 -2.645551,-0.79361 -2.646116,-0.97028 -2.557498,-1.05833 -2.557497,-1.14639 -2.469445,-1.32306 5.644445,-4.76221 0,0 1.851942,0.88166 1.851942,0.79389 1.94056,0.79389 2.028331,0.61722 2.028331,0.61722 2.028614,0.44111 2.028613,0.44112 2.116667,0.35278 -0.264725,6.61444 z"
    />
    <path
            d="m 125.05972,166.51111 0,0 -1.76389,2.38139 -1.76389,2.20472 -1.94027,2.20472 -2.02862,2.02862 -2.11666,1.94027 -2.29278,1.76389 -2.29333,1.67556 -2.46945,1.58778 -2.46944,1.41111 -2.64555,1.23444 -2.64612,1.14667 -2.733887,0.97 -2.822222,0.79389 -2.822222,0.61722 -2.910558,0.52945 -2.998329,0.26444 -0.176671,6.52639 0,0 1.763889,-0.0881 1.763889,-0.17667 3.439724,-0.52888 3.351389,-0.70556 3.351389,-0.88222 3.174999,-1.05834 3.175,-1.32277 3.08695,-1.41111 2.91027,-1.5875 2.91028,-1.76389 2.73417,-1.94028 2.64583,-2.11667 2.55778,-2.205 2.38111,-2.38111 2.205,-2.55778 2.11667,-2.64555 2.02833,-2.82222 -6.70278,-3.08695 z"
    />
    <path
            d="m 114.47639,92.692502 0,0 2.29305,1.851942 2.11667,2.028614 2.11667,2.116666 1.94028,2.204716 1.76388,2.3814 1.67556,2.46944 1.58778,2.5575 1.41111,2.64583 1.23444,2.73389 1.05833,2.82222 0.97028,2.91056 0.79361,2.99861 0.52945,3.08695 0.35278,3.175 0.26444,3.175 0,3.3511 0,0 0,1.05834 0,0 0.61722,0.70555 0.88223,0.79389 2.38111,1.94028 3.175,2.29306 0,0 0.17639,-1.94028 0.0881,-1.94028 0.0883,-2.02833 0,-1.94056 0,0 -0.26445,-3.70389 -0.35277,-3.52777 -0.52945,-3.52778 -0.79361,-3.35167 -0.88195,-3.26306 -1.05833,-3.175 -1.23472,-3.175 -1.41111,-2.99861 -1.49917,-2.82222 -1.76389,-2.82222 -1.76389,-2.645834 -2.02861,-2.557498 -2.02861,-2.469445 -2.29278,-2.381391 -2.29333,-2.20472 -2.46945,-2.116666 -4.85055,5.291666 z"
    />
    <path
            d="m 31.044444,127 0,0 -0.176388,2.02861 0,2.02833 0,2.02834 0,2.11666 0,0 0.08834,2.55778 0.176107,2.64584 0.352778,2.55749 0.441113,2.64612 0.529167,2.46944 0.529166,2.29278 0.529167,2.02861 0.617502,1.85194 0,0 -0.793891,0.88223 -0.969998,0.79361 -1.852224,1.5875 -2.028331,1.5875 0,0 -1.146669,-2.91028 -0.970139,-2.99889 -0.79375,-3.08667 -0.705556,-3.08666 -0.440972,-3.175 -0.352778,-3.175 -0.176389,-3.26334 0,-3.26333 0,0 0.08819,-2.20472 0.08819,-2.11667 0.176389,-2.11666 0.264584,-2.11667 L 30.691667,127 Z"
    />
    <path
            d="m 82.814724,145.87361 0.08805,79.55139 -3.527778,0.088 0.352778,-68.87972 0,0 0,0 -0.08805,0.0881 -0.352777,0.6175 -0.705556,1.23472 -1.058333,1.76389 -1.587782,2.205 -1.939996,2.73389 -2.381391,2.99861 -2.998611,3.35139 -1.5875,1.85222 -1.851942,1.85195 -1.94056,1.94027 -2.116667,1.94028 -2.20472,2.02861 -2.381391,2.02834 -2.557498,2.11666 -2.734169,2.11667 -2.910275,2.11667 -3.086947,2.11666 -3.175,2.11667 -3.439442,2.205 -3.616114,2.11667 -3.703884,2.11666 -3.968891,2.20472 -4.145139,2.02862 0,0 -0.881945,-1.49945 -0.705555,-1.5875 0,0 4.409722,-2.29305 4.233475,-2.29306 3.968608,-2.29306 3.792503,-2.29305 3.527777,-2.29306 3.351107,-2.38111 3.175,-2.29333 2.998893,-2.20472 2.822223,-2.29306 2.557497,-2.205 2.469445,-2.20472 2.293055,-2.11667 2.116667,-2.11666 1.940278,-2.02862 1.763889,-1.93999 1.675835,-1.94056 1.499165,-1.85195 1.411111,-1.76388 2.381391,-3.26306 1.851942,-2.91056 1.411111,-2.46944 1.058334,-2.02833 0.705555,-1.49945 0.529167,-1.23472 0,-5.11528 3.263335,1.76389 z"
    />
    <path
            d="m 33.690278,220.30972 1.852224,0.44112 0,0 -0.352778,1.05833 -0.441113,0.97 -0.61722,0.79389 -0.705555,0.61722 0,0 -0.793892,0.52916 -0.793891,0.35278 -0.969997,0.26473 -1.058334,0 0,0 -1.058333,0 -0.970139,-0.17667 -0.79375,-0.35278 -0.79375,-0.35278 0,0 -0.617361,-0.52888 -0.617361,-0.61751 -0.440972,-0.70555 -0.440973,-0.79361 0,0 -0.352777,-0.88223 -0.176389,-0.88166 -0.176389,-0.88223 0,-0.96999 0,0 0,-1.05834 0.176389,-0.97 0.264583,-0.97028 0.352778,-0.7936 0,0 0.440972,-0.70556 0.529167,-0.70556 0.617361,-0.52944 0.79375,-0.52889 0,0 0.705555,-0.35278 0.881945,-0.26472 0.79375,-0.088 0.881944,-0.0883 0,0 1.058334,0.0883 0.881944,0.1761 0.793609,0.35278 0.793891,0.44111 0,0 0.61722,0.61722 0.529449,0.61751 0.440831,0.7936 0.352778,0.88223 -1.763889,0.44083 0,0 -0.264725,-0.70555 -0.352777,-0.52917 -0.352778,-0.52917 -0.440831,-0.35277 0,0 -0.529167,-0.35278 -0.529167,-0.17639 -0.529166,-0.17639 -0.705556,0 0,0 -0.793891,0 -0.705555,0.17639 -0.61722,0.26444 -0.529167,0.26473 0,0 -0.529167,0.44083 -0.352778,0.44111 -0.352777,0.61722 -0.264584,0.6175 0,0 -0.352777,1.23472 -0.0882,0.70556 0,0.61722 0,0 0,0.88223 0.176389,0.79361 0.08819,0.70555 0.264584,0.70556 0,0 0.264583,0.6175 0.352778,0.52888 0.440972,0.44112 0.529167,0.35277 0,0 0.529166,0.26445 0.617503,0.26472 0.528884,0.088 0.617502,0.0883 0,0 0.793609,-0.0883 0.617502,-0.1761 0.617503,-0.26473 0.61722,-0.35277 0,0 0.441113,-0.52917 0.440831,-0.61722 0.264725,-0.70556 0.264442,-0.79389 0,0 z"
    />
    <path
            d="m 37.923611,225.16028 0,-1.94 1.940278,0 0,1.94 -1.940278,0 z"
    />
    <path
            d="m 42.774164,220.6625 1.763889,-0.0883 0,0 0.08834,0.44112 0.08833,0.52916 0.176107,0.35278 0.176671,0.35278 0,0 0.264442,0.35278 0.264443,0.26472 0.441113,0.26444 0.441113,0.17639 0,0 0.440831,0.17639 0.529167,0.17639 0.529167,0.088 0.529166,0 0,0 0.969998,-0.088 0.882227,-0.26472 0,0 0.352778,-0.17611 0.352777,-0.17667 0.264443,-0.17611 0.176389,-0.26472 0,0 0.264724,-0.6175 0.08805,-0.61722 0,0 -0.08805,-0.61722 -0.264724,-0.44112 0,0 -0.176389,-0.26444 -0.264443,-0.17667 -0.705555,-0.44083 0,0 -0.882227,-0.26473 -1.587218,-0.35277 0,0 -1.587782,-0.44084 -1.058333,-0.44083 0,0 -0.440831,-0.26472 -0.352778,-0.26473 -0.352778,-0.35277 -0.264724,-0.35278 0,0 -0.264442,-0.44083 -0.08834,-0.44083 -0.08805,-0.44112 -0.08805,-0.44111 0,0 0.08805,-0.52888 0.08805,-0.44112 0.176671,-0.52916 0.264442,-0.44084 0,0 0.352778,-0.44111 0.352778,-0.35278 0.441113,-0.35277 0.528885,-0.26445 0,0 0.617502,-0.17667 0.617502,-0.1761 0.61722,-0.0883 0.705556,0 0,0 0.705555,0 0.705556,0.0883 0.61722,0.1761 0.617502,0.26473 0,0 0.529167,0.26472 0.529166,0.35278 0.352778,0.35278 0.352778,0.44083 0,0 0.264724,0.52916 0.264443,0.52917 0.08834,0.52917 0.08805,0.61722 -1.763888,0.0883 0,0 -0.08805,-0.61722 -0.176671,-0.52945 -0.264442,-0.44083 -0.352778,-0.35277 0,0 -0.529167,-0.26473 -0.529166,-0.26444 -0.61722,-0.0883 -0.705556,-0.0881 0,0 -0.793891,0.0881 -0.61722,0.0883 -0.529449,0.17639 -0.440831,0.26472 0,0 -0.352778,0.35278 -0.264724,0.35278 -0.08805,0.35278 -0.08805,0.44083 0,0 0.08805,0.35277 0.08805,0.26473 0.176671,0.35278 0.176107,0.26444 0,0 0.441113,0.17639 0.529167,0.26472 1.763889,0.52889 0,0 1.851942,0.44111 1.146669,0.44111 0,0 0.529166,0.26445 0.529167,0.35277 0.352778,0.35278 0.352778,0.44111 0,0 0.264442,0.44084 0.176671,0.44083 0.08805,0.52945 0.08805,0.52888 0,0 -0.08805,0.52945 -0.08805,0.52888 -0.176671,0.52945 -0.352778,0.44083 0,0 -0.264442,0.44083 -0.441114,0.44112 -0.528884,0.35278 -0.529449,0.26444 0,0 -0.61722,0.26472 -0.61722,0.17639 -0.705555,0.0883 -0.705556,0 0,0 -0.882227,0 -0.793609,-0.0883 -0.705555,-0.17639 -0.705556,-0.26472 0,0 -0.617502,-0.26444 -0.528884,-0.44112 -0.441114,-0.44083 -0.352777,-0.44083 0,0 -0.352778,-0.6175 -0.176389,-0.6175 -0.176389,-0.61722 -0.08834,-0.70556 0,0 z"
    />
    <path
            d="m 56.709169,225.16028 0,-1.94 1.939995,0 0,1.94 -1.939995,0 z"
    />
    <path
            d="m 64.029167,212.90139 4.409722,0 0,0 0.705555,0 0.529167,0.17639 0.529167,0.17639 0.440831,0.26444 0,0 0.264724,0.35278 0.264725,0.35277 0.08805,0.44112 0.08805,0.44111 0,0 -0.08805,0.70556 -0.264724,0.52888 0,0 -0.264443,0.26473 -0.176388,0.26472 -0.617503,0.35278 0,0 -0.881662,0.1761 -1.058333,0.0883 -3.968891,0 0,-4.58611 z m 0,12.25889 0,-6.17333 2.116666,0 0,0 1.058334,0.088 0,0 0.352777,0.17639 0.441114,0.17639 0,0 0.440831,0.35278 0.440831,0.6175 0,0 1.323058,1.85194 1.851942,2.91028 2.293338,0 -2.381391,-3.79222 0,0 -0.793609,-0.97 -0.705556,-0.88223 0,0 -0.529449,-0.26444 -0.61722,-0.35278 0,0 0.969998,-0.17639 0.793891,-0.26472 0.61722,-0.44083 0.529449,-0.44083 0,0 0.440831,-0.52945 0.264725,-0.52889 0.176106,-0.70555 0.08834,-0.70556 0,0 0,-0.52945 -0.176389,-0.52888 -0.176389,-0.52945 -0.176389,-0.44083 0,0 -0.352778,-0.44083 -0.352777,-0.35278 -0.440831,-0.35278 -0.441114,-0.17667 0,0 -0.529166,-0.17611 -0.617503,-0.0883 -1.587217,-0.0883 -6.085558,0 0,13.75834 1.763889,0 z"
    />
    <path
            d="m 76.552778,225.16028 0,-1.94 1.940278,0 0,1.94 -1.940278,0 z"
    />
    <path
            d="m 89.164724,212.98972 2.910276,0 0,0 1.411111,0.0881 0.529167,0.0881 0.441113,0.0883 0,0 0.440831,0.26444 0.440831,0.35278 0.441114,0.44111 0.352777,0.52917 0,0 0.352778,0.6175 0.176389,0.79361 0.176389,0.88194 0,1.05834 0,0 -0.08834,1.41111 -0.08805,0.61722 -0.176389,0.6175 0,0 -0.176389,0.44083 -0.264724,0.52945 -0.264442,0.35278 -0.264443,0.35277 0,0 -0.529448,0.44084 -0.705556,0.26472 0,0 -0.969998,0.26444 -1.146669,0 -2.998329,0 0,-10.495 z m 3.175,12.17056 0,0 1.146387,-0.0881 1.058333,-0.17639 0,0 0.881945,-0.26444 0.793891,-0.44111 0,0 0.61722,-0.52917 0.61722,-0.70555 0,0 0.529449,-0.88195 0.352778,-1.14667 0,0 0.176106,-0.61722 0.176671,-0.61722 0.08805,-1.49944 0,0 -0.08805,-0.88195 -0.08834,-0.88194 -0.176389,-0.79389 -0.176389,-0.70556 0,0 -0.352778,-0.70556 -0.352777,-0.61722 -0.441114,-0.52916 -0.528884,-0.52917 0,0 -0.441114,-0.35278 -0.441113,-0.26444 -0.528884,-0.17667 -0.617503,-0.17611 0,0 -1.058333,-0.17667 -1.411111,0 -4.674164,0 0,13.75834 4.938888,0 z"
    />
    <path
            d="m 101.42361,225.16028 0,-13.75834 9.87778,0 0,1.58778 -8.02555,0 0,4.23334 7.49638,0 0,1.58722 -7.49638,0 0,4.67444 8.37833,0 0,1.67556 -10.23056,0 z"
    />
    <path
            d="m 114.21195,225.16028 0,-13.75834 1.85194,0 0,12.08278 6.79083,0 0,1.67556 -8.64277,0 z"
    />
    <path
            d="m 125.14806,225.16028 0,-13.75834 9.34833,0 0,1.58778 -7.49639,0 0,4.23334 6.43805,0 0,1.67555 -6.43805,0 0,6.26167 -1.85194,0 z"
    />
    <path
            d="m 140.49361,225.16028 0,-12.17056 -4.58611,0 0,-1.58778 10.93611,0 0,1.58778 -4.58611,0 0,12.17056 -1.76389,0 z"
    />
</svg>
