<svg xmlns="http://www.w3.org/2000/svg" width="429.12" height="622.644">
  <g data-name="C.S.R. Bonfire">
    <path fill="#fff" d="M59.87 622.644h299.4"/>
    <path fill="#222348" d="M298.11 294.374l-10.28 1.4-23.35-22.42h-29.43l12.61 6.08 29.9 27.09-3.27 22.89-8.41 15.41 12.14-7.59 17.75-11.09 15.89-2.34 9.34-7.47z"/>
    <path fill="#222348" d="M307.03 208.304v35.04h20.73l-6.76 41.07v31.92l4.87 5.38-8.66 10.93-39.19 4.59-22.98 44.02h-6.79l1.51-16.96 10.93-17.71-13.57-4.9v-22.98l-17.87-23.36 20.14-2.64-12.06-8.67-15.25-6.78-12.04-18.88 7.32 43.75 17.69 8.66-3.37 11.31-12.06-15.45 5.27 19.97 7.92 5.65 7.53 21.1-.75 34.29 15.82 8.22 14.7 55.46-4.15 27.88 24.12 7.16-18.29-86.22-2.1.43v-21.35l20.03-7.93 8.84-8.68 6.54-21.06h12.95v1.46l25.91-5.11 13.94 9.05 11.3 26-5.27 39.56-5.65 4.14-8.29-8.66-12.06 27.88-11.68 6.41 9.42 1.5 10.93-.37 8.29 10.17 4.89 20.35-29.76 8.29-52-54.64 56.52 83.65 41.53-27.64 41.38-15.28-4.45-78.09 10.09-41.77-10.93-45.59 14.69 6.22 2.27-8.1-21.11-16.96 11.69-21.85-33.54 4.52 11.3 39.56-3.01 49.74 9.8 9.8-6.41 24.86v41.45l-26.37 27.89-10.93-1.89 24.49-37.3-4.14-24.94 10.92-39.49-13.18-42.2-24.12-14.32 3.01 18.84-16.2-3.02-3.01-6.59 11.3-10.74-2.64-39.19 15.45 8.29-23.36-53.13-18.06-4.52v25.63z"/>
    <path fill="#fff" d="M305.1 341.564l-6.54 21.06-8.84 8.68-20.03 7.93v21.35l2.1-.43 7.23-1.47.19-9.52 21.71-12.19 17.13-21.51v-13.9zM165.37 293.484h-.11l2.35-13.21-31.42 28.82 11.45 1.72 3.23 7.34-8.81 10.28-5.87-17.03v24.37l1.12 2.11v.01l11.57 21.88 11.69 22.11 7.63-1.47-19.68-24.38 1.77-11.21 18.47-28.59 4.28-21.57-7.97.58zM125.91 353.104l-6.75-8.28-1.18 8.28z"/>
    <path fill="#fff" d="M101.83 333.424l35.48 4.46-19.33-10.96zM105.06 344.824l-6.75 10.63 13.8 19.21 17.84 9.26 9.93 10.33-8.25 17.52 12.78-12.86-1.46-14.39-24.97-10.87zM115.5 295.974l-.04-.42.28-.04 10.17-19.35v17.91l25.55-20.72h-25.55v-19.51l-31.13 32.6v28.77l7.05 6.76zM46.33 371.074l4.4 39.58 28.49 25.26h8.81l16.74-9.69-28.78-25.64-17.03-11.36-1.47-20.27 17.03-5.57 6.61-14.42-23.64-1.44zM80.69 459.704l-5.14-21.44-7.19 5.58 7.19 16.15 11.6 19.67 19.67-25.84 2.65-13.51-22.32 7.35z"/>
    <path fill="#fff" d="M35.17 313.454l-16.15-7.63 2.35 49.92-11.16 8.81 9.1 27.16-.58 40.97 22.9 26.28 24.38 12.78-35.54-46.99 2.94-28.88-10.87-38.66zM66.01 122.284l-13.81-.88H40.71l-12 14.09 5.87 10.87 39.06-16.15zM382.64 174.234l34.16-25.41-3.63-28.82-17.51-19.01-10.89-3.63-21.99 11.96.85 11.32 10.68 1.7 11.74 15.59-4.05 7.26-25.62-2.14 25.62 30.11-34.81 21.57 17.3 29.03 23.27-10.03z"/>
    <path fill="#222348" d="M98.31 355.454l-12.22 13.58 5.64 9.66 23.06 17.18.68 14.07 15.82 2.55.34-.72 6.03-15.9-3.52-6.95-20.85-12.33z"/>
    <path fill="#222348" d="M98.31 355.454l14.98 21.14 20.85 12.33 3.52 6.95-6.03 15.9 8.25-17.52-9.93-10.33-17.84-9.26z"/>
    <path fill="#fff" d="M117.98 533.574l19.91 3.57 19.96 7.84v4.28l13.55 1.07 10.34-7.84-18.54-8.21-23.32-2.49-8.77-4.64-26.34-13.19 3.04-9.92 1.66-5.41-4.7-7.84 17.18-31.83-8.97 7.58-24.07 31.02 9.4 4.28v7.13l-5.35 32.8 11.81 15.69 1.99-21.67.46-5.07-2.45-9.98z"/>
    <path fill="#fff" d="M157.49 527.874v-16.63l7.85 2.01 3.21 8.56 7.48-5.35 13.91 4.99-8.2-23.53-11.41 16.75-3.57-6.46-38.5-18.13 14.26 13.96 3.92 10.28zM168.9 435.914l-17.47 43.75 12.13 2.93 18.18 9.98z"/>
    <path fill="#222348" d="M229.51 388.784l2.5 103.79 14.26-58.47zM218.46 549.974l-9.35 5.35-19.17-8.56 17.44 23.53 43.53-49.91-4.64 1.78-5.7 2.85h-6.78l-15.33 18.54zM174.07 272.204l-22.61 1.15-25.55 20.72-10.17 1.44-.24.46 2.48 30.95 18.21 8.85v-26.68l31.42-28.82-2.24 13.21-.3 1.76 7.97-.58-4.28 21.57-18.47 28.59 18.47-3.71 18.28-12.24-6.61-17.11 16.52-11.85-4.86-21.77-14.38 5.25 2.91-10.89z"/>
    <path fill="#222348" d="M115.74 295.514l-.28.04.04.42zM117.98 353.104v-10.38l7.21 8.63 5.61 5.74 2.39 8.68 1.77-7.29 9.45 2.64 3.06-1.35-10.16-21.88v-.01l-35.48-4.46 3.23 11.4 12.92 28.83 24.97 10.87 1.46 14.39-12.78 12.86 8.25 12.75 5.44 32.05 16.1-71.73-12.54-25.07-12.69 8.83-14.24-3.31zM137.31 337.884v.01-.01zM147.15 518.454l-9.83-1.64-29.51-12.77-3.04 9.92 30.56 12.68 23.77 3.07zM157.85 549.264v-4.28l-39.87-11.41-13.21-12.83 2.45 9.98-.46 5.07 29.74 19.31 25.8 4.3 9.1-9.07zM107.22 530.724l-.46 5.07zM255.5 229.514l-13.01 1-15.01-6.75.34 23.76-18.71-31.35 16.71-18.01 41.69 5.67 37.36 36.69-2-32.22-24.85-21.15-23.85 1.67-3.67-14.34 6.67-11.35 14.34 7.34 9.34-21.01 11.35 9 25.85 8.34-33.86-39.02-17.35 2.66 2.85 22.02v8.1l-9.52-8.43 4.34-20.35-2-10.38-7.34 2.04-1.67 7.34-14.01-9.38-16.01 8.38-30.35.33-17.35-6.67-13.01 5.67-12.67 4.77-17.49 14.24 11.8 16.68-1.32 6.31-3.21 15.37-21.9 16.01-6.91 4.34-23.02 36.69h18.02l41.36-40.69 41.36-4.67 18.59 15.34-20.92 32.02.66-20.34-13.05 6-16.3-4.67 1.33 6.67-17.68 6.67-15.51 13.99 1.17 17.3 20.64-8.61 23.39 2.34 14.34-7 6.34 15.48 17.32-17.82 20.4 3 11.98 5.67 28.2 1.34 20.5 7.81-2-19.51-15.34-14.99-15.35-5.34z"/>
    <path fill="#222348" d="M71.71 169.144l23.07 13.34-26.41 11.34-34.69-17.01-4.97 37.02 19.65 10.68 12.68-17.68 48.03-9.45 34.02-26.27-21.14-11.31-23.64 7.34zM28.71 135.494l11.45-14.09h.55l10.47-12.3-18.5-10.34-11.67 2-17.68 18.68L0 148.794l33.68 24.35 24.69-29.02-23.79 2.24z"/>
    <path fill="#222348" d="M40.16 121.404l-11.45 14.09 12-14.09z"/>
    <path fill="#fff" d="M264.48 273.354l23.35 22.42 10.28-1.4-7.92-21.02zM185.8 357.924l-19.21 8.4 20.39 17.6 20.4-12.85v-3.22l-18.78-11.2 18.78-43.02 1.11-54.55-20.14 71.85z"/>
    <path fill="#222348" d="M209.11 314.904l11.44 44.04-13.17 8.91v3.22l19.66 12.85 2.47-27.53zM245.28 608.424l-14.83-.81-1.67 1.32 9.11 9.71zM182.72 611.784l-2.58-2.13h-10.1l6.09 8.99zM304.29 525.484l-48.51 21.78-1.38 3.58h-11.85l-4.66 4.13 15.13 6.07 27.29-8.55 11.58 1.38-27.56 11.58h-23.71l-2.73 4.84-14.91-4.29v6.06h58.99l-3.59 3.86h-22.6l-6.06 2.48-11.83-1.1 5.76 9.65-34.54-13.79-52 17.37 6.26 9.25.17-.35 9.96-3.57 17.11 3.57h3.97l12.8-13.31 12.49 13.31h5.28l12.33-5.1 13.01 4.08 1.03 1.38 7.29-10.09 19.85 2.76 31.42-35-7.99-12.12 21.77-12.42 5.79-21.68-3.58-8.36h-8.55l-5.51 3.49z"/>
    <path fill="#fff" d="M237.48 594.334l-12.33 5.1h-34.54l-17.11-3.57-9.96 3.57-.17.35-4.68 9.87h21.45l2.58 2.13 12.23 10.13 9.19-2.81 8.18 2.81 16.46-12.98 1.67-1.32 14.83.81 13.27.72-7.03-9.35-1.03-1.38zM385.03 420.814l19.22-55.01-23.36 30.07z"/>
    <path fill="#222348" stroke="#fff" stroke-miterlimit="10" stroke-width="2" d="M91.84 7.104q-7.68 8.77-15.11 17.65-25.32 3.06-50.53 7.3l6.49 38.58q31.05-5.22 62.31-8.59-7.3 8.75-14.35 17.6-25.39 3.13-50.65 7.51-9.45-6.4-19.13-12.63l-7.23-38.13q7-9.55 14.26-19 36.83-6.38 73.94-10.29zM126.99 74.734q-8 .63-16 1.37l-1.47-15.65q8.1-.76 16.2-1.39zM240.11 50.534q-8.67 10.61-17 21.35-41.78-.58-83.53 2.18 7.46-8.43 15.17-16.75 27.81-1.41 55.65-1.36 2.61-2.92 5.25-5.83-2.63-3.21-5.29-6.41-28.19 0-56.37 1.39-8.67-10-17.65-19.94 7.84-11.43 16-22.75 44.57-2.25 89.21-.92-8.83 7.67-17.43 15.45-28.81-.41-57.61.69-2.65 3.13-5.26 6.28 2.89 3.09 5.74 6.19 28.59-1.09 57.21-.68 8.11 10.49 15.91 21.11zM264.49 73.054q-8-.43-16-.74l.6-15.71q8.12.31 16.24.75zM371.64 84.614q-10.77-1.7-21.57-3.18l2.36-17.21q-2.88-3.56-5.81-7.1-21.13-2.76-42.33-4.66l-2.12 23.55q-11.39 5.12-22.54 10.48l5.72-82.84q40.11 2.77 80 8.44 7.14 12.07 13.93 24.16-7.75 7.1-15.31 14.3 5.49 7 10.83 14zm-15.75-50.45q-2.44-4-4.93-8.07-21.9-2.86-43.87-4.84l-1.37 15.18q21.58 1.94 43.09 4.75 3.53-3.51 7.08-7.02zM403.21 89.854q-7.9-1.5-15.81-2.87l2.69-15.49q8 1.4 16.05 2.92z"/>
  </g>
</svg>
