<svg xmlns="http://www.w3.org/2000/svg" xmlns:xlink="http://www.w3.org/1999/xlink" viewBox="0 0 70.85 64.94"><defs><style>.cls-1{fill:none;}.cls-2{clip-path:url(#clip-path);}.cls-3,.cls-4{fill:#4d4d4d;}.cls-3{opacity:0.44;}</style><clipPath id="clip-path"><rect class="cls-1" y="0.14" width="70.8" height="64.86"/></clipPath></defs><title>groep</title><g id="Layer_2" data-name="Layer 2"><g id="Layer_1-2" data-name="Layer 1"><g class="cls-2"><path class="cls-3" d="M19.45,9.08a9.08,9.08,0,1,1,9.08,9.08,9.08,9.08,0,0,1-9.08-9.08Z"/><path class="cls-3" d="M32.89,24.35A9.85,9.85,0,0,1,34.76,19a11.64,11.64,0,0,0-2.38-.24h-7.7A11.64,11.64,0,0,0,22.3,19a9.8,9.8,0,0,1,1.88,5.73,10,10,0,0,1,8.71-.41Z"/><path class="cls-4" d="M34.43,25.17a10.36,10.36,0,0,1,4.83,7.7,8.36,8.36,0,1,0-4.83-7.7Z"/><path class="cls-4" d="M29,42.3a8.37,8.37,0,1,0-8.37-8.37A8.37,8.37,0,0,0,29,42.3Z"/><path class="cls-4" d="M32.5,42.87H25.4A10.73,10.73,0,0,0,14.68,53.59v8.68l0,.14.59.18a48.86,48.86,0,0,0,14.57,2.35c7.88,0,12.44-2.24,12.72-2.39l.56-.28h.06V53.59A10.72,10.72,0,0,0,32.5,42.87Z"/><path class="cls-4" d="M46.34,34.23h-7a10.36,10.36,0,0,1-3.18,7.19A12.73,12.73,0,0,1,45.21,53.6v2.68a29,29,0,0,0,11.23-2.36l.56-.29h.06V45A10.73,10.73,0,0,0,46.34,34.23Z"/><path class="cls-3" d="M48.23,16.75a10.32,10.32,0,0,1,4.82,7.7,8.36,8.36,0,1,0-4.82-7.7Z"/><path class="cls-3" d="M60.14,25.81h-7A10.28,10.28,0,0,1,49.91,33,12.73,12.73,0,0,1,59,45.18v2.67c7-.25,11-2.22,11.23-2.35l.56-.29h.06V36.53A10.72,10.72,0,0,0,60.14,25.81Z"/><path class="cls-3" d="M14.27,33.66a8.36,8.36,0,0,0,4.45-1.29,10.29,10.29,0,0,1,3.89-6.6c0-.16,0-.32,0-.48a8.37,8.37,0,1,0-8.36,8.37Z"/><path class="cls-3" d="M21.78,41.42a10.37,10.37,0,0,1-3.18-7.15c-.26,0-.52,0-.79,0h-7.1A10.72,10.72,0,0,0,0,45v8.68l0,.14.6.19a50,50,0,0,0,12.07,2.26V53.6a12.73,12.73,0,0,1,9.09-12.18Z"/></g></g></g></svg>