<svg xmlns="http://www.w3.org/2000/svg" xmlns:xlink="http://www.w3.org/1999/xlink" viewBox="0 0 76.5 71.26"><defs><style>.cls-1{fill:none;}.cls-2{fill:#4d4d4d;}.cls-3{clip-path:url(#clip-path);}</style><clipPath id="clip-path"><rect class="cls-1" x="0.01" width="76.58" height="71.28"/></clipPath></defs><title>invul</title><g id="Layer_2" data-name="Layer 2"><g id="Layer_1-2" data-name="Layer 1"><path class="cls-2" d="M74.83,40.27H70.66A1.67,1.67,0,0,0,69,41.94v1.25a1.67,1.67,0,0,1-1.66,1.67H66.07a1.67,1.67,0,0,0-1.66,1.67v4.16a1.67,1.67,0,0,0,1.66,1.67A10.43,10.43,0,0,0,76.5,41.94a1.67,1.67,0,0,0-1.67-1.67Z"/><path class="cls-2" d="M20.59,52.36h5.9a3.75,3.75,0,0,0,0-7.5h-5.9a3.75,3.75,0,0,0,0,7.5Z"/><g class="cls-3"><path class="cls-2" d="M55.9,52.36a3.75,3.75,0,1,0,0-7.5h-6a3.75,3.75,0,0,0,0,7.5Z"/><path class="cls-2" d="M10.42,52.36a1.67,1.67,0,0,0,1.67-1.67V46.53a1.67,1.67,0,0,0-1.67-1.67H9.17A1.67,1.67,0,0,1,7.5,43.19V41.94a1.67,1.67,0,0,0-1.66-1.67H1.67A1.67,1.67,0,0,0,0,41.94,10.42,10.42,0,0,0,10.42,52.36Z"/><path class="cls-2" d="M1.67,31H5.84A1.67,1.67,0,0,0,7.5,29.32V28.07A1.67,1.67,0,0,1,9.17,26.4h1.25a1.67,1.67,0,0,0,1.67-1.67V20.57a1.67,1.67,0,0,0-1.67-1.67A10.43,10.43,0,0,0,0,29.32,1.67,1.67,0,0,0,1.67,31Z"/></g><path class="cls-2" d="M16.84,22.65a3.74,3.74,0,0,0,3.75,3.75h5.9a3.75,3.75,0,1,0,0-7.5h-5.9a3.75,3.75,0,0,0-3.75,3.75Z"/><path class="cls-2" d="M55.9,18.9h-6a3.75,3.75,0,0,0,0,7.5h6a3.75,3.75,0,1,0,0-7.5Z"/><path class="cls-2" d="M66.07,18.9a1.67,1.67,0,0,0-1.66,1.67v4.16a1.67,1.67,0,0,0,1.66,1.67h1.26A1.67,1.67,0,0,1,69,28.07v1.25A1.67,1.67,0,0,0,70.66,31h4.17a1.68,1.68,0,0,0,1.67-1.67A10.42,10.42,0,0,0,66.07,18.9Z"/><path class="cls-2" d="M47.48,7.52a3.82,3.82,0,0,0,3.83-3.69A3.78,3.78,0,0,0,47.55,0a13,13,0,0,0-8.69,3.33l-.53.48-.52-.48A13,13,0,0,0,29.11,0a3.78,3.78,0,0,0-3.76,3.83,3.82,3.82,0,0,0,3.83,3.69,5.48,5.48,0,0,1,5.36,4.63v47a5.48,5.48,0,0,1-5.36,4.63,3.82,3.82,0,0,0-3.83,3.69,3.78,3.78,0,0,0,3.76,3.83,13,13,0,0,0,8.7-3.33l.52-.48.53.48a13,13,0,0,0,8.69,3.33,3.78,3.78,0,0,0,3.76-3.83,3.82,3.82,0,0,0-3.83-3.69,5.48,5.48,0,0,1-5.36-4.63v-47a5.48,5.48,0,0,1,5.36-4.63Z"/></g></g></svg>