<?xml version="1.0" encoding="UTF-8"?>
<svg id="Activiteiten" data-name="Laag 1" xmlns="http://www.w3.org/2000/svg" xmlns:xlink="http://www.w3.org/1999/xlink"
  viewBox="0 0 880 1200">
  <defs>
    <style>
      @font-face {
        font-family: constan;
        src: url("./images/dies2025/constan.ttf") format("truetype");
        font-weight: normal;
      }

      @font-face {
        font-family: gothic;
        src: url("./images/dies2025/gothic.ttf") format("truetype");
        font-weight: normal;
      }

      .cls-1 {
        opacity: .91;
      }

      .cls-1,
      .cls-2 {
        font-size: 11px;
        letter-spacing: .02em;
      }

      .cls-3 {
        fill: url(#Naamloos_verloop_40);
      }

      .cls-4 {
        stroke-width: .25px;
      }

      .cls-4,
      .cls-5,
      .cls-6,
      .cls-7,
      .cls-9,
      .cls-10,
      .cls-11 {
        fill: #f9b233;
      }

      .cls-4,
      .cls-12,
      .cls-13,
      .cls-6,
      .cls-14,
      .cls-15,
      .cls-11 {
        stroke-miterlimit: 10;
      }

      .cls-4,
      .cls-6,
      .cls-11 {
        stroke: #f9b233;
      }

      .cls-16 {
        font-size: 12px;
        letter-spacing: .02em;
      }

      .cls-16,
      .cls-2 {
        opacity: .9;
      }

      .cls-17 {
        letter-spacing: 0em;
      }

      .cls-18,
      .cls-19,
      .cls-20,
      .cls-9,
      .cls-21,
      .cls-10 {
        font-family: San;
        font-size: 98px;
      }

      .cls-18,
      .cls-19,
      .cls-20,
      .cls-21 {
        fill: #e94e1b;
      }

      .cls-18,
      .cls-10 {
        letter-spacing: .05em;
      }

      .cls-22 {
        letter-spacing: 0em;
      }

      .cls-5,
      .cls-23,
      .cls-7 {
        font-family: gothic, 'Century Gothic';
        font-weight: 700;
        color: white;
      }

      .cls-24 {
        letter-spacing: -.02em;
      }

      .cls-25 {
        font-family: constan;
        font-size: 82.7px;
      }

      .cls-25,
      .cls-23,
      .cls-26,
      .cls-27 {
        fill: #f6f6f6;
      }

      .cls-12,
      .cls-13,
      .cls-14,
      .cls-15 {
        stroke: #fff;
      }

      .cls-12,
      .cls-14 {
        fill: #fff;
        stroke-width: 9px;
      }

      .cls-19,
      .cls-9 {
        letter-spacing: .02em;
      }

      .cls-20 {
        letter-spacing: .02em;
      }

      .cls-13 {
        opacity: .39;
      }

      .cls-13,
      .cls-15 {
        fill: none;
        stroke-width: 6px;
      }

      .cls-26 {
        font-family: SourceSansItalic-Regular, 'Source Sans Variable';
        font-variation-settings: 'wght'400;
        letter-spacing: .03em;
      }

      .cls-26,
      .cls-28 {
        font-size: 18px;
      }

      .cls-6 {
        stroke-width: .08px;
      }

      .cls-7 {
        font-size: 24px;
        letter-spacing: .02em;
      }

      .cls-29 {
        letter-spacing: 0em;
      }

      .cls-30 {
        letter-spacing: -.01em;
      }

      .cls-31 {
        letter-spacing: 0em;
      }

      .cls-14 {
        opacity: .63;
      }

      .cls-32 {
        letter-spacing: -.01em;
      }

      .cls-27 {
        font-family: constan;
        font-size: 26.95px;
        font-style: italic;
      }

      .cls-33 {
        fill: #008d36;
      }

      .cls-21 {
        letter-spacing: .06em;
      }

      .cls-34 {
        fill: #003f2b;
      }

      .cls-35 {
        fill: #6280c0;
      }

      .cls-11 {
        stroke-width: .1px;
      }

      .cls-28 {
        letter-spacing: .02em;
      }

      .cls-36 {
        fill: #063;
      }

      .cls-37 {
        letter-spacing: -.02em;
      }
    </style>
  </defs>
  <rect height="100%" width="100%" fill="url(#blokken)" />
  <text class="cls-26" transform="translate(206.74 251.06) scale(.82 1)">
    <tspan x="0" y="0">18:00</tspan>
  </text>
  <text class="cls-26" transform="translate(206.74 292.55) scale(.82 1)">
    <tspan x="0" y="0">20:30</tspan>
  </text>
  <text class="cls-23" transform="translate(259.82 251.77) scale(.82 1)">
    <tspan class="cls-28">
      <tspan x="0" y="0">De spits afbijten </tspan>
    </tspan>
    <tspan class="cls-2">
      <tspan x="0" y="13">Openingsdiner</tspan>
    </tspan>
    <tspan class="cls-28">
      <tspan x="0" y="41">In kracht verenigd</tspan>
    </tspan>
    <tspan class="cls-2">
      <tspan x="0" y="54">LeO</tspan>
    </tspan>
  </text>
  <text class="cls-9" transform="translate(120.03 307.05) scale(.82 1)">
    <tspan x="0" y="0">11</tspan>
  </text>
  <text class="cls-7" transform="translate(105.51 225) scale(.82 1)">
    <tspan x="0" y="0">Di</tspan>
  </text>
  <text class="cls-19" transform="translate(124.83 307.05) scale(.82 1)">
    <tspan x="0" y="0">11</tspan>
  </text>
  <text class="cls-26" transform="translate(206.18 355.66) scale(.82 1)">
    <tspan x="0" y="0">15:00</tspan>
  </text>
  <text class="cls-26" transform="translate(205.55 395.77) scale(.82 1)">
    <tspan x="0" y="0">18:00</tspan>
  </text>
  <text class="cls-23" transform="translate(260 356.09) scale(.82 1)">
    <tspan class="cls-28">
      <tspan x="0" y="0">De kleedkamer</tspan>
    </tspan>
    <tspan class="cls-2">
      <tspan x="0" y="13">Gents passessie &amp; corsages klussen </tspan>
    </tspan>
    <tspan class="cls-28">
      <tspan x="0" y="41">De kantine </tspan>
    </tspan>
    <tspan class="cls-2">
      <tspan x="0" y="54">Maaltijd</tspan>
    </tspan>
    <tspan class="cls-28">
      <tspan x="0" y="82">Boksborrel</tspan>
    </tspan>
    <tspan class="cls-2">
      <tspan x="0" y="95">Sumoworstelen</tspan>
    </tspan>
  </text>
  <g>
    <text class="cls-9" transform="translate(119.84 433.93) scale(.82 1)">
      <tspan x="0" y="0">12</tspan>
    </text>
    <text class="cls-19" transform="translate(125.12 433.93) scale(.82 1)">
      <tspan x="0" y="0">12</tspan>
    </text>
  </g>
  <text class="cls-7" transform="translate(105.14 357.1) scale(.82 1)">
    <tspan x="0" y="0">Wo</tspan>
  </text>
  <text></text>
  <text class="cls-23" transform="translate(259.82 485.45) scale(.82 1)">
    <tspan class="cls-28" x="0" y="0">Mediatraining</tspan>
    <tspan class="cls-2" x="0" y="13">YER-training</tspan>
    <tspan class="cls-28" x="0" y="41">De warming up </tspan>
    <tspan class="cls-2" x="0" y="54">Verticalemoment</tspan>
    <tspan class="cls-28" x="0" y="82">Civitas in beweging </tspan>
    <tspan class="cls-16" x="0" y="95">Feest </tspan>
  </text>
  <text class="cls-23" transform="translate(260.01 614.32) scale(.82 1)">
    <tspan class="cls-28">
      <tspan x="0" y="0">Op naar de overwinning </tspan>
    </tspan>
    <tspan class="cls-2">
      <tspan x="0" y="13">Verticalestrijd </tspan>
    </tspan>
    <tspan class="cls-28">
      <tspan x="0" y="41">Vier de victorie</tspan>
    </tspan>
    <tspan class="cls-2">
      <tspan x="0" y="54">MiBo</tspan>
    </tspan>
    <tspan class="cls-28">
      <tspan x="0" y="82">En garde!</tspan>
    </tspan>
    <tspan class="cls-2">
      <tspan x="0" y="95">Sportclinic</tspan>
    </tspan>
  </text>
  <g>
    <text class="cls-9" transform="translate(120.22 692.69) scale(.82 1)">
      <tspan x="0" y="0">14</tspan>
    </text>
    <text class="cls-19" transform="translate(123.56 692.69) scale(.82 1)">
      <tspan x="0" y="0">14</tspan>
    </text>
  </g>
  <text class="cls-7" transform="translate(105.66 616) scale(.82 1)">
    <tspan x="0" y="0">Vr</tspan>
  </text>
  <text class="cls-7" transform="translate(105.66 490.08) scale(.82 1)">
    <tspan x="0" y="0">Do</tspan>
  </text>
  <text class="cls-9" transform="translate(119.92 818.15) scale(.82 1)">
    <tspan x="0" y="0">15</tspan>
  </text>
  <text class="cls-19" transform="translate(124.16 818.14) scale(.82 1)">
    <tspan x="0" y="0">15</tspan>
  </text>
  <text class="cls-7" transform="translate(106.49 742.92) scale(.82 1)">
    <tspan x="0" y="0">Za</tspan>
  </text>
  <text class="cls-26" transform="translate(206.18 766.89) scale(.82 1)">
    <tspan x="0" y="0">14:00</tspan>
  </text>
  <text class="cls-26" transform="translate(206.74 808.64) scale(.82 1)">
    <tspan x="0" y="0">20:30</tspan>
  </text>
  <text class="cls-23" transform="translate(259.82 767.25) scale(.82 1)">
    <tspan class="cls-28">
      <tspan x="0" y="0">Gejongleerd, oud gedaan </tspan>
    </tspan>
    <tspan class="cls-2">
      <tspan x="0" y="13">Ouderdag </tspan>
    </tspan>
    <tspan class="cls-28">
      <tspan x="0" y="41">Even ademhalen </tspan>
    </tspan>
    <tspan class="cls-1">
      <tspan x="0" y="54">Film</tspan>
    </tspan>
  </text>
  <text class="cls-26" transform="translate(206.74 486.21) scale(.82 1)">
    <tspan x="0" y="0">16:00</tspan>
  </text>
  <text class="cls-26" transform="translate(206.74 527.96) scale(.82 1)">
    <tspan x="0" y="0">20:00</tspan>
  </text>
  <g>
    <text class="cls-9" transform="translate(120.22 566.35) scale(.82 1)">
      <tspan x="0" y="0">13</tspan>
    </text>
    <text class="cls-19" transform="translate(124.22 566.35) scale(.82 1)">
      <tspan x="0" y="0">13</tspan>
    </text>
  </g>
  <text class="cls-26" transform="translate(206.18 615.19) scale(.82 1)">
    <tspan x="0" y="0">11:00</tspan>
  </text>
  <text class="cls-26" transform="translate(206.74 655.11) scale(.82 1)">
    <tspan x="0" y="0">17:00</tspan>
  </text <g>
  <text class="cls-10" transform="translate(491.28 303.78) scale(.82 1)">
    <tspan x="0" y="0">17</tspan>
  </text>
  <text class="cls-18" transform="translate(495 303.78) scale(.82 1)">
    <tspan x="0" y="0">17</tspan>
  </text>
  <text class="cls-7" transform="translate(472.73 225) scale(.82 1)">
    <tspan x="0" y="0">Ma</tspan>
  </text>
  <text class="cls-26" transform="translate(579.48 250.84) scale(.82 1)">
    <tspan x="0" y="0">18:00</tspan>
  </text>
  <text class="cls-26" transform="translate(579.48 292.96) scale(.82 1)">
    <tspan x="0" y="0">20:00</tspan>
  </text>
  <text class="cls-23" transform="translate(632.87 252.39) scale(.82 1)">
    <tspan class="cls-28">
      <tspan x="0" y="0">Straftraining </tspan>
    </tspan>
    <tspan class="cls-2">
      <tspan x="0" y="13">Van Speijk diner</tspan>
    </tspan>
    <tspan class="cls-28">
      <tspan x="0" y="41">De Marathon </tspan>
    </tspan>
    <tspan class="cls-2">
      <tspan x="0" y="54">Installatie H.V. </tspan>
    </tspan>
  </text>
  </g>
  <g>
    <text class="cls-9" transform="translate(491.62 432.98) scale(.82 1)">
      <tspan x="0" y="0">18</tspan>
    </text>
    <g>
      <text class="cls-26" transform="translate(579.82 393.24) scale(.82 1)">
        <tspan x="0" y="0">20:00</tspan>
      </text>
      <text class="cls-19" transform="translate(495.34 432.98) scale(.82 1)">
        <tspan x="0" y="0">18</tspan>
      </text>
      <text class="cls-7" transform="translate(473.43 354.85) scale(.82 1)">
        <tspan x="0" y="0">Di</tspan>
      </text>
      <text class="cls-23" transform="translate(633.21 392.71) scale(.82 1)">
        <tspan class="cls-28">
          <tspan x="0" y="0">Show down </tspan>
        </tspan>
        <tspan class="cls-2">
          <tspan x="0" y="13" xml:space="preserve">Op de planken </tspan>
        </tspan>
      </text>
    </g>
  </g>
  <g>
    <text class="cls-7" transform="translate(471.27 488.81) scale(.82 1)">
      <tspan x="0" y="0">Wo</tspan>
    </text>
    <text class="cls-26" transform="translate(577.95 511.35) scale(.82 1)">
      <tspan x="0" y="0">14:00</tspan>
    </text>
    <text class="cls-9" transform="translate(489.59 566.18) scale(.82 1)">
      <tspan x="0" y="0">19</tspan>
    </text>
    <text class="cls-19" transform="translate(494.46 566.18) scale(.82 1)">
      <tspan x="0" y="0">19</tspan>
    </text>
    <text class="cls-26" transform="translate(577.44 552.97) scale(.82 1)">
      <tspan x="0" y="0">20:00</tspan>
    </text>
    <text class="cls-23" transform="translate(632.82 511.26) scale(.82 1)">
      <tspan class="cls-28">
        <tspan x="0" y="0">Uitwedstrijd </tspan>
      </tspan>
      <tspan class="cls-2">
        <tspan x="0" y="13">Externe receptie </tspan>
      </tspan>
      <tspan class="cls-28">
        <tspan x="0" y="41">Thuiswedstrijd </tspan>
      </tspan>
      <tspan class="cls-2">
        <tspan x="0" y="54">Interne receptie</tspan>
      </tspan>
    </text>
  </g>
  <g>
    <text class="cls-9" transform="translate(490.74 692.85) scale(.82 1)">
      <tspan x="0" y="0">20</tspan>
    </text>
    <text class="cls-20" transform="translate(494.98 692.85) scale(.82 1)">
      <tspan x="0" y="0">20</tspan>
    </text>
  </g>
  <text class="cls-7" transform="translate(474.51 613.31) scale(.82 1)">
    <tspan x="0" y="0">Do</tspan>
  </text>
  <text class="cls-26" transform="translate(581.01 645.02) scale(.82 1)">
    <tspan x="0" y="0">18:30</tspan>
  </text>
  <text class="cls-26" transform="translate(581.01 687.02) scale(.82 1)">
    <tspan x="0" y="0">20:00</tspan>
  </text>
  <text class="cls-23" transform="translate(634.4 645.72) scale(.82 1)">
    <tspan class="cls-28">
      <tspan x="0" y="0">Teambespreking </tspan>
    </tspan>
    <tspan class="cls-2">
      <tspan x="0" y="13">Kringeten </tspan>
    </tspan>
    <tspan class="cls-28">
      <tspan x="0" y="41">Een podium geven </tspan>
    </tspan>
    <tspan class="cls-2">
      <tspan x="0" y="54">Kringlezing</tspan>
    </tspan>
  </text>
  <text />
  <text class="cls-10" transform="translate(489.3 819.99) scale(.82 1)">
    <tspan x="0" y="0">21</tspan>
  </text>
  <text class="cls-21" transform="translate(493.78 819.99) scale(.82 1)">
    <tspan x="0" y="0">21</tspan>
  </text>
  <text class="cls-7" transform="translate(474.29 740.44) scale(.82 1)">
    <tspan x="0" y="0">Vr</tspan>
  </text>
  <text class="cls-26" transform="translate(579.48 780.04) scale(.82 1)">
    <tspan x="0" y="0">15:00</tspan>
  </text>
  <text class="cls-23" transform="translate(634.4 780.73) scale(.82 1)">
    <tspan class="cls-28">
      <tspan x="0" y="0">De Finish </tspan>
    </tspan>
    <tspan class="cls-2">
      <tspan x="0" y="13">Gala</tspan>
    </tspan>
  </text>
  <text class="cls-25" transform="translate(108.76 140.63) scale(.92 1)">
    <tspan x="0" y="0">Progrαmmα</tspan>
  </text>
  <text class="cls-27" transform="translate(225.27 78.77) scale(.9 1)">
    <tspan class="cls-29" x="0" y="0">63e Dies Natalis der C.S.R. Delft</tspan>
  </text>
  <text class="cls-26" transform="translate(206.18 437.57) scale(.82 1)">
    <tspan x="0" y="0">21:00</tspan>
  </text>
  <text class="cls-26" transform="translate(206.74 567.22) scale(.82 1)">
    <tspan x="0" y="0">22:00</tspan>
  </text>
  <g>
    <text class="cls-26" transform="translate(209.41 897.41) scale(.82 1)">
      <tspan x="0" y="0">10:00</tspan>
    </text>
    <text class="cls-26" transform="translate(209.41 937.49) scale(.82 1)">
      <tspan x="0" y="0">15:00</tspan>
    </text>
    <text class="cls-9" transform="translate(121.21 950.25) scale(.82 1)">
      <tspan x="0" y="0">16</tspan>
    </text>
    <text class="cls-19" transform="translate(125.45 950.25) scale(.82 1)">
      <tspan x="0" y="0">16</tspan>
    </text>
    <text class="cls-23" transform="translate(262.53 896.74) scale(.82 1)">
      <tspan class="cls-28">
        <tspan x="0" y="0">Zegeviering </tspan>
      </tspan>
      <tspan class="cls-2">
        <tspan x="0" y="13">Kerkplan</tspan>
      </tspan>
      <tspan class="cls-28">
        <tspan x="0" y="41">Denksport </tspan>
      </tspan>
      <tspan class="cls-2">
        <tspan x="0" y="52" xml:space="preserve">Bordspellen </tspan>
      </tspan>
    </text>
    <text class="cls-7" transform="translate(106.74 871.46) scale(.82 1)">
      <tspan x="0" y="0">Zo</tspan>
    </text>
  </g>
  <text class="cls-26" transform="translate(206.74 695.92) scale(.82 1)">
    <tspan x="0" y="0">20:00</tspan>
  </text>
  <text class="cls-5" transform="translate(634.4 894.62) scale(.82 1)">
    <tspan class="cls-28">
      <tspan x="0" y="0">De derde helft </tspan>
    </tspan>
    <tspan class="cls-2">
      <tspan x="0" y="13">Borrel</tspan>
    </tspan>
    <tspan class="cls-28">
      <tspan x="0" y="42">Het duel </tspan>
    </tspan>
    <tspan class="cls-2">
      <tspan x="0" y="55">Debatteertoernooi</tspan>
    </tspan>
  </text>
  <g>
    <path class="cls-6"
      d="m428.05,446.03c-.59.5-1.25.53-1.92.48-.71-.05-1.29-.42-1.84-.79-.95-.63-1.86-1.31-2.79-1.97-.57-.41-.58-1.1-.19-1.67.51-.75.91-1.56,1.1-2.46.19-.87.54-1.71.81-2.56.13-.4.23-.82.34-1.22.24-.88.39-1.79.73-2.62.39-.96.77-1.96,1.51-2.74.33-.35.73-.63,1.15-.98,0-.71.61-1.12,1.1-1.61.05-.05.12-.06.17-.11,1.15-1.22,2.55-1.34,3.98-1.28.74.03,1.35.4,1.94.79.26.18.52.37.78.55.15.11.31.22.46.33.34.24.37.25.69.52.05.05.12.1.18.17.2.21.41.42.6.64.47.56.98,1.09,1.36,1.71.42.69.73,1.46,1.03,2.22.22.57.2,1.2.03,1.83-.07.26-.17.51-.26.77-.21.32-.43.63-.64.95-.72.71-1.55,1.21-2.49,1.49-.02,0-.03.01-.05.02-.37.08-.78.08-1.09.27-.33.19-.66.39-1,.55-.35.17-.7.33-1.06.48-.43.18-.77.48-1.07.86-.49.52-.72.92-1.01,1.47-.09.18-.16.31-.25.45-.77,1.16-1.53,2.32-2.3,3.47Zm-6.23-2.8s.06.04.08.06c1.1.69,2.05,1.58,3.2,2.2.57.31,1.15.5,1.82.41.27-.04.56-.08.76-.33.03-.03.05-.06.08-.09.23-.35.46-.69.69-1.04.03-.05.04-.05.05-.08.32-.51.66-1,.98-1.5.22-.39.45-.74.68-1.13.06-.09.07-.12.11-.19.04-.06.06-.09.11-.18.21-.32.38-.68.63-.96.58-.65,1.27-1.15,2.08-1.42.13-.04.25-.12.38-.19-.05-.04-.07-.07-.09-.08-.2-.06-.4-.1-.59-.18-.99-.41-2.05-.73-2.54-1.83-.26-.02-.5-.02-.73-.06-.57-.09-.99-.46-1.43-.79-.54-.41-.92-.94-.98-1.69.1-.21.24-.22.39-.09,0,.05.01.1.02.15,0,.04.02.09.03.13.09.18.14.4.28.53.41.36.83.72,1.3,1.01.72.44,2,.22,2.5-.58.05-.06.11-.13.16-.19.07-.1.14-.2.2-.3.02-.05.03-.09.05-.14.11-.33.07-.64-.1-.91-.32-.52-.64-1.04-1.01-1.52-.37-.49-.77-.95-1.21-1.37-.32-.3-.72-.49-1.09-.73,0-.01-.01-.04-.02-.04-.03,0-.06,0-.09,0-.65-.23-1.27-.14-1.83.38-.11.1-.22.21-.33.32-.4.33-.66.75-.81,1.23-.31.72-.65,1.44-.91,2.18-.22.63-.32,1.3-.51,1.95-.24.83-.52,1.66-.78,2.48-.28.9-.46,1.5-.76,2.33-.01.04-.26.54-.22.46-.22.33-.39.67-.6,1.01-.07.11-.09.25-.13.37-.03.12-.03.18,0,.24s.05.09.13.14m5.82-13.91c.88.01,1.67.26,2.31.84.67.61,1.3,1.27,1.82,2.02.16.23.32.46.47.7.36.56.67,1.14.46,1.89-.23.35-.46.7-.68,1.05-.28.41-.71.59-1.12.79.31.52.79.72,1.22.98.58.35,1.19.61,1.88.63.69.02,1.38.11,2.03-.35.08-.06.19-.07.28-.11.66-.25,1.26-.67,1.68-1.21.8-1,1.01-2.16.58-3.33-.24-.65-.58-1.24-1-1.8-.64-.83-1.29-1.64-2.08-2.31-.66-.56-1.39-1.05-2.12-1.52-.31-.2-.67-.35-1.04-.4-.49-.07-1.01-.11-1.5,0-.74.17-1.53.25-2.11.97-.22.27-.53.46-.8.69-.17.11-.37.2-.29.46Z" />
    <path class="cls-6"
      d="m446.32,418.75c.2.68.43,1.35.4,2.1-.04,1.15-.16,2.29-.68,3.38-.19.4-.34.81-.51,1.22-.44.67-.88,1.34-1.32,2.01-.02.03-.04.06-.07.09-.19.2-.33.33-.48.73-.21.42-.18.36-.29.51-.76,1.03-1.63,1.5-2.84,1.41-.8-.06-1.57-.23-2.32-.46-.48-.15-.91-.43-1.35-.66l-1.78-1.22c-.25-.22-.5-.43-.75-.65-.85-.82-1.55-1.74-1.93-2.92-.27-.83-.25-1.66.06-2.53.2-.56.35-1.12.53-1.68.03-.1.11-.25.17-.33.44-.62.88-1.26,1.34-1.86.21-.28.49-.52.75-.75.97-.83,1.98-1.62,3.03-2.34,1.04-.72,2.09-1.46,2.93-2.46l.35-.49c.28-.45.57-.89.84-1.34.12-.2.26-.24.46-.21.91.15,1.78.4,2.57.85.64.36,1.26.74,1.89,1.13.18.11.34.28.5.42.18.16.39.3.54.49.22.28.42.58.57.9.06.13.03.37-.04.52-.27.64-.6,1.26-.89,1.89l-.22.39c-.15.22-.3.44-.45.66l-.47.56-.09.09c-.05.03-.1.07-.15.1l-.03.02s-.06.04-.09.05h-.03c-.26.04-.32-.19-.13-.42l.18-.22c.35-.4.36-.38.7-.96.14-.27.29-.54.42-.82.21-.44.4-.9.63-1.33.12-.22.11-.38-.02-.55-.11-.15-.22-.31-.35-.43-1.01-.92-2.1-1.73-3.4-2.21-.55-.2-1.12-.36-1.68-.54-.4.61-.64.98-1.05,1.6l-.67.85c-.25.26-.5.53-.78.75-.62.49-1.29.89-1.91,1.36-.84.63-1.68,1.27-2.49,1.95-.5.42-1.04.82-1.37,1.42-.44.38-.73.85-.92,1.39-.23.64-.48,1.28-.68,1.93-.16.54-.2,1.09-.06,1.63.23.86.64,1.63,1.19,2.28.61.72,1.26,1.42,2.09,1.88.76.43,1.49.93,2.3,1.24.76.29,1.59.47,2.44.47.85,0,1.75-.56,2.15-1.37-.2,0-.39.02-.58.03-.73.02-1.29-.29-1.6-.93-.48-.98-.31-2.04.21-3.01.43-.8.88-1.63,1.71-2.13.14-.08.23-.11.34-.02l.04.06.03.09c0,.13-.07.25-.18.34-.74.63-1.24,1.44-1.59,2.31-.28.71-.37,1.45.03,2.12t.06.11c.27.39.6.38.97.39.58,0,1.06-.3,1.4-.77.4-.57.79-1.16,1.07-1.79.44-.97.87-1.95,1-3.02.31-2.54-.51-4.48-2.39-5.89-.46-.35-.94-.68-1.41-1.01l.22-.33c.55.33,1.1.66,1.64,1,.26.17.51.37.74.57.55.49.92,1.12,1.28,1.77l.26.61Z" />
  </g>
  <text />
  <g>
    <path class="cls-6"
      d="m428.88,704.39c-.55.47-1.17.5-1.8.45-.67-.05-1.21-.39-1.73-.74-.89-.59-1.75-1.23-2.62-1.85-.54-.38-.54-1.03-.18-1.57.48-.71.85-1.46,1.04-2.32.18-.81.51-1.6.76-2.41.12-.38.22-.77.32-1.15.22-.82.36-1.68.68-2.47.37-.9.72-1.84,1.42-2.58.31-.33.69-.59,1.08-.92,0-.66.57-1.06,1.04-1.52.04-.04.12-.06.16-.1,1.08-1.15,2.39-1.26,3.74-1.2.7.03,1.26.38,1.82.74.25.17.49.35.74.52.14.11.29.21.43.31.32.23.35.23.65.49.05.05.12.1.17.16.19.2.39.39.56.6.44.53.93,1.02,1.28,1.61.39.65.68,1.37.96,2.09.21.54.19,1.13.03,1.72-.07.24-.16.48-.24.72-.2.3-.4.6-.6.89-.68.67-1.46,1.13-2.34,1.4-.01,0-.03.01-.04.02-.35.08-.73.08-1.03.25-.31.18-.62.36-.94.52-.33.16-.66.31-.99.45-.4.17-.73.45-1,.8-.46.49-.67.86-.95,1.38-.09.17-.15.29-.24.42-.72,1.09-1.44,2.18-2.16,3.26Zm-5.85-2.63s.06.04.08.05c1.03.65,1.93,1.49,3.01,2.07.54.29,1.08.47,1.71.38.26-.03.52-.08.72-.31.02-.03.05-.05.07-.08.22-.32.43-.65.65-.97.03-.04.03-.05.05-.07.3-.48.62-.94.92-1.41.21-.36.43-.7.64-1.06.05-.09.06-.11.11-.18.04-.06.06-.09.1-.17.2-.3.36-.64.59-.9.55-.61,1.19-1.08,1.96-1.34.12-.04.23-.11.36-.18-.04-.04-.06-.07-.09-.08-.19-.06-.38-.09-.56-.17-.93-.38-1.92-.69-2.39-1.72-.24-.02-.47-.02-.69-.05-.54-.08-.93-.43-1.35-.74-.51-.39-.86-.89-.92-1.58.1-.2.22-.21.36-.09,0,.05.01.09.02.14,0,.04.02.08.03.12.09.17.13.38.26.49.39.34.78.68,1.22.95.67.41,1.88.21,2.35-.55.05-.06.1-.12.15-.18.06-.09.13-.19.19-.28.02-.04.03-.09.05-.13.1-.31.06-.6-.1-.85-.3-.48-.6-.98-.94-1.43-.35-.46-.72-.9-1.14-1.28-.3-.28-.68-.46-1.03-.69,0-.01-.01-.04-.02-.04-.03,0-.06,0-.08,0-.61-.22-1.19-.13-1.72.36-.11.1-.21.2-.31.3-.37.31-.62.7-.76,1.16-.29.68-.61,1.35-.85,2.05-.21.6-.3,1.22-.48,1.83-.23.78-.49,1.56-.73,2.33-.26.84-.43,1.41-.72,2.19-.01.04-.25.51-.21.44-.21.31-.37.63-.56.95-.06.1-.08.23-.12.35-.02.11-.03.16,0,.23s.05.08.12.13m5.47-13.07c.83.01,1.57.24,2.17.79.63.57,1.22,1.19,1.71,1.9.15.22.3.43.44.65.34.53.63,1.07.43,1.78-.21.33-.43.66-.64.99-.26.39-.67.56-1.05.74.3.49.74.67,1.15.92.54.33,1.12.57,1.77.59.64.02,1.3.1,1.91-.33.08-.05.18-.07.26-.1.62-.23,1.18-.63,1.58-1.13.75-.94.95-2.03.54-3.13-.23-.62-.54-1.17-.94-1.69-.6-.78-1.21-1.54-1.95-2.17-.62-.53-1.31-.98-1.99-1.43-.29-.19-.63-.33-.97-.37-.46-.06-.95-.1-1.41,0-.69.16-1.44.24-1.98.91-.2.25-.5.43-.75.65-.16.1-.34.19-.27.43Z" />
    <path class="cls-6"
      d="m446.05,678.75c.18.64.41,1.27.38,1.97-.04,1.08-.15,2.15-.64,3.18-.18.37-.32.77-.48,1.15-.41.63-.83,1.26-1.24,1.88-.02.03-.04.06-.06.08-.18.19-.31.31-.45.69-.2.4-.17.34-.27.48-.72.96-1.53,1.41-2.66,1.32-.75-.05-1.48-.22-2.18-.43-.45-.14-.85-.4-1.27-.62l-1.68-1.14c-.24-.2-.47-.41-.71-.61-.8-.77-1.46-1.64-1.81-2.75-.25-.78-.24-1.56.06-2.38.19-.52.33-1.06.5-1.58.03-.09.1-.23.16-.31.42-.59.82-1.18,1.26-1.75.2-.26.46-.49.71-.7.92-.78,1.86-1.52,2.85-2.2.98-.68,1.96-1.37,2.75-2.31l.33-.46c.26-.42.54-.83.79-1.26.11-.18.25-.23.43-.2.85.14,1.67.38,2.42.8.6.34,1.19.7,1.77,1.06.17.11.32.26.47.4.17.15.37.28.51.46.2.26.39.55.54.85.06.13.03.34-.04.49-.26.6-.56,1.18-.84,1.77l-.21.37c-.14.21-.28.41-.42.62l-.45.53-.09.08s-.1.06-.14.1l-.03.02s-.05.04-.09.04h-.02c-.25.04-.3-.17-.12-.4l.17-.21c.33-.38.34-.35.66-.9.13-.26.27-.51.4-.77.2-.42.37-.85.59-1.25.11-.21.1-.36-.02-.51-.11-.14-.2-.29-.33-.4-.95-.86-1.97-1.63-3.2-2.08-.52-.19-1.05-.34-1.58-.51-.38.58-.6.92-.99,1.5l-.63.8c-.23.25-.47.5-.73.7-.58.46-1.21.84-1.8,1.28-.79.59-1.58,1.19-2.34,1.83-.47.4-.98.77-1.29,1.34-.41.35-.69.8-.86,1.31-.21.6-.45,1.2-.64,1.81-.15.51-.19,1.03-.05,1.53.21.81.6,1.53,1.12,2.14.57.68,1.18,1.33,1.96,1.77.71.4,1.4.88,2.16,1.17.72.27,1.49.44,2.3.44.79,0,1.64-.53,2.02-1.29-.19,0-.37.02-.54.02-.68.02-1.21-.27-1.5-.88-.45-.92-.29-1.92.2-2.83.4-.75.83-1.53,1.61-2,.13-.08.22-.11.32-.01l.04.06.02.09c0,.12-.07.24-.17.32-.69.59-1.17,1.35-1.49,2.17-.26.67-.35,1.36.03,1.99t.06.11c.26.36.56.36.91.36.55,0,1-.28,1.32-.72.38-.53.74-1.09,1.01-1.69.41-.91.81-1.83.94-2.84.29-2.38-.48-4.21-2.25-5.54-.43-.33-.88-.64-1.33-.95l.2-.31c.51.31,1.03.62,1.54.94.25.16.48.34.69.54.52.46.87,1.05,1.2,1.66l.24.58Z" />
  </g>
  <g>
    <path class="cls-4"
      d="m404.43,439.76s-.16-.12-.18-.15c-.32-.22-.49-.28-.78-.53-.3-.17-.61-.4-.91-.57-.47-.36-.95-.71-1.42-1.07-.45-.3-.72-.73-.91-1.22-.18-.5-.19-1,.09-1.45.65-1.04,1.3-2.07,1.97-3.1.16-.25.24-.46.18-.78-.15-.71.17-1.19,1-1.58-.26-.6-.04-1.12.31-1.63.33-.48.72-.88,1.36-.95-.11-.59-.26-1.16.1-1.7.37-.57.98-.57,1.61-.65-.23-.5-.11-.93.15-1.34.34-.51.7-1,1.34-1.14.29-.06.44-.22.6-.46.43-.64.87-1.28,1.36-1.86.25-.29.62-.49.96-.67.9-.48,1.78-.98,2.42-1.82.35-.47.8-.86,1.16-1.32.31-.39.64-.76.98-1.12.44-.47.82-.99,1.23-1.48.3-.35.61-.69.93-1.03.39-.41.88-1,1.27-1.41.1.06.2.2.29.26-.31.36-.72.83-1.03,1.19-.6.69-1.22,1.37-1.82,2.05-.02,0-.06.06-.07.09-.38.45-.74.91-1.15,1.33-.49.51-.94,1.05-1.37,1.6-.52.67-1.15,1.18-1.88,1.59-.5.28-1.01.53-1.51.8-.08.04-.13.08-.19.16-.46.62-.9,1.26-1.35,1.88-.02.05-.07.09-.09.14l.03.02c.13.06.26.12.4.18l.33.19c.18.12.35.25.53.37.27.26.54.53.81.79.53.53,1.05,1.06,1.59,1.58.64.62,1.28,1.23,1.71,2.02.18.33.4.64.63.99.61-1.05,1.21-2.04,1.77-3.05.26-.46.49-.95.52-1.5l-.03-.54c.14-.26.29-.66.44-.92l-.04.2c.02.53.09.71.07,1.06-.05.87-.38,1.64-.85,2.37-.35.55-.65,1.14-.99,1.69-.11.18-.13.34,0,.5.23.28.44.58.7.83.37.36.59.77.56,1.29-.03.54-.07,1.07-.09,1.61-.07,1.82.07,3.62.38,5.41.1.55.39.99.71,1.42.15.2.14.2-.06.46-.1-.08-.22-.14-.29-.24-.4-.55-.7-1.13-.8-1.82-.25-1.7-.41-3.4-.36-5.11.01-.38.06-.76.1-1.19-.69.13-1.03-.28-1.25-.76-.5-1.09-1.2-2.05-1.86-3.03-.34-.5-.81-.92-1.23-1.37-.31-.33-.65-.63-.97-.95-.44-.45-.88-.9-1.32-1.35q-.5-.39-.86-.56c-.66-.32-1.31-.15-1.74.45-.12.16-.23.33-.34.5-.24.39-.23.72.05,1.06.15.17.31.35.49.48,1.08.73,1.88,1.72,2.64,2.76.07.09.17.15.23.25.04.07.02.17.03.35-.2-.12-.35-.17-.44-.27-.22-.26-.42-.54-.62-.81-.64-.87-1.37-1.64-2.31-2.2-.15-.09-.41-.17-.58-.19-.47-.04-.92.06-1.19.47-.22.33-.23.76-.08,1.12.19.46.46.85.82,1.18.51.49,1,1,1.51,1.51l.04.04.56.37s.08.04.12.05c.1.05.2.1.32.15-.05.24-.22.26-.39.26l-.72-.3c-.8-.84-1.59-1.68-2.41-2.55-.68.06-1.5.82-1.57,1.53-.02.2.04.45.15.61.37.53.75,1.05,1.27,1.45.32.25.63.52.96.77.24.18.23.34-.02.54-.1-.01-.16-.05-.27-.14-1-.9-1.55-1.29-2.14-2.17-.7.09-1.09.66-.82,1.28.18.43.43.83.7,1.21.62.85,1.45,1.51,2.18,2.27.8.83,1.42,1.77,1.95,2.79.3.58.64,1.13.98,1.69.2.32.42.63.62.95.33.53.74.97,1.29,1.27.27.17.54.34.82.51.49.43.75,1.01,1.04,1.58.41.81.87,1.61,1.31,2.42-.2.23-.38.25-.54-.02-.43-.74-.84-1.48-1.23-2.24-.25-.49-.46-1-.85-1.41-.3-.28-.39-.3-.68-.45-.64-.3-1.09-.82-1.48-1.39-.2-.29-.38-.59-.6-.93-.19.29-.35.55-.53.8-.48.63-1.16.84-1.91.58-.14-.05-.29-.09-.43-.14-.37-.24-.73-.49-1.1-.73Zm12.24-9.44s.06.06.09.09c.02-.05.04-.11.07-.16.01-.08.02-.17.03-.25.05-.35-.02-.63-.33-.88-.28-.23-.48-.56-.71-.84-.09-.11-.05-.1-.24-.29-.13.2-.23.28-.19.36.36.7.69,1.41,1.27,1.97Zm-14.66,7.28c.45.32.9.65,1.35.96.61.42,1.24.8,1.84,1.23.33.24.71.37,1.09.46.39.1.79.03,1.05-.31.28-.36.5-.75.74-1.11-.16-.31-.31-.59-.46-.88-.44-.88-.77-1.8-1.54-2.5-.57-.51-1.02-1.15-1.55-1.7-.61-.63-1.3-1.18-1.71-1.98-.03-.02-.06-.05-.1-.07-.11.12-.18.25-.26.4-.47.85-.64,1.35-1.13,2.06-.68,1-1.02,1.34-.73,2.01.19.44.48.8.89,1.04.17.12.34.24.51.37Z" />
    <path class="cls-4"
      d="m419.41,411.08l-.28-.2.12-.26c.03-.07.05-.15.08-.22.02-.05.06-.1.04-.14-.12-.4.03-.61.37-.77s.61-.51.68-.9.1-.44.5-.38c.13.02.26.07.39.12l.18.09c.46.31.93.61,1.39.92l.31.24c.13.13.27.25.39.39.36.42.36.68-.07.99-.21.15-.25.31-.26.53-.02.44-.21.79-.63.99-.11.05-.2.18-.25.29-.26.56-.51,1.12-.77,1.68-.05.09-.08.19-.2.42-.03.06-.04.08-.07.14-.89,1.62-1.69,3.3-2.79,4.8-.1-.06-.2-.12-.31-.17.11-.2.23-.41.35-.61.5-.87,1.02-1.73,1.51-2.6.34-.6.65-1.21.97-1.82.01-.02.02-.04.02-.05,0-.03.02-.04.03-.07.05-.11.08-.18.1-.24.26-.54.45-1.04.71-1.59.16-.33.35-.61.72-.66.16-.38.09-.78.33-1.11.12-.18.48-.24.37-.52-.07-.19-.28-.34-.43-.5l-.08-.07c-.34-.23-.07-.05-.47-.31l-1.09-.72-.18-.08-.09-.03c-.08-.02-.15.03-.17.11-.13.62-.56.95-1.01,1.29.08.43-.11.75-.4,1.04Z" />
    <path class="cls-4"
      d="m418.25,419.61c.1.06.2.12.31.17-.19.47-.4.94-.57,1.42-.1.3-.15.61-.23.92.06-.27-.32.67-.4.71-.12-.98.33-2.43.89-3.23Z" />
    <path class="cls-4"
      d="m410.1,431.75c-.33.24-.62.45-.91.67-.27-.19-.32-.29-.14-.43.25-.2.52-.41.88-.38.04,0,.07.06.17.14Z" />
    <path class="cls-4" d="m407.56,433.85c-.19.28-.35.53-.51.78-.31-.16-.34-.24-.18-.51.21-.36.4-.44.69-.27Z" />
    <path class="cls-4"
      d="m414.08,428.47c-.26.12-.52.25-.81.39-.13-.04-.12-.17-.05-.3.14-.24.37-.34.63-.34.14,0,.27.06.22.25Z" />
    <path class="cls-4" d="m411.8,429.98c.02.45-.49.36-.59.65-.22-.1-.19-.22-.11-.35.13-.21.35-.31.7-.3Z" />
    <path class="cls-4" d="m401.11,437.4c.43.32.86.65,1.29.97-.43-.32-.86-.65-1.29-.97Z" />
    <path class="cls-4" d="m408.51,429.51s-.08-.04-.12-.05c.04.02.08.04.12.05Z" />
    <path class="cls-4" d="m407.84,429.09s-.06-.06-.1-.09c.03.03.06.06.1.09Z" />
    <path class="cls-4" d="m417.38,423.39s0-.09,0-.13c0,.04,0,.09,0,.13Z" />
  </g>
  <g>
    <path class="cls-6"
      d="m429.04,306.86c-.55.47-1.17.5-1.8.45-.67-.05-1.21-.39-1.73-.74-.89-.59-1.75-1.23-2.62-1.85-.54-.38-.54-1.03-.18-1.57.48-.71.85-1.46,1.04-2.32.18-.81.51-1.6.76-2.41.12-.38.22-.77.32-1.15.22-.82.36-1.68.68-2.47.37-.9.72-1.84,1.42-2.58.31-.33.69-.59,1.08-.92,0-.66.57-1.06,1.04-1.52.04-.04.12-.06.16-.1,1.08-1.15,2.39-1.26,3.74-1.2.7.03,1.26.38,1.82.74.25.17.49.35.74.52.14.11.29.21.43.31.32.23.35.23.65.49.05.05.12.1.17.16.19.2.39.39.56.6.44.53.93,1.02,1.28,1.61.39.65.68,1.37.96,2.09.21.54.19,1.13.03,1.72-.07.24-.16.48-.24.72-.2.3-.4.6-.6.89-.68.67-1.46,1.13-2.34,1.4-.01,0-.03.01-.04.02-.35.08-.73.08-1.03.25-.31.18-.62.36-.94.52-.33.16-.66.31-.99.45-.4.17-.73.45-1,.8-.46.49-.67.86-.95,1.38-.09.17-.15.29-.24.42-.72,1.09-1.44,2.18-2.16,3.26Zm-5.85-2.63s.06.04.08.05c1.03.65,1.93,1.49,3.01,2.07.54.29,1.08.47,1.71.38.26-.03.52-.08.72-.31.02-.03.05-.05.07-.08.22-.32.43-.65.65-.97.03-.04.03-.05.05-.07.3-.48.62-.94.92-1.41.21-.36.43-.7.64-1.06.05-.09.06-.11.11-.18.04-.06.06-.09.1-.17.2-.3.36-.64.59-.9.55-.61,1.19-1.08,1.96-1.34.12-.04.23-.11.36-.18-.04-.04-.06-.07-.09-.08-.19-.06-.38-.09-.56-.17-.93-.38-1.92-.69-2.39-1.72-.24-.02-.47-.02-.69-.05-.54-.08-.93-.43-1.35-.74-.51-.39-.86-.89-.92-1.58.1-.2.22-.21.36-.09,0,.05.01.09.02.14,0,.04.02.08.03.12.09.17.13.38.26.49.39.34.78.68,1.22.95.67.41,1.88.21,2.35-.55.05-.06.1-.12.15-.18.06-.09.13-.19.19-.28.02-.04.03-.09.05-.13.1-.31.06-.6-.1-.85-.3-.48-.6-.98-.94-1.43-.35-.46-.72-.9-1.14-1.28-.3-.28-.68-.46-1.03-.69,0-.01-.01-.04-.02-.04-.03,0-.06,0-.08,0-.61-.22-1.19-.13-1.72.36-.11.1-.21.2-.31.3-.37.31-.62.7-.76,1.16-.29.68-.61,1.35-.85,2.05-.21.6-.3,1.22-.48,1.83-.23.78-.49,1.56-.73,2.33-.26.84-.43,1.41-.72,2.19-.01.04-.25.51-.21.44-.21.31-.37.63-.56.95-.06.1-.08.23-.12.35-.02.11-.03.16,0,.23s.05.08.12.13m5.47-13.07c.83.01,1.57.24,2.17.79.63.57,1.22,1.19,1.71,1.9.15.22.3.43.44.65.34.53.63,1.07.43,1.78-.21.33-.43.66-.64.99-.26.39-.67.56-1.05.74.3.49.74.67,1.15.92.54.33,1.12.57,1.77.59.64.02,1.3.1,1.91-.33.08-.05.18-.07.26-.1.62-.23,1.18-.63,1.58-1.13.75-.94.95-2.03.54-3.13-.23-.62-.54-1.17-.94-1.69-.6-.78-1.21-1.54-1.95-2.17-.62-.53-1.31-.98-1.99-1.43-.29-.19-.63-.33-.97-.37-.46-.06-.95-.1-1.41,0-.69.16-1.44.24-1.98.91-.2.25-.5.43-.75.65-.16.1-.34.19-.27.43Z" />
    <path class="cls-6"
      d="m446.2,281.23c.18.64.41,1.27.38,1.97-.04,1.08-.15,2.15-.64,3.18-.18.37-.32.77-.48,1.15-.41.63-.83,1.26-1.24,1.88-.02.03-.04.06-.06.08-.18.19-.31.31-.45.69-.2.4-.17.34-.27.48-.72.96-1.53,1.41-2.66,1.32-.75-.05-1.48-.22-2.18-.43-.45-.14-.85-.4-1.27-.62l-1.68-1.14c-.24-.2-.47-.41-.71-.61-.8-.77-1.46-1.64-1.81-2.75-.25-.78-.24-1.56.06-2.38.19-.52.33-1.06.5-1.58.03-.09.1-.23.16-.31.42-.59.82-1.18,1.26-1.75.2-.26.46-.49.71-.7.92-.78,1.86-1.52,2.85-2.2.98-.68,1.96-1.37,2.75-2.31l.33-.46c.26-.42.54-.83.79-1.26.11-.18.25-.23.43-.2.85.14,1.67.38,2.42.8.6.34,1.19.7,1.77,1.06.17.11.32.26.47.4.17.15.37.28.51.46.2.26.39.55.54.85.06.13.03.34-.04.49-.26.6-.56,1.18-.84,1.77l-.21.37c-.14.21-.28.41-.42.62l-.45.53-.09.08s-.1.06-.14.1l-.03.02s-.05.04-.09.04h-.02c-.25.04-.3-.17-.12-.4l.17-.21c.33-.38.34-.35.66-.9.13-.26.27-.51.4-.77.2-.42.37-.85.59-1.25.11-.21.1-.36-.02-.51-.11-.14-.2-.29-.33-.4-.95-.86-1.97-1.63-3.2-2.08-.52-.19-1.05-.34-1.58-.51-.38.58-.6.92-.99,1.5l-.63.8c-.23.25-.47.5-.73.7-.58.46-1.21.84-1.8,1.28-.79.59-1.58,1.19-2.34,1.83-.47.4-.98.77-1.29,1.34-.41.35-.69.8-.86,1.31-.21.6-.45,1.2-.64,1.81-.15.51-.19,1.03-.05,1.53.21.81.6,1.53,1.12,2.14.57.68,1.18,1.33,1.96,1.77.71.4,1.4.88,2.16,1.17.72.27,1.49.44,2.3.44.79,0,1.64-.53,2.02-1.29-.19,0-.37.02-.54.02-.68.02-1.21-.27-1.5-.88-.45-.92-.29-1.92.2-2.83.4-.75.83-1.53,1.61-2,.13-.08.22-.11.32-.01l.04.06.02.09c0,.12-.07.24-.17.32-.69.59-1.17,1.35-1.49,2.17-.26.67-.35,1.36.03,1.99t.06.11c.26.36.56.36.91.36.55,0,1-.28,1.32-.72.38-.53.74-1.09,1.01-1.69.41-.91.81-1.83.94-2.84.29-2.38-.48-4.21-2.25-5.54-.43-.33-.88-.64-1.33-.95l.2-.31c.51.31,1.03.62,1.54.94.25.16.48.34.69.54.52.46.87,1.05,1.2,1.66l.24.58Z" />
  </g>
  <g>
    <path class="cls-4"
      d="m403.99,301.67s-.15-.11-.17-.14c-.3-.21-.46-.27-.74-.5-.28-.16-.57-.38-.85-.54-.45-.34-.89-.67-1.34-1.01-.42-.28-.68-.68-.85-1.14-.17-.47-.18-.94.09-1.37.61-.98,1.22-1.95,1.85-2.91.15-.23.23-.44.17-.73-.14-.66.16-1.11.94-1.49-.24-.56-.04-1.05.29-1.53.31-.45.67-.83,1.28-.89-.11-.55-.24-1.09.09-1.6.35-.53.92-.54,1.51-.61-.21-.47-.11-.87.14-1.26.31-.48.66-.94,1.26-1.07.27-.06.42-.21.57-.43.4-.6.81-1.2,1.28-1.75.23-.27.58-.46.91-.63.85-.45,1.67-.92,2.27-1.71.33-.44.75-.81,1.09-1.24.29-.36.6-.71.92-1.05.41-.44.77-.93,1.16-1.39.28-.33.58-.65.87-.97.36-.39.83-.94,1.2-1.32.09.06.18.19.27.25-.29.34-.67.78-.97,1.12-.57.65-1.14,1.29-1.71,1.93-.01,0-.06.06-.07.09-.35.42-.7.85-1.08,1.25-.46.48-.88.98-1.29,1.51-.49.63-1.08,1.11-1.77,1.5-.47.26-.95.5-1.42.75-.08.04-.12.08-.18.15-.43.58-.85,1.18-1.27,1.77-.02.04-.07.09-.09.13l.03.02c.12.06.25.11.37.17l.31.18c.17.12.33.23.5.35.25.25.51.5.76.74.5.49.99,1,1.49,1.48.6.58,1.2,1.16,1.61,1.9.17.31.38.6.59.93.57-.98,1.14-1.91,1.66-2.86.24-.43.46-.89.49-1.41l-.03-.51c.14-.24.28-.62.41-.86l-.04.19c.02.49.08.66.07.99-.05.82-.36,1.54-.8,2.23-.33.52-.61,1.07-.93,1.59-.11.17-.12.32,0,.47.21.26.41.54.66.78.35.34.55.72.53,1.21-.03.5-.06,1.01-.08,1.51-.06,1.71.06,3.4.35,5.08.09.52.37.93.67,1.34.14.19.13.19-.06.43-.09-.07-.21-.13-.28-.22-.37-.51-.66-1.06-.76-1.71-.23-1.59-.38-3.19-.34-4.8,0-.36.06-.72.09-1.12-.65.12-.96-.26-1.17-.72-.47-1.02-1.13-1.93-1.75-2.85-.32-.47-.76-.87-1.16-1.28-.29-.31-.61-.59-.91-.89-.42-.42-.83-.84-1.24-1.27q-.47-.37-.8-.53c-.62-.3-1.23-.14-1.63.43-.11.15-.22.31-.32.47-.23.37-.22.68.05,1,.14.16.29.33.46.45,1.01.69,1.77,1.62,2.48,2.59.06.09.16.15.21.24.04.06.02.16.03.33-.19-.11-.33-.16-.41-.25-.21-.24-.39-.51-.59-.77-.6-.82-1.29-1.54-2.17-2.07-.14-.08-.39-.16-.55-.18-.44-.04-.86.06-1.12.44-.21.31-.22.71-.08,1.06.18.43.43.79.77,1.11.48.46.94.94,1.41,1.42l.04.03.53.34s.07.03.11.05c.1.05.19.09.3.14-.05.22-.2.24-.37.24l-.67-.28c-.75-.79-1.49-1.58-2.27-2.39-.63.06-1.41.77-1.47,1.43-.02.19.04.42.14.57.34.5.71.99,1.19,1.37.3.24.6.49.9.72.22.16.22.32-.02.51-.1-.01-.15-.05-.26-.13-.94-.85-1.46-1.21-2.01-2.03-.66.09-1.02.62-.77,1.21.17.4.4.78.66,1.14.58.8,1.36,1.42,2.05,2.13.75.78,1.34,1.66,1.83,2.62.28.54.6,1.06.92,1.59.18.3.4.59.59.89.31.49.69.91,1.21,1.2.26.16.51.32.77.48.46.4.71.95.98,1.49.39.76.81,1.51,1.23,2.28-.19.21-.36.24-.51-.01-.4-.69-.79-1.39-1.15-2.11-.23-.46-.43-.94-.8-1.33-.29-.26-.36-.29-.64-.42-.61-.28-1.03-.77-1.4-1.3-.19-.27-.36-.55-.57-.88-.18.27-.33.52-.5.75-.45.6-1.09.79-1.8.55-.13-.05-.27-.09-.4-.13-.34-.23-.69-.46-1.03-.69Zm11.5-8.87s.06.06.09.09c.02-.05.04-.1.06-.15.01-.08.02-.16.03-.23.05-.33-.01-.59-.31-.83-.26-.21-.45-.52-.67-.79-.08-.1-.04-.09-.22-.28-.12.19-.22.26-.18.34.34.66.65,1.33,1.2,1.85Zm-13.78,6.84c.42.3.84.61,1.27.9.57.39,1.17.75,1.72,1.16.31.23.66.34,1.02.44.37.09.74.03.98-.29.26-.33.47-.7.7-1.04-.15-.3-.3-.56-.43-.82-.42-.82-.72-1.7-1.45-2.35-.53-.48-.95-1.08-1.46-1.59-.57-.59-1.22-1.11-1.61-1.86-.03-.02-.06-.04-.09-.07-.1.11-.16.23-.24.38-.44.79-.6,1.27-1.06,1.94-.64.94-.96,1.26-.69,1.89.17.41.45.75.84.98.16.11.32.23.48.34Z" />
    <path class="cls-4"
      d="m418.07,274.72l-.27-.19.11-.24c.02-.07.05-.14.07-.21.01-.04.05-.1.04-.13-.11-.37.03-.57.35-.72s.57-.48.64-.85.09-.41.47-.36c.13.02.25.07.37.11l.17.08c.44.29.87.57,1.31.86l.29.23c.12.12.25.23.36.36.34.39.34.63-.06.93-.19.14-.23.29-.25.5-.02.41-.2.74-.6.93-.1.05-.19.17-.24.27-.25.52-.48,1.05-.72,1.58-.05.09-.08.17-.19.39-.03.05-.03.07-.06.13-.84,1.53-1.59,3.1-2.63,4.51-.1-.05-.19-.11-.29-.16.11-.19.21-.38.32-.57.47-.82.96-1.63,1.42-2.45.32-.56.61-1.14.91-1.71.01-.02.02-.03.02-.04,0-.03.02-.04.03-.07.05-.1.07-.17.1-.22.25-.51.43-.97.67-1.49.15-.31.32-.57.67-.62.15-.36.09-.73.31-1.05.12-.17.45-.23.35-.49-.07-.18-.26-.32-.41-.47l-.08-.07c-.32-.22-.06-.04-.44-.29l-1.02-.68-.17-.08-.08-.02c-.07-.02-.14.03-.16.1-.13.59-.53.89-.95,1.21.07.4-.1.71-.37.97Z" />
    <path class="cls-4"
      d="m416.97,282.73c.1.05.19.11.29.16-.18.44-.37.88-.53,1.33-.1.28-.14.57-.21.86.06-.25-.3.63-.38.67-.11-.92.31-2.29.84-3.03Z" />
    <path class="cls-4"
      d="m409.31,294.14c-.31.23-.58.43-.86.63-.26-.18-.3-.27-.13-.41.23-.19.49-.39.83-.35.04,0,.07.05.16.13Z" />
    <path class="cls-4" d="m406.93,296.11c-.18.27-.33.5-.48.73-.29-.15-.32-.23-.17-.48.2-.34.38-.41.65-.25Z" />
    <path class="cls-4"
      d="m413.06,291.06c-.24.12-.49.23-.76.36-.12-.04-.12-.16-.04-.28.13-.22.34-.32.6-.31.13,0,.25.06.21.23Z" />
    <path class="cls-4" d="m410.92,292.48c.01.42-.46.34-.56.61-.2-.09-.17-.21-.1-.33.12-.2.33-.29.66-.28Z" />
    <path class="cls-4" d="m400.87,299.45c.41.3.81.61,1.22.91-.41-.3-.81-.61-1.22-.91Z" />
    <path class="cls-4" d="m407.83,292.03s-.07-.03-.11-.05c.04.02.07.03.11.05Z" />
    <path class="cls-4" d="m407.19,291.64s-.06-.06-.09-.08c.03.03.06.06.09.08Z" />
    <path class="cls-4" d="m416.16,286.29s0-.08,0-.13c0,.04,0,.08,0,.13Z" />
  </g>
  <g>
    <path class="cls-11"
      d="m782.11,446.63c-.55.47-1.17.5-1.8.45-.67-.05-1.21-.39-1.73-.74-.89-.59-1.75-1.23-2.62-1.85-.54-.38-.54-1.03-.18-1.57.48-.71.85-1.46,1.04-2.32.18-.81.51-1.6.76-2.41.12-.38.22-.77.32-1.15.22-.82.36-1.68.68-2.47.37-.9.72-1.84,1.42-2.58.31-.33.69-.59,1.08-.92,0-.66.57-1.06,1.04-1.52.04-.04.12-.06.16-.1,1.08-1.15,2.39-1.26,3.74-1.2.7.03,1.26.38,1.82.74.25.17.49.35.74.52.14.11.29.21.43.31.32.23.35.23.65.49.05.05.12.1.17.16.19.2.39.39.56.6.44.53.93,1.02,1.28,1.61.39.65.68,1.37.96,2.09.21.54.19,1.13.03,1.72-.07.24-.16.48-.24.72-.2.3-.4.6-.6.89-.68.67-1.46,1.13-2.34,1.4-.01,0-.03.01-.04.02-.35.08-.73.08-1.03.25-.31.18-.62.36-.94.52-.33.16-.66.31-.99.45-.4.17-.73.45-1,.8-.46.49-.67.86-.95,1.38-.09.17-.15.29-.24.42-.72,1.09-1.44,2.18-2.16,3.26Zm-5.85-2.63s.06.04.08.05c1.03.65,1.93,1.49,3.01,2.07.54.29,1.08.47,1.71.38.26-.03.52-.08.72-.31.02-.03.05-.05.07-.08.22-.32.43-.65.65-.97.03-.04.03-.05.05-.07.3-.48.62-.94.92-1.41.21-.36.43-.7.64-1.06.05-.09.06-.11.11-.18.04-.06.06-.09.1-.17.2-.3.36-.64.59-.9.55-.61,1.19-1.08,1.96-1.34.12-.04.23-.11.36-.18-.04-.04-.06-.07-.09-.08-.19-.06-.38-.09-.56-.17-.93-.38-1.92-.69-2.39-1.72-.24-.02-.47-.02-.69-.05-.54-.08-.93-.43-1.35-.74-.51-.39-.86-.89-.92-1.58.1-.2.22-.21.36-.09,0,.05.01.09.02.14,0,.04.02.08.03.12.09.17.13.38.26.49.39.34.78.68,1.22.95.67.41,1.88.21,2.35-.55.05-.06.1-.12.15-.18.06-.09.13-.19.19-.28.02-.04.03-.09.05-.13.1-.31.06-.6-.1-.85-.3-.48-.6-.98-.94-1.43-.35-.46-.72-.9-1.14-1.28-.3-.28-.68-.46-1.03-.69,0-.01-.01-.04-.02-.04-.03,0-.06,0-.08,0-.61-.22-1.19-.13-1.72.36-.11.1-.21.2-.31.3-.37.31-.62.7-.76,1.16-.29.68-.61,1.35-.85,2.05-.21.6-.3,1.22-.48,1.83-.23.78-.49,1.56-.73,2.33-.26.84-.43,1.41-.72,2.19-.01.04-.25.51-.21.44-.21.31-.37.63-.56.95-.06.1-.08.23-.12.35-.02.11-.03.16,0,.23s.05.08.12.13m5.47-13.07c.83.01,1.57.24,2.17.79.63.57,1.22,1.19,1.71,1.9.15.22.3.43.44.65.34.53.63,1.07.43,1.78-.21.33-.43.66-.64.99-.26.39-.67.56-1.05.74.3.49.74.67,1.15.92.54.33,1.12.57,1.77.59.64.02,1.3.1,1.91-.33.08-.05.18-.07.26-.1.62-.23,1.18-.63,1.58-1.13.75-.94.95-2.03.54-3.13-.23-.62-.54-1.17-.94-1.69-.6-.78-1.21-1.54-1.95-2.17-.62-.53-1.31-.98-1.99-1.43-.29-.19-.63-.33-.97-.37-.46-.06-.95-.1-1.41,0-.69.16-1.44.24-1.98.91-.2.25-.5.43-.75.65-.16.1-.34.19-.27.43Z" />
    <path class="cls-11"
      d="m799.27,420.99c.18.64.41,1.27.38,1.97-.04,1.08-.15,2.15-.64,3.18-.18.37-.32.77-.48,1.15-.41.63-.83,1.26-1.24,1.88-.02.03-.04.06-.06.08-.18.19-.31.31-.45.69-.2.4-.17.34-.27.48-.72.96-1.53,1.41-2.66,1.32-.75-.05-1.48-.22-2.18-.43-.45-.14-.85-.4-1.27-.62l-1.68-1.14c-.24-.2-.47-.41-.71-.61-.8-.77-1.46-1.64-1.81-2.75-.25-.78-.24-1.56.06-2.38.19-.52.33-1.06.5-1.58.03-.09.1-.23.16-.31.42-.59.82-1.18,1.26-1.75.2-.26.46-.49.71-.7.92-.78,1.86-1.52,2.85-2.2.98-.68,1.96-1.37,2.75-2.31l.33-.46c.26-.42.54-.83.79-1.26.11-.18.25-.23.43-.2.85.14,1.67.38,2.42.8.6.34,1.19.7,1.77,1.06.17.11.32.26.47.4.17.15.37.28.51.46.2.26.39.55.54.85.06.13.03.34-.04.49-.26.6-.56,1.18-.84,1.77l-.21.37c-.14.21-.28.41-.42.62l-.45.53-.09.08s-.1.06-.14.1l-.03.02s-.05.04-.09.04h-.02c-.25.04-.3-.17-.12-.4l.17-.21c.33-.38.34-.35.66-.9.13-.26.27-.51.4-.77.2-.42.37-.85.59-1.25.11-.21.1-.36-.02-.51-.11-.14-.2-.29-.33-.4-.95-.86-1.97-1.63-3.2-2.08-.52-.19-1.05-.34-1.58-.51-.38.58-.6.92-.99,1.5l-.63.8c-.23.25-.47.5-.73.7-.58.46-1.21.84-1.8,1.28-.79.59-1.58,1.19-2.34,1.83-.47.4-.98.77-1.29,1.34-.41.35-.69.8-.86,1.31-.21.6-.45,1.2-.64,1.81-.15.51-.19,1.03-.05,1.53.21.81.6,1.53,1.12,2.14.57.68,1.18,1.33,1.96,1.77.71.4,1.4.88,2.16,1.17.72.27,1.49.44,2.3.44.79,0,1.64-.53,2.02-1.29-.19,0-.37.02-.54.02-.68.02-1.21-.27-1.5-.88-.45-.92-.29-1.92.2-2.83.4-.75.83-1.53,1.61-2,.13-.08.22-.11.32-.01l.04.06.02.09c0,.12-.07.24-.17.32-.69.59-1.17,1.35-1.49,2.17-.26.67-.35,1.36.03,1.99t.06.11c.26.36.56.36.91.36.55,0,1-.28,1.32-.72.38-.53.74-1.09,1.01-1.69.41-.91.81-1.83.94-2.84.29-2.38-.48-4.21-2.25-5.54-.43-.33-.88-.64-1.33-.95l.2-.31c.51.31,1.03.62,1.54.94.25.16.48.34.69.54.52.46.87,1.05,1.2,1.66l.24.58Z" />
  </g>
  <g>
    <path class="cls-4"
      d="m757.95,441.17s-.15-.11-.17-.14c-.3-.21-.46-.27-.74-.5-.28-.16-.57-.38-.85-.54-.45-.34-.89-.67-1.34-1.01-.42-.28-.68-.68-.85-1.14-.17-.47-.18-.94.09-1.37.61-.98,1.22-1.95,1.85-2.91.15-.23.23-.44.17-.73-.14-.66.16-1.11.94-1.49-.24-.56-.04-1.05.29-1.53.31-.45.67-.83,1.28-.89-.11-.55-.24-1.09.09-1.6.35-.53.92-.54,1.51-.61-.21-.47-.11-.87.14-1.26.31-.48.66-.94,1.26-1.07.27-.06.42-.21.57-.43.4-.6.81-1.2,1.28-1.75.23-.27.58-.46.91-.63.85-.45,1.67-.92,2.27-1.71.33-.44.75-.81,1.09-1.24.29-.36.6-.71.92-1.05.41-.44.77-.93,1.16-1.39.28-.33.58-.65.87-.97.36-.39.83-.94,1.2-1.32.09.06.18.19.27.25-.29.34-.67.78-.97,1.12-.57.65-1.14,1.29-1.71,1.93-.01,0-.06.06-.07.09-.35.42-.7.85-1.08,1.25-.46.48-.88.98-1.29,1.51-.49.63-1.08,1.11-1.77,1.5-.47.26-.95.5-1.42.75-.08.04-.12.08-.18.15-.43.58-.85,1.18-1.27,1.77-.02.04-.07.09-.09.13l.03.02c.12.06.25.11.37.17l.31.18c.17.12.33.23.5.35.25.25.51.5.76.74.5.49.99,1,1.49,1.48.6.58,1.2,1.16,1.61,1.9.17.31.38.6.59.93.57-.98,1.14-1.91,1.66-2.86.24-.43.46-.89.49-1.41l-.03-.51c.14-.24.28-.62.41-.86l-.04.19c.02.49.08.66.07.99-.05.82-.36,1.54-.8,2.23-.33.52-.61,1.07-.93,1.59-.11.17-.12.32,0,.47.21.26.41.54.66.78.35.34.55.72.53,1.21-.03.5-.06,1.01-.08,1.51-.06,1.71.06,3.4.35,5.08.09.52.37.93.67,1.34.14.19.13.19-.06.43-.09-.07-.21-.13-.28-.22-.37-.51-.66-1.06-.76-1.71-.23-1.59-.38-3.19-.34-4.8,0-.36.06-.72.09-1.12-.65.12-.96-.26-1.17-.72-.47-1.02-1.13-1.93-1.75-2.85-.32-.47-.76-.87-1.16-1.28-.29-.31-.61-.59-.91-.89-.42-.42-.83-.84-1.24-1.27q-.47-.37-.8-.53c-.62-.3-1.23-.14-1.63.43-.11.15-.22.31-.32.47-.23.37-.22.68.05,1,.14.16.29.33.46.45,1.01.69,1.77,1.62,2.48,2.59.06.09.16.15.21.24.04.06.02.16.03.33-.19-.11-.33-.16-.41-.25-.21-.24-.39-.51-.59-.77-.6-.82-1.29-1.54-2.17-2.07-.14-.08-.39-.16-.55-.18-.44-.04-.86.06-1.12.44-.21.31-.22.71-.08,1.06.18.43.43.79.77,1.11.48.46.94.94,1.41,1.42l.04.03.53.34s.07.03.11.05c.1.05.19.09.3.14-.05.22-.2.24-.37.24l-.67-.28c-.75-.79-1.49-1.58-2.27-2.39-.63.06-1.41.77-1.47,1.43-.02.19.04.42.14.57.34.5.71.99,1.19,1.37.3.24.6.49.9.72.22.16.22.32-.02.51-.1-.01-.15-.05-.26-.13-.94-.85-1.46-1.21-2.01-2.03-.66.09-1.02.62-.77,1.21.17.4.4.78.66,1.14.58.8,1.36,1.42,2.05,2.13.75.78,1.34,1.66,1.83,2.62.28.54.6,1.06.92,1.59.18.3.4.59.59.89.31.49.69.91,1.21,1.2.26.16.51.32.77.48.46.4.71.95.98,1.49.39.76.81,1.51,1.23,2.28-.19.21-.36.24-.51-.01-.4-.69-.79-1.39-1.15-2.11-.23-.46-.43-.94-.8-1.33-.29-.26-.36-.29-.64-.42-.61-.28-1.03-.77-1.4-1.3-.19-.27-.36-.55-.57-.88-.18.27-.33.52-.5.75-.45.6-1.09.79-1.8.55-.13-.05-.27-.09-.4-.13-.34-.23-.69-.46-1.03-.69Zm11.5-8.87s.06.06.09.09c.02-.05.04-.1.06-.15.01-.08.02-.16.03-.23.05-.33-.01-.59-.31-.83-.26-.21-.45-.52-.67-.79-.08-.1-.04-.09-.22-.28-.12.19-.22.26-.18.34.34.66.65,1.33,1.2,1.85Zm-13.78,6.84c.42.3.84.61,1.27.9.57.39,1.17.75,1.72,1.16.31.23.66.34,1.02.44.37.09.74.03.98-.29.26-.33.47-.7.7-1.04-.15-.3-.3-.56-.43-.82-.42-.82-.72-1.7-1.45-2.35-.53-.48-.95-1.08-1.46-1.59-.57-.59-1.22-1.11-1.61-1.86-.03-.02-.06-.04-.09-.07-.1.11-.16.23-.24.38-.44.79-.6,1.27-1.06,1.94-.64.94-.96,1.26-.69,1.89.17.41.45.75.84.98.16.11.32.23.48.34Z" />
    <path class="cls-4"
      d="m772.03,414.22l-.27-.19.11-.24c.02-.07.05-.14.07-.21.01-.04.05-.1.04-.13-.11-.37.03-.57.35-.72s.57-.48.64-.85.09-.41.47-.36c.13.02.25.07.37.11l.17.08c.44.29.87.57,1.31.86l.29.23c.12.12.25.23.36.36.34.39.34.63-.06.93-.19.14-.23.29-.25.5-.02.41-.2.74-.6.93-.1.05-.19.17-.24.27-.25.52-.48,1.05-.72,1.58-.05.09-.08.17-.19.39-.03.05-.03.07-.06.13-.84,1.53-1.59,3.1-2.63,4.51-.1-.05-.19-.11-.29-.16.11-.19.21-.38.32-.57.47-.82.96-1.63,1.42-2.45.32-.56.61-1.14.91-1.71.01-.02.02-.03.02-.04,0-.03.02-.04.03-.07.05-.1.07-.17.1-.22.25-.51.43-.97.67-1.49.15-.31.32-.57.67-.62.15-.36.09-.73.31-1.05.12-.17.45-.23.35-.49-.07-.18-.26-.32-.41-.47l-.08-.07c-.32-.22-.06-.04-.44-.29l-1.02-.68-.17-.08-.08-.02c-.07-.02-.14.03-.16.1-.13.59-.53.89-.95,1.21.07.4-.1.71-.37.97Z" />
    <path class="cls-4"
      d="m770.93,422.23c.1.05.19.11.29.16-.18.44-.37.88-.53,1.33-.1.28-.14.57-.21.86.06-.25-.3.63-.38.67-.11-.92.31-2.29.84-3.03Z" />
    <path class="cls-4"
      d="m763.27,433.64c-.31.23-.58.43-.86.63-.26-.18-.3-.27-.13-.41.23-.19.49-.39.83-.35.04,0,.07.05.16.13Z" />
    <path class="cls-4" d="m760.9,435.61c-.18.27-.33.5-.48.73-.29-.15-.32-.23-.17-.48.2-.34.38-.41.65-.25Z" />
    <path class="cls-4"
      d="m767.02,430.56c-.24.12-.49.23-.76.36-.12-.04-.12-.16-.04-.28.13-.22.34-.32.6-.31.13,0,.25.06.21.23Z" />
    <path class="cls-4" d="m764.88,431.98c.01.42-.46.34-.56.61-.2-.09-.17-.21-.1-.33.12-.2.33-.29.66-.28Z" />
    <path class="cls-4" d="m754.83,438.95c.41.3.81.61,1.22.91-.41-.3-.81-.61-1.22-.91Z" />
    <path class="cls-4" d="m761.79,431.53s-.07-.03-.11-.05c.04.02.07.03.11.05Z" />
    <path class="cls-4" d="m761.15,431.14s-.06-.06-.09-.08c.03.03.06.06.09.08Z" />
    <path class="cls-4" d="m770.12,425.78s0-.08,0-.13c0,.04,0,.08,0,.13Z" />
  </g>
  <g>
    <path class="cls-11"
      d="m782.26,573.29c-.55.47-1.17.5-1.8.45-.67-.05-1.21-.39-1.73-.74-.89-.59-1.75-1.23-2.62-1.85-.54-.38-.54-1.03-.18-1.57.48-.71.85-1.46,1.04-2.32.18-.81.51-1.6.76-2.41.12-.38.22-.77.32-1.15.22-.82.36-1.68.68-2.47.37-.9.72-1.84,1.42-2.58.31-.33.69-.59,1.08-.92,0-.66.57-1.06,1.04-1.52.04-.04.12-.06.16-.1,1.08-1.15,2.39-1.26,3.74-1.2.7.03,1.26.38,1.82.74.25.17.49.35.74.52.14.11.29.21.43.31.32.23.35.23.65.49.05.05.12.1.17.16.19.2.39.39.56.6.44.53.93,1.02,1.28,1.61.39.65.68,1.37.96,2.09.21.54.19,1.13.03,1.72-.07.24-.16.48-.24.72-.2.3-.4.6-.6.89-.68.67-1.46,1.13-2.34,1.4-.01,0-.03.01-.04.02-.35.08-.73.08-1.03.25-.31.18-.62.36-.94.52-.33.16-.66.31-.99.45-.4.17-.73.45-1,.8-.46.49-.67.86-.95,1.38-.09.17-.15.29-.24.42-.72,1.09-1.44,2.18-2.16,3.26Zm-5.85-2.63s.06.04.08.05c1.03.65,1.93,1.49,3.01,2.07.54.29,1.08.47,1.71.38.26-.03.52-.08.72-.31.02-.03.05-.05.07-.08.22-.32.43-.65.65-.97.03-.04.03-.05.05-.07.3-.48.62-.94.92-1.41.21-.36.43-.7.64-1.06.05-.09.06-.11.11-.18.04-.06.06-.09.1-.17.2-.3.36-.64.59-.9.55-.61,1.19-1.08,1.96-1.34.12-.04.23-.11.36-.18-.04-.04-.06-.07-.09-.08-.19-.06-.38-.09-.56-.17-.93-.38-1.92-.69-2.39-1.72-.24-.02-.47-.02-.69-.05-.54-.08-.93-.43-1.35-.74-.51-.39-.86-.89-.92-1.58.1-.2.22-.21.36-.09,0,.05.01.09.02.14,0,.04.02.08.03.12.09.17.13.38.26.49.39.34.78.68,1.22.95.67.41,1.88.21,2.35-.55.05-.06.1-.12.15-.18.06-.09.13-.19.19-.28.02-.04.03-.09.05-.13.1-.31.06-.6-.1-.85-.3-.48-.6-.98-.94-1.43-.35-.46-.72-.9-1.14-1.28-.3-.28-.68-.46-1.03-.69,0-.01-.01-.04-.02-.04-.03,0-.06,0-.08,0-.61-.22-1.19-.13-1.72.36-.11.1-.21.2-.31.3-.37.31-.62.7-.76,1.16-.29.68-.61,1.35-.85,2.05-.21.6-.3,1.22-.48,1.83-.23.78-.49,1.56-.73,2.33-.26.84-.43,1.41-.72,2.19-.01.04-.25.51-.21.44-.21.31-.37.63-.56.95-.06.1-.08.23-.12.35-.02.11-.03.16,0,.23s.05.08.12.13m5.47-13.07c.83.01,1.57.24,2.17.79.63.57,1.22,1.19,1.71,1.9.15.22.3.43.44.65.34.53.63,1.07.43,1.78-.21.33-.43.66-.64.99-.26.39-.67.56-1.05.74.3.49.74.67,1.15.92.54.33,1.12.57,1.77.59.64.02,1.3.1,1.91-.33.08-.05.18-.07.26-.1.62-.23,1.18-.63,1.58-1.13.75-.94.95-2.03.54-3.13-.23-.62-.54-1.17-.94-1.69-.6-.78-1.21-1.54-1.95-2.17-.62-.53-1.31-.98-1.99-1.43-.29-.19-.63-.33-.97-.37-.46-.06-.95-.1-1.41,0-.69.16-1.44.24-1.98.91-.2.25-.5.43-.75.65-.16.1-.34.19-.27.43Z" />
    <path class="cls-11"
      d="m799.43,547.66c.18.64.41,1.27.38,1.97-.04,1.08-.15,2.15-.64,3.18-.18.37-.32.77-.48,1.15-.41.63-.83,1.26-1.24,1.88-.02.03-.04.06-.06.08-.18.19-.31.31-.45.69-.2.4-.17.34-.27.48-.72.96-1.53,1.41-2.66,1.32-.75-.05-1.48-.22-2.18-.43-.45-.14-.85-.4-1.27-.62-.56-.38-1.12-.76-1.68-1.14-.24-.2-.47-.41-.71-.61-.8-.77-1.46-1.64-1.81-2.75-.25-.78-.24-1.56.06-2.38.19-.52.33-1.06.5-1.58.03-.09.1-.23.16-.31.42-.59.82-1.18,1.26-1.75.2-.26.46-.49.71-.7.92-.78,1.86-1.52,2.85-2.2.98-.68,1.96-1.37,2.75-2.31l.33-.46c.26-.42.54-.83.79-1.26.11-.18.25-.23.43-.2.85.14,1.67.38,2.42.8.6.34,1.19.7,1.77,1.06.17.11.32.26.47.4.17.15.37.28.51.46.2.26.39.55.54.85.06.13.03.34-.04.49-.26.6-.56,1.18-.84,1.77l-.21.37c-.14.21-.28.41-.42.62l-.45.53-.09.08s-.1.06-.14.1l-.03.02s-.05.04-.09.04h-.02c-.25.04-.3-.17-.12-.4l.17-.21c.33-.38.34-.35.66-.9.13-.26.27-.51.4-.77.2-.42.37-.85.59-1.25.11-.21.1-.36-.02-.51-.11-.14-.2-.29-.33-.4-.95-.86-1.97-1.63-3.2-2.08-.52-.19-1.05-.34-1.58-.51-.38.58-.6.92-.99,1.5l-.63.8c-.23.25-.47.5-.73.7-.58.46-1.21.84-1.8,1.28-.79.59-1.58,1.19-2.34,1.83-.47.4-.98.77-1.29,1.34-.41.35-.69.8-.86,1.31-.21.6-.45,1.2-.64,1.81-.15.51-.19,1.03-.05,1.53.21.81.6,1.53,1.12,2.14.57.68,1.18,1.33,1.96,1.77.71.4,1.4.88,2.16,1.17.72.27,1.49.44,2.3.44.79,0,1.64-.53,2.02-1.29-.19,0-.37.02-.54.02-.68.02-1.21-.27-1.5-.88-.45-.92-.29-1.92.2-2.83.4-.75.83-1.53,1.61-2,.13-.08.22-.11.32-.01l.04.06.02.09c0,.12-.07.24-.17.32-.69.59-1.17,1.35-1.49,2.17-.26.67-.35,1.36.03,1.99t.06.11c.26.36.56.36.91.36.55,0,1-.28,1.32-.72.38-.53.74-1.09,1.01-1.69.41-.91.81-1.83.94-2.84.29-2.38-.48-4.21-2.25-5.54-.43-.33-.88-.64-1.33-.95l.2-.31c.51.31,1.03.62,1.54.94.25.16.48.34.69.54.52.46.87,1.05,1.2,1.66l.24.58Z" />
  </g>
  <g>
    <path class="cls-4"
      d="m758.44,567.38s-.15-.11-.17-.14c-.3-.21-.46-.27-.74-.5-.28-.16-.57-.38-.85-.54-.45-.34-.89-.67-1.34-1.01-.42-.28-.68-.68-.85-1.14-.17-.47-.18-.94.09-1.37.61-.98,1.22-1.95,1.85-2.91.15-.23.23-.44.17-.73-.14-.66.16-1.11.94-1.49-.24-.56-.04-1.05.29-1.53.31-.45.67-.83,1.28-.89-.11-.55-.24-1.09.09-1.6.35-.53.92-.54,1.51-.61-.21-.47-.11-.87.14-1.26.31-.48.66-.94,1.26-1.07.27-.06.42-.21.57-.43.4-.6.81-1.2,1.28-1.75.23-.27.58-.46.91-.63.85-.45,1.67-.92,2.27-1.71.33-.44.75-.81,1.09-1.24.29-.36.6-.71.92-1.05.41-.44.77-.93,1.16-1.39.28-.33.58-.65.87-.97.36-.39.83-.94,1.2-1.32.09.06.18.19.27.25-.29.34-.67.78-.97,1.12-.57.65-1.14,1.29-1.71,1.93-.01,0-.06.06-.07.09-.35.42-.7.85-1.08,1.25-.46.48-.88.98-1.29,1.51-.49.63-1.08,1.11-1.77,1.5-.47.26-.95.5-1.42.75-.08.04-.12.08-.18.15-.43.58-.85,1.18-1.27,1.77-.02.04-.07.09-.09.13l.03.02c.12.06.25.11.37.17l.31.18c.17.12.33.23.5.35.25.25.51.5.76.74.5.49.99,1,1.49,1.48.6.58,1.2,1.16,1.61,1.9.17.31.38.6.59.93.57-.98,1.14-1.91,1.66-2.86.24-.43.46-.89.49-1.41l-.03-.51c.14-.24.28-.62.41-.86l-.04.19c.02.49.08.66.07.99-.05.82-.36,1.54-.8,2.23-.33.52-.61,1.07-.93,1.59-.11.17-.12.32,0,.47.21.26.41.54.66.78.35.34.55.72.53,1.21-.03.5-.06,1.01-.08,1.51-.06,1.71.06,3.4.35,5.08.09.52.37.93.67,1.34.14.19.13.19-.06.43-.09-.07-.21-.13-.28-.22-.37-.51-.66-1.06-.76-1.71-.23-1.59-.38-3.19-.34-4.8,0-.36.06-.72.09-1.12-.65.12-.96-.26-1.17-.72-.47-1.02-1.13-1.93-1.75-2.85-.32-.47-.76-.87-1.16-1.28-.29-.31-.61-.59-.91-.89-.42-.42-.83-.84-1.24-1.27q-.47-.37-.8-.53c-.62-.3-1.23-.14-1.63.43-.11.15-.22.31-.32.47-.23.37-.22.68.05,1,.14.16.29.33.46.45,1.01.69,1.77,1.62,2.48,2.59.06.09.16.15.21.24.04.06.02.16.03.33-.19-.11-.33-.16-.41-.25-.21-.24-.39-.51-.59-.77-.6-.82-1.29-1.54-2.17-2.07-.14-.08-.39-.16-.55-.18-.44-.04-.86.06-1.12.44-.21.31-.22.71-.08,1.06.18.43.43.79.77,1.11.48.46.94.94,1.41,1.42l.04.03.53.34s.07.03.11.05c.1.05.19.09.3.14-.05.22-.2.24-.37.24l-.67-.28c-.75-.79-1.49-1.58-2.27-2.39-.63.06-1.41.77-1.47,1.43-.02.19.04.42.14.57.34.5.71.99,1.19,1.37.3.24.6.49.9.72.22.16.22.32-.02.51-.1-.01-.15-.05-.26-.13-.94-.85-1.46-1.21-2.01-2.03-.66.09-1.02.62-.77,1.21.17.4.4.78.66,1.14.58.8,1.36,1.42,2.05,2.13.75.78,1.34,1.66,1.83,2.62.28.54.6,1.06.92,1.59.18.3.4.59.59.89.31.49.69.91,1.21,1.2.26.16.51.32.77.48.46.4.71.95.98,1.49.39.76.81,1.51,1.23,2.28-.19.21-.36.24-.51-.01-.4-.69-.79-1.39-1.15-2.11-.23-.46-.43-.94-.8-1.33-.29-.26-.36-.29-.64-.42-.61-.28-1.03-.77-1.4-1.3-.19-.27-.36-.55-.57-.88-.18.27-.33.52-.5.75-.45.6-1.09.79-1.8.55-.13-.05-.27-.09-.4-.13-.34-.23-.69-.46-1.03-.69Zm11.5-8.87s.06.06.09.09c.02-.05.04-.1.06-.15.01-.08.02-.16.03-.23.05-.33-.01-.59-.31-.83-.26-.21-.45-.52-.67-.79-.08-.1-.04-.09-.22-.28-.12.19-.22.26-.18.34.34.66.65,1.33,1.2,1.85Zm-13.78,6.84c.42.3.84.61,1.27.9.57.39,1.17.75,1.72,1.16.31.23.66.34,1.02.44.37.09.74.03.98-.29.26-.33.47-.7.7-1.04-.15-.3-.3-.56-.43-.82-.42-.82-.72-1.7-1.45-2.35-.53-.48-.95-1.08-1.46-1.59-.57-.59-1.22-1.11-1.61-1.86-.03-.02-.06-.04-.09-.07-.1.11-.16.23-.24.38-.44.79-.6,1.27-1.06,1.94-.64.94-.96,1.26-.69,1.89.17.41.45.75.84.98.16.11.32.23.48.34Z" />
    <path class="cls-4"
      d="m772.52,540.43l-.27-.19.11-.24c.02-.07.05-.14.07-.21.01-.04.05-.1.04-.13-.11-.37.03-.57.35-.72s.57-.48.64-.85.09-.41.47-.36c.13.02.25.07.37.11l.17.08c.44.29.87.57,1.31.86l.29.23c.12.12.25.23.36.36.34.39.34.63-.06.93-.19.14-.23.29-.25.5-.02.41-.2.74-.6.93-.1.05-.19.17-.24.27-.25.52-.48,1.05-.72,1.58-.05.09-.08.17-.19.39-.03.05-.03.07-.06.13-.84,1.53-1.59,3.1-2.63,4.51-.1-.05-.19-.11-.29-.16.11-.19.21-.38.32-.57.47-.82.96-1.63,1.42-2.45.32-.56.61-1.14.91-1.71.01-.02.02-.03.02-.04,0-.03.02-.04.03-.07.05-.1.07-.17.1-.22.25-.51.43-.97.67-1.49.15-.31.32-.57.67-.62.15-.36.09-.73.31-1.05.12-.17.45-.23.35-.49-.07-.18-.26-.32-.41-.47l-.08-.07c-.32-.22-.06-.04-.44-.29l-1.02-.68-.17-.08-.08-.02c-.07-.02-.14.03-.16.1-.13.59-.53.89-.95,1.21.07.4-.1.71-.37.97Z" />
    <path class="cls-4"
      d="m771.42,548.44c.1.05.19.11.29.16-.18.44-.37.88-.53,1.33-.1.28-.14.57-.21.86.06-.25-.3.63-.38.67-.11-.92.31-2.29.84-3.03Z" />
    <path class="cls-4"
      d="m763.76,559.86c-.31.23-.58.43-.86.63-.26-.18-.3-.27-.13-.41.23-.19.49-.39.83-.35.04,0,.07.05.16.13Z" />
    <path class="cls-4" d="m761.38,561.82c-.18.27-.33.5-.48.73-.29-.15-.32-.23-.17-.48.2-.34.38-.41.65-.25Z" />
    <path class="cls-4"
      d="m767.51,556.77c-.24.12-.49.23-.76.36-.12-.04-.12-.16-.04-.28.13-.22.34-.32.6-.31.13,0,.25.06.21.23Z" />
    <path class="cls-4" d="m765.37,558.19c.01.42-.46.34-.56.61-.2-.09-.17-.21-.1-.33.12-.2.33-.29.66-.28Z" />
    <path class="cls-4" d="m755.32,565.16c.41.3.81.61,1.22.91-.41-.3-.81-.61-1.22-.91Z" />
    <path class="cls-4" d="m762.28,557.74s-.07-.03-.11-.05c.04.02.07.03.11.05Z" />
    <path class="cls-4" d="m761.64,557.35s-.06-.06-.09-.08c.03.03.06.06.09.08Z" />
    <path class="cls-4" d="m770.61,552s0-.08,0-.13c0,.04,0,.08,0,.13Z" />
  </g>
  <g>
    <path class="cls-11"
      d="m545.97,950.77c-1.16.99-2.47,1.06-3.8.97-1.41-.09-2.55-.82-3.66-1.54-1.89-1.24-3.71-2.58-5.55-3.89-1.13-.81-1.16-2.17-.4-3.3,1-1.5,1.78-3.09,2.17-4.89.37-1.72,1.05-3.39,1.58-5.08.25-.8.45-1.62.66-2.43.46-1.74.75-3.54,1.42-5.2.77-1.9,1.51-3.9,2.97-5.45.65-.69,1.44-1.25,2.28-1.96,0-1.4,1.2-2.23,2.17-3.21.09-.09.24-.12.33-.21,2.27-2.44,5.04-2.68,7.88-2.57,1.47.06,2.67.78,3.84,1.54.52.36,1.04.72,1.56,1.09.29.23.62.44.9.64.68.47.74.49,1.37,1.02.1.1.25.2.35.34.4.42.82.82,1.2,1.27.93,1.11,1.96,2.15,2.71,3.38.83,1.36,1.45,2.89,2.05,4.4.45,1.13.4,2.38.07,3.63-.14.52-.34,1.02-.51,1.53-.42.63-.84,1.26-1.26,1.89-1.42,1.42-3.06,2.4-4.92,2.98-.03,0-.06.03-.09.03-.73.17-1.54.17-2.16.54-.65.39-1.3.77-1.97,1.1-.69.33-1.39.66-2.09.96-.85.37-1.53.96-2.1,1.7-.96,1.03-1.41,1.82-1.99,2.92-.18.37-.31.61-.49.9-1.51,2.3-3.01,4.6-4.52,6.9Zm-12.37-5.5s.12.08.17.11c2.18,1.36,4.08,3.12,6.36,4.33,1.14.61,2.29.98,3.61.79.54-.07,1.1-.17,1.51-.66.05-.06.1-.11.15-.17.45-.69.91-1.37,1.36-2.06.07-.09.07-.1.1-.15.63-1.01,1.3-1.98,1.93-2.99.44-.77.89-1.48,1.33-2.24.11-.18.13-.24.23-.39.08-.13.12-.19.22-.36.41-.63.75-1.36,1.24-1.91,1.15-1.29,2.5-2.29,4.11-2.84.25-.09.49-.24.76-.38-.09-.08-.13-.14-.19-.16-.39-.12-.8-.19-1.18-.34-1.97-.79-4.06-1.43-5.05-3.6-.51-.04-.99-.04-1.45-.11-1.14-.17-1.98-.9-2.84-1.55-1.08-.81-1.83-1.86-1.96-3.33.2-.42.46-.43.77-.19.01.1.02.2.03.3.02.09.04.17.06.26.18.35.28.8.56,1.04.82.71,1.66,1.42,2.58,1.98,1.42.86,3.96.42,4.95-1.18.11-.13.21-.25.32-.38.13-.2.27-.4.4-.6.03-.09.06-.18.1-.27.21-.66.13-1.27-.21-1.8-.65-1.02-1.27-2.06-2-3.01-.74-.96-1.53-1.88-2.41-2.7-.63-.58-1.44-.96-2.17-1.44-.01-.03-.02-.07-.04-.08-.06,0-.12,0-.18,0-1.29-.45-2.51-.26-3.63.77-.22.2-.43.42-.65.63-.78.65-1.29,1.48-1.6,2.45-.6,1.44-1.28,2.85-1.78,4.32-.43,1.26-.62,2.58-.99,3.86-.47,1.65-1.02,3.28-1.52,4.93-.54,1.78-.89,2.97-1.5,4.62-.03.08-.52,1.07-.43.92-.43.65-.77,1.34-1.18,2-.13.21-.17.49-.25.73-.05.23-.06.35,0,.48s.1.17.26.28m11.41-27.62c1.74.02,3.31.49,4.59,1.65,1.33,1.2,2.58,2.5,3.63,3.99.32.45.63.91.93,1.37.72,1.11,1.34,2.25.93,3.75-.45.7-.9,1.39-1.35,2.09-.54.82-1.4,1.18-2.22,1.57.63,1.02,1.57,1.41,2.43,1.92,1.15.68,2.36,1.19,3.74,1.22,1.36.03,2.74.2,4.02-.7.16-.11.37-.15.56-.22,1.3-.49,2.48-1.34,3.32-2.41,1.57-2,1.99-4.29,1.12-6.6-.49-1.29-1.16-2.46-2.01-3.55-1.27-1.64-2.57-3.24-4.14-4.56-1.32-1.11-2.77-2.06-4.22-2.99-.61-.39-1.33-.68-2.06-.78-.97-.13-2.01-.2-2.98.02-1.46.35-3.04.52-4.16,1.94-.43.54-1.05.92-1.58,1.37-.33.22-.73.4-.56.92Z" />
    <path class="cls-11"
      d="m581.94,896.56c.4,1.35.87,2.67.82,4.16-.08,2.28-.29,4.54-1.32,6.7-.38.79-.67,1.62-1,2.43-.87,1.33-1.73,2.66-2.6,3.99-.04.06-.09.12-.13.17-.37.4-.66.66-.94,1.45-.41.84-.35.72-.57,1.02-1.5,2.04-3.22,2.98-5.61,2.82-1.58-.11-3.12-.44-4.6-.89-.95-.29-1.8-.85-2.69-1.3l-3.54-2.4c-.5-.43-1-.85-1.5-1.28-1.7-1.61-3.09-3.44-3.85-5.78-.54-1.64-.52-3.28.1-5.01.39-1.1.68-2.23,1.04-3.34.06-.19.21-.49.33-.66.87-1.24,1.73-2.5,2.65-3.7.42-.55.96-1.03,1.49-1.49,1.92-1.66,3.9-3.22,5.98-4.67,2.06-1.43,4.13-2.9,5.78-4.9l.69-.98c.55-.89,1.13-1.76,1.66-2.66.23-.39.52-.48.9-.42,1.8.29,3.53.78,5.11,1.66,1.27.71,2.51,1.46,3.75,2.22.37.23.67.55,1,.83.37.32.78.6,1.08.98.43.55.83,1.15,1.14,1.79.13.26.06.72-.08,1.04-.54,1.27-1.18,2.49-1.75,3.75l-.43.78c-.29.44-.59.87-.88,1.31-.31.37-.62.74-.93,1.12l-.18.18c-.1.07-.2.14-.3.21,0,0-.06.03-.06.03-.08.05-.11.08-.18.09,0,0-.05.01-.05.01-.52.07-.63-.37-.25-.84l.35-.44c.69-.8.71-.75,1.39-1.9.28-.54.57-1.08.83-1.63.42-.88.78-1.79,1.23-2.65.23-.44.21-.76-.04-1.08-.22-.29-.43-.61-.7-.85-2.02-1.81-4.18-3.42-6.76-4.35-1.09-.4-2.22-.71-3.33-1.06-.8,1.22-1.27,1.94-2.07,3.17-.44.56-.88,1.12-1.32,1.68-.49.53-.98,1.05-1.54,1.49-1.22.97-2.54,1.77-3.78,2.71-1.66,1.26-3.32,2.53-4.92,3.89-.98.84-2.05,1.63-2.71,2.83-.86.75-1.44,1.69-1.81,2.77-.45,1.27-.94,2.53-1.32,3.82-.32,1.07-.39,2.17-.1,3.22.46,1.71,1.28,3.22,2.37,4.5,1.21,1.42,2.5,2.8,4.16,3.71,1.51.84,2.96,1.84,4.57,2.44,1.51.56,3.15.92,4.85.91,1.68,0,3.46-1.13,4.25-2.74-.4.02-.77.04-1.14.06-1.44.04-2.55-.57-3.18-1.83-.96-1.94-.64-4.04.39-5.97.84-1.59,1.73-3.24,3.38-4.24.27-.17.46-.23.68-.03l.08.13.05.18c-.02.26-.15.5-.35.67-1.46,1.26-2.45,2.87-3.13,4.6-.55,1.41-.73,2.88.08,4.19q.04.07.13.22c.54.77,1.18.76,1.93.76,1.15,0,2.1-.6,2.77-1.54.8-1.12,1.56-2.31,2.11-3.56.85-1.93,1.7-3.87,1.95-6,.59-5.03-1.05-8.87-4.79-11.66-.92-.69-1.87-1.33-2.8-2,.27-.42.15-.23.42-.65,1.09.66,2.18,1.29,3.25,1.98.52.33,1.01.72,1.47,1.13,1.09.96,1.84,2.22,2.54,3.5l.51,1.22Z" />
  </g>
  <g>
    <path class="cls-4"
      d="m492.36,939.87c-.06-.04-.34-.25-.38-.31-.68-.47-1.02-.6-1.65-1.11-.64-.36-1.28-.85-1.92-1.21-1-.75-2-1.5-3-2.26-.95-.62-1.52-1.53-1.91-2.57-.39-1.05-.4-2.1.2-3.07,1.36-2.19,2.74-4.37,4.15-6.54.34-.52.51-.98.37-1.65-.32-1.49.35-2.5,2.1-3.34-.54-1.26-.08-2.36.65-3.43.7-1.02,1.51-1.85,2.86-2.01-.24-1.24-.54-2.45.2-3.59.78-1.19,2.07-1.2,3.39-1.36-.48-1.05-.24-1.96.32-2.83.71-1.08,1.48-2.11,2.84-2.4.6-.13.94-.46,1.27-.97.9-1.35,1.83-2.69,2.88-3.92.52-.61,1.3-1.04,2.03-1.42,1.91-1.01,3.75-2.06,5.09-3.83.75-.98,1.68-1.82,2.45-2.78.65-.81,1.35-1.6,2.07-2.35.93-.98,1.72-2.09,2.6-3.13.63-.74,1.29-1.45,1.96-2.17.81-.87,1.86-2.1,2.69-2.97.2.13.41.42.62.55-.65.76-1.51,1.76-2.17,2.51-1.28,1.45-2.56,2.89-3.85,4.33-.03,0-.14.13-.16.19-.79.95-1.56,1.91-2.42,2.8-1.03,1.07-1.98,2.21-2.89,3.38-1.1,1.41-2.43,2.5-3.97,3.36-1.05.59-2.13,1.12-3.19,1.68-.18.09-.28.18-.39.33-.96,1.31-1.91,2.65-2.85,3.97-.03.1-.16.19-.19.29l.07.04c.28.13.56.25.84.38l.7.4c.37.26.74.53,1.11.79.57.56,1.14,1.11,1.7,1.67,1.12,1.11,2.22,2.23,3.35,3.33,1.35,1.3,2.69,2.6,3.62,4.26.39.69.84,1.34,1.32,2.09,1.29-2.21,2.55-4.29,3.73-6.42.54-.98,1.03-2,1.09-3.16l-.07-1.14c.3-.54.62-1.39.92-1.93l-.08.43c.04,1.11.19,1.49.15,2.23-.11,1.84-.81,3.46-1.79,5.01-.74,1.16-1.37,2.4-2.09,3.57-.24.39-.27.71,0,1.06.48.59.93,1.22,1.47,1.75.78.76,1.24,1.61,1.18,2.71-.06,1.13-.14,2.26-.18,3.39-.14,3.83.14,7.63.79,11.41.2,1.16.82,2.09,1.5,3,.31.42.3.43-.13.97-.21-.16-.47-.29-.62-.5-.83-1.15-1.48-2.38-1.7-3.83-.53-3.58-.86-7.16-.76-10.78.02-.81.13-1.61.2-2.51-1.45.28-2.16-.58-2.63-1.61-1.06-2.29-2.53-4.32-3.93-6.4-.71-1.06-1.7-1.94-2.59-2.88-.66-.69-1.37-1.33-2.04-2-.94-.94-1.86-1.9-2.78-2.84q-1.05-.82-1.8-1.19c-1.38-.68-2.76-.32-3.66.96-.25.35-.49.69-.72,1.05-.51.83-.49,1.53.1,2.24.31.37.65.73,1.04,1,2.27,1.55,3.97,3.63,5.56,5.82.14.19.37.33.48.53.08.14.04.35.07.73-.42-.25-.74-.35-.92-.56-.47-.55-.89-1.14-1.31-1.72-1.35-1.83-2.9-3.46-4.86-4.65-.31-.19-.87-.37-1.23-.4-.99-.09-1.94.14-2.52.98-.47.69-.49,1.6-.17,2.37.4.96.97,1.78,1.72,2.5,1.09,1.03,2.12,2.12,3.17,3.18l.09.07,1.18.77c.08.04.16.08.25.11.22.1.43.2.67.32-.11.5-.46.54-.82.55l-1.51-.63c-1.68-1.78-3.35-3.54-5.09-5.37-1.42.13-3.17,1.73-3.3,3.22-.04.42.08.94.32,1.29.77,1.12,1.58,2.22,2.68,3.07.68.53,1.34,1.1,2.03,1.61.5.37.48.71-.04,1.15-.22-.03-.34-.11-.58-.29-2.11-1.9-3.28-2.71-4.51-4.57-1.47.19-2.29,1.4-1.74,2.71.38.9.9,1.76,1.48,2.55,1.3,1.8,3.06,3.18,4.59,4.78,1.68,1.75,3,3.73,4.11,5.88.63,1.22,1.35,2.39,2.06,3.56.41.68.89,1.33,1.32,2,.7,1.11,1.56,2.05,2.71,2.69.57.36,1.15.72,1.72,1.08,1.04.91,1.58,2.13,2.19,3.33.87,1.71,1.83,3.39,2.76,5.11-.43.48-.81.53-1.13-.03-.9-1.55-1.78-3.12-2.59-4.73-.53-1.04-.97-2.12-1.79-2.97-.64-.58-.81-.64-1.43-.94-1.36-.64-2.3-1.72-3.13-2.93-.42-.61-.8-1.24-1.27-1.97-.41.61-.73,1.17-1.12,1.68-1.01,1.34-2.46,1.77-4.03,1.23-.3-.1-.6-.2-.9-.3-.77-.51-1.54-1.03-2.31-1.54Zm25.82-19.91c.06.07.13.13.19.2.05-.12.09-.23.14-.35.02-.17.05-.35.07-.52.11-.74-.03-1.33-.69-1.85-.59-.48-1-1.18-1.5-1.77-.19-.22-.1-.21-.5-.62-.28.42-.49.59-.4.76.75,1.47,1.46,2.98,2.68,4.16Zm-30.92,15.36c.95.68,1.89,1.37,2.85,2.03,1.28.88,2.61,1.68,3.87,2.6.71.51,1.49.77,2.3.98.83.21,1.66.06,2.21-.65.58-.75,1.06-1.58,1.56-2.33-.35-.66-.66-1.25-.96-1.85-.93-1.85-1.63-3.81-3.25-5.26-1.2-1.07-2.14-2.42-3.27-3.58-1.28-1.32-2.74-2.49-3.6-4.18-.07-.05-.14-.1-.2-.15-.22.26-.37.52-.55.85-.98,1.78-1.35,2.85-2.38,4.35-1.44,2.11-2.14,2.83-1.54,4.24.39.92,1,1.68,1.89,2.19.36.26.72.51,1.08.77Z" />
    <path class="cls-4"
      d="m523.97,879.39l-.6-.42.25-.55c.06-.15.11-.31.17-.46.03-.1.12-.22.09-.3-.26-.84.06-1.28.78-1.62s1.28-1.08,1.43-1.9c.16-.84.21-.93,1.06-.81.28.04.55.15.82.24l.39.19c.98.64,1.96,1.29,2.93,1.93l.65.51c.28.26.56.52.81.81.75.88.75,1.42-.14,2.09-.43.32-.53.65-.55,1.12-.05.93-.44,1.66-1.34,2.09-.23.11-.42.37-.53.61-.56,1.17-1.07,2.37-1.62,3.54-.11.2-.17.39-.42.88-.06.12-.08.16-.14.3-1.88,3.42-3.57,6.96-5.89,10.13-.21-.12-.43-.24-.64-.37.24-.43.48-.86.73-1.28,1.06-1.83,2.15-3.65,3.19-5.49.71-1.26,1.36-2.55,2.04-3.83.02-.05.04-.08.04-.1.02-.06.04-.09.07-.15.11-.24.16-.39.21-.5.56-1.15.96-2.19,1.49-3.34.33-.7.73-1.29,1.51-1.4.33-.8.2-1.64.69-2.35.26-.38,1-.52.78-1.09-.16-.41-.59-.71-.91-1.06l-.17-.15c-.72-.49-.14-.1-.99-.65l-2.3-1.52-.37-.17-.19-.06c-.16-.05-.32.06-.36.22-.28,1.31-1.19,2-2.14,2.71.16.9-.23,1.58-.84,2.19Z" />
    <path class="cls-4"
      d="m521.51,897.37c.21.12.43.24.64.37-.4,1-.84,1.98-1.2,2.99-.22.62-.32,1.29-.48,1.94.13-.57-.68,1.42-.84,1.51-.25-2.07.7-5.13,1.88-6.8Z" />
    <path class="cls-4"
      d="m504.32,922.98c-.69.51-1.31.96-1.92,1.41-.57-.41-.68-.6-.3-.91.53-.43,1.1-.87,1.86-.79.08,0,.16.12.36.29Z" />
    <path class="cls-4" d="m498.98,927.4c-.39.6-.74,1.12-1.08,1.64-.65-.34-.71-.51-.38-1.07.44-.76.85-.92,1.46-.57Z" />
    <path class="cls-4"
      d="m512.72,916.06c-.55.26-1.09.52-1.71.82-.27-.09-.26-.35-.1-.63.3-.5.77-.72,1.34-.71.3,0,.57.13.47.52Z" />
    <path class="cls-4" d="m507.92,919.24c.03.94-1.03.76-1.25,1.36-.46-.2-.39-.47-.24-.73.27-.45.73-.65,1.48-.63Z" />
    <path class="cls-4" d="m485.37,934.89c.91.68,1.82,1.37,2.73,2.05-.91-.68-1.82-1.37-2.73-2.05Z" />
    <path class="cls-4" d="m500.98,918.24c-.08-.04-.16-.08-.25-.11.08.04.16.08.25.11Z" />
    <path class="cls-4" d="m499.56,917.35c-.07-.06-.13-.12-.2-.19.07.06.13.12.2.19Z" />
    <path class="cls-4" d="m519.68,905.34c0-.09-.01-.19-.02-.28,0,.09.01.19.02.28Z" />
  </g>
</svg>