<?xml version="1.0" encoding="UTF-8"?>
<svg id="poster" data-name="poster" xmlns="http://www.w3.org/2000/svg" xmlns:xlink="http://www.w3.org/1999/xlink"
    viewBox="0 0 840 1190.55" overflow="visible">
    <defs>
        <mask id="trophy">
            <rect width="100%" height="100%" fill="white" />
            <path fill="black"
                d="m361.53,181.06c2.88-.66,9.43-2.54,13.29.42,7.69,5.9,3.52,30.67-2.15,45.01-7.66,19.37-17.11,19.42-21.22,16.97-4.54-2.7-9.86-27.83-5.87-50.14.95-5.32,5.74-9.94,15.95-12.27Z" />
        </mask>
        <mask id="text">
            <rect width="100%" height="100%" fill="white" />
            <path fill="black"
                d="m625.7,152.97c14.12,0,27.65-12.42,27-27s-11.86-27-27-27c-14.12,0-27.65,12.42-27,27s11.86,27,27,27h0Z" />
        </mask>
        <style>
            @font-face {
                font-family: constan;
                src: url("./images/dies2025/constan.ttf") format("truetype");
                font-weight: normal;
            }

            .cls-poster-1,
            .cls-poster-2,
            .cls-poster-3,
            .cls-poster-4,
            .cls-poster-5 {
                fill: #fff;
            }

            .cls-poster-6 {
                opacity: 1;
            }

            .cls-poster-6,
            .cls-poster-2,
            .cls-poster-3,
            .cls-poster-4,
            .cls-poster-7,
            .cls-poster-8,
            .cls-poster-5,
            .cls-poster-9 {
                stroke: #fff;
                stroke-miterlimit: 10;
            }

            .cls-poster-6,
            .cls-poster-2,
            .cls-poster-7,
            .cls-poster-8 {
                stroke-width: 8px;
            }

            .cls-poster-6,
            .cls-poster-7,
            .cls-poster-10,
            .cls-poster-11,
            .cls-poster-12,
            .cls-poster-8 {
                fill: none;
            }

            .cls-poster-2,
            .cls-poster-5 {
                opacity: .58;
            }

            .cls-poster-13 {
                font-size: 219.2px;
            }

            .cls-poster-13,
            .cls-poster-14 {
                fill: #f6f6f6;
                font-family: constan;
            }

            .cls-poster-15 {
                letter-spacing: -.02em;
            }

            .cls-poster-16 {
                fill: #f39207;
            }

            .cls-poster-3,
            .cls-poster-9 {
                stroke-width: .5px;
            }

            .cls-poster-17 {
                fill: #003f2a;
            }

            .cls-poster-14 {
                font-size: 36.38px;
            }

            .cls-poster-18 {
                fill: #e94e1b;
            }

            .cls-poster-4,
            .cls-poster-5 {
                stroke-width: 9px;
            }

            .cls-poster-7 {
                opacity: .96;
            }

            .cls-poster-19 {
                letter-spacing: -.02em;
            }

            .cls-poster-20 {
                letter-spacing: 0em;
            }

            .cls-poster-10 {
                opacity: .85;
            }

            .cls-poster-11 {
                clip-path: url(#clippath-5);
            }

            .cls-poster-21 {
                letter-spacing: 0em;
            }

            .cls-poster-22 {
                letter-spacing: -.02em;
            }

            .cls-poster-23 {
                fill: #f9b233;
            }

            .cls-poster-24 {
                letter-spacing: -.03em;
            }

            .cls-poster-25 {
                letter-spacing: -.02em;
            }

            .cls-poster-8 {
                opacity: .92;
            }

            .cls-poster-26 {
                /* fill: #003f2a; */
                fill: none;
            }

            .cls-poster-27 {
                letter-spacing: -.01em;
            }

            .cls-poster-28 {
                fill: #6280c0;
            }

            .cls-poster-29 {
                letter-spacing: -.02em;
            }
        </style>
        <clipPath id="clippath-5">
            <polygon class="cls-poster-12" points="978.32 11.46 -22.48 99.26 136.12 1260.33 978.32 1260.33 978.32 11.46" />
        </clipPath>
    </defs>
    <rect class="cls-poster-26" x="-17.08" y="-17.26" width="875.91" height="1216.55" />
    <path transform="translate(0, 455)"
        d="M884.492 1899L-12.0083 552L-12.0084 0C302.992 161 550.092 297.88 864.992 454.8L884.492 1899Z"
        class="cls-poster-28" />
    <g mask="url(#text)">
        <text class="cls-poster-13" transform="translate(71.58 268.8) scale(.92 1)">
            <tspan x="0" y="0">ευ</tspan>
            <tspan x="364.55" y="0">οriα</tspan>
        </text>
    </g>
    <g>
        <path class="cls-poster-1"
            d="m341.09,432.67c.23,4.37,1.62,12.5,10.51,22.74,29.88,34.37,86.49,50.07,86.49,50.07,15.85,4.4,38.91,9.34,67.53,10.39l-.55-12.36h0c-12.81,3.42-49-.88-83.91-13.99-49.24-18.49-71.81-61.76-77-72.37-1.48,3.28-3.44,8.8-3.08,15.53Z" />
        <path transform="translate(338, 416)"
            d="M0.639996 17.06C1.43 31.19 12.44 42.46 22.57 51.19C33.49 60.6 45.87 68.23 58.74 74.67C68.64 79.62 78.89 83.92 89.35 87.54C95.32 89.6 101.34 91.3 107.48 92.78C124.18 96.82 141.23 99.37 158.38 100.45C160.95 100.61 163.52 100.74 166.09 100.83C166.62 100.85 280.5 103 280.5 103C280.32 98.88 289.68 100.12 289.5 96C289.46 95.14 166.5 86.44 165.83 86.61C161.25 87.81 156.27 87.76 151.55 87.59C144.32 87.33 137.1 86.45 129.97 85.26C121.31 83.82 112.73 81.87 104.27 79.52C95.39 77.05 86.53 74.22 78.04 70.62C64.66 64.94 52.31 56.88 41.52 47.15C32.9 39.37 25.23 30.55 18.59 21.03C14.38 15 10.56 8.67999 7.26997 2.09999C7.03997 1.64999 6.81999 1.19999 6.59999 0.749988C6.11999 -0.230012 4.18998 0.099977 3.77998 1.01998C1.54998 5.99998 0.359967 11.34 0.609967 16.81C0.669967 18.22 3.57998 17.69 3.52998 16.54C3.28998 11.26 4.35997 6.07 6.51997 1.26L3.69999 1.52999C6.69999 7.66999 10.12 13.61 13.91 19.3C20.28 28.88 27.67 37.8 36 45.73C46.45 55.68 58.37 64.08 71.44 70.25C79.57 74.09 88.12 77.03 96.71 79.64C105.52 82.31 123.5 86.24 123.5 86.24L146.5 89.32C152.06 89.69 157.79 89.88 163.32 89C164.32 88.84 165.32 88.65 166.29 88.39L164.59 87.63C164.77 91.75 164.96 95.87 165.14 99.99L167.13 98.89C149.34 98.22 131.61 96.01 114.23 92.14C107.32 90.6 100.46 88.87 93.75 86.64C84.19 83.47 74.82 79.7 65.72 75.4C52.99 69.38 40.67 62.27 29.59 53.55C23.7 48.91 18.12 43.79 13.29 38.05C8.73999 32.65 4.96998 26.32 3.83998 19.26C3.67998 18.27 3.57997 17.28 3.51997 16.28C3.44997 15.11 0.549976 15.76 0.619976 17.06H0.639996Z"
            fill="white" />
    </g>
    <line class="cls-poster-5" x1="641.24" y1="796.28" x2="-.04" y2="1031.04" />
    <line class="cls-poster-5" x1="152" y1="1263.17" x2="827.96" y2="894.56" />
    <line class="cls-poster-6" x1="-20.66" y1="450.48" x2="861.73" y2="913.12" />
    <line class="cls-poster-6" x1="-22.19" y1="995.84" x2="845" y2="2290" />
    <line class="cls-poster-5" x1="-21.52" y1="684.49" x2="845" y2="1600" />
    <path class="cls-poster-23"
        d="m798.18,308.4c-.12-.96-1.2-1.84-2.47-2.02-1.28-.18-2.55-.16-3.78.34-.9.36-1.8.7-2.69,1.07-.76.32-1.52.59-2.18-.19-.59-.7-.47-1.55-.36-2.38.18-1.42,1.06-2.41,1.89-3.43,1.67-2.03,3.37-4.04,5.03-6.08,1.04-1.28,2.03-2.59,2.54-4.23.29-.93-.69-2.08-1.64-1.92-1.45.25-2.73.95-3.91,1.81-1.97,1.43-3.89,2.93-5.87,4.37-.17.12-.66.04-.79-.13-.15-.2-.19-.67-.07-.89,1.33-2.29,2.7-4.56,4.05-6.84.59-1,1.2-1.98,1.7-3.03,1.09-2.26.6-4.25-1.32-5.64-2.33-1.69-5.9-1.63-8.04.38-1.29,1.22-2.34,2.74-3.42,4.19-.99,1.32-1.82,2.76-2.83,4.06-.96,1.23-2.29,1.04-3.11-.43-.4-.7-.58-1.54-.93-2.27-.26-.54-1.3-.47-1.64.07-.17.27-.45.53-.51.83-.85,4.09-2.05,8.1-2.21,12.34-.1,2.68-.49,5.34-.61,8.02-.16,3.53-1.61,6.42-3.69,9.08-3.32,4.24-7.6,7.16-12.11,9.74-3.79,2.17-7.78,3.9-11.86,5.4-10.86,3.98-21.75,7.89-32.57,12.01-8.11,3.09-16.06,6.61-23.6,11.08-6.57,3.89-12.62,8.56-18.49,13.49-7.99,6.7-15.89,13.54-23.86,20.27-2.36,2-4.83,3.87-7.3,5.71-2.85,2.12-6.18,3.39-9.63,3.62-4.85.33-9.71.71-14.56,1.03-4.51.3-8.78,1.5-12.93,3.39-6.47,2.94-13.11,5.32-20.15,6.25-.79.1-1.58.3-2.38.32-3.86.11-5.55-1.46-5.85-5.57-.4-5.41.38-10.71,1.55-15.96.14-.64.27-1.51.7-1.82,2.95-2.14,3.09-5.72,4.19-8.78.55-1.54,1.21-3.08,1.23-4.83.03-2.12-.17-4.08-2.17-5.18-1.53-.84-1.75-2.19-1.68-3.8.08-1.84.05-3.69.05-5.54.01-3.04-.46-6.01-1.19-8.95-1.63-6.53-5.08-11.02-10.22-13.55-1.71-.84-3.61-1.46-5.7-1.87-5.43-1.06-10.84-.62-16.1,1.26-8.27,2.97-13.13,9.22-15.32,17.9-.9,3.58-1.41,7.25-1.05,10.96.2,2.1.18,3.98-1.52,5.49-1.08.96-1.06,2.39-1,3.74.16,4.08,1.38,7.9,2.79,11.65.3.79.77,1.56,1.62,1.73,1.78.36,2.13,1.73,2.4,3.3.87,4.94,2.04,9.83,2.41,14.87.23,3.02.43,6.04-.49,8.98-.8,2.54-3.11,3.13-4.84,1.19-.86-.97-1.56-2.12-2.19-3.28-1.26-2.33-2.43-4.72-3.62-7.09-2.6-5.2-6.46-8.56-12.09-9.73-4.07-.84-8.08-2.01-12.09-3.14-5.35-1.51-9.91-4.23-13.7-8.72-5.2-6.16-11.41-11.26-17.59-16.31-13.52-11.04-27.71-21.05-42.44-30.22-10.6-6.61-21.63-12.27-33.5-16-2.16-.68-13.05-6.78-21.8-11.33-.29,7.51-2.47,16.5-7.61,19.58,1.42.83,2.53,1.53,3.2,2.02,7.06,5.2,14.34,10.09,21.53,15.11,3.34,2.33,6.89,4.26,10.63,5.75,13.96,5.57,26.04,14.18,36.92,24.81,8.66,8.46,16.84,17.46,26.03,25.32,8.43,7.21,16.94,14.31,25.39,21.49,6.91,5.86,7.44,6.11,8.66,16.38.81,6.82,1.25,13.68,1.91,20.52.55,5.67,1.09,11.34,1.83,16.98.65,4.94,6.34,19.38,8,24.08,4.26,12.06,3.39,14.78,5.74,27.43,1.03,5.52,1.81,11.07,1.72,16.73-.14,8.75-11.45,34.34-11.89,40.18-1.38,18.43-1.73,18.44-1.15,36.88l7.45,41.95c1.83,4.83,6.76,30.97,8.65,35.78.73,1.86,1.4,3.74,1.35,5.82-.07,3.51-1.56,5.67-4.75,6.68-.45.14-.94.2-1.42.23-1.65.12-2.65,1.18-3.21,2.64-.72,1.86-1.45,3.75-1.85,5.7-.97,4.75-1.84,9.53-2.6,14.32-1.18,7.45-2.01,14.95-2.34,22.5-.25,5.74.36,11.4,2.11,16.86,1.29,4.02,3.2,7.69,6.46,10.39,2.18,1.81,4.59,3.02,7.44,3.05,3.02.03,5.26-1.59,6.02-4.65.44-1.77.58-3.63.8-5.46.14-1.16.09-2.35.26-3.51.43-3.01,2.12-3.96,4.77-2.53,1.84.99,3.58,2.2,5.28,3.45,3.28,2.42,6.64,2.39,9.87.17,6.63-4.56,11.66-10.37,12.88-19.04.35-2.5.66-4.98.67-7.5.01-6.88,0-13.76,0-19.57-.14-9.13.27-17.17.77-25.21.13-2.01.34-4.02,1.28-5.84-5.84-67.89,2.62-2.02,3.86-.44.93,1.19,1.5,2.57,1.87,4.04.65,2.59,1.29,5.19,1.9,7.79,1.07,4.56,1.97,9.15,3.52,13.58.83,2.37,1.18,4.85,1.27,7.39.19,5.38-.08,10.72-.48,16.08-.67,9.03-1.65,18.04-1.72,27.11-.05,5.72.29,11.36,1.96,16.9,2.08,6.91,2.02,14.29,2.44,21.38.51,8.54,1.03,17.1.86,25.66-.04,2.18.2,4.37.5,6.53,1.04,7.28.6,14.36-2.15,21.23-1.54,3.86-2.84,7.83-4.23,11.76-1,2.86-1.45,5.85-1.67,8.86-.43,5.77,1.74,9.23,6.89,11.23,1.95.76,3.94,1.3,6.04,1.54,5.26.61,10.53.81,15.8.95,1.12.03,2.25.03,3.35-.13,2.2-.31,3.11-1.38,3.23-3.62.08-1.52-.03-3.01-.64-4.43-1.23-2.9-2.4-5.84-3.67-8.73-.94-2.13-2-4.2-3.01-6.29-1.32-2.73-2.16-5.67-2.29-8.68-.26-5.68-.69-11.35-.39-17.08.97-18.82,4.1-37.27,7.68-55.69,2.66-13.71,3.55-27.58,1.48-41.52-.69-4.63-1.27-9.29-1.95-13.92-1.73-11.7-1.53-23.4-.06-35.1,1.19-9.48,2.29-19.04,5.09-28.13,3.2-10.41,3.62-21.08,4.19-31.77.79-14.74,1.2-29.49,2.08-44.22.42-7.16-.26-14.05-2.44-20.81-1.59-4.93-3.17-9.85-4.81-14.76-1.54-4.62-2.46-9.32-2.57-14.26-.23-9.93-.76-19.86-1.03-29.79-.24-8.53.92-17.04,3.32-25.17,5.25-17.75,10.74-35.43,15.97-53.19.98-3.34,2.84-5.56,5.64-7.08,3.12-1.7,6.26-3.36,9.43-4.95,6.68-3.33,12.83-7.46,18.46-12.53,9.95-8.96,20.12-17.65,30.08-26.6,3.7-3.32,7.84-6.03,12.26-8.07,8.14-3.76,16.28-7.54,24.44-11.25,10.9-4.96,21.08-11.21,30.72-18.49,7.11-5.37,14.36-10.53,21.59-15.71,1.63-1.17,3.38-2.1,5.17-2.93,3.9-1.82,6.99-4.63,9.58-8.12,1.76-2.38,3.44-4.84,5.04-7.35,1.48-2.32,3.36-3.94,5.94-4.8,1.66-.55,3.24-1.41,4.79-2.27.84-.47,1.54-1.24,1.39-2.42Z" />
    <path class="cls-poster-16"
        d="m805.63,310.47c-.12-.96-1.2-1.84-2.47-2.02-1.28-.18-2.55-.16-3.78.34-.9.36-1.8.7-2.69,1.07-.76.32-1.52.59-2.18-.19-.59-.7-.47-1.55-.36-2.38.18-1.42,1.06-2.41,1.89-3.43,1.67-2.03,3.37-4.04,5.03-6.08,1.04-1.28,2.03-2.59,2.54-4.23.29-.93-.69-2.08-1.64-1.92-1.45.25-2.73.95-3.91,1.81-1.97,1.43-3.89,2.93-5.87,4.37-.17.12-.66.04-.79-.13-.15-.2-.19-.67-.07-.89,1.32-2.29,2.7-4.56,4.05-6.84.59-1,1.2-1.98,1.7-3.03,1.09-2.26.6-4.25-1.32-5.64-2.33-1.69-5.9-1.63-8.04.38-1.29,1.22-2.34,2.74-3.42,4.19-.99,1.32-1.82,2.76-2.83,4.06-.96,1.23-2.29,1.04-3.11-.43-.4-.7-.58-1.54-.93-2.27-.26-.54-1.3-.47-1.64.07-.17.27-.45.53-.51.83-.85,4.09-2.05,8.1-2.21,12.34-.1,2.68-.49,5.34-.61,8.02-.16,3.53-1.61,6.42-3.69,9.08-3.32,4.24-7.6,7.16-12.11,9.74-3.79,2.17-7.78,3.9-11.86,5.4-10.86,3.98-21.75,7.89-32.57,12.01-8.11,3.09-16.06,6.61-23.6,11.08-6.57,3.89-12.62,8.56-18.49,13.49-7.99,6.7-15.89,13.54-23.86,20.27-2.36,2-4.83,3.87-7.3,5.71-2.85,2.12-6.18,3.39-9.63,3.62-4.85.33-9.71.71-14.56,1.03-4.51.3-8.78,1.5-12.93,3.39-6.47,2.94-13.11,5.32-20.15,6.25-.79.1-1.58.3-2.37.32-3.86.11-5.55-1.46-5.85-5.57-.4-5.41.38-10.71,1.55-15.96.14-.64.27-1.51.7-1.82,2.95-2.14,3.09-5.72,4.19-8.78.55-1.54,1.21-3.08,1.23-4.83.03-2.12-.17-4.08-2.17-5.18-1.53-.84-1.75-2.19-1.68-3.8.08-1.84.05-3.69.05-5.54.01-3.04-.46-6.01-1.19-8.95-1.63-6.53-5.08-11.02-10.22-13.55-1.71-.84-3.61-1.46-5.7-1.87-5.43-1.06-10.84-.62-16.1,1.26-8.27,2.97-13.13,9.22-15.32,17.9-.9,3.58-1.41,7.25-1.05,10.96.2,2.1.18,3.98-1.52,5.49-1.08.96-1.06,2.39-1,3.74.16,4.08,1.38,7.9,2.79,11.65.3.79.77,1.56,1.62,1.73,1.78.36,2.13,1.73,2.4,3.3.87,4.94,2.04,9.83,2.41,14.87.23,3.02.43,6.04-.49,8.98-.8,2.54-3.11,3.13-4.84,1.19-.86-.97-1.56-2.12-2.19-3.28-1.26-2.33-2.43-4.72-3.62-7.09-2.6-5.2-6.46-8.56-12.09-9.73-4.07-.84-8.08-2.01-12.09-3.14-5.35-1.51-9.91-4.23-13.7-8.72-5.2-6.16-11.41-11.26-17.59-16.31-13.52-11.04-27.71-21.05-42.44-30.22-10.6-6.61-21.63-12.27-33.5-16-2.93-.92-21.94-11.82-29.85-15.28.13,3.31-.45,6.67-1.26,9.86-.72,2.87-3.57,7.39-3.4,10.23v-.02c0,.2-.02.4-.04.6,3.86,2.08,6.99,3.89,8.34,4.89,7.06,5.2,14.34,10.09,21.53,15.11,3.34,2.33,6.89,4.26,10.63,5.75,13.96,5.57,26.04,14.18,36.92,24.81,8.66,8.46,16.84,17.46,26.03,25.32,8.43,7.21,16.94,14.31,25.39,21.49,6.91,5.86,7.44,6.11,8.66,16.38.81,6.82,1.25,13.68,1.91,20.52.55,5.67,1.09,11.34,1.83,16.98.65,4.94,2.02,9.72,3.68,14.42,4.26,12.06,7.71,24.44,10.06,37.09,1.03,5.52,1.81,11.07,1.72,16.73-.14,8.75-11.45,34.34-11.89,40.18-1.38,18.43-1.73,18.44-1.15,36.88l7.45,41.95c1.83,4.83,6.76,30.97,8.65,35.78.73,1.86,1.4,3.74,1.35,5.82-.07,3.51-1.56,5.67-4.75,6.68-.45.14-.94.2-1.42.23-1.65.12-2.65,1.18-3.21,2.64-.72,1.86-1.45,3.75-1.85,5.7-.97,4.75-1.84,9.53-2.6,14.32-1.18,7.45-2.01,14.95-2.34,22.5-.25,5.74.36,11.4,2.11,16.86,1.29,4.02,3.2,7.69,6.46,10.39,2.18,1.81,4.59,3.02,7.44,3.05,3.02.03,5.26-1.59,6.02-4.65.44-1.77.58-3.63.8-5.46.14-1.16.09-2.35.26-3.51.43-3.01,2.12-3.96,4.77-2.53,1.84.99,3.58,2.2,5.28,3.45,3.28,2.42,6.64,2.39,9.87.17,6.63-4.56,11.66-10.37,12.88-19.04.35-2.5.66-4.98.67-7.5.01-6.88,0-13.76,0-19.57-.14-9.13.27-17.17.77-25.21.13-2.01.34-4.02,1.28-5.84-5.84-67.89,2.62-2.02,3.86-.44.93,1.19,1.5,2.57,1.87,4.04.65,2.59,1.29,5.19,1.9,7.79,1.07,4.56,1.97,9.15,3.52,13.58.83,2.37,1.18,4.85,1.27,7.39.19,5.38-.08,10.72-.48,16.08-.67,9.03-1.65,18.04-1.72,27.11-.05,5.72.29,11.36,1.96,16.9,2.08,6.91,2.02,14.29,2.44,21.38.51,8.54,1.03,17.1.86,25.66-.04,2.18.2,4.37.5,6.53,1.04,7.28.6,14.36-2.15,21.23-1.54,3.86-2.84,7.83-4.23,11.76-1,2.86-1.45,5.85-1.67,8.86-.43,5.77,1.74,9.23,6.89,11.23,1.95.76,3.94,1.3,6.04,1.54,5.26.61,10.53.81,15.8.95,1.12.03,2.25.03,3.35-.13,2.2-.31,3.11-1.38,3.23-3.62.08-1.52-.03-3.01-.64-4.43-1.23-2.9-2.4-5.84-3.67-8.73-.94-2.13-2-4.2-3.01-6.29-1.32-2.73-2.16-5.67-2.29-8.68-.26-5.68-.69-11.35-.39-17.08.97-18.82,4.1-37.27,7.68-55.69,2.66-13.71,3.55-27.58,1.48-41.52-.69-4.63-1.27-9.29-1.95-13.92-1.73-11.7-1.53-23.4-.06-35.1,1.19-9.48,2.29-19.04,5.09-28.13,3.2-10.41,3.62-21.08,4.19-31.77.79-14.74,1.2-29.49,2.08-44.22.42-7.16-.26-14.05-2.44-20.81-1.59-4.93-3.17-9.85-4.81-14.76-1.54-4.62-2.46-9.32-2.57-14.26-.23-9.93-.76-19.86-1.03-29.79-.24-8.53.92-17.04,3.32-25.17,5.25-17.75,10.74-35.43,15.97-53.19.98-3.34,2.84-5.56,5.64-7.08,3.12-1.7,6.26-3.36,9.43-4.95,6.68-3.33,12.83-7.46,18.46-12.53,9.95-8.96,20.12-17.65,30.08-26.6,3.7-3.32,7.84-6.03,12.26-8.07,8.14-3.76,16.28-7.54,24.44-11.25,10.9-4.96,21.08-11.21,30.72-18.49,7.11-5.37,14.36-10.53,21.59-15.71,1.63-1.17,3.38-2.1,5.17-2.93,3.9-1.82,6.99-4.63,9.58-8.12,1.76-2.38,3.44-4.84,5.04-7.35,1.48-2.32,3.36-3.94,5.94-4.8,1.66-.55,3.24-1.41,4.79-2.27.84-.47,1.54-1.24,1.39-2.42Z" />
    <polygon class="cls-poster-7"
        points="685.74 912.84 621.78 866.61 618.43 882.33 609.39 886.85 612.76 855.86 619.85 852.11 709.09 901.48 685.74 912.84" />
    <line class="cls-poster-2" x1="-21.47" y1="537.22" x2="865.05" y2="1160.81" />
    <g class="cls-poster-11">
        <path class="cls-poster-18"
            d="m813.11,312.47c-.12-.96-1.2-1.84-2.47-2.02-1.28-.18-2.55-.16-3.78.34-.9.36-1.8.7-2.69,1.07-.76.32-1.52.59-2.18-.19-.59-.7-.47-1.55-.36-2.38.18-1.42,1.06-2.41,1.89-3.43,1.67-2.03,3.37-4.04,5.03-6.08,1.04-1.28,2.03-2.59,2.54-4.23.29-.93-.69-2.08-1.64-1.92-1.45.25-2.73.95-3.91,1.81-1.97,1.43-3.89,2.93-5.87,4.37-.17.12-.66.04-.79-.13-.15-.2-.19-.67-.07-.89,1.33-2.29,2.7-4.56,4.05-6.84.59-1,1.2-1.98,1.7-3.03,1.09-2.26.6-4.25-1.32-5.64-2.33-1.69-5.9-1.63-8.04.38-1.29,1.22-2.34,2.74-3.42,4.19-.99,1.32-1.82,2.76-2.83,4.06-.96,1.23-2.29,1.04-3.11-.43-.4-.7-.58-1.54-.93-2.27-.26-.54-1.3-.47-1.64.07-.17.27-.45.53-.51.83-.85,4.09-2.05,8.1-2.21,12.34-.1,2.68-.49,5.34-.61,8.02-.16,3.53-1.61,6.42-3.69,9.08-3.32,4.24-7.6,7.16-12.11,9.74-3.79,2.17-7.78,3.9-11.86,5.4-10.86,3.98-21.75,7.89-32.57,12.01-8.11,3.09-16.06,6.61-23.6,11.08-6.57,3.89-12.62,8.56-18.49,13.49-7.99,6.7-15.89,13.54-23.86,20.27-2.36,2-4.83,3.87-7.3,5.71-2.85,2.12-6.18,3.39-9.63,3.62-4.85.33-9.71.71-14.56,1.03-4.51.3-8.78,1.5-12.93,3.39-6.47,2.94-13.11,5.32-20.15,6.25-.79.1-1.58.3-2.37.32-3.86.11-5.55-1.46-5.85-5.57-.4-5.41.38-10.71,1.55-15.96.14-.64.27-1.51.7-1.82,2.95-2.14,3.09-5.72,4.19-8.78.55-1.54,1.21-3.08,1.23-4.83.03-2.12-.17-4.08-2.17-5.18-1.53-.84-1.75-2.19-1.68-3.8.08-1.84.05-3.69.05-5.54.01-3.04-.46-6.01-1.19-8.95-1.63-6.53-5.08-11.02-10.22-13.55-1.71-.84-3.61-1.46-5.7-1.87-5.43-1.06-10.84-.62-16.1,1.26-8.27,2.97-13.13,9.22-15.32,17.9-.9,3.58-1.41,7.25-1.05,10.96.2,2.1.18,3.98-1.52,5.49-1.08.96-1.06,2.39-1,3.74.16,4.08,1.38,7.9,2.79,11.65.3.79.77,1.56,1.62,1.73,1.78.36,2.13,1.73,2.4,3.3.87,4.94,2.04,9.83,2.41,14.87.23,3.02.43,6.04-.49,8.98-.8,2.54-3.11,3.13-4.84,1.19-.86-.97-1.56-2.12-2.19-3.28-1.26-2.33-2.43-4.72-3.62-7.09-2.6-5.2-6.46-8.56-12.09-9.73-4.07-.84-8.08-2.01-12.09-3.14-5.35-1.51-9.91-4.23-13.7-8.72-5.2-6.16-11.41-11.26-17.59-16.31-13.52-11.04-27.71-21.05-42.44-30.22-10.6-6.61-21.63-12.27-33.5-16-3.42-1.08-31.53-15.78-34.53-18.57-.93-.87-41.38-22.45,1.44,2.22-.02,5.4-2.62,10.49-6.18,14.78-.43,1.34-.94,2.59-1.58,3.66,6.54,3.33,12.6,6.68,14.64,8.18,7.06,5.2,14.34,10.09,21.53,15.11,3.34,2.33,6.89,4.26,10.63,5.75,13.96,5.57,26.04,14.18,36.92,24.81,8.66,8.46,16.84,17.46,26.03,25.32,8.43,7.21,16.94,14.31,25.39,21.49,6.91,5.86,7.44,6.11,8.66,16.38.81,6.82,1.25,13.68,1.91,20.52.55,5.67,1.09,11.34,1.83,16.98.65,4.94,2.02,9.72,3.68,14.42,4.26,12.06,7.71,24.44,10.06,37.09,1.03,5.52,1.81,11.07,1.72,16.73-.14,8.75-11.45,34.34-11.89,40.18-1.38,18.43-1.73,18.44-1.15,36.88l7.45,41.95c1.83,4.83,6.76,30.97,8.65,35.78.73,1.86,1.4,3.74,1.35,5.82-.07,3.51-1.56,5.67-4.75,6.68-.45.14-.94.2-1.42.23-1.65.12-2.65,1.18-3.21,2.64-.72,1.86-1.45,3.75-1.85,5.7-.97,4.75-1.84,9.53-2.6,14.32-1.18,7.45-2.01,14.95-2.34,22.5-.25,5.74.36,11.4,2.11,16.86,1.29,4.02,3.2,7.69,6.46,10.39,2.18,1.81,4.59,3.02,7.44,3.05,3.02.03,5.26-1.59,6.02-4.65.44-1.77.58-3.63.8-5.46.14-1.16.09-2.35.26-3.51.43-3.01,2.12-3.96,4.77-2.53,1.84.99,3.58,2.2,5.28,3.45,3.28,2.42,6.64,2.39,9.87.17,6.63-4.56,11.66-10.37,12.88-19.04.35-2.5.66-4.98.67-7.5.01-6.88,0-13.76,0-19.57-.14-9.13.27-17.17.77-25.21.13-2.01.34-4.02,1.28-5.84-5.84-67.89,2.62-2.02,3.86-.44.93,1.19,1.5,2.57,1.87,4.04.65,2.59,1.29,5.19,1.9,7.79,1.07,4.56,1.97,9.15,3.52,13.58.83,2.37,1.18,4.85,1.27,7.39.19,5.38-.08,10.72-.48,16.08-.67,9.03-1.65,18.04-1.72,27.11-.05,5.72.29,11.36,1.96,16.9,2.08,6.91,2.02,14.29,2.44,21.38.51,8.54,1.03,17.1.86,25.66-.04,2.18.2,4.37.5,6.53,1.04,7.28.6,14.36-2.15,21.23-1.54,3.86-2.84,7.83-4.23,11.76-1,2.86-1.45,5.85-1.67,8.86-.43,5.77,1.74,9.23,6.89,11.23,1.95.76,3.94,1.3,6.04,1.54,5.26.61,10.53.81,15.8.95,1.12.03,2.25.03,3.35-.13,2.2-.31,3.11-1.38,3.23-3.62.08-1.52-.03-3.01-.64-4.43-1.23-2.9-2.4-5.84-3.67-8.73-.94-2.13-2-4.2-3.01-6.29-1.32-2.73-2.16-5.67-2.29-8.68-.26-5.68-.69-11.35-.39-17.08.97-18.82,4.1-37.27,7.68-55.69,2.66-13.71,3.55-27.58,1.48-41.52-.69-4.63-1.27-9.29-1.95-13.92-1.73-11.7-1.53-23.4-.06-35.1,1.19-9.48,2.29-19.04,5.09-28.13,3.2-10.41,3.62-21.08,4.19-31.77.79-14.74,1.2-29.49,2.08-44.22.42-7.16-.26-14.05-2.44-20.81-1.59-4.93-3.17-9.85-4.81-14.76-1.54-4.62-2.46-9.32-2.57-14.26-.23-9.93-.76-19.86-1.03-29.79-.24-8.53.92-17.04,3.32-25.17,5.25-17.75,10.74-35.43,15.97-53.19.98-3.34,2.84-5.56,5.64-7.08,3.12-1.7,6.26-3.36,9.43-4.95,6.68-3.33,12.83-7.46,18.46-12.53,9.95-8.96,20.12-17.65,30.08-26.6,3.7-3.32,7.84-6.03,12.26-8.07,8.14-3.76,16.28-7.54,24.44-11.25,10.9-4.96,21.08-11.21,30.72-18.49,7.11-5.37,14.36-10.53,21.59-15.71,1.63-1.17,3.38-2.1,5.17-2.93,3.9-1.82,6.99-4.63,9.58-8.12,1.76-2.38,3.44-4.84,5.04-7.35,1.48-2.32,3.36-3.94,5.94-4.8,1.66-.55,3.24-1.41,4.79-2.27.84-.47,1.54-1.24,1.39-2.42Z" />
    </g>
    <path class="cls-poster-23"
        d="m319.3,270.31l3.24-1.3c.52-.21,1.11-.2,1.62.04l3.17,1.45c.07.03.14.07.2.11l5.33,3.19c.19.12.41.2.63.25l2.43.52c.39.08.74.27,1.02.55l2.36,2.34c.2.2.36.44.46.7l.81,2.04c.34.86.06,1.85-.68,2.4h0c-.36.27-.79.41-1.23.41h-3.54c-.32,0-.64-.08-.93-.22l-5.29-2.69c-.08-.04-.17-.08-.25-.11l-4.38-1.53c-.08-.03-.17-.05-.26-.07l-2.63-.55c-.22-.05-.43-.13-.63-.24l-2.21-1.32-.77-.46c-1.02-.61-1.32-1.95-.65-2.93l1.24-1.82c.23-.34.55-.6.93-.75Z" />
    <path class="cls-poster-3" mask="url(#trophy)"
        d="m354.77,259.29c5.36-1.47,12.69-3.59,18.55-10.32,2.55-2.92,4.05-5.84,4.93-7.9,1.03-3.53,2.07-7.05,3.1-10.58,1.18-4.51,2.36-9.03,3.54-13.54.44-4.09.89-8.18,1.33-12.27.3-10.3.59-20.59.89-30.89-4.06-1.96-14.19-6.2-27.16-4.58-4.56.57-18.25,2.28-25.26,11.85-3.49,4.77-2.48,15.22-1.33,35.54,0,.11.08,3.35.21,9.83.24,11.19.3,16.82-2.4,18.61-1.72,1.14-3.78.76-4.73.63-3.71-.48-8.24-3.48-12.03-13.15-11.02-28.09,1.88-60.77-4.03-62.49-.51-.15-4.55.58-12.62,2.04-.11.02-.16.03-.16.03v12.27c-.15,5.22-.3,10.44-.44,15.66.59,5.5,1.18,11,1.77,16.5.74,3.81,1.48,7.62,2.22,11.42,1.33,3.1,2.66,6.21,3.99,9.31,2.51,4.37,5.02,8.74,7.53,13.12.6.91,1.52,2.08,2.84,3.21,0,0,1.77,1.52,4.17,2.56,17.99,7.83,35.08,3.13,35.08,3.13Z" />
    <g>
        <path class="cls-poster-3"
            d="m335.37,256.47c7.51,11.53.53,44.36-16.43,46.95-1.94.3-3.22.72-3.26,2.69-.11,5.23-.22,10.47-.32,15.7-.02.88-.36,1.72-.96,2.36-2.11,2.25-4.22,4.51-6.34,6.76-.19,11.73-.12,4.08-.19,11.73,17.3-.22,51.15-.26,68.46-.48.05-5.83.08-1.25.08-9.55-2.15-3.16-4.3-6.31-6.45-9.47-.37-.55-.59-1.19-.61-1.85-.21-4.83-.42-9.66-.63-14.5-.87-2.57-1.13-3.15-5.76-3.81-13.18-.64-24.89-31.91-20.12-45.66" />
        <path class="cls-poster-3"
            d="m269.65,190.49c-5.29,16.23,38.73,49.57,34.74,54.79-.39.5-1.99,1.76-2.92,4.24-.29.76-1.09,2.89-.32,3.59,1.13,1.04,5.97-.83,7.47-3.91.81-1.67,1.31-5.09-6.82-15.98-8.72-11.68-13.8-13.78-21.11-24.79-5.83-8.79-5.91-12.46-5.2-15,1.05-3.7,4.79-8.56,9.42-7.83,4.3.68,7.31,5.86,6.49,9.13-.69,2.76-3.98,3.7-3.57,5.54.26,1.18,1.91,2.06,3.25,1.96,2.82-.21,5.48-4.3,5.75-5.12,1.68-5.2-.89-13.23-6.07-16.08-2.46-1.35-4.94-1.17-6.1-1.07-6.26.55-13.33,5.39-15,10.52" />
        <path class="cls-poster-3"
            d="m391.01,206.69c-2.82-.21-4.28-4.72-4.55-5.54-1.68-5.2-.31-12.81,4.87-15.66,2.46-1.35,4.94-1.17,6.1-1.07,6.26.55,13.33,5.39,15,10.52,5.29,16.23-38.73,49.57-34.74,54.79.39.5,1.99,1.76,2.92,4.24.29.76,1.09,2.89.32,3.59-1.13,1.04-5.97-.83-7.47-3.91-.81-1.67-1.31-5.09,6.82-15.98,8.72-11.68,13.8-13.78,21.11-24.79,5.83-8.79,5.91-12.46,5.2-15-1.05-3.7-4.79-8.56-9.42-7.83-4.3.68-7.31,5.86-6.49,9.13.69,2.76,3.98,3.7,3.57,5.54-.26,1.18-1.91,2.06-3.25,1.96Z" />
    </g>
    <path class="cls-poster-23"
        d="m323.94,295.56l-4.12-.82c-.52,0-1.01-.27-1.28-.71l-2.05-3.26c-.05-.08-.11-.16-.18-.24h0c-.63-.66-.53-1.73.2-2.27l1.56-1.15c.26-.19.57-.29.9-.29h8.41c.25,0,.49.06.71.18l3.97,2.11c.22.12.46.18.71.18h.35c.87,0,1.55.72,1.51,1.59l-.15,3.1c-.02.48-.27.92-.67,1.19l-2.02,1.36c-.28.19-.62.28-.96.25l-3.38-.27c-.14-.01-.28-.04-.42-.09" />
    <path class="cls-poster-23"
        d="m323.1,261.37h5.45c.14,0,.29.02.43.05l5.25,1.15c.25.06.49.16.71.3l2.63,1.8c.31.21.56.51.71.85l1.63,3.72c.13.29.19.62.17.94l-.12,1.86c-.04.56-.3,1.08-.74,1.43l-1.75,1.43c-.59.48-1.41.59-2.11.27l-11.65-5.32c-.24-.11-.45-.26-.63-.45l-2.41-2.57c-.56-.6-.7-1.48-.36-2.22l.95-2.07c.33-.71,1.04-1.17,1.83-1.17h0Z" />
    <path class="cls-poster-23"
        d="m317.9,279.78l3.04-1.73c.49-.28,1.07-.35,1.61-.18l3.34,1c.07.02.15.05.22.08l5.72,2.43c.21.09.43.14.66.16l2.47.18c.39.03.77.17,1.09.41l2.66,1.99c.23.17.42.39.56.63l1.08,1.91c.46.81.32,1.82-.34,2.47h0c-.32.31-.72.52-1.17.58l-3.51.49c-.32.04-.65.01-.95-.09l-5.61-1.94c-.09-.03-.18-.05-.27-.07l-4.55-.92c-.09-.02-.18-.03-.26-.04l-2.68-.19c-.23-.02-.45-.07-.66-.16l-2.37-1-.82-.35c-1.09-.46-1.57-1.75-1.04-2.81l.98-1.97c.18-.36.47-.67.82-.87Z" />
    <g>
        <path class="cls-poster-16"
            d="m320.66,269.31l3.24-1.3c.52-.21,1.11-.2,1.62.04l3.17,1.45c.07.03.14.07.2.11l5.33,3.19c.19.12.41.2.63.25l2.43.52c.39.08.74.27,1.02.55l2.36,2.34c.2.2.36.44.46.7l.81,2.04c.34.86.06,1.85-.68,2.4h0c-.36.27-.79.41-1.23.41h-3.54c-.32,0-.64-.08-.93-.22l-5.29-2.69c-.08-.04-.17-.08-.25-.11l-4.38-1.53c-.08-.03-.17-.05-.26-.07l-2.63-.55c-.22-.05-.43-.13-.63-.24l-2.21-1.32-.77-.46c-1.02-.61-1.32-1.95-.65-2.93l1.24-1.82c.23-.34.55-.6.93-.75Z" />
        <path class="cls-poster-16"
            d="m325.3,294.56l-4.12-.82c-.52,0-1.01-.27-1.28-.71l-2.05-3.26c-.05-.08-.11-.16-.18-.24h0c-.63-.66-.53-1.73.2-2.27l1.56-1.15c.26-.19.57-.29.9-.29h8.41c.25,0,.49.06.71.18l3.97,2.11c.22.12.46.18.71.18h.35c.87,0,1.55.72,1.51,1.59l-.15,3.1c-.02.48-.27.92-.67,1.19l-2.02,1.36c-.28.19-.62.28-.96.25l-3.38-.27c-.14-.01-.28-.04-.42-.09" />
        <path class="cls-poster-16"
            d="m324.47,260.37h5.45c.14,0,.29.02.43.05l5.25,1.15c.25.06.49.16.71.3l2.63,1.8c.31.21.56.51.71.85l1.63,3.72c.13.29.19.62.17.94l-.12,1.86c-.04.56-.3,1.08-.74,1.43l-1.75,1.43c-.59.48-1.41.59-2.11.27l-11.65-5.32c-.24-.11-.45-.26-.63-.45l-2.41-2.57c-.56-.6-.7-1.48-.36-2.22l.95-2.07c.33-.71,1.04-1.17,1.83-1.17h0Z" />
        <path class="cls-poster-16"
            d="m319.27,278.78l3.04-1.73c.49-.28,1.07-.35,1.61-.18l3.34,1c.07.02.15.05.22.08l5.72,2.43c.21.09.43.14.66.16l2.47.18c.39.03.77.17,1.09.41l2.66,1.99c.23.17.42.39.56.63l1.08,1.91c.46.81.32,1.82-.34,2.47h0c-.32.31-.72.52-1.17.58l-3.51.49c-.32.04-.65.01-.95-.09l-5.61-1.94c-.09-.03-.18-.05-.27-.07l-4.55-.92c-.09-.02-.18-.03-.26-.04l-2.68-.19c-.23-.02-.45-.07-.66-.16l-2.37-1-.82-.35c-1.09-.46-1.57-1.75-1.04-2.81l.98-1.97c.18-.36.47-.67.82-.87Z" />
    </g>
    <text class="cls-poster-14" transform="translate(187.53 129.04) scale(.92 1)">
        <tspan class="cls-poster-20" x="0" y="0">6</tspan>
        <tspan x="19.33" y="0">3</tspan>
        <tspan class="cls-poster-15" x="35.94" y="0">e</tspan>
        <tspan x="52.48" y="0" xml:space="preserve"> Die</tspan>
        <tspan class="cls-poster-29" x="116.66" y="0">s</tspan>
        <tspan x="130.68" y="0"> </tspan>
        <tspan class="cls-poster-29" x="139.81" y="0">N</tspan>
        <tspan x="166.35" y="0">atali</tspan>
        <tspan class="cls-poster-25" x="234.63" y="0">s</tspan>
        <tspan class="cls-poster-15" x="248.65" y="0"> </tspan>
        <tspan x="256.89" y="0">de</tspan>
        <tspan class="cls-poster-24" x="294.96" y="0">r</tspan>
        <tspan x="307.66" y="0" xml:space="preserve"> C.S.R. Delf</tspan>
        <tspan class="cls-poster-19" x="485.29" y="0">t</tspan>
    </text>
    <g>
        <path class="cls-poster-1"
            d="m73.54,712.3c169.51-68.75,359.5-69.01,523.38-152.19,8.18-4.15,16.77-9,21.14-17.56,4.36-8.56,1.92-21.75-6.77-24.45l.16-7.67c3.48-1.5,34.87-2.72,31.54,11.36-3.16,13.33-11.19,25.47-22.18,32.42-86.74,54.88-64.81,46.16-155.92,70.77-95.78,25.87-325.32,48.65-402.35,115.41" />
        <path class="cls-poster-1"
            d="m74.05,712.65c39.3-15.9,79.91-28.25,120.96-38.72,41.09-10.48,82.61-19.15,124.09-27.93,41-8.68,82-17.48,122.5-28.28s79.85-23.4,118.11-39.7c9.72-4.14,19.34-8.51,28.85-13.13,7.99-3.88,16.52-7.6,23.38-13.36,6.09-5.11,10.21-12.11,9.63-20.24-.26-3.55-1.34-7.14-3.59-9.95-.9-1.13-1.98-2.1-3.24-2.82-.41-.23-1.32-.43-1.64-.77-.41-.45-.26-.28-.34-1.03-.25-2.14.09-4.51.14-6.67l-.94.73c2.25-.89,6.11-.65,8.69-.6,4.45.08,9.02.51,13.27,1.91,3.38,1.11,7.22,3.16,7.8,7.05.41,2.7-.82,5.67-1.67,8.17-1.27,3.72-2.93,7.31-4.94,10.69-8.34,13.97-23.26,21.13-36.53,29.63-10.02,6.42-19.99,12.92-30.09,19.21-12.54,7.81-25.29,14.86-39.3,19.66-21.36,7.32-43.55,12.45-65.34,18.27-40.97,10.95-83.1,17.67-124.73,25.54-50.32,9.52-100.7,19.38-150.08,33.12-22.46,6.25-44.76,13.3-66.35,22.11-18.14,7.41-36.09,16.02-52.02,27.53-3.24,2.34-6.39,4.81-9.42,7.43-.62.54,2.08.27,2.63-.2,14.59-12.59,31.9-21.82,49.42-29.63,21.55-9.6,44.02-17.08,66.65-23.65,25.12-7.3,50.56-13.43,76.11-19.03s51.25-10.64,76.96-15.52c23.67-4.5,47.37-8.83,71.01-13.47,19.24-3.77,38.49-7.67,57.46-12.61,22.09-5.76,44.46-11.21,66.15-18.34,13.98-4.6,26.83-11.13,39.36-18.8,9.55-5.85,18.95-11.97,28.37-18.02,6.71-4.31,13.42-8.61,20.15-12.88s12.74-8.08,17.7-14.11c4.74-5.75,8.26-12.46,10.38-19.6,1.15-3.86,1.87-7.54-1.39-10.54-5.71-5.25-16.12-5.33-23.37-5.08-2.56.09-5.46.13-7.88,1.09-.3.12-.93.32-.94.73-.05,2.56-.11,5.11-.16,7.67.05.11.14.17.26.18,7.18,2.48,9.37,11.25,8.4,18.05-1.27,8.93-8.44,15.22-15.8,19.6-8.29,4.94-17.26,8.93-26,12.99-9.3,4.31-18.71,8.4-28.21,12.27-37.05,15.1-75.33,26.93-114.02,37.02-38.83,10.12-78.09,18.51-117.34,26.82s-77.86,16.4-116.44,26.08-76.73,20.85-113.85,35.03c-4.62,1.76-9.22,3.58-13.8,5.43-1.9.77-.11,1.14,1.01.69h0Z" />
    </g>
    <path class="cls-poster-16"
        d="m347.54,288.15c.17.2,2.17,3.25,2.37,3.16s-1.68-1.95-1.7-2.22l-1.18-20.77c-.01-.19,0-.39.04-.58l.62-3.41c.21-1.16-.44-2.31-1.54-2.74h0c-.88-.34-1.88-.14-2.57.51l-1.49,1.41c-.31.3-.54.67-.67,1.08l-.74,2.44c-.07.23-.1.47-.1.71v3.29c0,.12,0,.24-.03.37l-.46,3.06c-.02.12-.03.24-.03.37v3.12c0,.31.06.62.17.91l1.27,3.19c.07.18.16.35.28.51l2.05,1.41" />
    <path class="cls-poster-18"
        d="m349.61,289.1l-1.18-20.77c-.01-.19,0-.39.04-.58l.62-3.41c.21-1.16-.44-2.31-1.54-2.74h0c-.88-.34-1.88-.14-2.57.51l-1.49,1.41c-.31.3-.54.67-.67,1.08l-.74,2.44c-.07.23-.1.47-.1.71v3.29c0,.12,0,.24-.03.37l-.46,3.06c-.02.12-.03.24-.03.37v3.12c0,.31.06.62.17.91l1.27,3.19c.07.18.16.35.28.51l2.39,3.4s.02.03.04.05l2.76,3.65c.17.2,1.36,2.52,1.57,2.44s-.3-2.74-.31-3.01Z" />
    <path class="cls-poster-18"
        d="m322.53,268.27l3.24-1.3c.52-.21,1.11-.2,1.62.04l3.17,1.45c.07.03.14.07.2.11l5.33,3.19c.19.12.41.2.63.25l2.43.52c.39.08.74.27,1.02.55l2.36,2.34c.2.2.36.44.46.7l.81,2.04c.34.86.06,1.85-.68,2.4h0c-.36.27-.79.41-1.23.41h-3.54c-.32,0-.64-.08-.93-.22l-5.29-2.69c-.08-.04-.17-.08-.25-.11l-4.38-1.53c-.08-.03-.17-.05-.26-.07l-2.63-.55c-.22-.05-.43-.13-.63-.24l-2.21-1.32-.77-.46c-1.02-.61-1.32-1.95-.65-2.93l1.24-1.82c.23-.34.55-.6.93-.75Z" />
    <path class="cls-poster-18"
        d="m327.17,293.51l-4.12-.82c-.52,0-1.01-.27-1.28-.71l-2.05-3.26c-.05-.08-.11-.16-.18-.24h0c-.63-.66-.53-1.73.2-2.27l1.56-1.15c.26-.19.57-.29.9-.29h8.41c.25,0,.49.06.71.18l3.97,2.11c.22.12.46.18.71.18h.35c.87,0,1.55.72,1.51,1.59l-.15,3.1c-.02.48-.27.92-.67,1.19l-2.02,1.36c-.28.19-.62.28-.96.25l-3.38-.27c-.14-.01-.28-.04-.42-.09" />
    <path class="cls-poster-18"
        d="m326.33,259.33h5.45c.14,0,.29.02.43.05l5.25,1.15c.25.06.49.16.71.3l2.63,1.8c.31.21.56.51.71.85l1.63,3.72c.13.29.19.62.17.94l-.12,1.86c-.04.56-.3,1.08-.74,1.43l-1.75,1.43c-.59.48-1.41.59-2.11.27l-11.65-5.32c-.24-.11-.45-.26-.63-.45l-2.41-2.57c-.56-.6-.7-1.48-.36-2.22l.95-2.07c.33-.71,1.04-1.17,1.83-1.17h0Z" />
    <path class="cls-poster-18"
        d="m321.13,277.73l3.04-1.73c.49-.28,1.07-.35,1.61-.18l3.34,1c.07.02.15.05.22.08l5.72,2.43c.21.09.43.14.66.16l2.47.18c.39.03.77.17,1.09.41l2.66,1.99c.23.17.42.39.56.63l1.08,1.91c.46.81.32,1.82-.34,2.47h0c-.32.31-.72.52-1.17.58l-3.51.49c-.32.04-.65.01-.95-.09l-5.61-1.94c-.09-.03-.18-.05-.27-.07l-4.55-.92c-.09-.02-.18-.03-.26-.04l-2.68-.19c-.23-.02-.45-.07-.66-.16l-2.37-1-.82-.35c-1.09-.46-1.57-1.75-1.04-2.81l.98-1.97c.18-.36.47-.67.82-.87Z" />
    <path class="cls-poster-8"
        d="m231.31,1092.07c-2.77-4.19-6.36-6.85-9.81-9.4-2.44-1.81-5.87-4.44-11.65-6.77-7.66-3.08-12.75-3.7-14.96-3.92-3.48-.34-8.54-.9-15.5-.09-8.65,1.01-13.1,1.9-16.84,2.84-2.68.67-8.92,2.67-11.58,3.42,4.91-12.29,9.65-36.02,13.48-48.15-16.82,10.14-47.5,33.03-47.5,33.03,0,0-13.62-13.84-16.89-16.85,23.34-9.8,46.13-18.14,69.96-27.93,3.49-1.43,11.81,8.31,9.88,11.52-7.67,12.76-18.25,31.22-23.78,41.44,3.36-.56,30.18-9.63,34.11-9.61,34.05.19,51.14,14.5,56.43,19.93,7.05,7.25,11.07,16.58,9.2,28.33-2.66,16.71-35.14,25.54-55.36,26.28-7.18.26-23.25-1.14-35.42-7.22-4.66-2.33-8.14-6.06-9.81-7.9,8.18-2.76,16.77-5.39,24.94-8.15.53,1.17,2.97,5.98,10.63,8.53,6.1,2.03,11.96,1.44,16.36,1,13.37-1.33,22.33-7.11,25.21-10.85,1.48-1.92,2.01-3.8,2.01-3.8l.66-2.08c1.36-7.24-3.75-13.6-3.75-13.6Z" />
    <path class="cls-poster-6"
        d="m497.04,1002.35c-24.47,12.61-59.04,27.63-83.48,39.31,3.98-16.12,13.43-47.23,13.85-65.54-.11-11.13-5.72-28.68-14.88-33.14-7.62-3.71-14.32-3.89-19.25-3.1-2.38.38-9.15,2.45-15.48,10.02-1.33,1.59-6.3,12.93-6.73,16.32,0,0-.09.73,0,5.94-5.91,2.31-11.82,4.62-17.72,6.93-1.33-3.16-4.02-11.09,0-19.8,4.62-10.01,15.17-14.71,22.15-17.82,3.73-1.66,16.24-7.05,32.91-5.94,4.2.28,10.96.79,18.36,3.96,3.23,1.38,5.88,3.02,8.06,4.75,6.81,5.39,9.36,12.68,9.7,20.04.68,14.83,0,28.35-.41,42.87l42.78-18.16c5.49,3.46,10.66,6.74,16.15,10.2-2.53,1.36-4.49,2.35-6.02,3.16Z" />
</svg>