<?xml version="1.0" encoding="utf-8"?>
<!-- Generator: Adobe Illustrator 27.7.0, SVG Export Plug-In . SVG Version: 6.00 Build 0)  -->
<svg version="1.1" id="Laag_1" xmlns="http://www.w3.org/2000/svg" xmlns:xlink="http://www.w3.org/1999/xlink" x="0px"
	y="0px" viewBox="450 0 1390 1190.55" xml:space="preserve" overflow="visible">
	<defs>
		<mask id="text2">
			<rect width="110%" height="100%" fill="white" />
			<rect width="100%" height="10%" fill="black" x="0" y="0" />
		</mask>
		<style type="text/css">
			@font-face {
				font-family: constan;
				src: url("./images/dies2025/constan.ttf") format("truetype");
				font-weight: normal;
			}

			.st0 {
				fill: #003F2B;
			}

			.st1 {
				fill: #6280C0;
			}

			.st2 {
				fill: #FFFFFF;
			}

			.st3 {
				opacity: 0.58;
				fill: #FFFFFF;
				stroke: #FFFFFF;
				stroke-width: 9;
				stroke-miterlimit: 10;
			}

			.st4 {
				fill: #FFFFFF;
				stroke: #FFFFFF;
				stroke-width: 9;
				stroke-miterlimit: 10;
			}

			.st5 {
				fill: #F9B233;
			}

			.st6 {
				fill: #F39200;
			}

			.st7 {
				opacity: 0.96;
				fill: none;
				stroke: #FFFFFF;
				stroke-width: 8;
				stroke-miterlimit: 10;
			}

			.st8 {
				opacity: 0.58;
				fill: #FFFFFF;
				stroke: #FFFFFF;
				stroke-width: 8;
				stroke-miterlimit: 10;
			}

			.st9 {
				clip-path: url(#SVGID_00000078763690805942769010000016988124233223937956_);
			}

			.st10 {
				fill: #E94E1B;
			}

			.st11 {
				fill: #FFFFFF;
				stroke: #FFFFFF;
				stroke-width: 0.5;
				stroke-miterlimit: 10;
			}

			.st12 {
				fill: #093E2A;
				stroke: #FFFFFF;
				stroke-width: 0.5;
				stroke-miterlimit: 10;
			}

			.st13 {
				opacity: 0.92;
				fill: none;
				stroke: #FFFFFF;
				stroke-width: 8;
				stroke-miterlimit: 10;
			}

			.st14 {
				opacity: 0.95;
				fill: none;
				stroke: #FFFFFF;
				stroke-width: 8;
				stroke-miterlimit: 10;
			}

			.st15 {
				fill: #003F2A;
			}

			.st16 {
				clip-path: url(#SVGID_00000173147879696180096270000001975744668014768009_);
			}

			.st17 {
				clip-path: url(#SVGID_00000048493710815842492230000012037942465122067886_);
			}

			.st18 {
				fill: none;
				stroke: #FFFFFF;
				stroke-width: 9;
				stroke-miterlimit: 10;
			}

			.st19 {
				clip-path: url(#SVGID_00000124846892947132782490000015998563826984606393_);
			}

			.st20 {
				opacity: 0.65;
				fill: #FFFFFF;
				stroke: #FFFFFF;
				stroke-width: 9;
				stroke-miterlimit: 10;
			}

			.st21 {
				clip-path: url(#SVGID_00000067918490816082198140000012825047005183527331_);
			}

			.st22 {
				clip-path: url(#SVGID_00000041982531433295174670000003313074322699761538_);
			}

			.st23 {
				clip-path: url(#SVGID_00000027585098921143511590000007618320467632732546_);
			}

			.st24 {
				opacity: 0.59;
				fill: none;
				stroke: #FFFFFF;
				stroke-width: 8;
				stroke-miterlimit: 10;
			}

			.st25 {
				clip-path: url(#SVGID_00000033342452121017143700000006251579785368772762_);
			}

			.st26 {
				fill: #F6F6F6;
			}

			.st27 {
				font-family: 'Constantia';
			}

			.st28 {
				font-size: 241.6992px;
			}

			.st29 {
				font-size: 40.1161px;
			}

			.st-poster-13,
			.st-poster-14 {
				fill: #f6f6f6;
				font-family: constan;
			}


			.st-poster-13 {
				font-size: 219.2px;
			}
		</style>
	</defs>
	<path class="st0" d="M0,4.02l-7.19,2320.23l2390.14,4.02V4.02H0z" />
	<path class="st1" d="M2391.1,1094.65c-1.85,27.71-227.15,34.48-397.84,5.38c-153.32-26.14-306.15-111.86-367.19-142.26
	c-216.44-107.79-442.29-229.72-660.43-342.37C492.24,370.95,82.55,155.28,48.15,133.97c-17.96-11.12-19.97-8.17-27-15.23
	c0,0-13.02-4.29-20.68-19.15c-1.56,1.27,1.07,17.09-0.47,18.38c15.79,25.53,29.44,53.7,42.41,72.15
	c24.53,34.91,42.81,66.06,59.96,90.7c206.73,297.16,817.82,1147.06,980.52,1402.89c2.41,3.79,47.67,68.15,114.83,134.31
	c72.73,71.65,165.73,158,238.19,208.11c29.52,20.42,198.6,142.63,390.94,181.65c110.56,22.43,238.82,43.14,335.74,38.88
	c131.11-5.76,203.34-16.53,203.9-15.6l23.34-3.64c1.66,102.13,1.29-942.5,1.5-946.38
	C2393.35,1244.63,2388.66,1131.25,2391.1,1094.65z" />
	<g>
		<path class="st2" d="M1046.72,426.38c0.26,4.82,1.78,13.78,11.59,25.07c32.94,37.9,95.37,55.21,95.37,55.21
		c17.48,4.85,42.9,10.29,74.46,11.45l-0.6-13.63l0,0c-14.12,3.77-54.03-0.97-92.53-15.43c-54.3-20.39-79.18-68.1-84.9-79.8
		C1048.48,412.87,1046.33,418.96,1046.72,426.38z" />
		<g>
			<path class="st2" d="M1045.27,426.77c0.87,15.6,13.05,28.04,24.24,37.67c12.07,10.39,25.76,18.81,39.99,25.91
			c10.85,5.42,22.08,10.12,33.54,14.08c6.61,2.28,13.28,4.16,20.08,5.8c18.4,4.44,37.19,7.25,56.08,8.43
			c2.81,0.18,5.62,0.31,8.43,0.42c0.53,0.02,2.02-0.28,1.99-1.1c-0.2-4.54-0.4-9.09-0.6-13.63c-0.04-0.86-1.03-0.93-1.7-0.76
			c-5.08,1.33-10.6,1.28-15.83,1.09c-7.94-0.28-15.85-1.25-23.69-2.55c-9.58-1.59-19.07-3.74-28.43-6.34
			c-9.82-2.73-19.63-5.86-29.02-9.85c-14.72-6.25-28.31-15.12-40.18-25.82c-9.54-8.59-18.02-18.34-25.36-28.86
			c-4.65-6.66-8.87-13.65-12.51-20.91c-0.25-0.49-0.49-0.99-0.74-1.49c-0.48-0.98-2.41-0.65-2.82,0.27
			c-2.45,5.47-3.76,11.37-3.48,17.38c0.07,1.41,2.97,0.88,2.92-0.27c-0.27-5.83,0.92-11.56,3.3-16.88
			c-0.94,0.09-1.88,0.18-2.82,0.27c3.33,6.81,7.12,13.38,11.32,19.69c7.01,10.53,15.14,20.32,24.3,29.05
			c11.53,10.98,24.69,20.24,39.1,27.03c9,4.24,18.47,7.5,27.98,10.37c9.65,2.92,19.46,5.34,29.37,7.22
			c8.39,1.59,16.87,2.83,25.4,3.39c6.05,0.4,12.28,0.6,18.3-0.34c1.13-0.18,2.25-0.39,3.35-0.68c-0.57-0.25-1.13-0.5-1.7-0.76
			c0.2,4.54,0.4,9.09,0.6,13.63c0.66-0.37,1.32-0.74,1.99-1.1c-19.61-0.74-39.15-3.18-58.31-7.44c-7.65-1.7-15.24-3.62-22.68-6.09
			c-10.54-3.5-20.88-7.65-30.92-12.4c-14.03-6.64-27.61-14.47-39.82-24.08c-6.42-5.05-12.48-10.63-17.78-16.85
			c-5.15-6.05-9.43-13.17-10.67-21.12c-0.16-1.05-0.27-2.1-0.33-3.16C1048.11,424.83,1045.2,425.48,1045.27,426.77z" />
		</g>
	</g>
	<line class="st3" x1="1377.69" y1="827.31" x2="670.58" y2="1086.18" />
	<line class="st3" x1="827.28" y1="1318.39" x2="1583.57" y2="935.69" />
	<line class="st4" x1="-2.57" y1="107.45" x2="1620.8" y2="956.15" />
	<path class="st5" d="M1550.73,289.36c-0.14-1.06-1.33-2.03-2.73-2.23c-1.41-0.2-2.82-0.17-4.17,0.37c-0.99,0.4-1.98,0.78-2.96,1.18
	c-0.84,0.35-1.68,0.65-2.4-0.21c-0.65-0.78-0.51-1.71-0.4-2.63c0.2-1.56,1.17-2.66,2.08-3.78c1.84-2.24,3.71-4.45,5.54-6.71
	c1.14-1.41,2.24-2.86,2.8-4.66c0.32-1.03-0.76-2.29-1.81-2.11c-1.6,0.27-3.01,1.05-4.31,2c-2.17,1.58-4.29,3.24-6.47,4.81
	c-0.19,0.14-0.73,0.04-0.87-0.14c-0.17-0.22-0.21-0.74-0.07-0.98c1.46-2.53,2.98-5.02,4.46-7.54c0.65-1.1,1.33-2.19,1.88-3.34
	c1.2-2.5,0.66-4.69-1.45-6.22c-2.57-1.86-6.51-1.8-8.86,0.41c-1.43,1.34-2.58,3.02-3.78,4.62c-1.09,1.45-2.01,3.04-3.12,4.47
	c-1.06,1.36-2.52,1.14-3.43-0.48c-0.44-0.78-0.64-1.7-1.03-2.51c-0.29-0.6-1.43-0.52-1.81,0.08c-0.19,0.3-0.49,0.58-0.56,0.91
	c-0.94,4.51-2.26,8.93-2.43,13.6c-0.11,2.95-0.55,5.89-0.68,8.85c-0.17,3.9-1.77,7.08-4.06,10.01c-3.66,4.67-8.39,7.89-13.35,10.74
	c-4.18,2.39-8.58,4.3-13.08,5.95c-11.98,4.39-23.99,8.7-35.91,13.25c-8.94,3.41-17.71,7.29-26.02,12.21
	c-7.25,4.29-13.91,9.44-20.39,14.87c-8.82,7.39-17.52,14.93-26.31,22.35c-2.61,2.2-5.32,4.27-8.05,6.3
	c-3.15,2.34-6.81,3.73-10.62,3.99c-5.35,0.36-10.7,0.79-16.05,1.14c-4.98,0.33-9.69,1.65-14.26,3.74
	c-7.13,3.25-14.46,5.87-22.22,6.89c-0.87,0.12-1.74,0.33-2.62,0.36c-4.26,0.12-6.12-1.61-6.46-6.14c-0.44-5.96,0.42-11.81,1.7-17.6
	c0.16-0.71,0.3-1.66,0.77-2c3.25-2.36,3.41-6.31,4.62-9.68c0.61-1.7,1.33-3.4,1.36-5.32c0.03-2.34-0.18-4.5-2.39-5.71
	c-1.69-0.93-1.93-2.42-1.85-4.19c0.09-2.03,0.05-4.07,0.06-6.1c0.02-3.35-0.51-6.63-1.31-9.86c-1.79-7.2-5.6-12.16-11.27-14.94
	c-1.89-0.93-3.98-1.61-6.28-2.06c-5.99-1.16-11.96-0.69-17.75,1.39c-9.12,3.28-14.48,10.16-16.9,19.74c-1,3.95-1.56,8-1.16,12.09
	c0.22,2.32,0.2,4.38-1.67,6.05c-1.19,1.06-1.16,2.64-1.1,4.12c0.18,4.5,1.52,8.71,3.08,12.85c0.33,0.88,0.85,1.72,1.78,1.91
	c1.97,0.4,2.34,1.91,2.65,3.63c0.95,5.45,2.25,10.84,2.66,16.39c0.25,3.33,0.48,6.66-0.54,9.9c-0.88,2.8-3.43,3.45-5.33,1.31
	c-0.95-1.07-1.72-2.34-2.41-3.62c-1.39-2.57-2.68-5.2-3.99-7.82c-2.87-5.73-7.13-9.44-13.33-10.72c-4.49-0.93-8.91-2.22-13.33-3.47
	c-5.9-1.67-10.92-4.66-15.1-9.61c-5.73-6.79-12.58-12.42-19.4-17.99c-14.91-12.17-30.56-23.21-46.79-33.33
	c-11.69-7.28-23.86-13.53-36.94-17.65c-2.38-0.75-14.39-7.47-24.04-12.49c-0.32,8.28-2.72,18.19-8.39,21.59
	c1.57,0.92,2.79,1.68,3.53,2.23c7.79,5.74,15.81,11.12,23.74,16.66c3.68,2.57,7.6,4.69,11.73,6.34
	c15.39,6.14,28.71,15.64,40.71,27.36c9.55,9.32,18.57,19.26,28.7,27.92c9.3,7.95,18.68,15.78,28,23.69
	c7.61,6.46,8.21,6.73,9.55,18.07c0.89,7.52,1.38,15.09,2.11,22.63c0.61,6.25,1.2,12.51,2.02,18.73c0.72,5.45,6.99,21.37,8.82,26.55
	c4.69,13.3,3.74,16.3,6.33,30.25c1.13,6.09,2,12.2,1.9,18.45c-0.15,9.65-12.63,37.87-13.11,44.3c-1.53,20.33-1.91,20.33-1.27,40.67
	l8.22,46.26c2.02,5.33,7.46,34.15,9.54,39.45c0.8,2.05,1.54,4.12,1.49,6.41c-0.08,3.87-1.72,6.26-5.24,7.37
	c-0.5,0.16-1.04,0.22-1.57,0.26c-1.82,0.13-2.92,1.3-3.54,2.91c-0.79,2.05-1.6,4.13-2.04,6.29c-1.07,5.24-2.03,10.5-2.86,15.79
	c-1.3,8.22-2.22,16.49-2.58,24.81c-0.27,6.33,0.4,12.56,2.33,18.59c1.43,4.44,3.53,8.47,7.12,11.46c2.4,2,5.06,3.34,8.21,3.36
	c3.33,0.03,5.8-1.75,6.63-5.12c0.48-1.96,0.64-4.01,0.88-6.02c0.15-1.28,0.1-2.59,0.29-3.87c0.47-3.32,2.33-4.36,5.27-2.79
	c2.03,1.09,3.95,2.43,5.82,3.81c3.62,2.67,7.32,2.64,10.88,0.19c7.31-5.03,12.85-11.43,14.21-20.99c0.39-2.75,0.73-5.49,0.73-8.27
	c0.01-7.58,0-15.17,0-21.57c-0.16-10.07,0.3-18.93,0.85-27.79c0.14-2.21,0.37-4.43,1.42-6.44c-6.44-74.86,2.89-2.22,4.26-0.48
	c1.03,1.31,1.66,2.83,2.07,4.45c0.72,2.86,1.42,5.72,2.09,8.59c1.18,5.02,2.17,10.09,3.88,14.97c0.92,2.61,1.3,5.35,1.4,8.15
	c0.21,5.93-0.09,11.82-0.53,17.73c-0.74,9.95-1.82,19.89-1.9,29.89c-0.05,6.31,0.32,12.52,2.16,18.63
	c2.29,7.62,2.23,15.76,2.69,23.58c0.56,9.42,1.13,18.85,0.95,28.29c-0.05,2.4,0.22,4.82,0.56,7.2c1.15,8.02,0.66,15.83-2.37,23.41
	c-1.7,4.26-3.14,8.63-4.66,12.97c-1.11,3.15-1.6,6.46-1.84,9.77c-0.47,6.36,1.92,10.17,7.59,12.38c2.14,0.84,4.34,1.43,6.65,1.7
	c5.8,0.68,11.61,0.9,17.43,1.04c1.23,0.03,2.48,0.03,3.7-0.14c2.42-0.34,3.42-1.52,3.56-4c0.09-1.68-0.04-3.32-0.7-4.89
	c-1.36-3.2-2.65-6.44-4.05-9.62c-1.04-2.35-2.21-4.63-3.32-6.94c-1.46-3.01-2.38-6.26-2.53-9.57c-0.29-6.27-0.76-12.52-0.43-18.84
	c1.07-20.75,4.52-41.09,8.46-61.4c2.94-15.12,3.91-30.41,1.63-45.78c-0.76-5.11-1.39-10.24-2.15-15.35
	c-1.91-12.9-1.69-25.8-0.07-38.71c1.31-10.45,2.53-20.99,5.61-31.02c3.53-11.47,3.99-23.24,4.62-35.04
	c0.87-16.25,1.33-32.52,2.29-48.76c0.47-7.9-0.29-15.5-2.69-22.95c-1.75-5.43-3.49-10.87-5.3-16.28c-1.7-5.1-2.71-10.28-2.84-15.73
	c-0.26-10.95-0.84-21.9-1.14-32.85c-0.26-9.41,1.01-18.79,3.66-27.76c5.79-19.58,11.84-39.07,17.61-58.65
	c1.08-3.68,3.13-6.13,6.21-7.81c3.44-1.88,6.9-3.71,10.4-5.46c7.36-3.68,14.14-8.22,20.35-13.82c10.97-9.88,22.19-19.46,33.17-29.33
	c4.08-3.66,8.64-6.64,13.52-8.9c8.98-4.15,17.95-8.31,26.95-12.41c12.02-5.47,23.24-12.36,33.87-20.39
	c7.83-5.92,15.83-11.61,23.8-17.32c1.79-1.29,3.73-2.31,5.7-3.23c4.3-2,7.71-5.1,10.56-8.95c1.94-2.63,3.79-5.34,5.56-8.1
	c1.64-2.56,3.71-4.35,6.55-5.29c1.83-0.61,3.57-1.55,5.28-2.5C1550.13,291.51,1550.9,290.66,1550.73,289.36z" />
	<path class="st6" d="M1558.95,291.64c-0.14-1.06-1.33-2.03-2.73-2.23c-1.41-0.2-2.82-0.17-4.17,0.37c-0.99,0.4-1.98,0.78-2.96,1.18
	c-0.84,0.35-1.68,0.65-2.4-0.21c-0.65-0.78-0.51-1.71-0.4-2.63c0.2-1.56,1.17-2.66,2.08-3.78c1.84-2.24,3.71-4.45,5.54-6.71
	c1.14-1.41,2.24-2.86,2.8-4.66c0.32-1.03-0.76-2.29-1.81-2.11c-1.6,0.27-3.01,1.05-4.31,2c-2.17,1.58-4.29,3.24-6.47,4.81
	c-0.19,0.14-0.73,0.04-0.87-0.14c-0.17-0.22-0.21-0.74-0.07-0.98c1.46-2.53,2.98-5.02,4.46-7.54c0.65-1.1,1.33-2.19,1.88-3.34
	c1.2-2.5,0.66-4.69-1.45-6.22c-2.57-1.86-6.51-1.8-8.86,0.41c-1.43,1.34-2.58,3.02-3.78,4.62c-1.09,1.45-2.01,3.04-3.12,4.47
	c-1.06,1.36-2.52,1.14-3.43-0.48c-0.44-0.78-0.64-1.7-1.03-2.51c-0.29-0.6-1.43-0.52-1.81,0.08c-0.19,0.3-0.49,0.58-0.56,0.91
	c-0.94,4.51-2.26,8.93-2.43,13.6c-0.11,2.95-0.55,5.89-0.68,8.85c-0.17,3.9-1.77,7.08-4.06,10.01c-3.66,4.67-8.39,7.89-13.35,10.74
	c-4.18,2.39-8.58,4.3-13.08,5.95c-11.98,4.39-23.99,8.7-35.91,13.25c-8.94,3.41-17.71,7.29-26.02,12.21
	c-7.25,4.29-13.91,9.44-20.39,14.87c-8.82,7.39-17.52,14.93-26.31,22.35c-2.61,2.2-5.32,4.27-8.05,6.3
	c-3.15,2.34-6.81,3.73-10.62,3.99c-5.35,0.36-10.7,0.79-16.05,1.14c-4.98,0.33-9.69,1.65-14.26,3.74
	c-7.13,3.25-14.46,5.87-22.22,6.89c-0.87,0.12-1.74,0.33-2.62,0.36c-4.26,0.12-6.12-1.61-6.46-6.14c-0.44-5.96,0.42-11.81,1.7-17.6
	c0.16-0.71,0.3-1.66,0.77-2c3.25-2.36,3.41-6.31,4.62-9.68c0.61-1.7,1.33-3.4,1.36-5.32c0.03-2.34-0.18-4.5-2.39-5.71
	c-1.69-0.93-1.93-2.42-1.85-4.19c0.09-2.03,0.05-4.07,0.06-6.1c0.02-3.35-0.51-6.63-1.31-9.86c-1.79-7.2-5.6-12.16-11.27-14.94
	c-1.89-0.93-3.98-1.61-6.28-2.06c-5.99-1.16-11.96-0.69-17.75,1.39c-9.12,3.28-14.48,10.16-16.9,19.74c-1,3.95-1.55,8-1.16,12.09
	c0.22,2.32,0.2,4.38-1.67,6.05c-1.19,1.06-1.16,2.64-1.1,4.12c0.18,4.5,1.52,8.71,3.08,12.85c0.33,0.88,0.85,1.72,1.78,1.91
	c1.97,0.4,2.34,1.91,2.65,3.63c0.95,5.45,2.25,10.84,2.66,16.39c0.25,3.33,0.48,6.66-0.54,9.9c-0.88,2.8-3.43,3.45-5.33,1.31
	c-0.95-1.07-1.72-2.34-2.41-3.62c-1.39-2.57-2.68-5.2-3.99-7.82c-2.87-5.73-7.13-9.44-13.33-10.72c-4.49-0.93-8.91-2.22-13.33-3.47
	c-5.9-1.67-10.92-4.66-15.1-9.61c-5.73-6.79-12.58-12.42-19.4-17.99c-14.91-12.17-30.56-23.21-46.79-33.33
	c-11.69-7.28-23.86-13.53-36.94-17.65c-3.24-1.02-24.19-13.04-32.92-16.85c0.15,3.65-0.5,7.35-1.39,10.87
	c-0.8,3.17-3.94,8.15-3.75,11.28l-0.01-0.02c0,0.22-0.02,0.44-0.04,0.66c4.26,2.3,7.71,4.29,9.2,5.39
	c7.79,5.74,15.81,11.12,23.74,16.66c3.68,2.57,7.6,4.69,11.73,6.34c15.39,6.14,28.71,15.64,40.71,27.36
	c9.55,9.32,18.57,19.26,28.7,27.92c9.3,7.95,18.68,15.78,28,23.69c7.61,6.46,8.21,6.73,9.55,18.07c0.89,7.52,1.38,15.09,2.11,22.63
	c0.61,6.25,1.2,12.51,2.02,18.73c0.72,5.45,2.23,10.71,4.06,15.9c4.69,13.3,8.5,26.95,11.09,40.9c1.13,6.09,2,12.2,1.9,18.45
	c-0.15,9.65-12.63,37.87-13.11,44.3c-1.53,20.33-1.91,20.33-1.27,40.67l8.22,46.26c2.02,5.33,7.46,34.15,9.54,39.45
	c0.8,2.05,1.54,4.12,1.49,6.41c-0.08,3.87-1.72,6.26-5.24,7.37c-0.5,0.16-1.04,0.22-1.57,0.26c-1.82,0.13-2.92,1.3-3.54,2.91
	c-0.79,2.05-1.6,4.13-2.04,6.29c-1.07,5.24-2.03,10.5-2.86,15.79c-1.3,8.22-2.22,16.49-2.58,24.81c-0.27,6.33,0.4,12.56,2.33,18.59
	c1.43,4.44,3.53,8.47,7.12,11.46c2.4,2,5.06,3.34,8.21,3.36c3.33,0.03,5.8-1.75,6.63-5.12c0.48-1.96,0.64-4.01,0.88-6.02
	c0.15-1.28,0.1-2.59,0.29-3.87c0.47-3.32,2.33-4.36,5.27-2.79c2.03,1.09,3.95,2.43,5.82,3.81c3.62,2.67,7.32,2.64,10.88,0.19
	c7.31-5.03,12.85-11.43,14.21-20.99c0.39-2.75,0.73-5.49,0.73-8.27c0.01-7.58,0-15.17,0-21.57c-0.16-10.07,0.3-18.93,0.85-27.79
	c0.14-2.21,0.37-4.43,1.42-6.44c-6.44-74.86,2.89-2.22,4.26-0.48c1.03,1.31,1.66,2.83,2.07,4.45c0.72,2.86,1.42,5.72,2.09,8.59
	c1.18,5.02,2.17,10.09,3.88,14.97c0.92,2.61,1.3,5.35,1.4,8.15c0.21,5.93-0.09,11.82-0.53,17.73c-0.74,9.95-1.82,19.89-1.9,29.89
	c-0.05,6.31,0.32,12.52,2.17,18.63c2.29,7.62,2.23,15.76,2.69,23.58c0.56,9.42,1.13,18.85,0.95,28.29c-0.05,2.4,0.22,4.82,0.56,7.2
	c1.15,8.02,0.66,15.83-2.37,23.41c-1.7,4.26-3.14,8.63-4.66,12.97c-1.11,3.15-1.6,6.46-1.84,9.77c-0.47,6.36,1.92,10.17,7.59,12.38
	c2.14,0.84,4.34,1.43,6.65,1.7c5.8,0.68,11.61,0.9,17.43,1.04c1.23,0.03,2.48,0.03,3.7-0.14c2.42-0.34,3.42-1.52,3.56-4
	c0.09-1.68-0.04-3.32-0.7-4.89c-1.36-3.2-2.65-6.44-4.05-9.62c-1.04-2.35-2.21-4.63-3.32-6.94c-1.46-3.01-2.38-6.26-2.53-9.57
	c-0.29-6.27-0.76-12.52-0.43-18.84c1.07-20.75,4.52-41.09,8.46-61.4c2.94-15.12,3.91-30.41,1.63-45.78
	c-0.76-5.11-1.4-10.24-2.15-15.35c-1.91-12.9-1.69-25.8-0.07-38.71c1.31-10.45,2.53-20.99,5.61-31.02
	c3.53-11.47,3.99-23.24,4.62-35.04c0.87-16.25,1.33-32.52,2.29-48.76c0.47-7.9-0.29-15.5-2.69-22.95
	c-1.75-5.43-3.49-10.87-5.3-16.28c-1.7-5.1-2.71-10.28-2.84-15.73c-0.26-10.95-0.84-21.9-1.14-32.85
	c-0.26-9.41,1.01-18.79,3.66-27.76c5.79-19.58,11.84-39.07,17.61-58.65c1.08-3.68,3.13-6.13,6.21-7.81c3.44-1.88,6.9-3.71,10.4-5.46
	c7.36-3.68,14.14-8.22,20.35-13.82c10.97-9.88,22.19-19.46,33.17-29.33c4.08-3.66,8.64-6.64,13.52-8.9
	c8.98-4.15,17.95-8.31,26.95-12.41c12.02-5.47,23.24-12.36,33.87-20.39c7.83-5.92,15.83-11.61,23.8-17.32
	c1.79-1.29,3.73-2.31,5.7-3.23c4.3-2,7.71-5.1,10.56-8.95c1.94-2.63,3.79-5.34,5.56-8.1c1.64-2.56,3.71-4.35,6.55-5.29
	c1.83-0.61,3.57-1.55,5.28-2.5C1558.34,293.79,1559.11,292.94,1558.95,291.64z" />
	<polygon class="st7" points="1426.76,955.85 1356.22,904.87 1352.53,922.2 1342.56,927.18 1346.28,893.01 1354.1,888.88 
	1452.49,943.31 " />
	<line class="st8" x1="-3.61" y1="112.86" x2="1624.46" y2="1229.26" />
	<g>
		<g>
			<defs>
				<polygon id="SVGID_00000130639251563541679620000008177021649889359806_" points="1724.78,-1.92 783.52,-15.42 783.52,1341.64 
				1724.78,1355.14 			" />
			</defs>
			<clipPath id="SVGID_00000044860479752052058870000013836303709234980278_">
				<use xlink:href="#SVGID_00000130639251563541679620000008177021649889359806_"
					style="overflow:visible;" />
			</clipPath>
		</g>
		<g>
			<defs>
				<rect id="SVGID_00000155106412894689358270000018005947885573944744_" x="805.62" y="-2.37" width="928.65"
					height="1357.06" />
			</defs>
			<clipPath id="SVGID_00000055692133308298915860000005786279469542768008_">
				<use xlink:href="#SVGID_00000155106412894689358270000018005947885573944744_"
					style="overflow:visible;" />
			</clipPath>
		</g>
		<g>
			<defs>
				<polygon id="SVGID_00000065046514571529768050000003744983272688356993_" points="1749.37,-18.06 645.83,58.75 820.72,1339 
				1749.37,1339 			" />
			</defs>
			<clipPath id="SVGID_00000001654879330820478250000009637458407476415123_">
				<use xlink:href="#SVGID_00000065046514571529768050000003744983272688356993_"
					style="overflow:visible;" />
			</clipPath>
			<g style="clip-path:url(#SVGID_00000001654879330820478250000009637458407476415123_);">
				<path class="st10" d="M1567.19,293.85c-0.14-1.06-1.33-2.03-2.73-2.23c-1.41-0.2-2.82-0.17-4.17,0.37
				c-0.99,0.4-1.98,0.78-2.96,1.18c-0.84,0.35-1.68,0.65-2.4-0.21c-0.65-0.78-0.51-1.71-0.4-2.63c0.2-1.56,1.17-2.66,2.08-3.78
				c1.84-2.24,3.71-4.45,5.54-6.71c1.14-1.41,2.24-2.86,2.8-4.66c0.32-1.03-0.76-2.29-1.81-2.11c-1.6,0.27-3.01,1.05-4.31,2
				c-2.17,1.58-4.29,3.24-6.47,4.81c-0.19,0.14-0.73,0.04-0.87-0.14c-0.17-0.22-0.21-0.74-0.07-0.98c1.46-2.53,2.98-5.02,4.46-7.54
				c0.65-1.1,1.33-2.19,1.88-3.34c1.2-2.5,0.66-4.69-1.45-6.22c-2.57-1.86-6.51-1.8-8.86,0.41c-1.43,1.34-2.58,3.02-3.78,4.62
				c-1.09,1.45-2.01,3.04-3.12,4.47c-1.06,1.36-2.52,1.14-3.43-0.48c-0.44-0.78-0.64-1.7-1.03-2.51c-0.29-0.6-1.43-0.52-1.81,0.08
				c-0.19,0.3-0.49,0.58-0.56,0.91c-0.94,4.51-2.26,8.93-2.43,13.6c-0.11,2.95-0.55,5.89-0.68,8.85c-0.17,3.9-1.77,7.08-4.06,10.01
				c-3.66,4.67-8.39,7.89-13.35,10.74c-4.18,2.39-8.58,4.3-13.08,5.95c-11.98,4.39-23.99,8.7-35.91,13.25
				c-8.94,3.41-17.71,7.29-26.02,12.21c-7.25,4.29-13.91,9.44-20.39,14.87c-8.82,7.39-17.52,14.93-26.31,22.35
				c-2.61,2.2-5.32,4.27-8.05,6.3c-3.15,2.34-6.81,3.73-10.62,3.99c-5.35,0.36-10.7,0.79-16.05,1.14
				c-4.98,0.33-9.69,1.65-14.26,3.74c-7.13,3.25-14.46,5.87-22.22,6.89c-0.87,0.12-1.74,0.33-2.62,0.36
				c-4.26,0.12-6.12-1.61-6.46-6.14c-0.44-5.96,0.42-11.81,1.7-17.6c0.16-0.71,0.3-1.66,0.77-2c3.25-2.36,3.41-6.31,4.62-9.68
				c0.61-1.7,1.33-3.4,1.36-5.32c0.03-2.34-0.18-4.5-2.39-5.71c-1.69-0.93-1.93-2.42-1.85-4.19c0.09-2.03,0.05-4.07,0.06-6.1
				c0.02-3.35-0.51-6.63-1.31-9.86c-1.79-7.2-5.6-12.16-11.27-14.94c-1.89-0.93-3.98-1.61-6.28-2.06
				c-5.99-1.16-11.96-0.69-17.75,1.39c-9.12,3.28-14.48,10.16-16.9,19.74c-1,3.95-1.55,8-1.16,12.09c0.22,2.32,0.2,4.38-1.67,6.05
				c-1.19,1.06-1.16,2.64-1.1,4.12c0.18,4.5,1.52,8.71,3.08,12.85c0.33,0.88,0.85,1.72,1.78,1.91c1.97,0.4,2.34,1.91,2.65,3.63
				c0.95,5.45,2.25,10.84,2.66,16.39c0.25,3.33,0.48,6.66-0.54,9.9c-0.88,2.8-3.43,3.45-5.33,1.31c-0.95-1.07-1.72-2.34-2.41-3.62
				c-1.39-2.57-2.68-5.2-3.99-7.82c-2.87-5.73-7.13-9.44-13.33-10.72c-4.49-0.93-8.91-2.22-13.33-3.47
				c-5.9-1.67-10.92-4.66-15.1-9.61c-5.73-6.79-12.58-12.42-19.4-17.99c-14.91-12.17-30.56-23.21-46.79-33.33
				c-11.69-7.28-23.86-13.53-36.94-17.65c-3.77-1.19-34.77-17.4-38.07-20.47c-1.03-0.96-45.63-24.76,1.59,2.44
				c-0.02,5.95-2.89,11.57-6.82,16.3c-0.48,1.48-1.04,2.86-1.74,4.03c7.21,3.68,13.9,7.37,16.14,9.02
				c7.79,5.74,15.81,11.12,23.74,16.66c3.68,2.57,7.6,4.69,11.73,6.34c15.39,6.14,28.71,15.64,40.71,27.36
				c9.55,9.32,18.57,19.26,28.7,27.92c9.3,7.95,18.68,15.78,28,23.69c7.61,6.46,8.21,6.73,9.55,18.07
				c0.89,7.52,1.38,15.09,2.11,22.63c0.61,6.25,1.2,12.51,2.02,18.73c0.72,5.45,2.23,10.71,4.06,15.9
				c4.69,13.3,8.5,26.95,11.09,40.9c1.13,6.09,2,12.2,1.9,18.45c-0.15,9.65-12.63,37.87-13.11,44.3
				c-1.53,20.33-1.91,20.33-1.27,40.67l8.22,46.26c2.02,5.33,7.46,34.15,9.54,39.45c0.8,2.05,1.54,4.12,1.49,6.41
				c-0.08,3.87-1.72,6.26-5.24,7.37c-0.5,0.16-1.04,0.22-1.57,0.26c-1.82,0.13-2.92,1.3-3.54,2.91c-0.79,2.05-1.6,4.13-2.04,6.29
				c-1.07,5.24-2.03,10.5-2.86,15.79c-1.3,8.22-2.22,16.49-2.58,24.81c-0.27,6.33,0.4,12.56,2.33,18.59
				c1.43,4.44,3.53,8.47,7.12,11.46c2.4,2,5.06,3.34,8.21,3.36c3.33,0.03,5.8-1.75,6.63-5.12c0.48-1.96,0.64-4.01,0.88-6.02
				c0.15-1.28,0.1-2.59,0.29-3.87c0.47-3.32,2.33-4.36,5.27-2.79c2.03,1.09,3.95,2.43,5.82,3.81c3.62,2.67,7.32,2.64,10.88,0.19
				c7.31-5.03,12.85-11.43,14.21-20.99c0.39-2.75,0.73-5.49,0.73-8.27c0.01-7.58,0-15.17,0-21.57c-0.16-10.07,0.3-18.93,0.85-27.79
				c0.14-2.21,0.37-4.43,1.42-6.44c-6.44-74.86,2.89-2.22,4.26-0.48c1.03,1.31,1.66,2.83,2.07,4.45c0.72,2.86,1.42,5.72,2.09,8.59
				c1.18,5.02,2.17,10.09,3.88,14.97c0.92,2.61,1.3,5.35,1.4,8.15c0.21,5.93-0.09,11.82-0.53,17.73c-0.74,9.95-1.82,19.89-1.9,29.89
				c-0.05,6.31,0.32,12.52,2.17,18.63c2.29,7.62,2.23,15.76,2.69,23.58c0.56,9.42,1.13,18.85,0.95,28.29
				c-0.05,2.4,0.22,4.82,0.56,7.2c1.15,8.02,0.66,15.83-2.37,23.41c-1.7,4.26-3.14,8.63-4.66,12.97c-1.11,3.15-1.6,6.46-1.84,9.77
				c-0.47,6.36,1.92,10.17,7.59,12.38c2.14,0.84,4.34,1.43,6.65,1.7c5.8,0.68,11.61,0.9,17.43,1.04c1.23,0.03,2.48,0.03,3.7-0.14
				c2.42-0.34,3.42-1.52,3.56-4c0.09-1.68-0.04-3.32-0.7-4.89c-1.36-3.2-2.65-6.44-4.05-9.62c-1.04-2.35-2.21-4.63-3.32-6.94
				c-1.46-3.01-2.38-6.26-2.53-9.57c-0.29-6.27-0.76-12.52-0.43-18.84c1.07-20.75,4.52-41.09,8.46-61.4
				c2.94-15.12,3.91-30.41,1.63-45.78c-0.76-5.11-1.39-10.24-2.15-15.35c-1.91-12.9-1.69-25.8-0.07-38.71
				c1.31-10.45,2.53-20.99,5.61-31.02c3.53-11.47,3.99-23.24,4.62-35.04c0.87-16.25,1.33-32.52,2.29-48.76
				c0.47-7.9-0.29-15.5-2.69-22.95c-1.75-5.43-3.49-10.87-5.3-16.28c-1.7-5.1-2.71-10.28-2.84-15.73
				c-0.26-10.95-0.84-21.9-1.14-32.85c-0.26-9.41,1.01-18.79,3.66-27.76c5.79-19.58,11.84-39.07,17.61-58.65
				c1.08-3.68,3.13-6.13,6.21-7.81c3.44-1.88,6.9-3.71,10.4-5.46c7.36-3.68,14.14-8.22,20.35-13.82
				c10.97-9.88,22.19-19.46,33.17-29.33c4.08-3.66,8.64-6.64,13.52-8.9c8.98-4.15,17.95-8.31,26.95-12.41
				c12.02-5.47,23.24-12.36,33.87-20.39c7.83-5.92,15.83-11.61,23.8-17.32c1.79-1.29,3.73-2.31,5.7-3.23c4.3-2,7.71-5.1,10.56-8.95
				c1.94-2.63,3.79-5.34,5.56-8.1c1.64-2.56,3.71-4.35,6.55-5.29c1.83-0.61,3.57-1.55,5.28-2.5
				C1566.59,296,1567.36,295.15,1567.19,293.85z" />
			</g>
		</g>
	</g>
	<path class="st5" d="M1022.69,247.36l3.58-1.43c0.58-0.23,1.22-0.22,1.78,0.04l3.49,1.59c0.08,0.04,0.15,0.07,0.22,0.12l5.88,3.52
	c0.21,0.13,0.45,0.22,0.69,0.27l2.67,0.57c0.43,0.09,0.82,0.3,1.12,0.61l2.6,2.58c0.22,0.22,0.4,0.48,0.51,0.77l0.89,2.25
	c0.38,0.95,0.07,2.04-0.75,2.65l0,0c-0.39,0.29-0.87,0.45-1.36,0.45h-3.9c-0.36,0-0.71-0.08-1.03-0.25l-5.83-2.97
	c-0.09-0.05-0.18-0.09-0.28-0.12l-4.83-1.69c-0.09-0.03-0.19-0.06-0.28-0.08l-2.9-0.61c-0.24-0.05-0.48-0.14-0.69-0.27l-2.44-1.45
	l-0.84-0.5c-1.13-0.67-1.45-2.15-0.71-3.23l1.37-2C1021.92,247.81,1022.28,247.53,1022.69,247.36z" />
	<g>
		<path class="st11" d="M1040.42,232.09c8.28,12.72,0.59,48.91-18.12,51.77c-2.14,0.33-3.55,0.79-3.59,2.96
		c-0.12,5.77-0.24,11.54-0.36,17.31c-0.02,0.97-0.4,1.9-1.06,2.61c-2.33,2.49-4.66,4.97-6.99,7.46c-0.21,12.93-0.14,4.5-0.21,12.93
		c19.08-0.24,56.4-0.28,75.48-0.52c0.05-6.43,0.09-1.37,0.09-10.54c-2.37-3.48-4.74-6.96-7.11-10.44c-0.41-0.6-0.65-1.31-0.68-2.04
		c-0.23-5.33-0.46-10.66-0.7-15.98c-0.96-2.84-1.24-3.47-6.35-4.2c-14.54-0.71-27.44-35.19-22.18-50.35" />
		<path class="st11" d="M1061.81,235.21c5.91-1.62,13.99-3.96,20.45-11.38c2.81-3.22,4.46-6.44,5.43-8.71
		c1.14-3.89,2.28-7.78,3.42-11.66c1.3-4.98,2.61-9.95,3.91-14.93c0.49-4.51,0.98-9.02,1.47-13.53c0.33-11.35,0.65-22.71,0.98-34.06
		c-4.48-2.17-15.65-6.84-29.94-5.05c-5.03,0.63-20.12,2.51-27.85,13.06c-3.85,5.26-2.73,16.78-1.47,39.19
		c0.01,0.12,0.08,3.69,0.24,10.84c0.26,12.34,0.33,18.55-2.64,20.52c-1.9,1.26-4.17,0.83-5.21,0.7c-4.09-0.53-9.08-3.83-13.27-14.5
		c-12.15-30.97,2.07-67.01-4.45-68.91c-0.57-0.16-5.02,0.64-13.92,2.25c-0.12,0.02-0.18,0.03-0.18,0.03c0,0,0,4.59,0,13.53
		c-0.16,5.75-0.33,11.51-0.49,17.26c0.65,6.07,1.3,12.13,1.95,18.2c0.81,4.2,1.63,8.4,2.44,12.6c1.47,3.42,2.93,6.84,4.4,10.26
		c2.77,4.82,5.54,9.64,8.31,14.46c0.67,1,1.67,2.29,3.13,3.54c0,0,1.96,1.68,4.6,2.83C1042.95,240.38,1061.81,235.21,1061.81,235.21
		z" />
		<path class="st11" d="M967.95,159.34c-5.84,17.9,42.71,54.66,38.31,60.42c-0.42,0.56-2.19,1.94-3.22,4.68
		c-0.31,0.84-1.2,3.19-0.36,3.96c1.25,1.14,6.59-0.91,8.23-4.32c0.89-1.84,1.45-5.61-7.52-17.62
		c-9.62-12.88-15.22-15.19-23.27-27.33c-6.43-9.69-6.52-13.74-5.73-16.54c1.15-4.08,5.29-9.43,10.38-8.63
		c4.74,0.75,8.06,6.46,7.16,10.07c-0.76,3.04-4.39,4.08-3.94,6.11c0.29,1.3,2.1,2.27,3.58,2.16c3.11-0.23,6.04-4.74,6.34-5.65
		c1.85-5.73-0.98-14.58-6.7-17.73c-2.71-1.49-5.44-1.29-6.73-1.18C977.59,148.34,969.8,153.68,967.95,159.34" />
		<path class="st11"
			d="M1071.58,148.95c3.17-0.72,10.4-2.8,14.66,0.47c8.48,6.51-0.59,29.44-6.84,45.25
		c-8.44,21.36-13.02,23.52-18.93,23.09c-10.41-0.76-18.76-30.67-6.48-55.28C1056.62,157.22,1060.33,151.52,1071.58,148.95z" />
		<path class="st12" d="M1069.26,148.95c3.17-0.72,10.4-2.8,14.66,0.47c8.48,6.51,3.88,33.82-2.37,49.63
		c-8.44,21.36-18.87,21.42-23.4,18.71c-5-2.98-10.88-30.69-6.48-55.28C1052.72,156.62,1058.01,151.52,1069.26,148.95z" />
		<path class="st11" d="M1101.77,177.2c-3.11-0.23-4.72-5.2-5.01-6.11c-1.85-5.73-0.35-14.12,5.37-17.26
		c2.71-1.49,5.44-1.29,6.73-1.18c6.9,0.6,14.69,5.94,16.54,11.6c5.84,17.9-42.71,54.66-38.31,60.42c0.42,0.56,2.19,1.94,3.22,4.68
		c0.31,0.84,1.2,3.19,0.36,3.96c-1.25,1.14-6.59-0.91-8.23-4.32c-0.89-1.84-1.45-5.61,7.52-17.62
		c9.62-12.88,15.22-15.19,23.27-27.33c6.43-9.69,6.52-13.74,5.73-16.54c-1.15-4.08-5.29-9.43-10.38-8.63
		c-4.74,0.75-8.06,6.46-7.16,10.07c0.76,3.04,4.39,4.08,3.94,6.11C1105.06,176.35,1103.25,177.31,1101.77,177.2z" />
	</g>
	<path class="st5" d="M1027.81,275.2l-4.54-0.9c-0.57,0-1.11-0.29-1.41-0.78l-2.26-3.59c-0.06-0.09-0.13-0.18-0.2-0.26l0,0
	c-0.69-0.73-0.59-1.9,0.22-2.5l1.72-1.27c0.29-0.21,0.63-0.32,0.99-0.32h5.42h3.85c0.27,0,0.54,0.07,0.78,0.19l4.38,2.32
	c0.24,0.13,0.51,0.19,0.78,0.19h0.39c0.95,0,1.71,0.8,1.67,1.75l-0.16,3.42c-0.03,0.53-0.3,1.01-0.74,1.31l-2.23,1.5
	c-0.31,0.21-0.69,0.31-1.06,0.28l-3.73-0.29c-0.16-0.01-0.31-0.05-0.46-0.1" />
	<path class="st5" d="M1026.89,237.5h6.01c0.16,0,0.32,0.02,0.47,0.05l5.79,1.27c0.28,0.06,0.54,0.18,0.78,0.34l2.9,1.98
	c0.34,0.23,0.61,0.56,0.78,0.94l1.8,4.1c0.14,0.33,0.21,0.68,0.18,1.03l-0.13,2.05c-0.04,0.62-0.33,1.19-0.81,1.58l-1.93,1.57
	c-0.65,0.53-1.56,0.65-2.32,0.3l-12.84-5.86c-0.26-0.12-0.5-0.29-0.7-0.5l-2.66-2.83c-0.62-0.66-0.77-1.63-0.4-2.45l1.05-2.28
	C1025.23,238.01,1026.02,237.5,1026.89,237.5L1026.89,237.5z" />
	<path class="st5" d="M1021.16,257.8l3.35-1.91c0.54-0.31,1.18-0.38,1.77-0.2l3.68,1.1c0.08,0.02,0.16,0.05,0.24,0.09l6.3,2.68
	c0.23,0.1,0.47,0.16,0.72,0.17l2.73,0.2c0.43,0.03,0.85,0.19,1.2,0.45l2.93,2.2c0.25,0.19,0.46,0.42,0.61,0.7l1.19,2.11
	c0.5,0.89,0.35,2.01-0.38,2.73l0,0c-0.35,0.35-0.8,0.57-1.29,0.64l-3.87,0.54c-0.35,0.05-0.71,0.01-1.05-0.1l-6.18-2.14
	c-0.1-0.03-0.19-0.06-0.29-0.08l-5.02-1.01c-0.1-0.02-0.19-0.03-0.29-0.04l-2.95-0.21c-0.25-0.02-0.49-0.08-0.72-0.17l-2.62-1.1
	l-0.9-0.38c-1.21-0.51-1.73-1.93-1.15-3.1l1.08-2.17C1020.45,258.35,1020.77,258.02,1021.16,257.8z" />
	<g>
		<path class="st6" d="M1024.2,246.26l3.58-1.43c0.58-0.23,1.22-0.22,1.78,0.04l3.49,1.59c0.08,0.04,0.15,0.07,0.22,0.12l5.88,3.52
		c0.21,0.13,0.45,0.22,0.69,0.27l2.67,0.57c0.43,0.09,0.82,0.3,1.12,0.61l2.6,2.58c0.22,0.22,0.4,0.48,0.51,0.77l0.89,2.25
		c0.38,0.95,0.07,2.04-0.75,2.65l0,0c-0.39,0.29-0.87,0.45-1.36,0.45h-3.9c-0.36,0-0.71-0.08-1.03-0.25l-5.83-2.97
		c-0.09-0.05-0.18-0.09-0.28-0.12l-4.83-1.69c-0.09-0.03-0.19-0.06-0.28-0.08l-2.9-0.61c-0.24-0.05-0.48-0.14-0.69-0.27l-2.44-1.45
		l-0.84-0.5c-1.13-0.67-1.45-2.15-0.71-3.23l1.37-2C1023.43,246.71,1023.78,246.42,1024.2,246.26z" />
		<path class="st6" d="M1029.32,274.09l-4.54-0.9c-0.57,0-1.11-0.29-1.41-0.78l-2.26-3.59c-0.06-0.09-0.13-0.18-0.2-0.26l0,0
		c-0.69-0.73-0.59-1.9,0.22-2.5l1.72-1.27c0.29-0.21,0.63-0.32,0.99-0.32h5.42h3.85c0.27,0,0.54,0.07,0.78,0.19l4.38,2.32
		c0.24,0.13,0.51,0.19,0.78,0.19h0.39c0.95,0,1.71,0.8,1.67,1.75l-0.16,3.42c-0.02,0.53-0.3,1.01-0.74,1.31l-2.23,1.5
		c-0.31,0.21-0.69,0.31-1.06,0.28l-3.73-0.29c-0.16-0.01-0.31-0.05-0.46-0.1" />
		<path class="st6" d="M1028.39,236.4h6.01c0.16,0,0.32,0.02,0.47,0.05l5.79,1.27c0.28,0.06,0.54,0.18,0.78,0.34l2.9,1.98
		c0.34,0.23,0.61,0.56,0.78,0.94l1.8,4.1c0.14,0.33,0.21,0.68,0.18,1.03l-0.13,2.05c-0.04,0.62-0.33,1.19-0.81,1.58l-1.93,1.57
		c-0.65,0.53-1.56,0.65-2.32,0.3l-12.84-5.86c-0.26-0.12-0.5-0.29-0.7-0.5l-2.66-2.83c-0.62-0.66-0.77-1.63-0.4-2.45l1.05-2.28
		C1026.74,236.91,1027.53,236.4,1028.39,236.4L1028.39,236.4z" />
		<path class="st6" d="M1022.66,256.7l3.35-1.91c0.54-0.31,1.18-0.38,1.77-0.2l3.68,1.1c0.08,0.02,0.16,0.05,0.24,0.09l6.3,2.68
		c0.23,0.1,0.47,0.16,0.72,0.17l2.73,0.2c0.43,0.03,0.85,0.19,1.2,0.45l2.93,2.2c0.25,0.19,0.46,0.42,0.61,0.7l1.19,2.11
		c0.5,0.89,0.35,2.01-0.38,2.73l0,0c-0.35,0.35-0.8,0.57-1.29,0.64l-3.87,0.54c-0.35,0.05-0.71,0.01-1.05-0.1l-6.18-2.14
		c-0.1-0.03-0.19-0.06-0.29-0.08l-5.02-1.01c-0.1-0.02-0.19-0.03-0.29-0.04l-2.95-0.21c-0.25-0.02-0.49-0.08-0.72-0.17l-2.62-1.1
		l-0.9-0.38c-1.21-0.51-1.73-1.93-1.15-3.1l1.08-2.17C1021.96,257.25,1022.27,256.92,1022.66,256.7z" />
	</g>
	<line class="st8" x1="-0.04" y1="115.31" x2="1328.42" y2="1401.2" />
	<g>
		<path class="st2" d="M751.71,734.72c186.91-75.8,396.4-76.09,577.1-167.81c9.02-4.58,18.5-9.92,23.31-19.36
		c4.81-9.44,2.12-23.99-7.47-26.96l0.18-8.46c3.84-1.65,38.45-3,34.78,12.52c-3.48,14.7-12.34,28.08-24.45,35.74
		c-95.65,60.52-71.46,50.9-171.92,78.03c-105.61,28.52-358.71,53.65-443.65,127.26" />
		<g>
			<path class="st2" d="M752.22,735.07c43.34-17.54,88.14-31.16,133.42-42.71c45.32-11.56,91.12-21.12,136.87-30.81
			c45.19-9.57,90.39-19.27,135.03-31.17c44.26-11.79,88-25.79,130.16-43.75c10.72-4.56,21.33-9.38,31.81-14.48
			c8.79-4.27,18.18-8.36,25.73-14.7c6.7-5.63,11.25-13.34,10.6-22.29c-0.28-3.91-1.48-7.88-3.96-10.97
			c-0.99-1.24-2.18-2.31-3.56-3.1c-0.46-0.26-1.43-0.46-1.79-0.84c-0.5-0.52-0.3-0.29-0.41-1.16c-0.28-2.36,0.1-4.97,0.15-7.36
			c-0.31,0.24-0.63,0.49-0.94,0.73c2.68-1.06,6.81-0.74,9.73-0.69c4.92,0.09,9.96,0.57,14.66,2.11c3.74,1.23,7.98,3.5,8.63,7.79
			c0.45,2.98-0.9,6.26-1.85,9.02c-1.4,4.1-3.23,8.06-5.45,11.78c-9.21,15.41-25.67,23.32-40.31,32.7
			c-11.05,7.08-22.04,14.25-33.18,21.19c-13.84,8.63-27.92,16.41-43.4,21.71c-23.56,8.07-48.05,13.74-72.09,20.16
			c-45.19,12.07-91.66,19.49-137.57,28.17c-55.48,10.49-111.02,21.37-165.44,36.51c-24.75,6.89-49.33,14.65-73.12,24.37
			c-19.98,8.16-39.75,17.64-57.3,30.32c-3.57,2.58-7.03,5.3-10.37,8.17c-0.62,0.54,2.08,0.27,2.63-0.2
			c16.11-13.9,35.2-24.08,54.55-32.7c23.78-10.59,48.59-18.85,73.57-26.11c27.71-8.05,55.78-14.82,83.96-20.99
			c28.19-6.17,56.51-11.73,84.87-17.11c26.1-4.96,52.23-9.74,78.3-14.85c21.2-4.16,42.41-8.45,63.32-13.9
			c24.34-6.34,48.99-12.35,72.9-20.21c15.39-5.06,29.55-12.26,43.34-20.7c10.54-6.45,20.89-13.2,31.28-19.88
			c7.4-4.75,14.8-9.49,22.22-14.21c7.18-4.56,14.03-8.9,19.5-15.54c5.22-6.33,9.1-13.73,11.44-21.6c1.26-4.24,2.05-8.3-1.53-11.6
			c-6.28-5.78-17.72-5.86-25.7-5.59c-2.78,0.09-5.95,0.14-8.58,1.17c-0.3,0.12-0.94,0.32-0.94,0.73c-0.06,2.82-0.12,5.64-0.18,8.46
			c0.05,0.11,0.14,0.17,0.26,0.18c7.93,2.74,10.37,12.41,9.29,19.93c-1.41,9.86-9.32,16.81-17.45,21.65
			c-9.16,5.45-19.05,9.86-28.7,14.34c-10.27,4.76-20.65,9.27-31.14,13.54c-40.86,16.65-83.09,29.71-125.77,40.83
			c-42.83,11.17-86.13,20.42-129.42,29.58c-42.89,9.08-85.82,18.08-128.35,28.74c-42.47,10.65-84.58,22.99-125.5,38.62
			c-5.09,1.95-10.16,3.94-15.22,5.99C749.31,735.15,751.1,735.52,752.22,735.07L752.22,735.07z" />
		</g>
	</g>
	<path class="st6" d="M1053.84,267.03c0.19,0.22,2.39,3.58,2.62,3.49s-1.85-2.15-1.87-2.45l-1.3-22.9c-0.01-0.21,0-0.43,0.04-0.64
	l0.68-3.76c0.23-1.28-0.48-2.55-1.7-3.02l0,0c-0.97-0.37-2.08-0.15-2.83,0.56l-1.65,1.55c-0.34,0.33-0.6,0.74-0.73,1.19l-0.81,2.69
	c-0.08,0.25-0.12,0.52-0.12,0.78v3.63c0,0.14-0.01,0.27-0.03,0.4l-0.51,3.38c-0.02,0.13-0.03,0.27-0.03,0.4v3.44
	c0,0.34,0.06,0.68,0.19,1l1.4,3.52c0.08,0.2,0.18,0.39,0.3,0.56l2.26,1.56" />
	<path class="st10" d="M1056.12,268.08l-1.3-22.9c-0.01-0.21,0-0.43,0.04-0.64l0.68-3.76c0.23-1.28-0.48-2.55-1.7-3.02h0
	c-0.97-0.37-2.07-0.15-2.83,0.56l-1.65,1.55c-0.34,0.33-0.6,0.74-0.73,1.19l-0.81,2.69c-0.08,0.25-0.12,0.52-0.12,0.78v3.63
	c0,0.14-0.01,0.27-0.03,0.4l-0.51,3.38c-0.02,0.13-0.03,0.27-0.03,0.4v3.44c0,0.34,0.06,0.68,0.19,1l1.4,3.52
	c0.08,0.2,0.18,0.39,0.3,0.56l2.64,3.75c0.01,0.02,0.03,0.03,0.04,0.05l3.04,4.03c0.19,0.22,1.5,2.78,1.73,2.69
	S1056.13,268.37,1056.12,268.08z" />
	<path class="st10" d="M1026.25,245.11l3.58-1.43c0.58-0.23,1.22-0.22,1.78,0.04l3.49,1.59c0.08,0.04,0.15,0.07,0.22,0.12l5.88,3.52
	c0.21,0.13,0.45,0.22,0.69,0.27l2.67,0.57c0.43,0.09,0.82,0.3,1.12,0.61l2.6,2.58c0.22,0.22,0.4,0.48,0.51,0.77l0.89,2.25
	c0.38,0.95,0.07,2.04-0.75,2.65l0,0c-0.39,0.29-0.87,0.45-1.36,0.45h-3.9c-0.36,0-0.71-0.08-1.03-0.25l-5.83-2.97
	c-0.09-0.05-0.18-0.09-0.28-0.12l-4.83-1.69c-0.09-0.03-0.19-0.06-0.28-0.08l-2.9-0.61c-0.24-0.05-0.48-0.14-0.69-0.27l-2.44-1.45
	l-0.84-0.5c-1.13-0.67-1.45-2.15-0.71-3.23l1.37-2C1025.48,245.56,1025.84,245.27,1026.25,245.11z" />
	<path class="st10" d="M1031.37,272.94l-4.54-0.9c-0.57,0-1.11-0.29-1.41-0.78l-2.26-3.59c-0.06-0.09-0.13-0.18-0.2-0.26l0,0
	c-0.69-0.73-0.59-1.9,0.22-2.5l1.72-1.27c0.29-0.21,0.63-0.32,0.99-0.32h5.42h3.85c0.27,0,0.54,0.07,0.78,0.19l4.38,2.32
	c0.24,0.13,0.51,0.19,0.78,0.19h0.39c0.95,0,1.71,0.8,1.67,1.75l-0.16,3.42c-0.03,0.53-0.3,1.01-0.74,1.31l-2.23,1.5
	c-0.31,0.21-0.69,0.31-1.06,0.28l-3.73-0.29c-0.16-0.01-0.31-0.05-0.46-0.1" />
	<path class="st10" d="M1030.45,235.25h6.01c0.16,0,0.32,0.02,0.47,0.05l5.79,1.27c0.28,0.06,0.54,0.18,0.78,0.34l2.9,1.98
	c0.34,0.23,0.61,0.56,0.78,0.94l1.8,4.1c0.14,0.33,0.21,0.68,0.18,1.03l-0.13,2.05c-0.04,0.62-0.33,1.19-0.81,1.58l-1.93,1.57
	c-0.65,0.53-1.56,0.65-2.32,0.3l-12.84-5.86c-0.26-0.12-0.5-0.29-0.7-0.5l-2.66-2.83c-0.62-0.66-0.77-1.63-0.4-2.45l1.05-2.28
	C1028.79,235.75,1029.58,235.25,1030.45,235.25L1030.45,235.25z" />
	<path class="st10" d="M1024.72,255.54l3.35-1.91c0.54-0.31,1.18-0.38,1.77-0.2l3.68,1.1c0.08,0.02,0.16,0.05,0.24,0.09l6.3,2.68
	c0.23,0.1,0.47,0.16,0.72,0.17l2.73,0.2c0.43,0.03,0.85,0.19,1.2,0.45l2.93,2.2c0.25,0.19,0.46,0.42,0.61,0.7l1.19,2.11
	c0.5,0.89,0.35,2.01-0.38,2.73l0,0c-0.35,0.35-0.8,0.57-1.29,0.64l-3.87,0.54c-0.35,0.05-0.71,0.01-1.05-0.1l-6.18-2.14
	c-0.1-0.03-0.19-0.06-0.29-0.08l-5.02-1.01c-0.1-0.02-0.19-0.03-0.29-0.04l-2.95-0.21c-0.25-0.02-0.49-0.08-0.72-0.17l-2.62-1.1
	l-0.9-0.38c-1.21-0.51-1.73-1.93-1.15-3.1l1.08-2.17C1024.01,256.1,1024.33,255.77,1024.72,255.54z" />
	<path class="st13" d="M925.67,1153.47c-3.06-4.62-7.01-7.55-10.82-10.37c-2.69-1.99-6.47-4.9-12.85-7.46
	c-8.44-3.4-14.06-4.08-16.5-4.32c-3.84-0.38-9.42-1-17.09-0.1c-9.54,1.11-14.44,2.1-18.57,3.14c-2.95,0.74-9.84,2.95-12.77,3.78
	c5.41-13.55,10.64-39.72,14.86-53.09c-18.55,11.18-52.37,36.42-52.37,36.42s-15.02-15.26-18.62-18.58
	c25.74-10.81,50.86-20.01,77.14-30.8c3.84-1.58,13.02,9.16,10.89,12.7c-8.46,14.07-20.13,34.42-26.22,45.69
	c3.7-0.62,33.27-10.62,37.61-10.6c37.55,0.21,56.39,15.99,62.22,21.98c7.77,7.99,12.21,18.29,10.15,31.24
	c-2.93,18.43-38.75,28.16-61.04,28.98c-7.92,0.29-25.64-1.26-39.06-7.97c-5.14-2.57-8.97-6.69-10.82-8.71
	c9.02-3.04,18.49-5.94,27.5-8.99c0.59,1.29,3.27,6.59,11.72,9.4c6.72,2.23,13.19,1.59,18.04,1.11c14.74-1.47,24.62-7.84,27.8-11.96
	c1.63-2.12,2.21-4.2,2.21-4.2l0.73-2.3C931.31,1160.49,925.67,1153.47,925.67,1153.47z" />
	<path class="st14" d="M1218.69,1054.55c-26.98,13.9-65.1,30.47-92.04,43.34c4.38-17.77,14.8-52.08,15.27-72.27
	c-0.12-12.27-6.31-31.62-16.41-36.54c-8.4-4.09-15.79-4.29-21.23-3.42c-2.63,0.42-10.08,2.7-17.07,11.05
	c-1.47,1.76-6.95,14.25-7.42,17.99c0,0-0.1,0.8,0,6.55c-6.51,2.55-13.03,5.09-19.54,7.64c-1.46-3.49-4.43-12.23,0-21.83
	c5.09-11.04,16.73-16.22,24.43-19.65c4.11-1.83,17.91-7.78,36.29-6.55c4.63,0.31,12.08,0.87,20.24,4.37
	c3.56,1.53,6.48,3.33,8.89,5.24c7.5,5.94,10.32,13.98,10.7,22.1c0.76,16.35,0,31.26-0.46,47.27l47.17-20.03
	c6.05,3.82,11.76,7.43,17.81,11.25C1222.54,1052.55,1220.38,1053.66,1218.69,1054.55z" />
	<g>
		<g>
			<path class="st15" d="M1360.55,115.21c14.12,0,27.65-12.42,27-27c-0.66-14.63-11.86-27-27-27c-14.12,0-27.65,12.42-27,27
			C1334.2,102.83,1345.41,115.21,1360.55,115.21L1360.55,115.21z" />
		</g>
	</g>
	<text transform="matrix(0.92 0 0 1 874 91)" class="st26 st27 st29">63e Dies Natalis der C.S.R. Delft</text>
	<path class="st18"
		d="M2382.86,1096.79c-214.35,57.31-439.35,6.31-640.35-79.69c-5-2-42-19-57-27c-22-12-44-22-65.14-34.15" />
	<line class="st4" x1="-3.91" y1="120.61" x2="1091.86" y2="1699.67" />
	<path class="st18" d="M2381.45,2226.83c-33.79,5.85-67.77,10.57-101.88,14.08c-32.36,3.33-64.83,5.56-97.34,6.62
	c-31.1,1.01-62.25,0.96-93.34-0.22c-30-1.14-59.96-3.32-89.81-6.59c-28.59-3.12-57.07-7.24-85.37-12.35
	c-27.33-4.94-54.49-10.81-81.42-17.6c-26.2-6.61-52.17-14.1-77.87-22.45c-24.79-8.06-49.32-16.91-73.54-26.54
	c-23.52-9.35-46.74-19.43-69.64-30.21c-22.24-10.47-44.16-21.6-65.75-33.35c-21.06-11.47-41.79-23.53-62.18-36.15
	c-19.66-12.17-39-24.86-57.99-38.05c-18.37-12.75-36.43-25.96-54.15-39.6c-17.17-13.21-34.03-26.83-50.57-40.83
	c-15.79-13.36-31.29-27.08-46.49-41.11c-14.51-13.4-28.74-27.1-42.69-41.07c-13.23-13.25-26.2-26.76-38.91-40.51
	c-12.01-12.99-23.78-26.19-35.31-39.61c-10.67-12.41-21.13-25.01-31.37-37.78c-9.4-11.73-18.62-23.6-27.63-35.62
	c-4.06-5.41-8.08-10.86-12.05-16.33" />
	<path class="st24" d="M2392.74,1744.82c-43.37,10.29-85.37,16.29-129.37,21.29c-3,0-19,1-24,2c-31,1-113,1-123,1
	c-131-1-259-35-380-89c-5-2-124-59-179-94c-33-22-61-41-92-65c-49-39-94-77-136.66-119.32" />
	<path class="st24"
		d="M2383.85,1403.9c-180.96,40.98-369.5,6.35-539.54-64.02c-1.99-1.03-157.03-71.19-219.68-111.01" />
	<g mask="url(#text2)">
		<text class="st-poster-13" transform="translate(776 240) scale(0.95 1)">
			<tspan x="0" y="0">ευ</tspan>
			<tspan x="364.55" y="0">οriα</tspan>
		</text>
	</g>
</svg>