<?xml version="1.0" encoding="UTF-8"?>
<svg xmlns="http://www.w3.org/2000/svg" viewBox="0 0 1002.89 2091.11">
  <defs>
    <style>
      .cls-1 {
        letter-spacing: 0em;
      }

      .cls-2 {
        font-size: 12px;
      }

      .cls-2, .cls-3, .cls-4, .cls-5, .cls-6, .cls-7, .cls-8, .cls-9, .cls-10, .cls-11, .cls-12, .cls-13, .cls-14 {
        fill: #030404;
      }

      .cls-2, .cls-6, .cls-7, .cls-13 {
        font-family: PMingLiU-ExtB, PMingLiU-ExtB;
      }

      .cls-15 {
        letter-spacing: -.02em;
      }

      .cls-3, .cls-4, .cls-5, .cls-16, .cls-17, .cls-10, .cls-12, .cls-14 {
        font-family: HandsomeProThin, 'Handsome Pro';
      }

      .cls-3, .cls-11 {
        font-size: 30px;
      }

      .cls-18 {
        letter-spacing: .03em;
      }

      .cls-4, .cls-19 {
        font-size: 15px;
      }

      .cls-19, .cls-11 {
        font-family: ContemporaScript-Regular, 'Contempora Script';
      }

      .cls-5, .cls-13 {
        font-size: 24px;
      }

      .cls-20 {
        letter-spacing: -.09em;
      }

      .cls-21 {
        fill: #891814;
      }

      .cls-6 {
        font-size: 48px;
      }

      .cls-22 {
        letter-spacing: -.06em;
      }

      .cls-23 {
        fill: #a51c18;
      }

      .cls-24 {
        fill: #c61d18;
      }

      .cls-16 {
        letter-spacing: -.09em;
      }

      .cls-16, .cls-17, .cls-14 {
        font-size: 28px;
      }

      .cls-25 {
        fill: #a8a094;
      }

      .cls-26 {
        fill: #eab818;
      }

      .cls-7 {
        font-size: 9px;
      }

      .cls-27 {
        letter-spacing: .03em;
      }

      .cls-28 {
        letter-spacing: -.05em;
      }

      .cls-8 {
        font-family: BodoniMT, 'Bodoni MT';
        font-size: 16px;
      }

      .cls-29 {
        letter-spacing: -.03em;
      }

      .cls-30 {
        letter-spacing: -.06em;
      }

      .cls-31, .cls-11, .cls-32 {
        stroke-miterlimit: 10;
      }

      .cls-31, .cls-32 {
        fill: none;
        stroke: #891814;
      }

      .cls-10 {
        font-size: 17px;
      }

      .cls-11 {
        stroke: #030404;
        stroke-width: .25px;
      }

      .cls-33 {
        letter-spacing: 0em;
      }

      .cls-32 {
        stroke-width: .75px;
      }

      .cls-12 {
        font-size: 27px;
      }

      .cls-34 {
        letter-spacing: -.04em;
      }

      .cls-35 {
        letter-spacing: 0em;
      }

      .cls-36 {
        letter-spacing: .03em;
      }

      .cls-37 {
        fill: #f4dbb3;
      }
    </style>
  </defs>
  <g id="Rand_tegels">
    <g>
      <rect class="cls-23" x="895.4" y="1204.38" width="106.49" height="158.97"/>
      <path class="cls-25" d="M1000.89,1205.38v156.97h-104.49v-156.97h104.49M1002.89,1203.38h-108.49v160.97h108.49v-160.97h0Z"/>
    </g>
    <g>
      <rect class="cls-23" x="1" y="1204.38" width="118" height="158.97"/>
      <path class="cls-25" d="M118,1205.38v156.97H2v-156.97h116M120,1203.38H0v160.97h120v-160.97h0Z"/>
    </g>
    <g>
      <rect class="cls-23" x="1" y="171.85" width="118" height="256.13"/>
      <path class="cls-25" d="M118,172.85v254.13H2v-254.13h116M120,170.85H0v258.13h120V170.85h0Z"/>
    </g>
    <g>
      <rect class="cls-26" x="1" y="1.95" width="118" height="167.9"/>
      <path class="cls-25" d="M118,2.95v165.9H2V2.95h116M120,.95H0v169.9h120V.95h0Z"/>
    </g>
    <g>
      <rect class="cls-26" x="895.4" y="429.99" width="106.49" height="256.13"/>
      <path class="cls-25" d="M1000.89,430.99v254.13h-104.49v-254.13h104.49M1002.89,428.99h-108.49v258.13h108.49v-258.13h0Z"/>
    </g>
    <g>
      <rect class="cls-26" x="895.4" y="1" width="106.49" height="168.85"/>
      <path class="cls-25" d="M1000.89,2v166.85h-104.49V2h104.49M1002.89,0h-108.49v170.85h108.49V0h0Z"/>
    </g>
    <g>
      <rect class="cls-23" x="895.4" y="688.12" width="106.49" height="256.13"/>
      <path class="cls-25" d="M1000.89,689.12v254.13h-104.49v-254.13h104.49M1002.89,687.12h-108.49v258.13h108.49v-258.13h0Z"/>
    </g>
    <g>
      <rect class="cls-26" x="895.4" y="946.72" width="106.49" height="255.66"/>
      <path class="cls-25" d="M1000.89,947.72v253.66h-104.49v-253.66h104.49M1002.89,945.72h-108.49v257.66h108.49v-257.66h0Z"/>
    </g>
    <g>
      <rect class="cls-26" x="1" y="946.25" width="118" height="256.13"/>
      <path class="cls-25" d="M118,947.25v254.13H2v-254.13h116M120,945.25H0v258.13h120v-258.13h0Z"/>
    </g>
    <g>
      <rect class="cls-23" x="1" y="688.12" width="118" height="256.13"/>
      <path class="cls-25" d="M118,689.12v254.13H2v-254.13h116M120,687.12H0v258.13h120v-258.13h0Z"/>
    </g>
    <g>
      <rect class="cls-26" x="1" y="429.99" width="118" height="256.13"/>
      <path class="cls-25" d="M118,430.99v254.13H2v-254.13h116M120,428.99H0v258.13h120v-258.13h0Z"/>
    </g>
    <g>
      <rect class="cls-23" x="637.27" y="1.95" width="256.13" height="167.9"/>
      <path class="cls-25" d="M892.4,2.95v165.9h-254.13V2.95h254.13M894.4.95h-258.13v169.9h258.13V.95h0Z"/>
    </g>
    <g>
      <rect class="cls-26" x="121" y="1204.38" width="256.13" height="158.97"/>
      <path class="cls-25" d="M376.13,1205.38v156.97H122v-156.97h254.13M378.13,1203.38H120v160.97h258.13v-160.97h0Z"/>
    </g>
    <g>
      <rect class="cls-26" x="637.27" y="1204.38" width="256.13" height="158.97"/>
      <path class="cls-25" d="M892.4,1205.38v156.97h-254.13v-156.97h254.13M894.4,1203.38h-258.13v160.97h258.13v-160.97h0Z"/>
    </g>
    <g>
      <rect class="cls-23" x="379.13" y="1204.38" width="256.13" height="158.97"/>
      <path class="cls-25" d="M634.27,1205.38v156.97h-254.13v-156.97h254.13M636.27,1203.38h-258.13v160.97h258.13v-160.97h0Z"/>
    </g>
    <g>
      <rect class="cls-23" x="895.4" y="171.85" width="106.49" height="256.13"/>
      <path class="cls-25" d="M1000.89,172.85v254.13h-104.49v-254.13h104.49M1002.89,170.85h-108.49v258.13h108.49V170.85h0Z"/>
    </g>
    <g>
      <rect class="cls-23" x="121" y="1.95" width="256.13" height="167.9"/>
      <path class="cls-25" d="M376.13,2.95v165.9H122V2.95h254.13M378.13.95H120v169.9h258.13V.95h0Z"/>
    </g>
    <g>
      <rect class="cls-26" x="379.13" y="1.95" width="256.13" height="167.9"/>
      <path class="cls-25" d="M634.27,2.95v165.9h-254.13V2.95h254.13M636.27.95h-258.13v169.9h258.13V.95h0Z"/>
    </g>
  </g>
  <g id="Grote_tegels">
    <g>
      <rect class="cls-37" x="121" y="429.99" width="256.13" height="256.13"/>
      <path class="cls-25" d="M376.13,430.99v254.13H122v-254.13h254.13M378.13,428.99H120v258.13h258.13v-258.13h0Z"/>
    </g>
    <g>
      <rect class="cls-37" x="379.13" y="429.99" width="256.13" height="256.13"/>
      <path class="cls-25" d="M634.27,430.99v254.13h-254.13v-254.13h254.13M636.27,428.99h-258.13v258.13h258.13v-258.13h0Z"/>
    </g>
    <g>
      <rect class="cls-37" x="637.27" y="429.99" width="256.13" height="256.13"/>
      <path class="cls-25" d="M892.4,430.99v254.13h-254.13v-254.13h254.13M894.4,428.99h-258.13v258.13h258.13v-258.13h0Z"/>
    </g>
    <g>
      <rect class="cls-37" x="637.27" y="171.85" width="256.13" height="256.13"/>
      <path class="cls-25" d="M892.4,172.85v254.13h-254.13v-254.13h254.13M894.4,170.85h-258.13v258.13h258.13V170.85h0Z"/>
    </g>
    <g>
      <rect class="cls-37" x="379.13" y="171.85" width="256.13" height="256.13"/>
      <path class="cls-25" d="M634.27,172.85v254.13h-254.13v-254.13h254.13M636.27,170.85h-258.13v258.13h258.13V170.85h0Z"/>
    </g>
    <g>
      <rect class="cls-37" x="121" y="171.85" width="256.13" height="256.13"/>
      <path class="cls-25" d="M376.13,172.85v254.13H122v-254.13h254.13M378.13,170.85H120v258.13h258.13V170.85h0Z"/>
    </g>
    <g>
      <rect class="cls-37" x="121" y="688.12" width="256.13" height="256.13"/>
      <path class="cls-25" d="M376.13,689.12v254.13H122v-254.13h254.13M378.13,687.12H120v258.13h258.13v-258.13h0Z"/>
    </g>
    <g>
      <rect class="cls-37" x="379.13" y="688.12" width="256.13" height="256.13"/>
      <path class="cls-25" d="M634.27,689.12v254.13h-254.13v-254.13h254.13M636.27,687.12h-258.13v258.13h258.13v-258.13h0Z"/>
    </g>
    <g>
      <rect class="cls-37" x="637.27" y="688.12" width="256.13" height="256.13"/>
      <path class="cls-25" d="M892.4,689.12v254.13h-254.13v-254.13h254.13M894.4,687.12h-258.13v258.13h258.13v-258.13h0Z"/>
    </g>
    <g>
      <rect class="cls-37" x="121" y="946.25" width="256.13" height="256.13"/>
      <path class="cls-25" d="M376.13,947.25v254.13H122v-254.13h254.13M378.13,945.25H120v258.13h258.13v-258.13h0Z"/>
    </g>
    <g>
      <rect class="cls-37" x="379.13" y="946.25" width="256.13" height="256.13"/>
      <path class="cls-25" d="M634.27,947.25v254.13h-254.13v-254.13h254.13M636.27,945.25h-258.13v258.13h258.13v-258.13h0Z"/>
    </g>
    <g>
      <rect class="cls-37" x="637.27" y="946.25" width="256.13" height="256.13"/>
      <path class="cls-25" d="M892.4,947.25v254.13h-254.13v-254.13h254.13M894.4,945.25h-258.13v258.13h258.13v-258.13h0Z"/>
    </g>
  </g>
  <g id="Rode_tegeltjes">
    <g>
      <rect class="cls-23" x="877.13" y="153.32" width="34.55" height="34.55" transform="translate(141.33 682.4) rotate(-45)"/>
      <path class="cls-25" d="M894.4,147.58l23.01,23.01-23.01,23.01-23.01-23.01,23.01-23.01M894.4,144.75l-25.84,25.84,25.84,25.84,25.84-25.84-25.84-25.84h0Z"/>
    </g>
    <g>
      <rect class="cls-23" x="877.13" y="411.45" width="34.55" height="34.55" transform="translate(-41.19 758.02) rotate(-45)"/>
      <path class="cls-25" d="M894.4,405.71l23.01,23.01-23.01,23.01-23.01-23.01,23.01-23.01M894.4,402.89l-25.84,25.84,25.84,25.84,25.84-25.84-25.84-25.84h0Z"/>
    </g>
    <g>
      <rect class="cls-23" x="877.13" y="669.59" width="34.55" height="34.55" transform="translate(-223.72 833.62) rotate(-45)"/>
      <path class="cls-25" d="M894.41,663.85l23.01,23.01-23.01,23.01-23.01-23.01,23.01-23.01M894.41,661.02l-25.84,25.84,25.84,25.84,25.84-25.84-25.84-25.84h0Z"/>
    </g>
    <g>
      <rect class="cls-23" x="877.14" y="927.72" width="34.55" height="34.55" transform="translate(-406.24 909.23) rotate(-45)"/>
      <path class="cls-25" d="M894.41,921.98l23.01,23.01-23.01,23.01-23.01-23.01,23.01-23.01M894.41,919.15l-25.84,25.84,25.84,25.84,25.84-25.84-25.84-25.84h0Z"/>
    </g>
    <g>
      <rect class="cls-23" x="877.14" y="1185.85" width="34.55" height="34.55" transform="translate(-588.77 984.86) rotate(-45)"/>
      <path class="cls-25" d="M894.41,1180.11l23.01,23.01-23.01,23.01-23.01-23.01,23.01-23.01M894.41,1177.28l-25.84,25.84,25.84,25.84,25.84-25.84-25.84-25.84h0Z"/>
    </g>
    <g>
      <rect class="cls-23" x="618.99" y="153.58" width="34.55" height="34.55" transform="translate(65.55 499.95) rotate(-45)"/>
      <path class="cls-25" d="M636.27,147.84l23.01,23.01-23.01,23.01-23.01-23.01,23.01-23.01M636.27,145.01l-25.84,25.84,25.84,25.84,25.84-25.84-25.84-25.84h0Z"/>
    </g>
    <g>
      <rect class="cls-23" x="619" y="411.71" width="34.55" height="34.55" transform="translate(-116.98 575.57) rotate(-45)"/>
      <path class="cls-25" d="M636.27,405.97l23.01,23.01-23.01,23.01-23.01-23.01,23.01-23.01M636.27,403.14l-25.84,25.84,25.84,25.84,25.84-25.84-25.84-25.84h0Z"/>
    </g>
    <g>
      <rect class="cls-23" x="619" y="669.84" width="34.55" height="34.55" transform="translate(-299.51 651.16) rotate(-45)"/>
      <path class="cls-25" d="M636.27,664.1l23.01,23.01-23.01,23.01-23.01-23.01,23.01-23.01M636.27,661.28l-25.84,25.84,25.84,25.84,25.84-25.84-25.84-25.84h0Z"/>
    </g>
    <g>
      <rect class="cls-23" x="619" y="927.98" width="34.55" height="34.55" transform="translate(-482.03 726.77) rotate(-45)"/>
      <path class="cls-25" d="M636.28,922.24l23.01,23.01-23.01,23.01-23.01-23.01,23.01-23.01M636.28,919.41l-25.84,25.84,25.84,25.84,25.84-25.84-25.84-25.84h0Z"/>
    </g>
    <g>
      <rect class="cls-23" x="619.01" y="1186.11" width="34.55" height="34.55" transform="translate(-664.57 802.41) rotate(-45)"/>
      <path class="cls-25" d="M636.28,1180.37l23.01,23.01-23.01,23.01-23.01-23.01,23.01-23.01M636.28,1177.54l-25.84,25.84,25.84,25.84,25.84-25.84-25.84-25.84h0Z"/>
    </g>
    <g>
      <rect class="cls-23" x="360.86" y="153.32" width="34.55" height="34.55" transform="translate(-9.87 317.35) rotate(-45)"/>
      <path class="cls-25" d="M378.13,147.58l23.01,23.01-23.01,23.01-23.01-23.01,23.01-23.01M378.13,144.75l-25.84,25.84,25.84,25.84,25.84-25.84-25.84-25.84h0Z"/>
    </g>
    <g>
      <rect class="cls-23" x="360.86" y="411.45" width="34.55" height="34.55" transform="translate(-192.4 392.95) rotate(-45)"/>
      <path class="cls-25" d="M378.14,405.71l23.01,23.01-23.01,23.01-23.01-23.01,23.01-23.01M378.14,402.89l-25.84,25.84,25.84,25.84,25.84-25.84-25.84-25.84h0Z"/>
    </g>
    <g>
      <rect class="cls-23" x="360.87" y="669.59" width="34.55" height="34.55" transform="translate(-374.93 468.55) rotate(-45)"/>
      <path class="cls-25" d="M378.14,663.85l23.01,23.01-23.01,23.01-23.01-23.01,23.01-23.01M378.14,661.02l-25.84,25.84,25.84,25.84,25.84-25.84-25.84-25.84h0Z"/>
    </g>
    <g>
      <rect class="cls-23" x="360.87" y="927.72" width="34.55" height="34.55" transform="translate(-557.46 544.19) rotate(-45)"/>
      <path class="cls-25" d="M378.14,921.98l23.01,23.01-23.01,23.01-23.01-23.01,23.01-23.01M378.14,919.15l-25.84,25.84,25.84,25.84,25.84-25.84-25.84-25.84h0Z"/>
    </g>
    <g>
      <rect class="cls-23" x="360.87" y="1185.85" width="34.55" height="34.55" transform="translate(-739.99 619.79) rotate(-45)"/>
      <path class="cls-25" d="M378.15,1180.11l23.01,23.01-23.01,23.01-23.01-23.01,23.01-23.01M378.15,1177.28l-25.84,25.84,25.84,25.84,25.84-25.84-25.84-25.84h0Z"/>
    </g>
    <g>
      <rect class="cls-23" x="102.73" y="153.58" width="34.55" height="34.55" transform="translate(-85.66 134.89) rotate(-45)"/>
      <path class="cls-25" d="M120,147.84l23.01,23.01-23.01,23.01-23.01-23.01,23.01-23.01M120,145.01l-25.84,25.84,25.84,25.84,25.84-25.84-25.84-25.84h0Z"/>
    </g>
    <g>
      <rect class="cls-23" x="102.73" y="411.71" width="34.55" height="34.55" transform="translate(-268.19 210.5) rotate(-45)"/>
      <path class="cls-25" d="M120,405.97l23.01,23.01-23.01,23.01-23.01-23.01,23.01-23.01M120,403.14l-25.84,25.84,25.84,25.84,25.84-25.84-25.84-25.84h0Z"/>
    </g>
    <g>
      <rect class="cls-23" x="102.73" y="669.84" width="34.55" height="34.55" transform="translate(-450.72 286.11) rotate(-45)"/>
      <path class="cls-25" d="M120,664.1l23.01,23.01-23.01,23.01-23.01-23.01,23.01-23.01M120,661.28l-25.84,25.84,25.84,25.84,25.84-25.84-25.84-25.84h0Z"/>
    </g>
    <g>
      <rect class="cls-23" x="102.73" y="927.98" width="34.55" height="34.55" transform="translate(-633.24 361.71) rotate(-45)"/>
      <path class="cls-25" d="M120.01,922.24l23.01,23.01-23.01,23.01-23.01-23.01,23.01-23.01M120.01,919.41l-25.84,25.84,25.84,25.84,25.84-25.84-25.84-25.84h0Z"/>
    </g>
    <g>
      <rect class="cls-23" x="102.74" y="1186.11" width="34.55" height="34.55" transform="translate(-815.78 437.33) rotate(-45)"/>
      <path class="cls-25" d="M120.01,1180.37l23.01,23.01-23.01,23.01-23.01-23.01,23.01-23.01M120.01,1177.54l-25.84,25.84,25.84,25.84,25.84-25.84-25.84-25.84h0Z"/>
    </g>
  </g>
  <g id="Borrel_x2F_debat">
    <g>
      <path class="cls-24" d="M152.1,395.19s-7.02-.24-8.91-2.27c-1.66-1.78-1.59-2.5-1.66-4.19s.42-3.26.94-4.18c.51-.92.72-1.93.47-2.4s-.42-.59-.42-.59c0,0,1.8.37,1.98,1.91,0,0-.58,3.45.01,4.56s.88,1.43,2.4,1.99,7.27.75,7.27.75c0,0-.21,4.32-2.07,4.4"/>
      <path class="cls-24" d="M164.73,395.19s7.02-.24,8.91-2.27c1.66-1.78,1.59-2.5,1.66-4.19s-.42-3.26-.94-4.18c-.51-.92-.72-1.93-.47-2.4s.42-.59.42-.59c0,0-1.8.37-1.98,1.91,0,0,.58,3.45-.01,4.56-.59,1.12-.88,1.43-2.4,1.99s-7.27.75-7.27.75c0,0,.21,4.32,2.07,4.4"/>
      <path class="cls-26" d="M158.53,417.86c-.61.01-2.12.34-2.96.35s-2.14-.73-2.29-1.84c-.16-1.11.29-2.84-.16-4.53s-.27-1.86-.76-3.19c-.82-2.19-2.74-4.2-2.79-6.48s1.72-4.18,1.72-4.18c0,0-.51-.18-1.09.36s-.42.57-2.44.72-4.62-2.04-4.62-2.04c0,0,1.74-.78,4.24-1.24,2.5-.45,3.82-.2,4.54-.54s.68-.78.62-1.04-.75-1.19-.56-1.8.5-1.1,1.12-1.31,1.24-.47,1.54-.94,1.8-.74,2.47-.54,1.06.44,1.52.41.65-.48,1.81-.47,1.8.56,1.93.77.24.77.56.98,2.05.78,1.96,1.81-.74,1.36-.63,1.8.88.36.88.36c0,0,1.39-.32,4.8.5,3.41.81,3.76,1.27,3.76,1.27,0,0-1.54,2.16-4.72,1.96-1.97-.12-2.41-.5-2.67-.75s-.68-.13-.68-.13c0,0,1.74,2.42,1.74,4.08s-2.56,4.65-3.1,7c-.54,2.35-.88,3.32-.85,4.26s.17.75.17,1.9-.09,1.95-1.25,2.63c-1.19.7-2.6-.17-3.8-.14Z"/>
    </g>
    <g>
      <path class="cls-24" d="M264.56,416.55s.86,1.9,4.45,1.69c3.59-.22,4.93-1.69,4.93-1.69l.26-20.07s-.09-1.56-.78-2.12-2.08-1.25-2.08-2.03-.13-7.52-.13-7.52l.37-.23v-1.02l-.42-.19.02-.79s-.46-.54-1.81-.44c-1.34.1-1.81.44-1.81.44l-.02.79-.42.15.02,1.1.29.15v7.15s-.19.94-1.39,1.7-1.36,2.25-1.36,2.25l-.12,20.69Z"/>
      <path class="cls-26" d="M269.38,411.75c2.98.04,4.64-1.17,4.64-1.17l.13-10.23s-2.03,1.45-4.77,1.4-4.73-1.32-4.73-1.32l-.06,10.26s1.74,1.01,4.79,1.05Z"/>
    </g>
    <g>
      <g>
        <path class="cls-24" d="M493.57,406.41s2.5,1.15,2.21,5.93-2.21,6.56-2.21,6.56l-26.33.35s-2.04-.12-2.78-1.04c-.74-.92-1.65-2.76-2.67-2.76s-9.87-.17-9.87-.17l-.31.5h-1.34l-.26-.56-1.04.02s-.7-.62-.57-2.4c.13-1.78.57-2.41.57-2.41l1.04-.02.19-.56,1.45.02.19.39h9.38s1.23-.26,2.23-1.86c1-1.6,2.96-1.81,2.96-1.81l27.15-.17Z"/>
        <path class="cls-26" d="M487.27,412.82c.06,3.97-1.53,6.17-1.53,6.17l-13.42.18s1.9-2.7,1.84-6.35c-.06-3.65-1.73-6.29-1.73-6.29l13.46-.08s1.32,2.31,1.38,6.37Z"/>
      </g>
      <g>
        <path class="cls-24" d="M521.98,419.24s-2.5-1.15-2.21-5.93c.28-4.78,2.21-6.56,2.21-6.56l26.33-.35s2.04.12,2.78,1.04c.74.92,1.65,2.76,2.67,2.76s9.87.17,9.87.17l.31-.5h1.34s.26.56.26.56l1.04-.02s.7.62.57,2.4c-.13,1.78-.57,2.41-.57,2.41l-1.04.02-.19.56-1.45-.02-.19-.39h-9.38s-1.23.26-2.23,1.86-2.96,1.81-2.96,1.81l-27.15.17Z"/>
        <path class="cls-26" d="M528.27,412.82c-.06-3.97,1.53-6.17,1.53-6.17l13.42-.18s-1.9,2.7-1.84,6.35c.06,3.65,1.73,6.29,1.73,6.29l-13.46.08s-1.32-2.31-1.38-6.37Z"/>
      </g>
      <g>
        <path class="cls-24" d="M500.19,389s-9.08-.32-11.51-2.97c-2.14-2.33-2.05-3.27-2.15-5.49s.55-4.27,1.21-5.48.94-2.53.6-3.14-.55-.77-.55-.77c0,0,2.33.48,2.56,2.5,0,0-.75,4.52.01,5.98s1.13,1.88,3.1,2.61c1.97.73,9.4.99,9.4.99,0,0-.27,5.66-2.68,5.77"/>
        <path class="cls-24" d="M516.5,389s9.08-.32,11.51-2.97c2.14-2.33,2.05-3.27,2.15-5.49s-.55-4.27-1.21-5.48-.94-2.53-.6-3.14.55-.77.55-.77c0,0-2.33.48-2.56,2.5,0,0,.75,4.52-.01,5.98-.76,1.46-1.13,1.88-3.1,2.61s-9.4.99-9.4.99c0,0,.27,5.66,2.68,5.77"/>
        <path class="cls-26" d="M508.5,418.7c-.78.02-2.73.45-3.83.47s-2.76-.96-2.96-2.41.37-3.72-.21-5.94c-.55-2.12-.34-2.44-.98-4.18-1.05-2.87-3.54-5.5-3.6-8.49-.06-2.99,2.22-5.48,2.22-5.48,0,0-.66-.24-1.4.47s-.55.75-3.16.95-5.97-2.67-5.97-2.67c0,0,2.24-1.03,5.48-1.62,3.24-.59,4.93-.26,5.87-.71.94-.45.88-1.03.8-1.36s-.97-1.56-.72-2.35.64-1.44,1.44-1.72,1.6-.61,1.99-1.23c.39-.61,2.32-.97,3.2-.71s1.36.57,1.97.53.84-.62,2.34-.62,2.32.74,2.5,1.01.31,1.01.72,1.29,2.65,1.03,2.53,2.37c-.12,1.34-.96,1.78-.82,2.35.14.57,1.13.47,1.13.47,0,0,1.79-.42,6.2.65,4.41,1.07,4.85,1.66,4.85,1.66,0,0-1.99,2.84-6.1,2.57-2.54-.16-3.12-.65-3.45-.99s-.87-.17-.87-.17c0,0,2.24,3.17,2.24,5.35s-3.3,6.09-4.01,9.18c-.7,3.08-1.13,4.35-1.09,5.58s.21.98.21,2.49-.12,2.55-1.62,3.45-3.36-.23-4.9-.19Z"/>
      </g>
    </g>
    <g>
      <g>
        <path class="cls-24" d="M493,666.15s2.5,1.15,2.21,5.93-2.21,6.56-2.21,6.56l-26.33.35s-2.04-.12-2.78-1.04c-.74-.92-1.65-2.76-2.67-2.76s-9.87-.17-9.87-.17l-.31.5h-1.34l-.26-.56-1.04.02s-.7-.62-.57-2.4c.13-1.78.57-2.41.57-2.41l1.04-.02.19-.56,1.45.02.19.39h9.38s1.23-.26,2.23-1.86c1-1.6,2.96-1.81,2.96-1.81l27.15-.17Z"/>
        <path class="cls-26" d="M486.7,672.57c.06,3.97-1.53,6.17-1.53,6.17l-13.42.18s1.9-2.7,1.84-6.35c-.06-3.65-1.73-6.29-1.73-6.29l13.46-.08s1.32,2.31,1.38,6.37Z"/>
      </g>
      <g>
        <path class="cls-24" d="M521.41,678.99s-2.5-1.15-2.21-5.93c.28-4.78,2.21-6.56,2.21-6.56l26.33-.35s2.04.12,2.78,1.04c.74.92,1.65,2.76,2.67,2.76s9.87.17,9.87.17l.31-.5h1.34s.26.56.26.56l1.04-.02s.7.62.57,2.4c-.13,1.78-.57,2.41-.57,2.41l-1.04.02-.19.56-1.45-.02-.19-.39h-9.38s-1.23.26-2.23,1.86c-1,1.6-2.96,1.81-2.96,1.81l-27.15.17Z"/>
        <path class="cls-26" d="M527.7,672.57c-.06-3.97,1.53-6.17,1.53-6.17l13.42-.18s-1.9,2.7-1.84,6.35c.06,3.65,1.73,6.29,1.73,6.29l-13.46.08s-1.32-2.31-1.38-6.37Z"/>
      </g>
      <g>
        <path class="cls-24" d="M499.62,648.75s-9.08-.32-11.51-2.97c-2.14-2.33-2.05-3.27-2.15-5.49s.55-4.27,1.21-5.48.94-2.53.6-3.14-.55-.77-.55-.77c0,0,2.33.48,2.56,2.5,0,0-.75,4.52.01,5.98s1.13,1.88,3.1,2.61c1.97.73,9.4.99,9.4.99,0,0-.27,5.66-2.68,5.77"/>
        <path class="cls-24" d="M515.93,648.75s9.08-.32,11.51-2.97c2.14-2.33,2.05-3.27,2.15-5.49s-.55-4.27-1.21-5.48-.94-2.53-.6-3.14.55-.77.55-.77c0,0-2.33.48-2.56,2.5,0,0,.75,4.52-.01,5.98-.76,1.46-1.13,1.88-3.1,2.61s-9.4.99-9.4.99c0,0,.27,5.66,2.68,5.77"/>
        <path class="cls-26" d="M507.92,678.44c-.78.02-2.73.45-3.83.47-1.1.02-2.76-.96-2.96-2.41s.37-3.72-.21-5.94c-.55-2.12-.34-2.44-.98-4.18-1.05-2.87-3.54-5.5-3.6-8.49-.06-2.99,2.22-5.48,2.22-5.48,0,0-.66-.24-1.4.47s-.55.75-3.16.95-5.97-2.67-5.97-2.67c0,0,2.24-1.03,5.48-1.62,3.24-.59,4.93-.26,5.87-.71.94-.45.88-1.03.8-1.36s-.97-1.56-.72-2.35.64-1.44,1.44-1.72,1.6-.61,1.99-1.23c.39-.61,2.32-.97,3.2-.71s1.36.57,1.97.53.84-.62,2.34-.62,2.32.74,2.5,1.01.31,1.01.72,1.29,2.65,1.03,2.53,2.37c-.12,1.34-.96,1.78-.82,2.35.14.57,1.13.47,1.13.47,0,0,1.79-.42,6.2.65,4.41,1.07,4.85,1.66,4.85,1.66,0,0-1.99,2.84-6.1,2.57-2.54-.16-3.12-.65-3.45-.99s-.87-.17-.87-.17c0,0,2.24,3.17,2.24,5.35s-3.3,6.09-4.01,9.18c-.7,3.08-1.13,4.35-1.09,5.58s.21.98.21,2.49-.12,2.55-1.62,3.45-3.36-.23-4.9-.19Z"/>
      </g>
    </g>
    <g>
      <g>
        <path class="cls-24" d="M750.94,922.26s2.5,1.15,2.21,5.93-2.21,6.56-2.21,6.56l-26.33.35s-2.04-.12-2.78-1.04c-.74-.92-1.65-2.76-2.67-2.76s-9.87-.17-9.87-.17l-.31.5h-1.34l-.26-.56-1.04.02s-.7-.62-.57-2.4c.13-1.78.57-2.41.57-2.41l1.04-.02.19-.56,1.45.02.19.39h9.38s1.23-.26,2.23-1.86c1-1.6,2.96-1.81,2.96-1.81l27.15-.17Z"/>
        <path class="cls-26" d="M744.64,928.68c.06,3.97-1.53,6.17-1.53,6.17l-13.42.18s1.9-2.7,1.84-6.35c-.06-3.65-1.73-6.29-1.73-6.29l13.46-.08s1.32,2.31,1.38,6.37Z"/>
      </g>
      <g>
        <path class="cls-24" d="M779.35,935.1s-2.5-1.15-2.21-5.93c.28-4.78,2.21-6.56,2.21-6.56l26.33-.35s2.04.12,2.78,1.04c.74.92,1.65,2.76,2.67,2.76s9.87.17,9.87.17l.31-.5h1.34s.26.56.26.56l1.04-.02s.7.62.57,2.4c-.13,1.78-.57,2.41-.57,2.41l-1.04.02-.19.56-1.45-.02-.19-.39h-9.38s-1.23.26-2.23,1.86c-1,1.6-2.96,1.81-2.96,1.81l-27.15.17Z"/>
        <path class="cls-26" d="M785.64,928.68c-.06-3.97,1.53-6.17,1.53-6.17l13.42-.18s-1.9,2.7-1.84,6.35c.06,3.65,1.73,6.29,1.73,6.29l-13.46.08s-1.32-2.31-1.38-6.37Z"/>
      </g>
      <g>
        <path class="cls-24" d="M757.56,904.86s-9.08-.32-11.51-2.97c-2.14-2.33-2.05-3.27-2.15-5.49s.55-4.27,1.21-5.48.94-2.53.6-3.14-.55-.77-.55-.77c0,0,2.33.48,2.56,2.5,0,0-.75,4.52.01,5.98s1.13,1.88,3.1,2.61c1.97.73,9.4.99,9.4.99,0,0-.27,5.66-2.68,5.77"/>
        <path class="cls-24" d="M773.87,904.86s9.08-.32,11.51-2.97c2.14-2.33,2.05-3.27,2.15-5.49s-.55-4.27-1.21-5.48c-.66-1.21-.94-2.53-.6-3.14s.55-.77.55-.77c0,0-2.33.48-2.56,2.5,0,0,.75,4.52-.01,5.98-.76,1.46-1.13,1.88-3.1,2.61s-9.4.99-9.4.99c0,0,.27,5.66,2.68,5.77"/>
        <path class="cls-26" d="M765.87,934.55c-.78.02-2.73.45-3.83.47s-2.76-.96-2.96-2.41.37-3.72-.21-5.94c-.55-2.12-.34-2.44-.98-4.18-1.05-2.87-3.54-5.5-3.6-8.49-.06-2.99,2.22-5.48,2.22-5.48,0,0-.66-.24-1.4.47s-.55.75-3.16.95-5.97-2.67-5.97-2.67c0,0,2.24-1.03,5.48-1.62,3.24-.59,4.93-.26,5.87-.71.94-.45.88-1.03.8-1.36s-.97-1.56-.72-2.35.64-1.44,1.44-1.72,1.6-.61,1.99-1.23c.39-.61,2.32-.97,3.2-.71s1.36.57,1.97.53.84-.62,2.34-.62c1.5,0,2.32.74,2.5,1.01s.31,1.01.72,1.29,2.65,1.03,2.53,2.37c-.12,1.34-.96,1.78-.82,2.35.14.57,1.13.47,1.13.47,0,0,1.79-.42,6.2.65,4.41,1.07,4.85,1.66,4.85,1.66,0,0-1.99,2.84-6.1,2.57-2.54-.16-3.12-.65-3.45-.99s-.87-.17-.87-.17c0,0,2.24,3.17,2.24,5.35s-3.3,6.09-4.01,9.18c-.7,3.08-1.13,4.35-1.09,5.58s.21.98.21,2.49-.12,2.55-1.62,3.45-3.36-.23-4.9-.19Z"/>
      </g>
    </g>
    <g>
      <g>
        <path class="cls-24" d="M493.01,1182s2.5,1.15,2.21,5.93-2.21,6.56-2.21,6.56l-26.33.35s-2.04-.12-2.78-1.04c-.74-.92-1.65-2.76-2.67-2.76s-9.87-.17-9.87-.17l-.31.5h-1.34l-.26-.56-1.04.02s-.7-.62-.57-2.4c.13-1.78.57-2.41.57-2.41l1.04-.02.19-.56,1.45.02.19.39h9.38s1.23-.26,2.23-1.86c1-1.6,2.96-1.81,2.96-1.81l27.15-.17Z"/>
        <path class="cls-26" d="M486.71,1188.42c.06,3.97-1.53,6.17-1.53,6.17l-13.42.18s1.9-2.7,1.84-6.35c-.06-3.65-1.73-6.29-1.73-6.29l13.46-.08s1.32,2.31,1.38,6.37Z"/>
      </g>
      <g>
        <path class="cls-24" d="M521.42,1194.83s-2.5-1.15-2.21-5.93c.28-4.78,2.21-6.56,2.21-6.56l26.33-.35s2.04.12,2.78,1.04c.74.92,1.65,2.76,2.67,2.76s9.87.17,9.87.17l.31-.5h1.34s.26.56.26.56l1.04-.02s.7.62.57,2.4c-.13,1.78-.57,2.41-.57,2.41l-1.04.02-.19.56-1.45-.02-.19-.39h-9.38s-1.23.26-2.23,1.86c-1,1.6-2.96,1.81-2.96,1.81l-27.15.17Z"/>
        <path class="cls-26" d="M527.71,1188.42c-.06-3.97,1.53-6.17,1.53-6.17l13.42-.18s-1.9,2.7-1.84,6.35c.06,3.65,1.73,6.29,1.73,6.29l-13.46.08s-1.32-2.31-1.38-6.37Z"/>
      </g>
      <g>
        <path class="cls-24" d="M499.63,1164.59s-9.08-.32-11.51-2.97c-2.14-2.33-2.05-3.27-2.15-5.49s.55-4.27,1.21-5.48c.66-1.21.94-2.53.6-3.14s-.55-.77-.55-.77c0,0,2.33.48,2.56,2.5,0,0-.75,4.52.01,5.98s1.13,1.88,3.1,2.61c1.97.73,9.4.99,9.4.99,0,0-.27,5.66-2.68,5.77"/>
        <path class="cls-24" d="M515.94,1164.59s9.08-.32,11.51-2.97c2.14-2.33,2.05-3.27,2.15-5.49s-.55-4.27-1.21-5.48-.94-2.53-.6-3.14.55-.77.55-.77c0,0-2.33.48-2.56,2.5,0,0,.75,4.52-.01,5.98-.76,1.46-1.13,1.88-3.1,2.61-1.97.73-9.4.99-9.4.99,0,0,.27,5.66,2.68,5.77"/>
        <path class="cls-26" d="M507.94,1194.29c-.78.02-2.73.45-3.83.47s-2.76-.96-2.96-2.41.37-3.72-.21-5.94c-.55-2.12-.34-2.44-.98-4.18-1.05-2.87-3.54-5.5-3.6-8.49-.06-2.99,2.22-5.48,2.22-5.48,0,0-.66-.24-1.4.47s-.55.75-3.16.95c-2.61.2-5.97-2.67-5.97-2.67,0,0,2.24-1.03,5.48-1.62s4.93-.26,5.87-.71.88-1.03.8-1.36-.97-1.56-.72-2.35.64-1.44,1.44-1.72c.8-.28,1.6-.61,1.99-1.23.39-.61,2.32-.97,3.2-.71.88.26,1.36.57,1.97.53s.84-.62,2.34-.62,2.32.74,2.5,1.01.31,1.01.72,1.29,2.65,1.03,2.53,2.37c-.12,1.34-.96,1.78-.82,2.35.14.57,1.13.47,1.13.47,0,0,1.79-.42,6.2.65s4.85,1.66,4.85,1.66c0,0-1.99,2.84-6.1,2.57-2.54-.16-3.12-.65-3.45-.99s-.87-.17-.87-.17c0,0,2.24,3.17,2.24,5.35s-3.3,6.09-4.01,9.18c-.7,3.08-1.13,4.35-1.09,5.58s.21.98.21,2.49-.12,2.55-1.62,3.45-3.36-.23-4.9-.19Z"/>
      </g>
    </g>
    <g>
      <g>
        <path class="cls-24" d="M231.18,1182s2.5,1.15,2.21,5.93-2.21,6.56-2.21,6.56l-26.33.35s-2.04-.12-2.78-1.04-1.65-2.76-2.67-2.76-9.87-.17-9.87-.17l-.31.5h-1.34l-.26-.56-1.04.02s-.7-.62-.57-2.4c.13-1.78.57-2.41.57-2.41l1.04-.02.19-.56,1.45.02.19.39h9.38s1.23-.26,2.23-1.86c1-1.6,2.96-1.81,2.96-1.81l27.15-.17Z"/>
        <path class="cls-26" d="M224.88,1188.42c.06,3.97-1.53,6.17-1.53,6.17l-13.42.18s1.9-2.7,1.84-6.35c-.06-3.65-1.73-6.29-1.73-6.29l13.46-.08s1.32,2.31,1.38,6.37Z"/>
      </g>
      <g>
        <path class="cls-24" d="M259.59,1194.83s-2.5-1.15-2.21-5.93c.28-4.78,2.21-6.56,2.21-6.56l26.33-.35s2.04.12,2.78,1.04c.74.92,1.65,2.76,2.67,2.76,1.02,0,9.87.17,9.87.17l.31-.5h1.34s.26.56.26.56l1.04-.02s.7.62.57,2.4c-.13,1.78-.57,2.41-.57,2.41l-1.04.02-.19.56-1.45-.02-.19-.39h-9.38s-1.23.26-2.23,1.86c-1,1.6-2.96,1.81-2.96,1.81l-27.15.17Z"/>
        <path class="cls-26" d="M265.88,1188.42c-.06-3.97,1.53-6.17,1.53-6.17l13.42-.18s-1.9,2.7-1.84,6.35c.06,3.65,1.73,6.29,1.73,6.29l-13.46.08s-1.32-2.31-1.38-6.37Z"/>
      </g>
      <g>
        <path class="cls-24" d="M237.8,1164.59s-9.08-.32-11.51-2.97c-2.14-2.33-2.05-3.27-2.15-5.49s.55-4.27,1.21-5.48.94-2.53.6-3.14-.55-.77-.55-.77c0,0,2.33.48,2.56,2.5,0,0-.75,4.52.01,5.98s1.13,1.88,3.1,2.61c1.97.73,9.4.99,9.4.99,0,0-.27,5.66-2.68,5.77"/>
        <path class="cls-24" d="M254.11,1164.59s9.08-.32,11.51-2.97c2.14-2.33,2.05-3.27,2.15-5.49s-.55-4.27-1.21-5.48-.94-2.53-.6-3.14c.33-.61.55-.77.55-.77,0,0-2.33.48-2.56,2.5,0,0,.75,4.52-.01,5.98-.76,1.46-1.13,1.88-3.1,2.61-1.97.73-9.4.99-9.4.99,0,0,.27,5.66,2.68,5.77"/>
        <path class="cls-26" d="M246.11,1194.29c-.78.02-2.73.45-3.83.47-1.1.02-2.76-.96-2.96-2.41s.37-3.72-.21-5.94c-.55-2.12-.34-2.44-.98-4.18-1.05-2.87-3.54-5.5-3.6-8.49-.06-2.99,2.22-5.48,2.22-5.48,0,0-.66-.24-1.4.47s-.55.75-3.16.95c-2.61.2-5.97-2.67-5.97-2.67,0,0,2.24-1.03,5.48-1.62s4.93-.26,5.87-.71c.94-.45.88-1.03.8-1.36s-.97-1.56-.72-2.35.64-1.44,1.44-1.72c.8-.28,1.6-.61,1.99-1.23.39-.61,2.32-.97,3.2-.71.88.26,1.36.57,1.97.53s.84-.62,2.34-.62c1.5,0,2.32.74,2.5,1.01s.31,1.01.72,1.29,2.65,1.03,2.53,2.37c-.12,1.34-.96,1.78-.82,2.35.14.57,1.13.47,1.13.47,0,0,1.79-.42,6.2.65,4.41,1.07,4.85,1.66,4.85,1.66,0,0-1.99,2.84-6.1,2.57-2.54-.16-3.12-.65-3.45-.99s-.87-.17-.87-.17c0,0,2.24,3.17,2.24,5.35s-3.3,6.09-4.01,9.18c-.7,3.08-1.13,4.35-1.09,5.58s.21.98.21,2.49-.12,2.55-1.62,3.45c-1.53.91-3.36-.23-4.9-.19Z"/>
      </g>
    </g>
    <g>
      <g>
        <path class="cls-24" d="M751.13,406.09s2.5,1.15,2.21,5.93-2.21,6.56-2.21,6.56l-26.33.35s-2.04-.12-2.78-1.04c-.74-.92-1.65-2.76-2.67-2.76s-9.87-.17-9.87-.17l-.31.5h-1.34l-.26-.56-1.04.02s-.7-.62-.57-2.4c.13-1.78.57-2.41.57-2.41l1.04-.02.19-.56,1.45.02.19.39h9.38s1.23-.26,2.23-1.86c1-1.6,2.96-1.81,2.96-1.81l27.15-.17Z"/>
        <path class="cls-26" d="M744.83,412.5c.06,3.97-1.53,6.17-1.53,6.17l-13.42.18s1.9-2.7,1.84-6.35c-.06-3.65-1.73-6.29-1.73-6.29l13.46-.08s1.32,2.31,1.38,6.37Z"/>
      </g>
      <g>
        <path class="cls-24" d="M779.54,418.92s-2.5-1.15-2.21-5.93c.28-4.78,2.21-6.56,2.21-6.56l26.33-.35s2.04.12,2.78,1.04c.74.92,1.65,2.76,2.67,2.76s9.87.17,9.87.17l.31-.5h1.34s.26.56.26.56l1.04-.02s.7.62.57,2.4c-.13,1.78-.57,2.41-.57,2.41l-1.04.02-.19.56-1.45-.02-.19-.39h-9.38s-1.23.26-2.23,1.86-2.96,1.81-2.96,1.81l-27.15.17Z"/>
        <path class="cls-26" d="M785.83,412.5c-.06-3.97,1.53-6.17,1.53-6.17l13.42-.18s-1.9,2.7-1.84,6.35c.06,3.65,1.73,6.29,1.73,6.29l-13.46.08s-1.32-2.31-1.38-6.37Z"/>
      </g>
      <g>
        <path class="cls-24" d="M757.75,388.68s-9.08-.32-11.51-2.97c-2.14-2.33-2.05-3.27-2.15-5.49s.55-4.27,1.21-5.48.94-2.53.6-3.14-.55-.77-.55-.77c0,0,2.33.48,2.56,2.5,0,0-.75,4.52.01,5.98s1.13,1.88,3.1,2.61c1.97.73,9.4.99,9.4.99,0,0-.27,5.66-2.68,5.77"/>
        <path class="cls-24" d="M774.06,388.68s9.08-.32,11.51-2.97c2.14-2.33,2.05-3.27,2.15-5.49s-.55-4.27-1.21-5.48-.94-2.53-.6-3.14.55-.77.55-.77c0,0-2.33.48-2.56,2.5,0,0,.75,4.52-.01,5.98-.76,1.46-1.13,1.88-3.1,2.61s-9.4.99-9.4.99c0,0,.27,5.66,2.68,5.77"/>
        <path class="cls-26" d="M766.06,418.38c-.78.02-2.73.45-3.83.47s-2.76-.96-2.96-2.41.37-3.72-.21-5.94c-.55-2.12-.34-2.44-.98-4.18-1.05-2.87-3.54-5.5-3.6-8.49-.06-2.99,2.22-5.48,2.22-5.48,0,0-.66-.24-1.4.47s-.55.75-3.16.95-5.97-2.67-5.97-2.67c0,0,2.24-1.03,5.48-1.62,3.24-.59,4.93-.26,5.87-.71.94-.45.88-1.03.8-1.36s-.97-1.56-.72-2.35.64-1.44,1.44-1.72,1.6-.61,1.99-1.23c.39-.61,2.32-.97,3.2-.71s1.36.57,1.97.53.84-.62,2.34-.62,2.32.74,2.5,1.01.31,1.01.72,1.29,2.65,1.03,2.53,2.37c-.12,1.34-.96,1.78-.82,2.35.14.57,1.13.47,1.13.47,0,0,1.79-.42,6.2.65,4.41,1.07,4.85,1.66,4.85,1.66,0,0-1.99,2.84-6.1,2.57-2.54-.16-3.12-.65-3.45-.99s-.87-.17-.87-.17c0,0,2.24,3.17,2.24,5.35s-3.3,6.09-4.01,9.18c-.7,3.08-1.13,4.35-1.09,5.58s.21.98.21,2.49-.12,2.55-1.62,3.45-3.36-.23-4.9-.19Z"/>
      </g>
    </g>
    <text class="cls-4" transform="translate(179.85 392.1)"><tspan x="0" y="0">El </tspan><tspan class="cls-34" x="15.39" y="0">D</tspan><tspan x="25.71" y="0">uelo</tspan></text>
    <text class="cls-4" transform="translate(278.75 392.1)"><tspan x="0" y="0">Bar-celona</tspan></text>
    <text class="cls-7" transform="translate(179.74 408.31)"><tspan x="0" y="0">Debatteertoernooi</tspan></text>
    <text class="cls-7" transform="translate(278.75 408.46)"><tspan x="0" y="0">Borrel</tspan></text>
  </g>
  <g id="Activiteiten_-_NL">
    <text class="cls-2" transform="translate(695.48 1060.08)"><tspan x="0" y="0">Gala</tspan></text>
    <text class="cls-2" transform="translate(436 1055.07)"><tspan x="0" y="0">Kringeten</tspan></text>
    <text class="cls-2" transform="translate(436 1122.47)"><tspan x="0" y="0">Kringlezing</tspan></text>
    <text class="cls-2" transform="translate(175.85 1122.47)"><tspan x="0" y="0">Interne receptie</tspan></text>
    <text class="cls-2" transform="translate(175.85 1055.07)"><tspan x="0" y="0">Externe receptie</tspan></text>
    <text class="cls-2" transform="translate(695.48 872)"><tspan x="0" y="0">Op de planken</tspan></text>
    <text class="cls-2" transform="translate(695.48 804.81)"><tspan x="0" y="0">Ontbijt</tspan></text>
    <text class="cls-2" transform="translate(436 873)"><tspan x="0" y="0">Installatie H.V.</tspan></text>
    <text class="cls-2" transform="translate(436 805.81)"><tspan x="0" y="0">Van Speijk diner</tspan></text>
    <text class="cls-2" transform="translate(175.85 872)"><tspan x="0" y="0">Spelletjesmiddag</tspan></text>
    <text class="cls-2" transform="translate(175.85 805.81)"><tspan x="0" y="0">Kerkplan + koffie</tspan></text>
    <text class="cls-2" transform="translate(694.74 575.95)"><tspan x="0" y="0">Brusjesdag</tspan></text>
    <text class="cls-2" transform="translate(436.37 517.9)"><tspan x="0" y="0">Verticale strijd</tspan></text>
    <text class="cls-2" transform="translate(435.45 569.05)"><tspan x="0" y="0">VrijMiBO</tspan></text>
    <text class="cls-2" transform="translate(436.71 626.54)"><tspan x="0" y="0">Flamenco dansles</tspan></text>
    <text class="cls-2" transform="translate(175.85 614.36)"><tspan x="0" y="0">Feest</tspan></text>
    <text class="cls-2" transform="translate(175.85 542.98)"><tspan x="0" y="0">Verticalemoment</tspan></text>
    <text class="cls-2" transform="translate(695.47 346.04)"><tspan x="0" y="0">Tapas &amp; wijnproeverij</tspan></text>
    <text class="cls-2" transform="translate(695.48 280.61)"><tspan x="0" y="0">Gents passessie &amp; corsages klussen</tspan></text>
    <text class="cls-2" transform="translate(436 346.04)"><tspan x="0" y="0">LeO</tspan></text>
    <text class="cls-2" transform="translate(436 280.61)"><tspan x="0" y="0">Openingsdiner</tspan></text>
  </g>
  <g id="Namen">
    <text class="cls-3" transform="translate(694.75 1035.97)"><tspan x="0" y="0">Grande Finale</tspan></text>
    <text class="cls-3" transform="translate(434.34 1035.97)"><tspan x="0" y="0">Los Gezelligitos</tspan></text>
    <text class="cls-3" transform="translate(434.34 1102.14)"><tspan x="0" y="0">De Rode </tspan><tspan class="cls-20" x="99.12" y="0">D</tspan><tspan x="118.35" y="0">raa</tspan><tspan class="cls-18" x="155.52" y="0">d</tspan></text>
    <text class="cls-3" transform="translate(174.46 1102.14)"><tspan x="0" y="0">Meedansen</tspan></text>
    <text class="cls-5" transform="translate(174.46 1035.97)"><tspan x="0" y="0">De </tspan><tspan class="cls-15" x="30.21" y="0">D</tspan><tspan x="47.28" y="0">ans </tspan><tspan class="cls-30" x="83.69" y="0">O</tspan><tspan x="96.79" y="0">ntspringen</tspan></text>
    <text class="cls-3" transform="translate(694.75 851.38)"><tspan x="0" y="0">El Tea</tspan><tspan class="cls-22" x="64.47" y="0">t</tspan><tspan x="68.7" y="0">ro</tspan></text>
    <text class="cls-3" transform="translate(694.75 783.33)"><tspan x="0" y="0">La Siësta</tspan></text>
    <text class="cls-3" transform="translate(434.34 851.38)"><tspan x="0" y="0">80 Urige Oorlog</tspan></text>
    <text class="cls-3" transform="translate(434.34 783.33)"><tspan x="0" y="0">S</tspan><tspan class="cls-33" x="16.92" y="0">t</tspan><tspan x="22.23" y="0">ierengevech</tspan><tspan class="cls-27" x="148.11" y="0">t</tspan></text>
    <text class="cls-3" transform="translate(174.46 851.38)"><tspan x="0" y="0">Olé Olé</tspan></text>
    <text class="cls-12" transform="translate(174.46 783.33)"><tspan x="0" y="0">La Sagrada </tspan><tspan class="cls-1" x="122.5" y="0">F</tspan><tspan x="134.22" y="0">amilia</tspan></text>
    <text class="cls-3" transform="translate(694.02 554.67)"><tspan x="0" y="0">La Cucaracha</tspan></text>
    <text class="cls-3" transform="translate(434.71 501.62)"><tspan x="0" y="0">El Classico </tspan></text>
    <text class="cls-3" transform="translate(433.8 553.78)"><tspan x="0" y="0">Bar-celona</tspan></text>
    <text class="cls-3" transform="translate(435.06 604.53)"><tspan x="0" y="0">Go Flamenco</tspan></text>
    <text class="cls-9" transform="translate(174.46 592.36)"><tspan class="cls-17" x="0" y="0">Waaiers</tspan><tspan class="cls-19" x="85.9" y="0">&amp;</tspan><tspan class="cls-16" x="104.26" y="0">D</tspan><tspan class="cls-17" x="122.21" y="0">raaiers</tspan></text>
    <text class="cls-3" transform="translate(174.46 519.7)"><tspan x="0" y="0">Compañia</tspan></text>
    <text class="cls-3" transform="translate(694.75 323.98)"><tspan class="cls-29" x="0" y="0">T</tspan><tspan x="11.16" y="0">ipsy Tapas</tspan></text>
    <text class="cls-3" transform="translate(694.75 260.93)"><tspan x="0" y="0">El Macho</tspan></text>
    <text class="cls-14" transform="translate(434.34 323.98)"><tspan x="0" y="0">Santo por Siempre</tspan></text>
    <text class="cls-3" transform="translate(434.34 260.93)"><tspan x="0" y="0">En</tspan><tspan class="cls-22" x="30.42" y="0">t</tspan><tspan x="34.65" y="0">rada</tspan></text>
  </g>
  <g id="Tijden">
    <text class="cls-8" transform="translate(393.2 326.45)"><tspan x="0" y="0">20:30</tspan></text>
    <text class="cls-8" transform="translate(393.2 261.13)"><tspan x="0" y="0">18:00</tspan></text>
    <text class="cls-8" transform="translate(653.06 261.13)"><tspan x="0" y="0">15:00</tspan></text>
    <text class="cls-8" transform="translate(653.06 326.45)"><tspan x="0" y="0">18:00</tspan></text>
    <text class="cls-8" transform="translate(133.9 519.5)"><tspan x="0" y="0">18:30</tspan></text>
    <text class="cls-8" transform="translate(133.9 593.29)"><tspan x="0" y="0">22:00</tspan></text>
    <text class="cls-8" transform="translate(393.91 605.47)"><tspan x="0" y="0">19:30</tspan></text>
    <text class="cls-8" transform="translate(393.56 501.41)"><tspan x="0" y="0">12:45</tspan></text>
    <text class="cls-8" transform="translate(392.65 553.57)"><tspan x="0" y="0">17:00</tspan></text>
    <text class="cls-8" transform="translate(652.33 554.46)"><tspan x="0" y="0">14:00</tspan></text>
    <text class="cls-8" transform="translate(133.9 782.88)"><tspan x="0" y="0">10:00</tspan></text>
    <text class="cls-8" transform="translate(133.9 849.05)"><tspan x="0" y="0">15:00</tspan></text>
    <text class="cls-8" transform="translate(393.2 779.68)"><tspan x="0" y="0">18:00</tspan></text>
    <text class="cls-8" transform="translate(393.2 849.05)"><tspan x="0" y="0">20:00</tspan></text>
    <text class="cls-8" transform="translate(656.98 779.68)"><tspan x="0" y="0">9:00</tspan></text>
    <text class="cls-8" transform="translate(653.06 849.05)"><tspan x="0" y="0">20:00</tspan></text>
    <text class="cls-8" transform="translate(133.9 1035.8)"><tspan x="0" y="0">14:00</tspan></text>
    <text class="cls-8" transform="translate(133.9 1102.38)"><tspan x="0" y="0">20:00</tspan></text>
    <text class="cls-8" transform="translate(393.2 1102.38)"><tspan x="0" y="0">20:00</tspan></text>
    <text class="cls-8" transform="translate(393.2 1035.8)"><tspan x="0" y="0">18:30</tspan></text>
    <text class="cls-8" transform="translate(653.06 1035.8)"><tspan x="0" y="0">15:00</tspan></text>
  </g>
  <g id="Data">
    <text class="cls-10" transform="translate(133.41 276.76)"><tspan x="0" y="0">64e </tspan><tspan class="cls-28" x="23.15" y="0">D</tspan><tspan x="34.65" y="0">ies Na</tspan><tspan class="cls-35" x="72.71" y="0">t</tspan><tspan x="75.9" y="0">alis der C.S.R. Delf</tspan><tspan class="cls-36" x="196.8" y="0">t</tspan></text>
    <text class="cls-6" transform="translate(132.8 254.37)"><tspan x="0" y="0">Programma</tspan></text>
    <text class="cls-13" transform="translate(390.99 212.36)"><tspan x="0" y="0">Dinsdag</tspan></text>
    <text class="cls-11" transform="translate(470.66 211.84)"><tspan x="0" y="0">10</tspan></text>
    <text class="cls-13" transform="translate(649.96 212.36)"><tspan x="0" y="0">Woensdag</tspan></text>
    <text class="cls-11" transform="translate(749.32 211.84)"><tspan x="0" y="0">11</tspan></text>
    <text class="cls-13" transform="translate(131.98 470.12)"><tspan x="0" y="0">Donderdag</tspan></text>
    <text class="cls-11" transform="translate(236.68 468.72)"><tspan x="0" y="0">12</tspan></text>
    <text class="cls-13" transform="translate(390.99 470.12)"><tspan x="0" y="0">Vrijdag</tspan></text>
    <text class="cls-11" transform="translate(463.17 468.72)"><tspan x="0" y="0">13</tspan></text>
    <text class="cls-13" transform="translate(649.96 470.12)"><tspan x="0" y="0">Zaterdag</tspan></text>
    <text class="cls-11" transform="translate(734.18 468.72)"><tspan x="0" y="0">14</tspan></text>
    <text class="cls-13" transform="translate(131.98 728.9)"><tspan x="0" y="0">Zondag</tspan></text>
    <text class="cls-11" transform="translate(204.75 729.52)"><tspan x="0" y="0">15</tspan></text>
    <text class="cls-13" transform="translate(390.99 728.9)"><tspan x="0" y="0">Maandag</tspan></text>
    <text class="cls-11" transform="translate(479.16 729.52)"><tspan x="0" y="0">16</tspan></text>
    <text class="cls-13" transform="translate(649.96 728.9)"><tspan x="0" y="0">Dinsdag</tspan></text>
    <text class="cls-11" transform="translate(728.66 729.52)"><tspan x="0" y="0">17</tspan></text>
    <text class="cls-13" transform="translate(131.99 986.02)"><tspan x="0" y="0">Woensdag</tspan></text>
    <text class="cls-11" transform="translate(230.65 984)"><tspan x="0" y="0">18</tspan></text>
    <text class="cls-13" transform="translate(390.99 986.02)"><tspan x="0" y="0">Donderdag</tspan></text>
    <text class="cls-11" transform="translate(495.59 984)"><tspan x="0" y="0">19</tspan></text>
    <text class="cls-13" transform="translate(649.96 986.02)"><tspan x="0" y="0">Vrijdag</tspan></text>
    <text class="cls-11" transform="translate(729.59 984)"><tspan x="0" y="0">20</tspan></text>
    <g>
      <path class="cls-21" d="M765.62,1112.35s-5.22-6.14-5.34-8.78c-.12-2.64,4.21-10.3,4.21-10.3,0,0,.75-.02,1.34.2s1.29.23,1.75.17,1.81.35,2.36.76,1.07.55,1.05.24.14-.97-.66-1.41-1.9-.45-2.06-.98-.04-.96-.04-.96c0,0,2.06.49,2.86.1s1.13-.54,1.17-.78.51-.14.51-.55-.57-.35-.82-.18-1.37.53-2.16.37-1.55-.63-1.55-.63c0,0,1.08-2.1,1.01-2.9s-.24-.92-.48-.93-.26.41-.25.61-1.16,2.57-1.16,2.57c0,0-.01-.99-.37-.96s-.37.26-.37.26c0,0,.15.28.1.69s-1.9,1.55-2.41,1.71-1.06.15-1.42.51-7.03,8.97-7.27,9.64-.68,1.06-.42,2.29,1.63,5.94,2.43,8.26,2.17,4.66,2.17,4.66l.07,1.08s1.81-2.58,3.04-3.5c.77-.58,2.69-1.27,2.69-1.27Z"/>
      <path class="cls-21" d="M791.83,1136.62s3.2,2.12,3.7,3.35-.31.86-.26,1.7.65,2.48.65,2.48l4.76.9s-1.76-4.42-2.99-6.38-2.77-4.53-2.77-4.53l-3.11,2.49Z"/>
      <path class="cls-21" d="M729.66,1168.48c-1.03,1.12-.77,1.98-.11,2.54,1.28,1.06.58.69,1.73,1.47,1.81,1.23-.25,1.04-.7,1.77-.82,1.33,1.32,2.62,2.27,3.45,1.22,1.06,1.02,1.23,1.23,2.64.23,1.59.66,1.19,1.52,2.11.49.53.5.5.73,1.18.1.31-.55.71-.33,1.12.24.44.69.23,1.04.44,1.23.74,2.72.46,2.58,1.99-.08.81-.91.7-.63,1.59.15.49,1.08.94,1.48,1.2.89.58,3.34.8,2.9,2.18,1.28.87,2.21-.5,3.14,1.05.43.72-.18,1.17.6,1.78.58.45,1.63.06,2.26.23,1.45.41,2.04,1.11,3.85,1.25.97.07,2.39-.21,3.31.02,1.08.26,2.8-2.03,5.21-.34,1.08.76,2.17.72,3.34,1.34.83.44,1.31,1.35,2.29,1.15,1.79-.36,1.87-1.86,3.82-1.37,1.08.27,1.29,1.04,2.58.82.94-.16,1.53-.6,2.51-.66,1.64-.1,3.29.24,4.95-.02.87-.13,1.8-.68,2.67-.63,2.03.13,3.76,1.86,6,1.62,1.14-.12,1.69-.84,2.89-.8.83.03,1.31.52,2.11.18,1.19-.5,1.25-1.48,2.71-1.76,1.37-.26,2.55.1,3.73-.74.43-.31.39-.83.73-1.1.68-.55,1.35-.65,2.18-.91,1.37-.43,1.67-.39,2.74-1.64.72-.85,1.14-1.12,2.03-1.76.84-.61,1.87-1.25,2.34-2.3.14-.3-.02-.93.1-1.1.68-.98,1.13-.49,2.15-1.26.7-.53-1.85.23-1.12-1.29.38-.8,3.32-3.64,1.92-4.73.94,1.66,1.37,1.15,2.31-2.07,1.72-.46,3.56-3.49,2.35-4.63,2.52-.95,1.52-1.5,1.42-3.03-.05-.82.21-1.24.34-2.04.22-1.43.74-2.08.89-3.18.08-.56.39-1.17.48-1.78.3-2.03-.76-.51-1.28-1.57-.65-1.31,1.07-1.18,1.46-1.81.71-1.15-.25-2.31-1.18-2.82.34-1.14-.44-2.89-.34-4.99.04-.74.68-1.4.79-2.16.14-.97-.05-1.72-.39-2.6-1.27-.05-3.21,1.62-4.35,1.31-1.11-.31-4.56-1.13-6.17-.75-.84.2-4.68-1.68-7.57-2.27-1.89-.39-3.2-.1-4.9-.58-1.09-.31-2.09-1.54-3.32-1.22-1.44.37-1.88,2.26-2.71,3.39-1.29,1.77-.75,4.93-2.75,4.37-.95-.27-3.08-1.11-6.17-.82-1.61.15-2.01-1.04-4.32-1.02,0,0,1.43-2.19,0-4.9-1.44-2.72-4.98-7.11-6-9.88-1.02-2.77,3.25-8.14,4.46-8.11,1.21.03,8.91,3.78,9.97,6.39,1.06,2.61.75,5.1.75,5.1,0,0,2.94.07,3.67-.87s3.99-2.41,4.38-4.48.39-3.7.39-3.7c0,0-1.23.45-1-.09s.43-.71.43-.71c0,0-4.17-.31-5.24.08s-4.07-2.88-5.61-4.78c-1.54-1.89-6.55-6.3-8.58-6.9s-3.05-.85-3.05-.85c0,0-3.63,3.17-4.46,3.23s-5.76,3.42-5.76,3.42l3.15-8.08.23-1.48s-5.93.78-7.49,5.88-1,10.42-.96,11.15,1.14,14.31,2.03,15.09-.1,8.19-.1,8.19l-19.06,10.48s-2.84-1.71-4.11-.26.35,2.27-1.5,2.83c-2.14.65-4.91-.53-5-.42-.42.51-2.3,1.94-.72,3.52"/>
      <path class="cls-21" d="M773.72,1114.95s-4.15,4.92-5.83,5-4.57,1.89-4.57,1.89c0,0,2.15-5.3,2.49-7.21s.89-2.35.89-2.35l-.32-1.6,8.73,1.51-1.38,2.77Z"/>
      <path class="cls-21" d="M765.98,1109.59c.07,1.05,2.54,4.59,2.91,4.92s1.58,1.72,2.76,1.5c1.18-.21,3.36-2.37,3.74-4.67s.41-4.73.41-4.73c0,0-1.56-2-2.6-1.3s-1.71.08-2.08.24-1.27,1.52-1.67,1.79-1.38-.26-1.51,0-.1,1.69-.65,1.9-1.31.36-1.31.36Z"/>
      <path class="cls-21" d="M765.14,1107.96c.04-1.05.63-1.62.63-1.62,0,0-1.33-2.12.61-4.62,1.94-2.51,4.61-2.33,5.64-2.01s1.42.68,1.42.68c0,0,2.38,1.74,2.59,2.81s.71,3.13.24,3.66-.68,1.98-.68,1.98l.21-2.23s-1.03-1.34-1.86-1.24-1.15.34-1.48.36-.67-.19-1.11.03-1.38,1.65-1.93,1.79-.88-.24-1.14-.18-.22,1.32-.52,1.65c0,0-1.4,1.14-1.91.82s-.74-1.38-.72-1.88Z"/>
      <path class="cls-21" d="M760.01,1117.48l-.07-1.09s-1.79-3.01-3.08-7.46-1.21-4.16-1.21-4.16c0,0,0,.73-1.1.7s-2.61-1.41-2.87-1.34.13-1.27.34-1.18.49-2.97,1.31-3.23,1.6-.26,1.64-.53,2.82-.6,3.83-.25,3.01.11,3.11-.11,1.55.01,2.09,1.03c.54,1.01.99,1.98.99,1.98,0,0-.03.74-1.97,1.55s-2.62.39-2.62.39c0,0,1.18,3.47,3.18,6.04,2,2.57,2.22,2.83,2.22,2.83,0,0-3.09,1.03-3.89,2.22s-1.91,2.6-1.91,2.6Z"/>
    </g>
    <path class="cls-21" d="M832.42,1187.62s-2.37,2.2-2.63,3.28.95,2.63,2.12,2.63c1.17,0,5.22-1.04,5.35-1.25s.78-1.77.78-1.77v-13.64s.13.47.26-.35-.94-12.69-1.38-12.87.77-2.85.77-4.15-.78-8.12-.26-9.59.09-6.3.52-6.39,1.24-.52,2.26,1.38c1.02,1.9,5.08,7.69,5.17,8.29s3.8,9.76,4.4,11.23,6.04,13.13,6.04,13.13c0,0,.43.52,1.04.43s1.38-.52,1.38-.52l1.47,5.35s.95.43.95,1.21-.43,1.73-.6,2.42.17,2.85.17,2.85l2.33,1.12s.69-.52.95-.35,2.33,2.25,2.94,2.33,4.23,1.04,5.09.78.52-1.47.52-1.47c0,0-4.32-5.27-5.01-6.99s-3.71-9.24-3.71-9.24c0,0,.43.78.43-.17s-4.23-11.83-6.04-14.25c-1.81-2.42-2.25-7.51-2.25-8.38s-3.9-10.62-4.54-11.92-1.85-1.73-2.2-3.71-1.21-9.07-.6-10.36,1.3-1.55,1.38-3.28.85-2.42,1.42-3.28.31-1.99.74-3.45,1.21-2.01,1.3-2.86.09-3.44.43-3.44,1.3,1.04,2.59,2.76,2.25,2.25,2.25,2.76-1.99.78-1.73,1.21.78,3.11,1.12,3.02-2.85,8.55-2.85,8.55c0,0-1.51,2.83-2,3.15s-1.13.32-1.36,1.2-1.1,3.21-.87,3.3,1.3-.42,1.46-.91.13-1.07.45-1.1.42,1.17.42,1.3.23,2.43.26,2.69.55.55.55.55c0,0-.1,1.26.29,1.49s.65.32.65.32c0,0,.52.84.74.71s.74-.42.74-.42c0,0,.87-.26.84-.49s.19-1.68.19-1.68c0,0,1.1.06,1.07-.91s.16-5.12-.19-5.31-.65-1.36-.36-1.88,3.3-7.45,3.92-8.68,1.3-1.13,2.17-1.59,1.36-1.78,1.36-1.98-1.3-.97-1.26-1.39.36-3.53-.32-4.76-7.09-9.03-7.64-9.91-1.3-1.49-3.5-1.98-5.51-.78-6.28-1.46-.81-.45-.81-.45c0,0-.62-1.72-1.55-2.01s-1.62,0-1.62,0c0,0-.94.03-1.1-.49s-1.72-5.67-2.85-6.64-2.07-2.1-3.3-2.4-1.1-.16-1.1-.16c0,0-.03.49-.58.52s-1.78,0-3.3,1.36-2.46,3.17-3.56,4.21-1.59,1.13-1.88,1.85-.45,2.36,0,2.36,1.72,1.68,1.68,1.88.71.62,1.04.19.42-1.23.94-.81.58,1.62,1.39,2.07,1.3,1.04,1.3,1.49.16.81.45.81.49-.06.19.55-1.69,2.84-2.73,6.34-3.2,7.86-3.37,8.72-.13,1.38-.6,1.42-2.07.69-2.07.69c0,0,.86.65.73.91s-.86,1.21-.73,1.73.17,1.04.17,1.04c0,0-5.01,8.25-5.87,8.72s-3.71,1.08-3.93,1.17-2.03,2.68-2.03,3.02.13,1.42.43,1.6.78.26,1.04.13,1.21-.99,1.3-.82-.3.95-.04,1.25.82-.43,1.17-.99,1.3-.91,1.55-.91,1.38-.99,1.68-1.64,8.07-8.55,8.07-8.55c0,0,.56-.17.78-.09s1.17-.17,1.77-.69,1.9-1.99,1.34-2.03-1.04.22-.69-.52,3.24-6.56,3.24-6.56c0,0,.52,4.15-.17,6.04s-3.48,6.44-4.38,12.92c-.91,6.48-.52,10.36.13,12.69s1.1,5.05.84,5.63-.06,3.11.19,3.76,1.1,5.7.97,5.89.32,11.27-.06,11.59,1.42.71,1.81,2.07c.39,1.36,1.42,2.98,1.3,5.38-.13,2.4-.85,4.39-.85,4.39Z"/>
    <g>
      <circle class="cls-21" cx="829.21" cy="654.14" r="3.54"/>
      <path class="cls-31" d="M871.13,670.24s-18.19-19.17-20.79-35.05c-2.3-14.07-1.5-26.71-1.5-26.71"/>
      <path class="cls-31" d="M814.2,673.43s-5.65,1.92-9.67.08c-4.02-1.84-8.71-5.23-10.16-10.94-1.45-5.71,3.15-17.41,14.48-21.01,11.33-3.61,25.57-1.22,36.56,7.02,10.99,8.24,24.13,20.09,24.13,20.09"/>
      <line class="cls-31" x1="851.18" y1="638.81" x2="846.87" y2="634.73"/>
      <path class="cls-21" d="M847.49,634.63s-2.3-4.84-7.23-4.83c-3.71.01-6.89-1.18-7.72-1.59-.23-.11-.47.14-.34.36.73,1.33,3.45,4.72,8.03,6.06,5.57,1.63,7.26,0,7.26,0Z"/>
      <circle class="cls-21" cx="848.74" cy="605.54" r="3.41"/>
      <circle class="cls-21" cx="807.28" cy="668.87" r="2.52"/>
      <circle class="cls-21" cx="815.98" cy="672.82" r="2.52"/>
      <circle class="cls-21" cx="807.26" cy="679.36" r="2.52"/>
      <circle class="cls-21" cx="796.38" cy="673.81" r="2.52"/>
      <path class="cls-31" d="M796.71,667.48s.57,1.96.63,2.99-.59,2.08-.59,2.08"/>
      <path class="cls-31" d="M805.98,669.54s-2.69.98-4.43.58c-1.74-.4-4.15-1.78-4.15-1.78"/>
      <path class="cls-31" d="M806.91,678.42s.63-2.38-.22-3.42-2.16-1.49-2.16-1.49"/>
      <path class="cls-31" d="M791.4,644.22s2.47,1.49,4.45,1.86c1.98.37,5.1.06,5.1.06"/>
      <path class="cls-21" d="M783.08,635.66c-.16-.17-.44,0-.37.22.49,1.65,1.71,5.21,3.39,6.88,1.83,1.81,4.78,3.37,6.01,1.72,1.44-1.95-1.03-4.84-4.52-5.8-1.84-.51-3.61-2.1-4.51-3.02Z"/>
      <path class="cls-21" d="M859.29,655.15s2.96-8.8,2.14-13.47c-.63-3.59-2.73-5.31-2.73-5.31,0,0,.33,1.74-.82,5.93-.36,1.31-1.33,4.21-1.08,6.29.29,2.4,2.5,6.55,2.5,6.55Z"/>
      <path class="cls-21" d="M840.01,671.93s8.06-3.52,8.95-3.78c1.6-.46,2.73-1.81,2.02-3.39-.7-1.56-2.86-1.65-4.14-.61-1.12.9-6.82,7.78-6.82,7.78Z"/>
      <path class="cls-31" d="M870.7,669.77s-8.47-5.06-14.04-6.24c-5.48-1.17-8,2.09-8,2.09"/>
      <path class="cls-32" d="M850.57,652.58s-6.05-2.07-12.55-1.77c-4.06.19-8.25,3.17-8.25,3.17"/>
    </g>
    <g>
      <circle class="cls-21" cx="567.78" cy="912.93" r="3.54"/>
      <path class="cls-31" d="M609.71,929.03s-18.19-19.17-20.79-35.05c-2.3-14.07-1.5-26.71-1.5-26.71"/>
      <path class="cls-31" d="M552.77,932.22s-5.65,1.92-9.67.08-8.71-5.23-10.16-10.94c-1.45-5.71,3.15-17.41,14.48-21.01,11.33-3.61,25.57-1.22,36.56,7.02,10.99,8.24,24.13,20.09,24.13,20.09"/>
      <line class="cls-31" x1="589.76" y1="897.6" x2="585.45" y2="893.52"/>
      <path class="cls-21" d="M586.07,893.42s-2.3-4.84-7.23-4.83c-3.71.01-6.89-1.18-7.72-1.59-.23-.11-.47.14-.34.36.73,1.33,3.45,4.72,8.03,6.06,5.57,1.63,7.26,0,7.26,0Z"/>
      <circle class="cls-21" cx="587.32" cy="864.33" r="3.41"/>
      <circle class="cls-21" cx="545.85" cy="927.66" r="2.52"/>
      <circle class="cls-21" cx="554.56" cy="931.61" r="2.52"/>
      <circle class="cls-21" cx="545.84" cy="938.15" r="2.52"/>
      <circle class="cls-21" cx="534.96" cy="932.6" r="2.52"/>
      <path class="cls-31" d="M535.29,926.27s.57,1.96.63,2.99-.59,2.08-.59,2.08"/>
      <path class="cls-31" d="M544.55,928.33s-2.69.98-4.43.58-4.15-1.78-4.15-1.78"/>
      <path class="cls-31" d="M545.49,937.21s.63-2.38-.22-3.42c-.85-1.03-2.16-1.49-2.16-1.49"/>
      <path class="cls-31" d="M529.98,903.01s2.47,1.49,4.45,1.86c1.98.37,5.1.06,5.1.06"/>
      <path class="cls-21" d="M521.65,894.45c-.16-.17-.44,0-.37.22.49,1.65,1.71,5.21,3.39,6.88,1.83,1.81,4.78,3.37,6.01,1.72,1.44-1.95-1.03-4.84-4.52-5.8-1.84-.51-3.61-2.1-4.51-3.02Z"/>
      <path class="cls-21" d="M597.86,913.94s2.96-8.8,2.14-13.47c-.63-3.59-2.73-5.31-2.73-5.31,0,0,.33,1.74-.82,5.93-.36,1.31-1.33,4.21-1.08,6.29.29,2.4,2.5,6.55,2.5,6.55Z"/>
      <path class="cls-21" d="M578.59,930.72s8.06-3.52,8.95-3.78c1.6-.46,2.73-1.81,2.02-3.39-.7-1.56-2.86-1.65-4.14-.61-1.12.9-6.82,7.78-6.82,7.78Z"/>
      <path class="cls-31" d="M609.28,928.56s-8.47-5.06-14.04-6.24c-5.48-1.17-8,2.09-8,2.09"/>
      <path class="cls-32" d="M589.15,911.37s-6.05-2.07-12.55-1.77c-4.06.19-8.25,3.17-8.25,3.17"/>
    </g>
    <g>
      <circle class="cls-21" cx="315.11" cy="653.16" r="3.54"/>
      <path class="cls-31" d="M357.04,669.25s-18.19-19.17-20.79-35.05c-2.3-14.07-1.5-26.71-1.5-26.71"/>
      <path class="cls-31" d="M300.1,672.45s-5.65,1.92-9.67.08-8.71-5.23-10.16-10.94c-1.45-5.71,3.15-17.41,14.48-21.01,11.33-3.61,25.57-1.22,36.56,7.02,10.99,8.24,24.13,20.09,24.13,20.09"/>
      <line class="cls-31" x1="337.08" y1="637.82" x2="332.78" y2="633.74"/>
      <path class="cls-21" d="M333.4,633.64s-2.3-4.84-7.23-4.83c-3.71.01-6.89-1.18-7.72-1.59-.23-.11-.47.14-.34.36.73,1.33,3.45,4.72,8.03,6.06,5.57,1.63,7.26,0,7.26,0Z"/>
      <circle class="cls-21" cx="334.65" cy="604.56" r="3.41"/>
      <circle class="cls-21" cx="293.18" cy="667.88" r="2.52"/>
      <circle class="cls-21" cx="301.88" cy="671.83" r="2.52"/>
      <circle class="cls-21" cx="293.17" cy="678.38" r="2.52"/>
      <circle class="cls-21" cx="282.29" cy="672.83" r="2.52"/>
      <path class="cls-31" d="M282.62,666.49s.57,1.96.63,2.99-.59,2.08-.59,2.08"/>
      <path class="cls-31" d="M291.88,668.55s-2.69.98-4.43.58-4.15-1.78-4.15-1.78"/>
      <path class="cls-31" d="M292.82,677.44s.63-2.38-.22-3.42c-.85-1.03-2.16-1.49-2.16-1.49"/>
      <path class="cls-31" d="M277.31,643.24s2.47,1.49,4.45,1.86c1.98.37,5.1.06,5.1.06"/>
      <path class="cls-21" d="M268.98,634.68c-.16-.17-.44,0-.37.22.49,1.65,1.71,5.21,3.39,6.88,1.83,1.81,4.78,3.37,6.01,1.72,1.44-1.95-1.03-4.84-4.52-5.8-1.84-.51-3.61-2.1-4.51-3.02Z"/>
      <path class="cls-21" d="M345.19,654.17s2.96-8.8,2.14-13.47c-.63-3.59-2.73-5.31-2.73-5.31,0,0,.33,1.74-.82,5.93-.36,1.31-1.33,4.21-1.08,6.29.29,2.4,2.5,6.55,2.5,6.55Z"/>
      <path class="cls-21" d="M325.92,670.95s8.06-3.52,8.95-3.78c1.6-.46,2.73-1.81,2.02-3.39-.7-1.56-2.86-1.65-4.14-.61-1.12.9-6.82,7.78-6.82,7.78Z"/>
      <path class="cls-31" d="M356.61,668.79s-8.47-5.06-14.04-6.24c-5.48-1.17-8,2.09-8,2.09"/>
      <path class="cls-32" d="M336.48,651.6s-6.05-2.07-12.55-1.77c-4.06.19-8.25,3.17-8.25,3.17"/>
    </g>
    <g>
      <circle class="cls-21" cx="315.11" cy="910.85" r="3.54"/>
      <path class="cls-31" d="M357.04,926.95s-18.19-19.17-20.79-35.05c-2.3-14.07-1.5-26.71-1.5-26.71"/>
      <path class="cls-31" d="M300.1,930.14s-5.65,1.92-9.67.08-8.71-5.23-10.16-10.94c-1.45-5.71,3.15-17.41,14.48-21.01,11.33-3.61,25.57-1.22,36.56,7.02,10.99,8.24,24.13,20.09,24.13,20.09"/>
      <line class="cls-31" x1="337.08" y1="895.52" x2="332.78" y2="891.44"/>
      <path class="cls-21" d="M333.4,891.34s-2.3-4.84-7.23-4.83c-3.71.01-6.89-1.18-7.72-1.59-.23-.11-.47.14-.34.36.73,1.33,3.45,4.72,8.03,6.06,5.57,1.63,7.26,0,7.26,0Z"/>
      <circle class="cls-21" cx="334.65" cy="862.26" r="3.41"/>
      <circle class="cls-21" cx="293.18" cy="925.58" r="2.52"/>
      <circle class="cls-21" cx="301.88" cy="929.53" r="2.52"/>
      <circle class="cls-21" cx="293.17" cy="936.07" r="2.52"/>
      <circle class="cls-21" cx="282.29" cy="930.52" r="2.52"/>
      <path class="cls-31" d="M282.62,924.19s.57,1.96.63,2.99-.59,2.08-.59,2.08"/>
      <path class="cls-31" d="M291.88,926.25s-2.69.98-4.43.58-4.15-1.78-4.15-1.78"/>
      <path class="cls-31" d="M292.82,935.13s.63-2.38-.22-3.42c-.85-1.03-2.16-1.49-2.16-1.49"/>
      <path class="cls-31" d="M277.31,900.93s2.47,1.49,4.45,1.86c1.98.37,5.1.06,5.1.06"/>
      <path class="cls-21" d="M268.98,892.38c-.16-.17-.44,0-.37.22.49,1.65,1.71,5.21,3.39,6.88,1.83,1.81,4.78,3.37,6.01,1.72,1.44-1.95-1.03-4.84-4.52-5.8-1.84-.51-3.61-2.1-4.51-3.02Z"/>
      <path class="cls-21" d="M345.19,911.87s2.96-8.8,2.14-13.47c-.63-3.59-2.73-5.31-2.73-5.31,0,0,.33,1.74-.82,5.93-.36,1.31-1.33,4.21-1.08,6.29.29,2.4,2.5,6.55,2.5,6.55Z"/>
      <path class="cls-21" d="M325.92,928.65s8.06-3.52,8.95-3.78c1.6-.46,2.73-1.81,2.02-3.39-.7-1.56-2.86-1.65-4.14-.61-1.12.9-6.82,7.78-6.82,7.78Z"/>
      <path class="cls-31" d="M356.61,926.49s-8.47-5.06-14.04-6.24c-5.48-1.17-8,2.09-8,2.09"/>
      <path class="cls-32" d="M336.48,909.3s-6.05-2.07-12.55-1.77c-4.06.19-8.25,3.17-8.25,3.17"/>
    </g>
  </g>
</svg>