<svg xmlns="http://www.w3.org/2000/svg" xmlns:xlink="http://www.w3.org/1999/xlink" width="210.41" height="212.014" viewBox="0 0 210.41 212.014">
  <defs>
    <clipPath id="clip-path">
      <rect id="SVGID" width="210.41" height="212.014" fill="none"/>
    </clipPath>
  </defs>
  <g id="Group_20" data-name="Group 20" transform="translate(0 0)">
    <g id="Group_19" data-name="Group 19" transform="translate(0 0)" clip-path="url(#clip-path)">
      <g id="Group_18" data-name="Group 18" transform="translate(45.524 33.709)">
        <g id="Group_15" data-name="Group 15">
          <path id="Path_1" data-name="Path 1" d="M115.641,150.835l.06-.016-4.557-16.8,1.868-.507c0,.02,0,.04.01.059a3.124,3.124,0,0,0,6.031-1.636c-.006-.02-.016-.037-.022-.056l2.074-.563c0,.02,0,.039.009.059a3.124,3.124,0,0,0,6.031-1.636c-.005-.02-.016-.036-.022-.056l2.074-.563c.006.02,0,.039.01.059a3.125,3.125,0,0,0,6.031-1.636c-.006-.02-.016-.036-.022-.056l2.074-.563c.005.02,0,.039.01.059a3.124,3.124,0,0,0,6.031-1.636c-.005-.02-.016-.036-.022-.056l2.073-.563c.005.02,0,.04.01.059a3.124,3.124,0,1,0,6.031-1.636c-.006-.02-.016-.036-.022-.056l2.074-.563c.005.02,0,.039.01.059a3.124,3.124,0,1,0,6.031-1.636c-.005-.02-.015-.037-.021-.056l2.073-.563c.005.02,0,.04.01.059a3.125,3.125,0,0,0,6.031-1.636c-.006-.02-.016-.036-.022-.056l2.074-.563c.005.02,0,.039.01.059a3.124,3.124,0,1,0,6.031-1.636c-.005-.02-.015-.036-.021-.056l2.064-.56,23.047,85.183,4.557,16.8-1.868.507c-.005-.02,0-.039-.01-.059a3.124,3.124,0,1,0-6.031,1.636c.005.02.016.036.022.056l-2.074.562c0-.02,0-.039-.01-.059a3.124,3.124,0,0,0-6.031,1.636c.005.02.016.037.022.056l-2.073.562c-.005-.02,0-.039-.01-.059a3.125,3.125,0,0,0-6.031,1.636c.006.02.016.036.022.056l-2.073.562c-.005-.02,0-.039-.01-.059a3.124,3.124,0,1,0-6.031,1.636c.005.02.016.037.022.056l-2.074.562c-.005-.02,0-.039-.01-.059a3.124,3.124,0,1,0-6.031,1.636c.005.02.015.037.021.056l-2.073.562c-.005-.02,0-.039-.01-.059a3.124,3.124,0,1,0-6.031,1.636c.006.02.016.037.022.056l-2.074.562c-.005-.02,0-.039-.009-.059a3.124,3.124,0,1,0-6.031,1.636c.005.02.016.037.021.056l-2.074.562c-.005-.02,0-.039-.01-.059a3.124,3.124,0,0,0-6.031,1.636c.005.02.016.037.022.056l-2.064.56Z" transform="translate(-111.143 -100.493)" fill="#d6d6d6" opacity="0.18" style="mix-blend-mode: multiply;isolation: isolate"/>
          <path id="Path_2" data-name="Path 2" d="M315.657,242.133l28.626,12.823a14.43,14.43,0,0,1,6.6,5.954l17.726,42.98-27.724,20.527L324.8,267.477l-3.678-5.982Z" transform="translate(-228.937 -173.17)" fill="#e2a27d"/>
          <path id="Path_3" data-name="Path 3" d="M402.87,387.775l12.686,14.2-28.953,21.1L375.145,408.3Z" transform="translate(-263.201 -257.056)" fill="#e2a27d"/>
          <path id="Path_4" data-name="Path 4" d="M324.036,268.319,321.491,258.2l14.3,10.058a15.728,15.728,0,0,1,6.8,8.791l5.639,12.541Z" transform="translate(-232.298 -182.423)" fill="#d99676"/>
          <path id="Path_5" data-name="Path 5" d="M294.227,314.493l2.656,7.7a12.389,12.389,0,0,0,7.916,7.755l7.571,2.438-11.45-22.137Z" transform="translate(-216.594 -212.405)" fill="#d99676"/>
          <path id="Path_6" data-name="Path 6" d="M302.735,334.448l2.656,7.7a12.39,12.39,0,0,0,7.916,7.755l7.57,2.437-11.45-22.136Z" transform="translate(-221.495 -223.899)" fill="#d99676"/>
          <path id="Path_7" data-name="Path 7" d="M320.224,358.488l2.656,7.7a12.389,12.389,0,0,0,7.916,7.755l7.571,2.438-11.45-22.137Z" transform="translate(-231.568 -237.745)" fill="#d99676"/>
          <path id="Path_8" data-name="Path 8" d="M126.847,114.379l.06-.016-4.557-16.8,1.869-.507c0,.02,0,.039.01.059a3.124,3.124,0,1,0,6.031-1.636c-.005-.02-.016-.036-.022-.056l2.074-.563c.005.02,0,.039.01.059a3.124,3.124,0,1,0,6.031-1.636c-.005-.02-.016-.036-.022-.056l2.074-.563c.005.02,0,.039.01.059a3.125,3.125,0,0,0,6.031-1.636c-.006-.02-.016-.036-.022-.056l2.074-.563c.005.02,0,.039.01.059a3.124,3.124,0,1,0,6.031-1.636c-.006-.02-.016-.036-.022-.056l2.074-.562c.005.02,0,.039.01.059a3.124,3.124,0,1,0,6.031-1.636c-.006-.02-.016-.036-.022-.056l2.074-.562c.006.02,0,.039.01.059a3.124,3.124,0,1,0,6.031-1.636c-.005-.02-.015-.037-.021-.056l2.074-.562c.005.02,0,.039.01.059a3.124,3.124,0,0,0,6.031-1.636c-.005-.02-.016-.036-.022-.056l2.074-.562c.005.02,0,.039.01.059a3.124,3.124,0,1,0,6.031-1.636c-.006-.02-.016-.037-.021-.056l2.064-.56L212,164.679l4.558,16.8-1.869.507c0-.02,0-.04-.01-.059a3.124,3.124,0,0,0-6.031,1.636c.006.02.016.036.022.056l-2.074.563c-.005-.02,0-.039-.01-.059a3.124,3.124,0,1,0-6.031,1.636c.005.02.016.036.022.056l-2.074.563c-.005-.02,0-.039-.01-.059a3.124,3.124,0,1,0-6.031,1.636c.005.02.016.036.022.056l-2.074.563c-.006-.02,0-.039-.01-.059a3.124,3.124,0,1,0-6.031,1.636c.006.02.016.036.022.056l-2.073.563c-.005-.02,0-.039-.01-.059a3.124,3.124,0,0,0-6.031,1.636c.006.02.016.036.022.056l-2.074.563c-.006-.02,0-.039-.01-.059a3.124,3.124,0,1,0-6.031,1.636c.006.02.016.036.021.056l-2.073.563c-.005-.02,0-.039-.01-.059a3.124,3.124,0,0,0-6.031,1.636c.006.02.016.036.022.056l-2.074.563c-.005-.02,0-.039-.01-.059A3.124,3.124,0,1,0,152,198.931c.006.02.016.036.022.056l-2.064.56Z" transform="translate(-117.597 -79.496)" fill="#fdfffb"/>
          <g id="Group_14" data-name="Group 14" transform="translate(70.695 73.174)">
            <path id="Path_9" data-name="Path 9" d="M319.115,330.137l-13.677-17.1a49.332,49.332,0,0,1-7.656-13.461l-5.976-15.9L279.063,263.85a7.539,7.539,0,0,1,2.3-10.437l.266-.17a7.539,7.539,0,0,1,10.1,1.867l9.588,12.913L318.4,282.016Z" transform="translate(-277.866 -252.066)" fill="#e2a27d"/>
            <path id="Rectangle_23" data-name="Rectangle 23" d="M1.237,0H8.9A1.237,1.237,0,0,1,10.14,1.237V2.9a5.07,5.07,0,0,1-5.07,5.07h0A5.07,5.07,0,0,1,0,2.9V1.237A1.237,1.237,0,0,1,1.237,0Z" transform="matrix(-0.841, 0.54, -0.54, -0.841, 14.09, 7.92)" fill="#e9c3ae"/>
          </g>
        </g>
        <path id="Path_10" data-name="Path 10" d="M412,397.245l-34.865,23.662,6.155,8.075,34.99-24.224Z" transform="translate(-264.346 -262.51)" fill="#fdfffb"/>
        <path id="Path_11" data-name="Path 11" d="M425.3,404.386l-44.2,32.518,26.512,34.007,43.968-34.35Z" transform="translate(-266.635 -266.624)" fill="#54749b"/>
        <g id="Group_17" data-name="Group 17" transform="translate(19.216 21.876)">
          <g id="Group_16" data-name="Group 16">
            <rect id="Rectangle_24" data-name="Rectangle 24" width="50.483" height="2.048" transform="translate(0 13.164) rotate(-15.115)" fill="#707070"/>
            <rect id="Rectangle_25" data-name="Rectangle 25" width="50.483" height="2.048" transform="translate(10.969 53.774) rotate(-15.115)" fill="#707070"/>
            <rect id="Rectangle_26" data-name="Rectangle 26" width="23.563" height="2.048" transform="translate(24.834 55.939) rotate(-15.115)" fill="#707070"/>
            <rect id="Rectangle_27" data-name="Rectangle 27" width="28.281" height="2.048" transform="translate(3.05 24.455) rotate(-15.115)" fill="#dadada"/>
            <rect id="Rectangle_28" data-name="Rectangle 28" width="9.915" height="2.048" transform="translate(4.43 29.566) rotate(-15.115)" fill="#dadada"/>
            <rect id="Rectangle_29" data-name="Rectangle 29" width="20.026" height="2.048" transform="translate(5.81 34.676) rotate(-15.115)" fill="#dadada"/>
            <rect id="Rectangle_30" data-name="Rectangle 30" width="28.281" height="2.048" transform="matrix(0.965, -0.261, 0.261, 0.965, 7.191, 39.786)" fill="#dadada"/>
            <rect id="Rectangle_31" data-name="Rectangle 31" width="11.956" height="2.048" transform="translate(8.571 44.897) rotate(-15.115)" fill="#dadada"/>
            <rect id="Rectangle_32" data-name="Rectangle 32" width="11.764" height="2.048" transform="translate(40.115 14.444) rotate(-15.115)" fill="#dadada"/>
            <rect id="Rectangle_33" data-name="Rectangle 33" width="11.764" height="2.048" transform="matrix(0.965, -0.261, 0.261, 0.965, 41.495, 19.554)" fill="#dadada"/>
            <rect id="Rectangle_34" data-name="Rectangle 34" width="11.764" height="2.048" transform="translate(42.876 24.665) rotate(-15.115)" fill="#dadada"/>
            <rect id="Rectangle_35" data-name="Rectangle 35" width="11.764" height="2.048" transform="translate(44.256 29.775) rotate(-15.115)" fill="#dadada"/>
            <rect id="Rectangle_36" data-name="Rectangle 36" width="11.764" height="2.048" transform="translate(45.636 34.885) rotate(-15.115)" fill="#dadada"/>
          </g>
        </g>
      </g>
    </g>
  </g>
</svg>
