<?xml version="1.0" standalone="no"?><!DOCTYPE svg PUBLIC "-//W3C//DTD SVG 20010904//EN" "http://www.w3.org/TR/2001/REC-SVG-20010904/DTD/svg10.dtd"><svg version="1.0" xmlns="http://www.w3.org/2000/svg"
		 width="749.000000pt" height="727.000000pt" viewBox="0 0 749.000000 727.000000"
		 preserveAspectRatio="xMidYMid meet">

	<g transform="translate(0.000000,727.000000) scale(0.100000,-0.100000)"
		 fill="#000000" stroke="none">
		<path d="M1550 6984 c-14 -2 -65 -11 -114 -20 -477 -83 -889 -438 -1055 -907
-53 -151 -73 -272 -74 -452 -2 -237 40 -421 141 -625 40 -81 47 -104 47 -155
0 -40 8 -75 22 -105 11 -25 23 -73 26 -108 3 -37 13 -76 26 -97 15 -27 18 -41
11 -59 -6 -16 -5 -37 2 -58 20 -62 24 -450 4 -491 -5 -10 -6 -35 -2 -56 4 -26
1 -49 -10 -70 -9 -19 -13 -42 -10 -57 4 -14 0 -37 -11 -57 -9 -17 -16 -44 -14
-58 1 -14 -7 -41 -18 -60 -11 -19 -18 -47 -16 -63 2 -18 -4 -39 -16 -54 -12
-15 -19 -40 -19 -66 0 -23 -9 -60 -20 -81 -12 -22 -18 -49 -16 -60 3 -10 -2
-27 -11 -37 -9 -10 -18 -41 -21 -70 -3 -31 -14 -65 -25 -80 -12 -17 -21 -46
-22 -73 -1 -28 -9 -53 -20 -65 -11 -12 -20 -39 -21 -63 -1 -24 -12 -60 -24
-80 -13 -23 -20 -49 -19 -70 2 -20 -4 -45 -14 -60 -9 -15 -17 -44 -17 -65 0
-21 -9 -56 -21 -77 -13 -26 -18 -51 -15 -71 3 -20 -2 -40 -11 -54 -10 -15 -14
-35 -10 -61 3 -21 1 -41 -3 -44 -4 -3 -6 -24 -4 -47 4 -51 4 -60 4 -112 0 -22
7 -50 15 -62 8 -13 15 -35 15 -49 0 -33 22 -86 43 -104 9 -7 19 -28 23 -47 3
-19 20 -48 36 -66 16 -17 34 -41 41 -54 20 -38 132 -133 359 -307 208 -158
363 -298 392 -355 8 -15 26 -38 40 -51 14 -14 26 -30 26 -37 0 -8 15 -29 34
-47 18 -19 37 -44 40 -55 4 -12 20 -32 35 -45 16 -13 32 -33 35 -45 4 -12 19
-31 34 -42 15 -12 33 -32 42 -44 28 -41 184 -177 269 -233 165 -109 345 -178
616 -234 148 -31 173 -34 340 -33 162 0 190 3 280 27 104 28 282 111 530 247
157 87 316 160 427 196 68 22 101 27 183 27 198 1 614 -95 1060 -242 50 -16
187 -70 305 -121 543 -231 696 -270 1057 -270 257 0 358 29 492 140 121 100
211 248 252 413 30 119 36 325 15 441 -19 97 -91 297 -181 501 -32 72 -74 168
-95 215 -21 47 -67 150 -102 230 -74 166 -106 257 -145 420 -24 101 -28 134
-27 270 0 147 2 162 38 294 20 76 57 191 80 255 59 159 165 487 210 646 42
153 50 229 42 444 -3 108 -10 228 -16 268 -38 286 -45 403 -42 738 1 198 -2
371 -9 415 -39 282 -162 536 -369 765 -218 240 -466 385 -775 455 -133 31
-382 33 -525 6 -167 -32 -342 -100 -480 -186 -28 -17 -66 -30 -99 -33 -124
-14 -279 -130 -388 -289 -36 -52 -52 -68 -70 -68 -47 0 -80 28 -126 108 -25
43 -78 113 -117 155 -123 132 -242 187 -400 187 -215 0 -394 -115 -491 -315
-37 -77 -44 -86 -92 -109 -79 -40 -87 -37 -160 57 -35 45 -96 112 -135 149
-59 56 -82 70 -138 87 -36 12 -73 21 -82 21 -9 0 -43 18 -76 39 -133 87 -328
165 -489 196 -79 16 -355 29 -407 19z m4255 -335 c201 -33 410 -135 548 -268
196 -188 310 -437 332 -721 6 -88 -7 -247 -26 -325 l-11 -45 -74 0 c-41 0 -74
1 -74 3 0 1 9 26 21 56 13 35 17 57 10 64 -5 5 -43 12 -83 15 -52 3 -78 10
-90 22 -9 10 -21 20 -26 21 -5 2 -20 38 -34 79 l-25 75 -37 -112 c-21 -62 -40
-113 -43 -113 -2 0 -91 -16 -196 -35 -106 -19 -207 -37 -224 -40 l-33 -6 0
111 c0 91 -3 110 -15 110 -8 0 -15 -4 -15 -10 0 -30 -59 12 -73 53 -4 9 -11
17 -17 17 -5 0 -10 -8 -10 -17 -1 -22 -40 54 -40 77 0 9 -16 31 -35 50 l-35
34 -30 -29 c-26 -25 -30 -35 -30 -86 0 -53 -2 -57 -25 -61 -17 -4 -25 -1 -25
8 0 8 -4 14 -10 14 -5 0 -10 -4 -10 -9 0 -6 -13 -24 -30 -42 -23 -26 -32 -31
-42 -21 -30 30 -38 14 -38 -80 l0 -93 -50 50 c-52 53 -65 97 -35 119 13 9 14
34 5 176 -10 184 -22 240 -51 247 -12 3 -19 14 -19 28 0 13 -7 51 -16 85 -8
33 -14 73 -12 88 2 17 -2 27 -10 27 -9 0 -14 -20 -17 -62 -2 -35 -8 -71 -13
-80 -5 -10 -12 -45 -15 -78 -3 -33 -11 -61 -17 -63 -6 -2 -10 -51 -10 -132 0
-75 -4 -131 -10 -135 -6 -3 -10 -50 -10 -106 0 -93 -2 -103 -26 -134 -25 -34
-26 -34 -50 -17 -14 10 -23 27 -24 44 0 15 -5 30 -11 34 -7 4 -9 22 -6 48 4
28 1 47 -9 61 -22 30 -30 8 -38 -102 -8 -107 -18 -143 -41 -143 -12 0 -15 15
-15 85 0 47 4 85 9 85 18 0 20 33 4 61 -10 16 -21 29 -25 29 -10 0 -25 62 -33
138 -4 35 -11 60 -15 55 -4 -4 -13 -44 -20 -88 -12 -76 -33 -124 -55 -125 -21
0 -43 56 -54 134 -6 44 -13 81 -15 84 -6 6 -14 -26 -26 -102 -15 -93 -29 -117
-30 -50 0 129 57 335 132 471 230 421 700 649 1173 572z m-3850 -14 c446 -94
747 -397 840 -843 15 -73 21 -285 9 -329 -11 -40 -29 -25 -44 38 l-15 60 -222
2 -222 2 -15 -56 c-9 -30 -16 -92 -16 -137 0 -66 -3 -82 -15 -82 -12 0 -15 15
-15 71 0 65 -2 73 -29 100 -16 16 -33 29 -37 29 -4 0 -17 -11 -30 -26 -21 -22
-24 -35 -24 -100 0 -67 -2 -74 -20 -74 -19 0 -20 7 -21 148 0 81 -6 170 -13
197 l-11 50 -250 6 c-138 3 -256 7 -263 8 -9 1 -11 22 -10 76 2 62 -1 79 -19
103 -12 16 -25 46 -28 66 -8 40 -25 39 -25 -2 -1 -26 -1 -26 -15 7 -8 18 -15
45 -15 60 0 14 -4 32 -9 40 -8 12 -30 -79 -32 -135 0 -10 -6 -1 -13 21 -22 66
-27 24 -29 -221 -1 -126 -6 -235 -10 -242 -11 -17 -32 -1 -53 42 -23 47 -45
73 -51 59 -8 -22 -62 -15 -88 11 -13 13 -21 27 -18 30 4 3 1 6 -6 6 -7 0 -26
-13 -41 -30 -19 -21 -37 -30 -59 -30 -17 0 -31 5 -31 10 0 24 -27 6 -52 -36
-26 -41 -28 -54 -28 -145 0 -90 -2 -99 -19 -99 -17 0 -18 3 -4 62 11 50 12 75
3 127 -14 82 -25 101 -55 101 -14 0 -25 3 -25 6 0 3 15 23 32 45 32 40 32 41
13 55 -17 13 -23 10 -62 -28 -46 -45 -43 -45 -105 11 -23 21 -30 22 -43 11
-15 -12 -16 -10 -10 26 64 379 296 684 641 846 71 33 215 78 294 91 65 11 319
6 385 -8z m-532 -786 c-4 -13 -9 -17 -15 -11 -11 11 -3 32 12 32 4 0 6 -9 3
-21z m3657 -29 c0 -27 -4 -50 -10 -50 -5 0 -10 23 -10 50 0 28 5 50 10 50 6 0
10 -22 10 -50z m-43 -27 c-2 -16 -4 -5 -4 22 0 28 2 40 4 28 2 -13 2 -35 0
-50z m-3642 -38 c0 -25 -3 -45 -7 -45 -5 0 -8 20 -8 45 0 25 3 45 8 45 4 0 7
-20 7 -45z m2086 -22 c64 -23 90 -27 189 -27 95 0 126 4 175 22 89 33 126 30
164 -14 l32 -36 -8 -116 c-4 -64 -8 -189 -8 -277 1 -135 4 -171 23 -230 56
-184 190 -319 424 -429 79 -38 137 -73 193 -120 272 -229 545 -343 861 -362
266 -16 551 54 779 190 162 98 242 170 426 384 36 42 52 34 44 -23 -5 -27 -2
-51 6 -66 7 -13 11 -48 10 -76 -1 -30 2 -53 7 -53 9 0 9 -19 2 -40 -5 -13 3
-77 12 -93 6 -11 6 -23 0 -30 -5 -7 -8 -25 -5 -42 2 -16 3 -41 3 -55 -1 -14
-2 -50 -3 -80 -1 -30 -8 -65 -15 -77 -6 -12 -12 -40 -12 -63 0 -27 -7 -51 -20
-67 -13 -17 -20 -41 -20 -70 0 -29 -7 -53 -21 -72 -12 -16 -22 -45 -22 -65 -1
-20 -4 -36 -8 -36 -11 0 -29 -50 -29 -81 0 -17 -9 -42 -20 -56 -12 -16 -20
-41 -20 -65 0 -28 -7 -49 -24 -69 -13 -15 -27 -47 -31 -69 -4 -23 -18 -61 -32
-85 -13 -25 -23 -55 -22 -67 2 -13 -5 -36 -15 -51 -11 -16 -20 -49 -21 -75 -2
-26 -12 -67 -23 -91 -13 -30 -17 -51 -12 -70 4 -16 2 -36 -7 -55 -10 -19 -13
-43 -8 -77 4 -26 3 -54 -1 -61 -15 -23 -15 -56 -1 -90 8 -18 12 -49 9 -69 -2
-20 2 -47 8 -60 7 -12 14 -44 15 -71 2 -26 12 -62 23 -80 11 -18 20 -53 21
-77 1 -30 8 -52 21 -66 12 -13 20 -35 20 -57 0 -22 7 -41 20 -53 12 -11 20
-31 20 -50 0 -18 11 -49 25 -70 14 -20 24 -42 22 -49 -3 -6 6 -25 18 -42 13
-17 28 -49 34 -72 7 -22 17 -47 25 -54 7 -7 16 -28 19 -46 4 -19 16 -45 27
-59 11 -14 20 -33 20 -43 0 -10 9 -29 20 -42 10 -14 16 -28 13 -32 -3 -3 -2
-6 3 -6 5 0 10 -10 11 -21 1 -12 11 -31 22 -43 11 -12 21 -39 22 -61 2 -22 12
-49 21 -59 10 -11 18 -32 18 -46 0 -15 10 -36 24 -49 14 -13 22 -29 19 -37 -8
-20 4 -60 24 -80 10 -10 16 -29 15 -45 -2 -15 1 -37 7 -47 7 -13 8 -37 2 -66
-5 -29 -5 -46 1 -46 6 0 8 -17 4 -43 -4 -24 -3 -54 2 -68 7 -17 5 -31 -6 -47
-9 -14 -13 -35 -9 -57 4 -23 1 -38 -9 -46 -8 -6 -14 -28 -14 -48 0 -25 -6 -40
-19 -48 -11 -7 -25 -28 -31 -48 -14 -41 -168 -205 -193 -205 -9 0 -25 -12 -36
-26 -17 -21 -27 -25 -53 -21 -18 2 -42 0 -53 -6 -11 -6 -56 -9 -100 -8 -44 1
-87 2 -95 2 -24 -1 -140 1 -210 2 -36 1 -68 6 -72 11 -4 6 -26 11 -50 12 -60
3 -60 3 -53 14 4 6 -13 10 -42 10 -27 0 -54 5 -60 11 -6 6 -24 12 -41 13 -16
2 -40 10 -53 19 -13 10 -33 17 -45 17 -12 0 -27 7 -34 15 -7 8 -25 15 -41 15
-16 0 -38 9 -49 20 -12 12 -33 20 -53 20 -21 0 -41 8 -52 20 -10 11 -28 20
-39 20 -12 0 -30 7 -40 15 -11 8 -30 15 -41 15 -12 0 -30 9 -39 19 -10 11 -31
23 -46 26 -15 3 -45 15 -66 26 -21 10 -45 19 -54 19 -8 0 -24 7 -34 15 -11 8
-32 15 -46 15 -14 0 -35 7 -46 15 -10 8 -33 15 -51 15 -17 0 -33 4 -35 9 -1 6
-25 16 -53 23 -27 7 -52 15 -55 19 -5 5 -70 21 -155 38 -22 4 -50 13 -63 20
-13 7 -30 10 -37 7 -8 -3 -28 2 -45 10 -17 9 -38 13 -47 10 -8 -4 -22 -1 -30
6 -8 6 -36 15 -61 19 -26 5 -67 12 -92 18 -45 9 -150 28 -205 37 -16 3 -57 9
-90 15 -70 11 -79 12 -125 4 -123 -20 -220 -47 -257 -71 -12 -8 -30 -14 -39
-14 -9 0 -37 -11 -63 -24 -25 -13 -57 -29 -71 -35 -14 -6 -32 -15 -40 -20 -17
-11 -56 -31 -115 -59 -22 -11 -46 -27 -54 -36 -7 -9 -23 -16 -35 -16 -13 0
-33 -11 -45 -24 -13 -14 -29 -22 -36 -20 -7 3 -26 -6 -43 -20 -16 -15 -37 -26
-45 -26 -9 0 -29 -11 -45 -25 -17 -14 -37 -25 -46 -25 -10 0 -34 -9 -54 -19
-72 -37 -113 -51 -150 -51 -21 0 -43 -5 -49 -11 -24 -24 -211 -26 -378 -4 -22
3 -61 7 -86 9 -25 2 -60 11 -77 20 -17 9 -37 13 -45 11 -7 -3 -27 1 -43 10
-16 8 -42 15 -59 15 -16 0 -39 7 -49 15 -11 8 -29 15 -41 15 -11 0 -38 9 -60
20 -22 11 -47 20 -57 20 -10 0 -18 4 -18 9 0 5 -17 16 -39 24 -45 18 -94 51
-136 91 -16 16 -42 33 -58 38 -15 6 -27 13 -27 17 0 4 -27 36 -60 72 -33 35
-87 102 -119 149 -32 47 -72 100 -89 119 -18 18 -32 37 -32 41 0 4 -15 24 -33
44 -17 20 -50 57 -72 83 -22 25 -57 63 -78 83 -20 20 -37 41 -37 46 0 5 -17
20 -38 34 -20 13 -54 39 -75 57 -20 18 -42 33 -48 33 -6 0 -21 13 -34 29 -14
15 -39 34 -57 42 -18 7 -45 25 -59 40 -14 16 -37 31 -50 34 -13 3 -35 21 -48
40 -12 19 -32 35 -42 37 -11 2 -19 7 -19 11 1 4 -20 25 -46 47 -57 47 -85 93
-113 185 -60 193 -30 387 144 935 19 58 50 166 69 240 20 74 52 194 71 265 59
218 75 310 86 508 8 143 7 215 -3 305 -6 64 -12 155 -13 202 0 79 1 85 21 88
14 2 68 -28 150 -84 265 -180 500 -254 805 -254 327 0 615 102 875 311 64 51
129 91 229 139 164 80 232 130 284 210 78 121 101 253 101 589 0 221 0 225 25
266 28 48 78 85 116 85 14 0 59 -12 100 -27z m1556 -85 c-2 -18 -4 -4 -4 32 0
36 2 50 4 33 2 -18 2 -48 0 -65z m30 0 c-2 -18 -4 -4 -4 32 0 36 2 50 4 33 2
-18 2 -48 0 -65z m448 42 c3 -5 -1 -10 -9 -10 -9 0 -16 5 -16 10 0 6 4 10 9
10 6 0 13 -4 16 -10z m-4072 -41 c9 -17 17 -42 17 -55 0 -21 -4 -24 -40 -24
l-40 0 0 55 c0 50 2 55 23 55 14 0 28 -11 40 -31z m587 -14 l0 -25 -187 0
c-234 0 -290 6 -296 31 -5 18 5 19 239 19 l244 0 0 -25z m-1345 -18 l39 -34
-37 -43 c-42 -50 -44 -55 -19 -69 15 -9 15 -12 2 -21 -13 -9 -11 -14 13 -31
24 -18 27 -27 27 -75 0 -53 -1 -54 -29 -54 -33 0 -34 2 -51 130 -12 84 -6 230
9 230 4 0 25 -15 46 -33z m4845 14 c0 -13 -9 -20 -30 -23 -26 -4 -30 -1 -30
19 0 19 5 23 30 23 23 0 30 -5 30 -19z m-3490 -196 l0 -145 -55 0 -55 0 -2 93
c0 50 0 104 1 119 1 16 -6 36 -16 47 -17 18 -34 21 -163 24 -117 2 -103 3 73
5 l217 2 0 -145z m3030 111 c0 -25 5 -35 20 -39 17 -4 20 -14 20 -72 l0 -67
-19 23 c-16 20 -21 21 -34 10 -9 -7 -18 -22 -20 -34 -2 -12 -5 31 -6 96 -1
111 0 117 19 117 16 0 20 -7 20 -34z m440 15 c0 -5 -9 -19 -20 -32 l-19 -24
-1 26 c0 14 3 29 7 32 9 10 33 8 33 -2z m-4390 -30 c0 -6 -4 -13 -10 -16 -5
-3 -10 1 -10 9 0 9 5 16 10 16 6 0 10 -4 10 -9z m410 -5 c0 -21 32 -26 175
-27 72 0 141 -5 155 -9 14 -5 -85 -8 -227 -9 -139 -1 -253 2 -253 7 0 4 3 17
6 30 6 20 12 22 75 22 52 0 69 -3 69 -14z m3909 0 c-11 -9 -69 -14 -69 -6 0 6
17 10 37 10 20 0 34 -2 32 -4z m-4419 -16 c0 -5 -14 -10 -31 -10 -17 0 -28 4
-24 10 3 6 17 10 31 10 13 0 24 -4 24 -10z m1431 -5 c-46 -20 -131 -20 -131 0
0 12 16 15 83 15 81 -1 81 -1 48 -15z m277 -2 c5 -19 -87 -17 -129 2 -33 14
-32 15 45 12 53 -1 81 -6 84 -14z m1842 -1 c0 -40 36 -52 83 -27 21 11 34 12
48 5 17 -9 19 -22 19 -100 0 -73 -3 -90 -15 -90 -10 0 -15 11 -15 35 0 24 -6
37 -19 45 -29 15 -72 12 -93 -7 -28 -25 -38 -3 -38 85 0 57 3 72 15 72 8 0 15
-8 15 -18z m-3854 -39 c-10 -10 -19 5 -10 18 6 11 8 11 12 0 2 -7 1 -15 -2
-18z m4967 14 c25 5 27 3 27 -31 l0 -36 -94 0 c-90 0 -95 1 -98 23 -2 12 -10
22 -18 22 -8 0 -16 -10 -18 -22 -3 -22 -8 -23 -92 -23 l-88 0 -4 35 -4 35 68
0 c47 0 67 -4 66 -12 -5 -20 31 -21 62 -1 25 16 41 18 98 12 37 -4 79 -5 95
-2z m-4686 -31 c-3 -7 0 -22 8 -32 7 -11 14 -43 16 -72 l4 -52 -37 0 -38 0 0
85 c0 85 0 85 26 85 18 0 25 -4 21 -14z m1403 -6 c0 -5 7 -10 15 -10 10 0 15
-10 15 -30 0 -31 26 -43 36 -17 7 18 114 19 114 1 0 -16 26 -19 34 -5 3 5 18
12 33 16 15 3 39 15 55 26 l28 20 0 -38 c0 -21 3 -55 6 -75 l7 -38 -97 0 c-93
0 -96 1 -96 23 0 31 -15 51 -34 44 -10 -4 -16 -18 -16 -37 l0 -30 -95 0 -95 0
0 80 0 80 45 0 c25 0 45 -4 45 -10z m-1000 -9 c0 -6 -4 -13 -10 -16 -5 -3 -10
1 -10 9 0 9 5 16 10 16 6 0 10 -4 10 -9z m490 -66 l0 -75 -183 0 -182 0 4 47
c3 44 1 50 -30 75 l-33 28 212 0 212 0 0 -75z m310 -16 c0 -56 -1 -59 -25 -59
-24 0 -25 3 -25 58 0 62 14 89 37 71 8 -7 13 -34 13 -70z m589 28 c-2 -81 -17
-97 -18 -19 -1 47 3 71 9 67 6 -3 10 -25 9 -48z m-1450 -49 c1 -34 -2 -38 -24
-38 -22 0 -25 4 -25 37 0 20 8 45 17 55 17 19 18 19 24 1 4 -10 8 -35 8 -55z
m5155 64 c3 -5 -3 -29 -12 -55 l-17 -47 -329 0 c-181 0 -327 2 -325 4 3 4 440
86 455 86 2 0 4 -9 4 -19 0 -33 59 -42 98 -15 12 8 22 24 22 35 0 16 7 19 49
19 28 0 52 -4 55 -8z m-5361 -30 c35 -4 37 -6 37 -38 l0 -34 -55 0 -55 0 0 46
c0 40 2 45 18 38 9 -4 34 -9 55 -12z m4577 -26 l0 -46 -90 0 c-82 0 -90 2 -90
19 0 33 -11 51 -31 51 -15 0 -19 -7 -19 -35 l0 -35 -59 0 c-32 0 -73 3 -90 6
-28 6 -31 10 -31 44 l0 37 205 2 205 2 0 -45z m-4450 -6 c0 -38 -2 -40 -30
-40 -28 0 -30 3 -30 34 0 30 4 35 28 39 15 2 28 5 30 6 1 0 2 -17 2 -39z
m3400 1 c0 -25 -14 -41 -36 -41 -19 0 -24 5 -24 25 0 21 5 25 30 25 17 0 30
-4 30 -9z m317 -23 c-3 -7 -5 -2 -5 12 0 14 2 19 5 13 2 -7 2 -19 0 -25z
m-2207 -43 c0 -20 -42 -130 -75 -195 -207 -408 -661 -659 -1109 -612 -365 38
-680 238 -853 541 -35 62 -103 241 -103 273 0 4 482 8 1070 8 937 0 1070 -2
1070 -15z m3870 7 c0 -21 -41 -124 -78 -197 -203 -405 -657 -654 -1107 -607
-277 29 -505 140 -693 337 -137 143 -214 284 -225 413 l-5 62 1054 0 c580 0
1054 -4 1054 -8z"/>
		<path d="M3010 3926 c0 -2 8 -10 18 -17 15 -13 16 -12 3 4 -13 16 -21 21 -21
13z"/>
		<path d="M2436 3817 c3 -10 9 -15 12 -12 3 3 0 11 -7 18 -10 9 -11 8 -5 -6z"/>
		<path d="M3001 3606 c-11 -13 -11 -17 3 -22 21 -8 25 -4 17 19 -6 17 -8 17
-20 3z"/>
		<path d="M4318 3400 l-3 -39 27 26 c25 24 26 27 10 39 -26 20 -30 17 -34 -26z"/>
		<path d="M4523 3404 c-3 -8 -1 -20 4 -25 7 -7 11 -2 11 15 0 29 -6 33 -15 10z"/>
		<path d="M4385 3310 c-3 -5 3 -10 15 -10 12 0 18 5 15 10 -3 6 -10 10 -15 10
-5 0 -12 -4 -15 -10z"/>
		<path d="M5921 2529 c-11 -29 -9 -31 17 -22 18 7 19 10 6 27 -13 18 -14 18
-23 -5z"/>
		<path d="M5721 2353 c7 -10 15 -20 16 -22 2 -2 3 5 3 17 0 14 -6 22 -16 22
-14 0 -15 -3 -3 -17z"/>
		<path d="M3765 2198 c-4 -24 -5 -57 -3 -72 3 -24 6 -20 30 33 14 34 22 58 16
55 -6 -4 -17 1 -24 10 -11 16 -13 13 -19 -26z"/>
		<path d="M4808 2046 c-17 -29 -22 -43 -12 -39 8 3 21 0 29 -7 13 -11 15 -5 15
39 0 28 -1 51 -3 51 -1 0 -14 -20 -29 -44z"/>
		<path d="M1430 2018 c0 -7 4 -19 9 -27 7 -11 11 -10 20 7 15 28 14 32 -9 32
-11 0 -20 -6 -20 -12z"/>
		<path d="M4476 1936 c3 -8 13 -17 22 -21 13 -5 13 -2 -3 15 -21 24 -26 25 -19
6z"/>
	</g>
</svg>
