<svg id="Laag_1" data-name="Laag 1" xmlns="http://www.w3.org/2000/svg" viewBox="0 0 585.79 574.84"><defs><style>.cls-1{fill:none;}.cls-2{fill:#92c7ed;}.cls-3{fill:#fff;}.cls-4{fill:#1d447c;}.cls-5{fill:#fbe47e;}</style></defs><title>pubcie logo</title><path class="cls-1" d="M94.33,575.69a9.61,9.61,0,1,1,0-19.21,9.61,9.61,0,1,1,0,19.21Z" transform="translate(-11.17 -0.86)"/><path class="cls-2" d="M214.91,565.54a73.45,73.45,0,0,1-10.18,5.33,65.43,65.43,0,0,1-24.61,4.83,63.93,63.93,0,0,1-24.44-4.83,62.53,62.53,0,0,1-20-13.32,60.48,60.48,0,0,1-18.5-43.61,62,62,0,0,1,4.92-24.13,63.06,63.06,0,0,1,13.58-19.64,59.48,59.48,0,0,1,20-13.15,61,61,0,0,1,24.44-4.83A62.35,62.35,0,0,1,204.73,457c.85.33,1.87.83,2.72,1.17V481a43.85,43.85,0,0,0-57.88,3,41.62,41.62,0,0,0,0,59.92,43.63,43.63,0,0,0,61.11,0,55.59,55.59,0,0,0,4.24-4.66Z" transform="translate(-11.17 -0.86)"/><path class="cls-2" d="M241.39,575.69a11.65,11.65,0,1,1,0-23.3,11.65,11.65,0,1,1,0,23.3Z" transform="translate(-11.17 -0.86)"/><path class="cls-2" d="M339.33,550.89c-3.56,12-14.6,21.47-28.35,24.13a39.43,39.43,0,0,1-7.64.67A41.55,41.55,0,0,1,288.41,573a49.69,49.69,0,0,1-20.88-15.81l15.62-12a28,28,0,0,0,12.39,9.65,19.71,19.71,0,0,0,11.54,1c6.45-1.17,11.71-5.33,13.24-10.32,1.7-5.66-2.21-10.65-5.77-14-5.6-5.16-14.77-14-15.45-14.65l-15.45-14.31A35.14,35.14,0,0,1,274,487.81a25.94,25.94,0,0,1-.34-15.65A28.11,28.11,0,0,1,283,458.35a33.09,33.09,0,0,1,15.11-7,34.15,34.15,0,0,1,18.67,1.33,42.39,42.39,0,0,1,17.14,12.48l-15.45,12.15c-6.45-7.66-13.07-7.66-16.63-7-4.41.83-8.15,3.66-9.17,7.16-.68,2.33-.51,6.16,4.75,11.15l21,19.81c3.06,3,6.79,6.49,9.51,9a36.94,36.94,0,0,1,11,16.14A28.71,28.71,0,0,1,339.33,550.89Z" transform="translate(-11.17 -0.86)"/><path class="cls-2" d="M366.32,575.69a11.65,11.65,0,1,1,0-23.3,11.65,11.65,0,1,1,0,23.3Z" transform="translate(-11.17 -0.86)"/><path class="cls-2" d="M485.65,575.69H463.41l-31.74-41.78H417.24v41.78H397.55V452.19H434.9c16.63,0,26.31,6.66,31.4,12.32,6.62,7.16,10.18,17.14,10.18,28.63,0,11.32-3.56,21.3-10.18,28.46a35.28,35.28,0,0,1-14.6,9.49ZM434.9,516.61c8.15,0,14.26-2.33,18.16-6.66,4.75-5,5.6-12,5.6-16.81,0-5-.85-12-5.6-17-3.9-4.33-10-6.49-18.16-6.49H417.24v46.94Z" transform="translate(-11.17 -0.86)"/><path class="cls-2" d="M510.43,575.69a11.65,11.65,0,1,1,0-23.3,11.65,11.65,0,1,1,0,23.3Z" transform="translate(-11.17 -0.86)"/><path class="cls-3" d="M344.56,396.63a13,13,0,0,1,7.42-3,4.08,4.08,0,0,1,4.22,4.18c2.91-2.9,6.54-4.18,8.69-4.18,2.74,0,4.18,2,4.18,4.43a17.38,17.38,0,0,1-1.56,5.92L358.69,426c-.89,2.47-.84,4,1.6,5.28l-2.07,5.16c-6.58-2.22-7.55-6.86-5.78-11.68l7.3-18.28c1.05-2.56,1.94-4.73,1.94-5.62,0-.6-.38-1-1.1-1-1.35,0-3.84,1.45-6,3.88l-9.07,22.89h-6.71l8-20.16c1.06-2.56,1.94-4.73,1.94-5.62,0-.6-.38-1-1.14-1-1.31,0-3.63,1.36-5.78,3.58l-9.2,23.18H326l10.72-26.93c-6.5,2.17-12.53,3.5-12.53,7.08a2.68,2.68,0,0,0,3,2.56v5.54c-5.15,0-8.65-3.24-8.61-7.84,0-8.82,11-10.19,20.76-13.85Z" transform="translate(-11.17 -0.86)"/><path class="cls-3" d="M393.21,416c-3.29,5.8-7.38,10.7-12.53,10.7-4.39,0-4.94-3.54-4.94-3.54s-2.91,3.54-6.62,3.54c-3.16,0-4.77-2.51-4.77-5.58,0-4.56,3.59-17.64,11.64-17.64a5,5,0,0,1,5,3.45l1.18-2.9h6.71l-5.23,13c-1.9,4.82-1.18,5.46-.42,5.46,1.69,0,4.56-3,7.59-8.23A3.28,3.28,0,0,1,393.21,416Zm-16.71,2.22,2.74-6.82s0-2.39-1.9-2.39c-3.33,0-6.46,8-6.46,10.7,0,1.11.51,1.58,1.35,1.58C374.56,421.26,376.51,418.19,376.51,418.19Z" transform="translate(-11.17 -0.86)"/><path class="cls-3" d="M413.34,416c-2.87,5.11-8,10.7-16.12,10.7-5.87,0-8.69-2.9-8.69-7.54,0-5.71,4.3-15.68,13.21-15.68,6,0,8.78,4.26,5.19,11.46h-6.71c2.41-5,2.57-6.09,1.22-6.09-3.63,0-6.58,7.63-6.58,10.48s2.79,3.2,4.3,3.2c4.26,0,8.82-2.86,11.81-8.23A3.28,3.28,0,0,1,413.34,416Z" transform="translate(-11.17 -0.86)"/><path class="cls-3" d="M436.55,416c-3.42,6-7.43,10.7-12.53,10.7-4.39,0-6.08-3.49-3.12-11l.63-1.58a23.3,23.3,0,0,0,1.48-4.3c0-.6-.51-.94-1.18-.94-1,0-3,1-4.73,3l-5.7,14.19H404.7l12.24-30.56h6.71l-4.26,10.7s3.17-2.81,6.92-2.81c2.66,0,4,1.45,4,3.71a13.72,13.72,0,0,1-1.27,4.82L427,417c-1.94,4.9-1.14,5.46-.42,5.46,1.69,0,4.6-3,7.59-8.23A3.28,3.28,0,0,1,436.55,416Z" transform="translate(-11.17 -0.86)"/><path class="cls-3" d="M448.49,416c-3.12,5.54-7.43,10.7-12.74,10.7-4.18,0-6.79-3.15-3.75-10.78L436.76,404h-3.5l1.39-3.41h3.46l2-5h6.71l-2,5h3.38L446.8,404h-3.33l-5.19,13c-2,4.86-1.05,5.46-.13,5.46,2.07,0,4.94-3,8-8.23A3.28,3.28,0,0,1,448.49,416Z" transform="translate(-11.17 -0.86)"/><path class="cls-3" d="M459.72,416c-3.25,5.75-7.47,10.7-12.32,10.7-3.84,0-6.54-3.07-3.46-10.78L448.7,404h6.71l-5.19,13c-1.94,4.86-1.18,5.46-.46,5.46,1.69,0,4.6-3,7.59-8.23A3.28,3.28,0,0,1,459.72,416Zm-9.2-17.52a3.67,3.67,0,0,1,3.71-3.71,3.73,3.73,0,0,1,3.71,3.71,3.82,3.82,0,0,1-3.71,3.75A3.77,3.77,0,0,1,450.52,398.46Z" transform="translate(-11.17 -0.86)"/><path class="cls-3" d="M482.92,416c-4.35,7.67-8.86,10.36-13.84,12.7,0,0-.63,1.58-.93,2.43-1.73,4.22-4.26,8.48-9.32,8.48-3.59,0-5.23-2.22-5.23-4.69,0-3,2.53-4.9,4.81-6,1.35-.64,3.92-1.75,4.85-2.26l1.14-2.9s-2.28,2.94-5.23,2.94-4.73-2.51-4.73-5.62c0-4.56,3.67-17.6,11.69-17.6a5.1,5.1,0,0,1,5,3.45l1.18-2.9H479l-8.27,20.5c4-2,6.79-4.94,9.79-10.23A3.28,3.28,0,0,1,482.92,416Zm-25,19.52c.93,0,2.36-1,3.8-4.9-1.22.72-2.15,1.07-3.16,1.75-.84.51-1.69,1.24-1.69,2.09A1,1,0,0,0,457.9,435.49Zm8.69-17.3,2.74-6.82s0-2.39-1.86-2.39c-3.33,0-6.46,8-6.46,10.7,0,1.11.51,1.58,1.35,1.58C464.7,421.26,466.59,418.19,466.59,418.19Z" transform="translate(-11.17 -0.86)"/><path class="cls-3" d="M527.23,416c-3.37,5.92-7.43,10.7-12.49,10.7-4.39,0-6.24-3.37-3.21-11l.59-1.58a20.49,20.49,0,0,0,1.48-4.3c0-.6-.46-.94-1.1-.94-1.05,0-3,1-4.77,3l-5.65,14.23h-6.75c1.39-3.54,3.38-8.4,4.81-12a20.79,20.79,0,0,0,1.48-4.35c0-.55-.51-.9-1.14-.9-1,0-3,1-4.73,3l-5.7,14.19h-6.71L492.21,404h6.71l-.89,2.26c.21-.21,3.38-2.81,6.88-2.81,2.66,0,4.05,1.49,4.09,3.67,1-1,4.3-3.67,7.93-3.67,2.7,0,4.09,1.49,4.09,3.71a14.48,14.48,0,0,1-1.27,4.82L517.69,417c-1.94,4.9-1.14,5.46-.42,5.46,1.69,0,4.56-3,7.59-8.23A3.28,3.28,0,0,1,527.23,416Z" transform="translate(-11.17 -0.86)"/><path class="cls-3" d="M550,416c-2.28,4-6.12,6.82-10.42,6.48a11.38,11.38,0,0,1-8.82,4.22c-5.23,0-8.1-3.24-8.1-8.1,0-5.71,4.13-15.13,13.08-15.13,5.11,0,7.93,3,7.93,7.93a18.53,18.53,0,0,1-1.9,7.8c2.07-.34,4.13-1.92,5.87-4.9A3.28,3.28,0,0,1,550,416Zm-16.29,4.18a3.44,3.44,0,0,1-.93-2.39,3.38,3.38,0,0,1,3.59-3.41,14,14,0,0,0,.93-4.26c0-1.58-.76-2.22-1.65-2.22-3.33,0-6.58,8.95-6.58,12.1,0,1.36.63,2.26,1.65,2.26S532.8,421.39,533.73,420.15Z" transform="translate(-11.17 -0.86)"/><path class="cls-3" d="M572.8,416c-2.28,4-6.12,6.82-10.42,6.48a11.38,11.38,0,0,1-8.82,4.22c-5.23,0-8.1-3.24-8.1-8.1,0-5.71,4.13-15.13,13.08-15.13,5.11,0,7.93,3,7.93,7.93a18.53,18.53,0,0,1-1.9,7.8c2.07-.34,4.13-1.92,5.87-4.9A3.28,3.28,0,0,1,572.8,416Zm-16.29,4.18a3.44,3.44,0,0,1-.93-2.39,3.38,3.38,0,0,1,3.59-3.41,14,14,0,0,0,.93-4.26c0-1.58-.76-2.22-1.65-2.22-3.33,0-6.58,8.95-6.58,12.1,0,1.36.63,2.26,1.65,2.26S555.59,421.39,556.52,420.15Z" transform="translate(-11.17 -0.86)"/><path class="cls-3" d="M584,416c-3.25,5.75-7.47,10.7-12.32,10.7-3.84,0-6.54-3.07-3.46-10.78L573,404h6.71l-5.19,13c-1.94,4.86-1.18,5.46-.46,5.46,1.69,0,4.6-3,7.59-8.23A3.28,3.28,0,0,1,584,416Zm-9.2-17.52a3.67,3.67,0,0,1,3.71-3.71,3.73,3.73,0,0,1,3.71,3.71,3.82,3.82,0,0,1-3.71,3.75A3.77,3.77,0,0,1,574.83,398.46Z" transform="translate(-11.17 -0.86)"/><path class="cls-3" d="M414.08,304.37,372,342.72,390.65,312l.38-.63-1.51-1.79L383,312.44,381.88,305l-7.32,4.79.61-7.38-4.51,4.34v-5.24l-3.86,1.9-1.35-5h-5.92l2.4-4.22-8.53-2.43,2.41-4.81.28-.56-3.51-1.57,2.41-4.25-3.28-1.85,7.78-4L354.11,271l3-4.14-3-2.77,27.77-1.92c.8-.3,15.26-4.75,15.26-4.75l11.75,1.26-16.63,17.63L406,286.41l-8.16,13.77Z" transform="translate(-11.17 -0.86)"/><polygon class="cls-2" points="232.07 349.72 231.39 356.79 154.21 392.17 232.07 349.72"/><path class="cls-2" d="M290.88,384.12" transform="translate(-11.17 -0.86)"/><polygon class="cls-4" points="299.33 343.61 267.97 381.64 245.57 388.06 252.41 370.9 299.33 343.61"/><polygon class="cls-2" points="345.1 338.21 313.07 372.21 296.22 378.07 310.62 358.88 345.1 338.21"/><polygon class="cls-2" points="310.62 358.88 296.22 378.07 299.33 343.61 310.62 358.88"/><polygon class="cls-4" points="310.62 358.88 296.22 378.07 299.33 343.61 310.62 358.88"/><polygon class="cls-2" points="299.33 343.61 296.22 378.07 279.71 383.26 280.28 409.15 274.33 382.54 270.46 409.15 267.97 381.64 299.33 343.61"/><polygon class="cls-2" points="267.97 381.64 257.82 410.06 257.82 397.02 267.97 381.64"/><polygon class="cls-3" points="232.07 349.72 154.21 392.17 143.54 385.55 150 373.36 150.24 373.29 232.07 349.72"/><polygon class="cls-2" points="235.22 374.68 235.21 374.69 173.31 412.77 230.3 367.95 235.22 374.68"/><polygon class="cls-2" points="231.39 356.79 231.39 356.8 230.3 367.95 157.82 404.49 231.39 356.79"/><polygon class="cls-3" points="230.3 367.95 173.31 412.77 156.17 411.56 157.82 404.49 230.3 367.95"/><polygon class="cls-2" points="227.9 392.16 195.12 420.76 222.03 389.85 227.9 392.16"/><polygon class="cls-2" points="245.57 388.06 234.76 400.15 218.65 418.14 232.77 394.08 245.57 388.06"/><polygon class="cls-2" points="245.56 388.08 234.76 400.15 245.55 388.08 245.56 388.08"/><polygon class="cls-2" points="248.28 402.33 240.88 415.42 243.27 401.52 248.28 402.33"/><polygon class="cls-2" points="235.43 374.64 235.23 374.68 235.22 374.68 230.3 367.95 230.56 367.98 235.43 374.64"/><polygon class="cls-2" points="299.33 343.61 252.41 370.9 230.3 367.95 249.49 349.81 299.33 343.61"/><polygon class="cls-2" points="345.1 338.21 325.56 336.8 354.28 297.56 345.1 338.21"/><polygon class="cls-2" points="325.56 336.8 310.62 358.88 299.33 343.61 325.56 336.8"/><polygon class="cls-2" points="249.49 349.81 232.07 349.72 150 373.36 232.77 342.66 150.11 357.47 237.35 336.52 249.49 349.81"/><polygon class="cls-2" points="237.3 336.53 237.35 336.52 150.11 357.47 237.3 336.53"/><polyline class="cls-2" points="291.13 294.12 277.2 331.36 237.35 336.52"/><polygon class="cls-4" points="379.86 310.51 374.66 319.08 362.69 326.83 345.1 338.21 354.28 297.56 355.63 302.56 359.49 300.66 359.49 305.9 364 301.56 363.39 308.94 370.71 304.15 371.84 311.58 378.35 308.72 379.86 310.51"/><polygon class="cls-4" points="252.41 370.9 235.43 374.64 235.23 374.68 235.22 374.68 230.3 367.95 230.56 367.98 252.41 370.9"/><polygon class="cls-4" points="259.46 286.46 239.41 308.65 227.58 308.36 231.06 299.32 259.46 286.46"/><polygon class="cls-4" points="245.57 271.38 221.55 295.15 221.54 295.16 211.15 296.08 213.97 286.58 245.57 271.38"/><polygon class="cls-4" points="228.72 257.84 206.06 281.39 193.28 281.57 198.26 270.61 228.72 257.84"/><polygon class="cls-4" points="216.07 242.66 190.94 264.24 174.75 263.97 178.55 253.53 216.07 242.66"/><polygon class="cls-4" points="148.35 131.76 97.55 116.48 87.68 106.16 103.98 103.9 103.99 103.9 148.35 131.76"/><polygon class="cls-4" points="146.85 83.89 124.13 67.38 122.49 55.48 137.47 61.97 138.16 70.91 146.85 83.89"/><polygon class="cls-4" points="101.27 88.79 101.27 88.78 96.83 77.12 109.39 77.65 109.4 77.65 149.72 112.79 101.27 88.79"/><polygon class="cls-4" points="157.57 147.44 102.04 138.89 91.74 131.38 102.82 125.95 157.57 147.44"/><polygon class="cls-4" points="164.13 161.29 111.77 160.41 111.75 160.4 96.31 153.23 108.25 146.9 164.13 161.29"/><polygon class="cls-4" points="174.58 173.64 124.01 179.59 106.87 174.33 117.64 166.7 174.58 173.64"/><polygon class="cls-4" points="182.53 185.4 135.41 195.5 121.75 192.18 129.13 185.27 182.53 185.4"/><polygon class="cls-4" points="187.53 198.75 149.96 211.02 149.95 211.02 132.44 208.75 140.01 201.65 187.53 198.75"/><polygon class="cls-4" points="193.4 212.37 161.17 228.98 144.79 226.7 150.72 218.01 193.4 212.37"/><polygon class="cls-4" points="202.84 228.08 171.61 247.06 159.09 246.83 165.59 236.04 202.84 228.08"/><polygon class="cls-4" points="291.13 294.12 291.03 294.2 237.35 336.52 246.87 314.87 291.05 294.16 291.13 294.12"/><polygon class="cls-3" points="237.35 336.52 150.11 357.47 143.5 351.31 152.36 345.29 237.3 336.53 237.35 336.52"/><polygon class="cls-3" points="232.77 342.66 150 373.36 140.83 367.05 150.11 357.47 232.77 342.66"/><polygon class="cls-2" points="307.99 314.66 299.33 343.61 277.2 331.36 307.99 314.66"/><polygon class="cls-2" points="307.99 314.66 291.13 294.12 344.64 286.1 342.23 290.91 350.76 293.34 348.36 297.56 354.28 297.56 307.99 314.66"/><polygon class="cls-3" points="231.39 356.79 157.82 404.49 148.49 401.64 154.21 392.17 231.39 356.79"/><polygon class="cls-3" points="235.21 374.69 222.03 389.85 195.12 420.76 170.46 427.95 173.31 412.77 235.21 374.69"/><polygon class="cls-3" points="235.23 374.68 225.92 385.37 235.21 374.69 235.22 374.68 235.23 374.68"/><polygon class="cls-3" points="243.27 401.52 240.88 415.42 220.13 433.77 218.65 418.14 234.76 400.15 243.27 401.52"/><polygon class="cls-3" points="257.82 397.02 257.82 410.06 240.88 430.88 240.88 415.42 248.28 402.33 257.82 397.02"/><polygon class="cls-3" points="270.46 409.15 260.63 426.95 257.82 410.06 267.97 381.64 270.46 409.15"/><polygon class="cls-3" points="280.28 409.15 273.26 421.74 270.46 409.15 274.33 382.54 280.28 409.15"/><polygon class="cls-3" points="287.07 404.48 283.09 419.23 280.28 409.15 279.71 383.26 287.07 404.48"/><polygon class="cls-3" points="232.77 394.08 218.65 418.14 190.45 433.77 195.12 420.76 227.9 392.16 232.77 394.08"/><polygon class="cls-5" points="252.41 370.9 245.57 388.06 245.51 388.1 232.77 394.08 222.03 389.85 235.23 374.68 235.43 374.64 252.41 370.9"/><polygon class="cls-5" points="235.23 374.68 225.92 385.37 235.21 374.69 235.22 374.68 235.23 374.68"/><polygon class="cls-5" points="267.97 381.64 257.82 397.02 248.28 402.33 234.76 400.15 245.57 388.06 267.97 381.64"/><line class="cls-1" x1="291.13" y1="294.12" x2="291.11" y2="294.01"/><path class="cls-3" d="M272.17,186l-67.6,27.23,76.75-15.7Z" transform="translate(-11.17 -0.86)"/><polygon class="cls-4" points="341.41 283.97 344.92 285.54 344.64 286.1 291.13 294.12 332.01 259.91 342.94 263.25 345.95 266.02 342.94 270.17 348.31 273.84 340.53 277.86 343.81 279.71 341.41 283.97"/><path class="cls-3" d="M365.45,298.42" transform="translate(-11.17 -0.86)"/><polygon class="cls-3" points="381.64 275.86 381.09 275.47 381.38 275.15 381.64 275.86"/><polygon class="cls-2" points="186.57 115.48 149.72 112.79 77.37 49.74 63.81 0 98.47 48.74 146.85 83.89 138.16 70.91 134.64 25.63 149.72 64.81 173.84 103.5 186.57 115.48"/><polygon class="cls-2" points="302.51 234.83 245.57 271.38 189.94 298.12 228.72 257.84 302.51 234.83"/><polygon class="cls-2" points="316.87 250.11 259.46 286.46 231.06 299.32 205.73 310.78 221.54 295.16 221.55 295.15 245.57 271.38 316.87 250.11"/><polygon class="cls-2" points="332.01 259.91 291.13 294.12 224.19 325.5 259.46 286.46 332.01 259.91"/><polygon class="cls-2" points="205.73 123.59 148.35 131.76 0 38.6 149.72 112.79 205.73 123.59"/><polygon class="cls-2" points="213.39 131.76 157.57 147.44 16.6 92.12 148.35 131.76 213.39 131.76"/><polygon class="cls-2" points="222.17 140.74 164.13 161.29 108.25 146.9 40.19 129.37 102.04 138.89 157.57 147.44 222.17 140.74"/><polygon class="cls-2" points="231.59 150.06 174.58 173.64 58.78 159.52 164.13 161.29 231.59 150.06"/><polygon class="cls-2" points="241.69 161.42 182.53 185.4 129.13 185.27 76.87 185.14 124.01 179.59 174.58 173.64 241.69 161.42"/><polygon class="cls-2" points="252.03 173.78 187.53 198.75 93.45 204.48 182.53 185.4 252.03 173.78"/><polygon class="cls-2" points="261 185.14 193.4 212.37 113.54 222.91 187.53 198.75 261 185.14"/><polygon class="cls-2" points="270.16 196.67 202.84 228.08 134.64 242.66 193.4 212.37 270.16 196.67"/><polygon class="cls-2" points="280.97 208.75 216.07 242.66 144.95 263.26 202.84 228.08 280.97 208.75"/><polygon class="cls-2" points="291.58 222.16 228.72 257.84 169.44 282.69 216.07 242.66 291.58 222.16"/><path class="cls-2" d="M302.3,295" transform="translate(-11.17 -0.86)"/><polyline class="cls-3" points="316.87 250.11 332.01 259.91 259.46 286.46"/><path class="cls-3" d="M270.66,287.31" transform="translate(-11.17 -0.86)"/><polygon class="cls-3" points="316.87 250.11 245.57 271.38 302.51 234.83 316.87 250.11"/><polygon class="cls-3" points="302.51 234.83 228.72 257.84 291.58 222.16 302.51 234.83"/><polygon class="cls-3" points="291.58 222.16 216.07 242.66 280.97 208.75 291.58 222.16"/><polygon class="cls-3" points="280.97 208.75 202.84 228.08 270.16 196.67 280.97 208.75"/><path class="cls-3" d="M263.2,174.64l-64.5,25L272.17,186Z" transform="translate(-11.17 -0.86)"/><polygon class="cls-3" points="252.03 173.78 182.53 185.4 241.69 161.42 252.03 173.78"/><polygon class="cls-3" points="241.69 161.42 174.58 173.64 231.59 150.06 241.69 161.42"/><polygon class="cls-3" points="231.59 150.06 164.13 161.29 222.17 140.74 231.59 150.06"/><polygon class="cls-3" points="222.17 140.74 157.57 147.44 213.39 131.76 222.17 140.74"/><polygon class="cls-3" points="213.39 131.76 148.35 131.76 205.73 123.59 213.39 131.76"/><polygon class="cls-3" points="205.73 123.59 149.72 112.79 186.57 115.48 173.84 103.5 197.95 116.31 205.73 123.59"/><polygon class="cls-4" points="307.99 314.66 277.2 331.36 291.13 294.12 307.99 314.66"/><line class="cls-4" x1="291.13" y1="294.12" x2="307.99" y2="314.66"/><polygon class="cls-4" points="345.1 338.21 310.62 358.88 325.56 336.8 345.1 338.21"/><polygon class="cls-4" points="354.28 297.56 325.56 336.8 299.33 343.61 307.99 314.66 354.28 297.56"/><polygon class="cls-4" points="230.3 367.95 232.07 349.73 232.07 349.72 249.49 349.81 230.3 367.95"/><polygon class="cls-4" points="345.1 338.21 335.84 356.69 313.07 372.21 345.1 338.21"/><polygon class="cls-4" points="360.81 341.86 352.54 361.39 342.37 367.21 343.48 358.62 360.81 341.86"/><polygon class="cls-4" points="362.31 360.75 379.65 343.61 371.32 364.17 371.31 364.17 360.81 370.16 362.31 360.75"/><polygon class="cls-4" points="396.27 347.83 389.31 365.21 381.09 372.03 380.47 363.63 396.27 347.83"/><polygon class="cls-4" points="395.47 365.28 410.75 346.24 403.75 366.44 395.88 372.46 395.47 365.29 395.47 365.28"/><polygon class="cls-3" points="442.41 312.99 410.75 346.24 429.63 310.22 442.41 312.99"/><polygon class="cls-4" points="411.01 365.63 425.75 346.24 418.76 368.26 412.02 374.06 411.01 365.64 411.01 365.63"/><polygon class="cls-4" points="427.9 365.28 441.55 348.05 436.39 366.68 428.35 374.32 427.9 365.28"/><polygon class="cls-4" points="444.54 365.23 455 350.79 453.31 365.34 445.86 373.67 444.54 365.23"/><polygon class="cls-4" points="460.33 362.72 469.78 345.6 467.44 363.15 462.35 369.33 460.33 362.72"/><polygon class="cls-4" points="482.28 345.1 482.97 358.35 476.77 365.52 473.54 360.48 482.28 345.1"/><polygon class="cls-4" points="500.48 353.29 500.48 353.3 495.3 361.77 490.43 354.83 494.84 346.47 500.48 353.29"/><polygon class="cls-4" points="510.13 345.11 517.43 347.2 517.37 355.19 509.8 351.82 510.13 345.11"/><polygon class="cls-3" points="526.53 336.33 510.51 337.18 510.51 329.49 526.53 336.33"/><polygon class="cls-4" points="536.49 348.17 529.09 346.6 529.08 346.6 524.81 343.42 532.41 343.93 536.49 348.17"/><polygon class="cls-3" points="416.03 306.96 379.65 343.61 402.91 303.51 416.03 306.96"/><polygon class="cls-3" points="429.63 310.22 396.27 347.83 416.03 306.96 429.63 310.22"/><polygon class="cls-3" points="416.03 306.96 401.46 337.11 401.45 337.11 416.03 306.96"/><polygon class="cls-3" points="455.52 315.89 425.75 346.24 442.41 312.99 455.52 315.89"/><polygon class="cls-3" points="442.41 312.99 430.61 336.54 430.6 336.54 442.41 312.99"/><polygon class="cls-3" points="466.97 318.4 441.55 348.05 455.52 315.89 466.97 318.4"/><polygon class="cls-3" points="480 321.93 455 350.79 466.97 318.4 480 321.93"/><polygon class="cls-3" points="490.95 324.86 469.78 345.6 480 321.93 490.95 324.86"/><polygon class="cls-3" points="500.95 327.02 482.28 345.1 490.95 324.86 500.95 327.02"/><polygon class="cls-3" points="510.51 329.49 494.84 346.47 500.95 327.02 510.51 329.49"/><polygon class="cls-2" points="362.69 326.83 348.36 336.11 345.1 338.21 362.69 326.83"/><polygon class="cls-2" points="402.91 303.51 379.65 343.61 345.95 376.94 360.81 341.86 402.91 303.51"/><polygon class="cls-2" points="416.03 306.96 396.27 347.83 365.45 378.64 379.65 343.61 416.03 306.96"/><polygon class="cls-2" points="429.63 310.22 410.75 346.24 383.14 380.64 396.27 347.83 429.63 310.22"/><polygon class="cls-2" points="442.41 312.99 425.75 346.24 398.18 382.54 410.75 346.24 442.41 312.99"/><polygon class="cls-2" points="455.52 315.89 441.55 348.05 414.23 382.54 425.75 346.24 455.52 315.89"/><polygon class="cls-2" points="466.97 318.4 455 350.79 432 382.54 441.55 348.05 466.97 318.4"/><polygon class="cls-2" points="480 321.93 469.78 345.6 451.84 378.08 455 350.79 480 321.93"/><polyline class="cls-2" points="490.95 324.86 482.28 345.1 466.04 373.67 469.78 345.6"/><polygon class="cls-2" points="500.95 327.02 494.84 346.47 483.48 367.95 482.28 345.1 500.95 327.02"/><polygon class="cls-2" points="524.81 343.42 537.77 353.03 510.13 345.11 509.21 363.87 494.84 346.47 510.51 329.49 510.51 337.18 555.68 334.79 585.79 323.96 557.51 345.6 524.81 343.42"/><polygon class="cls-2" points="374.66 319.08 360.81 341.86 326.81 374.73 345.1 338.21 374.66 319.08"/><polygon class="cls-4" points="299.33 343.61 249.49 349.81 237.35 336.52 277.2 331.36 299.33 343.61"/><line class="cls-4" x1="299.33" y1="343.61" x2="249.49" y2="349.8"/><polygon class="cls-5" points="412.87 268.4 411.92 274.72 407.31 268.1 396.47 269.15 389.08 272 385.97 275.47 401 283.73 406.71 289.91 394.83 285.55 381.09 275.47 397.72 257.84 410.43 260.88 412.87 268.4"/></svg>
