<svg id="Layer_1" data-name="Layer 1" xmlns="http://www.w3.org/2000/svg" viewBox="0 0 600 600"><defs><style>.cls-1{fill:#11273a;stroke:#e59200;stroke-miterlimit:10;stroke-width:7px;fill-rule:evenodd;}</style></defs><title>Facebook</title><path class="cls-1" d="M61.06,474.31V139.61a11.41,11.41,0,0,0,.81-2.13C66.73,109,82.51,88.56,108,75.79c7.77-3.89,16.67-5.51,25.05-8.18H467.75a11.16,11.16,0,0,0,2.13.81c28.24,4.81,48.69,20.44,61.46,45.72,4,7.89,5.67,16.94,8.4,25.46V474.31a11.52,11.52,0,0,0-.82,2.13c-4.85,28.44-20.64,48.92-46.12,61.68-7.77,3.89-16.67,5.51-25.05,8.18H375.19A22.83,22.83,0,0,1,375,544q0-87.38,0-174.77a34.93,34.93,0,0,1,.45-3.85h78.86v-80H375.17c0-12-.42-23.56.12-35.05s8.08-17.93,19.56-17.93q27.34,0,54.68,0c1.63,0,3.27-.14,4.77-.21V153c-23.39,0-46.44-.16-69.47.13a53.81,53.81,0,0,0-15.58,2.71c-35.15,11.31-55.08,36.75-65.13,71.11-4,13.63-3.89,27.68-3.72,41.71.06,5.56,0,11.11,0,17H242.32a31,31,0,0,0-.44,3.51c0,24.15,0,48.29-.08,72.44,0,3.15,1.11,3.95,4.07,3.92,13.86-.12,27.73-.05,41.59-.05H300.4V546.3H133a11.07,11.07,0,0,0-2.12-.81c-28.25-4.81-48.69-20.44-61.46-45.71C65.47,491.89,63.79,482.84,61.06,474.31Z"/></svg>