<svg id="Layer_1" data-name="Layer 1" xmlns="http://www.w3.org/2000/svg" viewBox="0 0 600 600"><defs><style>.cls-1{fill:#11273a;stroke:#e59200;stroke-miterlimit:10;stroke-width:7px;fill-rule:evenodd;}</style></defs><title>Instagram</title><path class="cls-1" d="M61.17,306.56c0-38.6-.07-77.2,0-115.79.05-19.42.71-38.91,8.27-57.15,15.28-36.9,43-58.29,82.51-63.89a258.69,258.69,0,0,1,35.67-2.08q112.81-.27,225.62,0c19.56,0,39.28.25,57.82,7.4,39,15.05,61.15,43.81,66.8,85.14a180.48,180.48,0,0,1,1.37,23.77q.43,119,.6,238c0,19.08-.72,38.22-7.73,56.25-14.06,36.21-40.28,58.34-78.64,65.14a200.38,200.38,0,0,1-34.09,2.81q-119.52.41-239,.2c-20.14,0-40.18-1.84-58.65-10.65C90,520.58,70.28,495.63,64.23,460.89a242.17,242.17,0,0,1-3.06-39C60.78,383.42,61,345,61,306.56Zm417.1.37c0-21.87.21-43.74-.11-65.6a126.14,126.14,0,0,0-2.37-24.16c-11-51.66-54.8-87.51-107.63-87.86-45.22-.29-90.45-.17-135.68,0a109.21,109.21,0,0,0-22.16,2.41c-51.46,11.06-87.22,54.71-87.61,107.32-.34,45.39-.17,90.79,0,136.17a107.07,107.07,0,0,0,2.33,21.68c11,51.67,54.78,87.5,107.65,87.86,45.22.31,90.45.18,135.68,0a109.26,109.26,0,0,0,22.16-2.41c51.81-11.14,87.29-55.07,87.65-108.32C478.38,351.65,478.26,329.29,478.27,306.93Z"/><path class="cls-1" d="M447.42,307.27q0,32.8,0,65.6c-.09,46.32-34.78,81-81.11,81.08q-65.84.08-131.69,0c-46.6,0-81.18-34.76-81.21-81.48q0-65.59,0-131.19c0-46.65,34.7-81.29,81.36-81.33q65.59-.05,131.19,0c46.71,0,81.39,34.62,81.46,81.24Q447.46,274.23,447.42,307.27Zm-147.1,88.11c48.39,0,88.35-39.77,88.51-88.13.17-48.61-39.76-88.7-88.37-88.72s-88.56,40-88.49,88.6C212.05,355.53,251.93,395.36,300.32,395.38Zm75.26-185.69a22.07,22.07,0,0,0,21.57,22.57c11.72.2,21.86-9.72,22.1-21.61a21.84,21.84,0,0,0-43.67-1Z"/><path class="cls-1" d="M358,307.54a57.58,57.58,0,1,1-115.15-1.2c.28-31.6,26.39-57.12,58.16-56.86A57.7,57.7,0,0,1,358,307.54Z"/></svg>