<svg id="Layer_1" data-name="Layer 1" xmlns="http://www.w3.org/2000/svg" viewBox="0 0 600 600"><defs><style>.cls-1{fill:#11273a;stroke:#e29125;stroke-miterlimit:10;stroke-width:7px;}</style></defs><title>Youtube</title><path class="cls-1" d="M305.34,474.69c-33.18-.7-62.2-1.18-91.22-2-17.1-.48-34.21-1.08-51.26-2.39-15.4-1.19-31-2.3-46-5.42-26.1-5.41-42.26-22.28-47.33-48.29a415.53,415.53,0,0,1-6.37-52.17c-1.46-22.36-2.06-44.82-2.06-67.23,0-29.94,1.71-59.83,6.18-89.48,1.94-12.85,4.88-25.35,13-36,10.37-13.62,23.81-22.42,40.79-24.29,22.48-2.48,45.06-4.66,67.64-5.57q55.27-2.23,110.62-2.54c28.67-.19,57.35.78,86,1.54,17,.45,34,1.07,50.91,2.39,15.63,1.22,31.35,2.6,46.73,5.49,25.71,4.84,41.81,20.95,47.42,46.36,3.22,14.59,4.87,29.58,6.41,44.47,2.79,26.94,3.31,54,2.73,81.07-.62,29.35-1.93,58.66-6.87,87.68-1.86,11-4.25,21.76-10.56,31.21-10.22,15.28-24.54,24.59-42.68,26.63-22.59,2.53-45.29,4.61-68,5.59C374.72,473.29,337.94,473.82,305.34,474.69ZM252.5,378.62l124.79-71.73-124.79-72Z"/></svg>