<?xml version="1.0" encoding="utf-8"?>
<!-- Generator: Adobe Illustrator 17.1.0, SVG Export Plug-In . SVG Version: 6.00 Build 0)  -->
<!DOCTYPE svg PUBLIC "-//W3C//DTD SVG 1.1//EN" "http://www.w3.org/Graphics/SVG/1.1/DTD/svg11.dtd">
<svg version="1.1" id="Layer_1" xmlns="http://www.w3.org/2000/svg" xmlns:xlink="http://www.w3.org/1999/xlink" x="0px" y="0px"
	 viewBox="0 0 666.2 285.2" enable-background="new 0 0 666.2 285.2" xml:space="preserve">
<path fill="#FFFFFF" d="M185.7,0h-172C5.9,0,0,6.7,0,14.4v170.2c0,3.7,1.3,7.2,3.9,9.9l85.8,86.6c5.5,5.5,14.3,5.5,19.8,0l86.3-86.6
	c2.6-2.6,4.2-6.2,4.2-9.9V14.4C200,6.7,193.4,0,185.7,0z M89.4,36H108c2.8,0,4.7,2.8,3.8,5.4l-6,16.6h-14l-6-16.6
	C84.7,38.8,86.6,36,89.4,36z M119.3,208.8l-17,17c-1.5,1.5-3.9,1.6-5.5,0.1l-18.7-17.1c-0.9-0.9-1.4-2.3-1.3-3.5L91.7,62h14
	l14.8,143.4C120.6,206.6,120.2,207.9,119.3,208.8z"/>
<g>
	<path fill="#FFFFFF" d="M251.2,35.2V35c0-16.3,12.2-29.6,29.5-29.6c10.6,0,16.9,3.7,22.4,8.9l-6.5,7.4c-4.6-4.3-9.5-7.1-16-7.1
		c-11,0-18.9,9-18.9,20.2V35c0,11.2,7.9,20.4,18.9,20.4c7,0,11.5-2.9,16.5-7.4l6.5,6.5c-6,6.2-12.5,10.1-23.2,10.1
		C263.7,64.6,251.2,51.6,251.2,35.2z"/>
	<path fill="#FFFFFF" d="M312.4,52.4h10.9v11.2h-10.9V52.4z"/>
	<path fill="#FFFFFF" d="M332.4,55.3l6.1-7.2c5.5,4.7,11,7.4,18.1,7.4c6.2,0,10.1-2.9,10.1-7.2v-0.2c0-4.1-2.3-6.3-12.9-8.8
		c-12.2-2.9-19.1-6.5-19.1-17.1v-0.2c0-9.8,8.2-16.6,19.6-16.6c8.3,0,15,2.5,20.8,7.2l-5.4,7.6c-5.2-3.8-10.3-5.9-15.6-5.9
		c-5.9,0-9.3,3-9.3,6.8v0.2c0,4.4,2.6,6.4,13.6,9c12.1,2.9,18.4,7.3,18.4,16.8v0.2c0,10.7-8.4,17.1-20.5,17.1
		C347.5,64.5,339.2,61.4,332.4,55.3z"/>
	<path fill="#FFFFFF" d="M386.8,52.4h10.9v11.2h-10.9V52.4z"/>
	<path fill="#FFFFFF" d="M410.6,6.4h25.5c7.2,0,12.8,2.1,16.5,5.7c3,3.1,4.7,7.4,4.7,12.4v0.2c0,9.4-5.6,15.1-13.7,17.4l15.5,21.7
		h-11.9l-14.1-20h-12.6v20h-10.1V6.4z M435.4,34.8c7.2,0,11.8-3.8,11.8-9.6V25c0-6.1-4.4-9.5-11.9-9.5h-14.7v19.2H435.4z"/>
	<path fill="#FFFFFF" d="M468,52.4h10.9v11.2H468V52.4z"/>
	<path fill="#FFFFFF" d="M253.8,104.6h25.7c6.5,0,11.7,1.8,15,5.1c2.5,2.5,3.8,5.6,3.8,9.5v0.2c0,6.9-3.9,10.6-8.2,12.8
		c6.7,2.3,11.4,6.1,11.4,13.9v0.2c0,10.2-8.4,15.7-21.2,15.7h-26.5V104.6z M277.4,128.7c6.5,0,10.8-2.5,10.8-7.8v-0.2
		c0-4.5-3.6-7.3-10.1-7.3h-14.5v15.2H277.4z M280.4,152.9c6.9,0,11-2.7,11-7.9v-0.2c0-4.8-3.8-7.7-11.8-7.7h-16v15.7H280.4z"/>
	<path fill="#FFFFFF" d="M312,137.5v-33H322v32.6c0,10.6,5.5,16.4,14.5,16.4c8.9,0,14.4-5.4,14.4-16v-33H361v32.5
		c0,17.1-9.7,25.7-24.6,25.7C321.5,162.8,312,154.2,312,137.5z"/>
	<path fill="#FFFFFF" d="M371,153.5l6.1-7.2c5.5,4.7,11,7.4,18.1,7.4c6.2,0,10.1-2.9,10.1-7.2v-0.2c0-4.1-2.3-6.3-12.9-8.8
		c-12.2-2.9-19.1-6.5-19.1-17.1v-0.2c0-9.8,8.2-16.6,19.6-16.6c8.3,0,15,2.5,20.8,7.2l-5.4,7.6c-5.2-3.8-10.3-5.9-15.6-5.9
		c-5.9,0-9.3,3-9.3,6.8v0.2c0,4.4,2.6,6.4,13.6,9c12.1,2.9,18.4,7.3,18.4,16.8v0.2c0,10.7-8.4,17.1-20.5,17.1
		C386.1,162.7,377.9,159.6,371,153.5z"/>
	<path fill="#FFFFFF" d="M427.8,104.6h10.1v57.3h-10.1V104.6z"/>
	<path fill="#FFFFFF" d="M453.2,104.6h9.3l30.7,39.6v-39.6h9.9v57.3h-8.4l-31.6-40.8v40.8h-9.9V104.6z"/>
	<path fill="#FFFFFF" d="M517.8,104.6h42.5v9h-32.4v14.9h28.7v9h-28.7v15.4h32.8v9h-42.9V104.6z"/>
	<path fill="#FFFFFF" d="M568.8,153.5l6.1-7.2c5.5,4.7,11,7.4,18.1,7.4c6.2,0,10.1-2.9,10.1-7.2v-0.2c0-4.1-2.3-6.3-12.9-8.8
		c-12.2-2.9-19.1-6.5-19.1-17.1v-0.2c0-9.8,8.2-16.6,19.6-16.6c8.3,0,15,2.5,20.8,7.2l-5.4,7.6c-5.2-3.8-10.3-5.9-15.6-5.9
		c-5.9,0-9.3,3-9.3,6.8v0.2c0,4.4,2.6,6.4,13.6,9c12.1,2.9,18.4,7.3,18.4,16.8v0.2c0,10.7-8.4,17.1-20.5,17.1
		C583.9,162.7,575.7,159.6,568.8,153.5z"/>
	<path fill="#FFFFFF" d="M620.4,153.5l6.1-7.2c5.5,4.7,11,7.4,18.1,7.4c6.2,0,10.1-2.9,10.1-7.2v-0.2c0-4.1-2.3-6.3-12.9-8.8
		c-12.2-2.9-19.1-6.5-19.1-17.1v-0.2c0-9.8,8.2-16.6,19.6-16.6c8.3,0,15,2.5,20.8,7.2l-5.4,7.6c-5.2-3.8-10.3-5.9-15.6-5.9
		c-5.9,0-9.3,3-9.3,6.8v0.2c0,4.4,2.6,6.4,13.6,9c12.1,2.9,18.4,7.3,18.4,16.8v0.2c0,10.7-8.4,17.1-20.5,17.1
		C635.5,162.7,627.2,159.6,620.4,153.5z"/>
	<path fill="#FFFFFF" d="M251.2,231.6v-0.2c0-16.3,12.2-29.6,29.5-29.6c10.6,0,16.9,3.7,22.4,8.9l-6.5,7.4c-4.6-4.3-9.5-7.1-16-7.1
		c-11,0-18.9,9-18.9,20.2v0.2c0,11.2,7.9,20.4,18.9,20.4c7,0,11.5-2.9,16.5-7.4l6.5,6.5c-6,6.2-12.5,10.1-23.2,10.1
		C263.7,261.1,251.2,248,251.2,231.6z"/>
	<path fill="#FFFFFF" d="M314.2,202.8h10.1v48.1h30.1v9.2h-40.2V202.8z"/>
	<path fill="#FFFFFF" d="M362.3,235.8v-33h10.1v32.6c0,10.6,5.5,16.4,14.5,16.4c8.9,0,14.4-5.4,14.4-16v-33h10.1v32.5
		c0,17.1-9.7,25.7-24.6,25.7C371.8,261,362.3,252.4,362.3,235.8z"/>
	<path fill="#FFFFFF" d="M425.2,202.8h25.7c6.5,0,11.7,1.8,15,5.1c2.5,2.5,3.8,5.6,3.8,9.5v0.2c0,6.9-3.9,10.6-8.2,12.8
		c6.7,2.3,11.4,6.1,11.4,13.9v0.2c0,10.2-8.4,15.7-21.2,15.7h-26.5V202.8z M448.8,226.9c6.5,0,10.8-2.5,10.8-7.8V219
		c0-4.5-3.6-7.3-10.1-7.3h-14.5v15.2H448.8z M451.8,251.2c6.9,0,11-2.7,11-7.9v-0.2c0-4.8-3.8-7.7-11.8-7.7h-16v15.7H451.8z"/>
</g>
</svg>
