<?xml version="1.0" encoding="UTF-8"?>
<svg id="Laag_2" xmlns="http://www.w3.org/2000/svg" viewBox="0 0 841.89 1190.55">
  <defs>
    <style>
      .cls-1 {
        stroke-width: .75px;
      }

      .cls-1, .cls-2, .cls-3, .cls-4, .cls-5, .cls-6, .cls-7, .cls-8 {
        stroke-miterlimit: 10;
      }

      .cls-1, .cls-3, .cls-4, .cls-6 {
        stroke: #030404;
      }

      .cls-1, .cls-4, .cls-9 {
        fill: #030404;
      }

      .cls-1, .cls-10 {
        font-family: ContemporaScript-Regular, 'Contempora Script';
        font-size: 45px;
      }

      .cls-2, .cls-3, .cls-5, .cls-6, .cls-10, .cls-7, .cls-8 {
        fill: none;
      }

      .cls-2, .cls-4 {
        stroke-width: 2px;
      }

      .cls-2, .cls-7, .cls-8 {
        stroke: #a51a17;
      }

      .cls-3, .cls-7 {
        stroke-width: 3px;
      }

      .cls-11 {
        fill: #891814;
      }

      .cls-12 {
        fill: #a51a17;
      }

      .cls-13 {
        fill: #f4dbb3;
        stroke: #f4dbb3;
        stroke-width: 14px;
      }

      .cls-13, .cls-10 {
        stroke-linejoin: round;
      }

      .cls-14 {
        fill: #9b6b4b;
      }

      .cls-15 {
        fill: #eab818;
      }

      .cls-5 {
        stroke: #eab818;
      }

      .cls-5, .cls-6 {
        stroke-width: 4px;
      }

      .cls-10 {
        stroke: #f4dbb2;
        stroke-linecap: round;
        stroke-width: 7px;
      }

      .cls-16 {
        fill: #d89963;
      }

      .cls-8 {
        stroke-width: 5px;
      }
    </style>
  </defs>
  <path class="cls-14" d="M842.63,140.94c-46.64-13.62-244.86-65.22-424.67-17.29-153.07,40.8-203.51,139.62-216.91,210.45-15.03,79.46-11.11,138.76,26.84,227.63,88.05,206.16-148.17,298.5-185.76,536.86-4.52,28.68-5.46,63.69-5.08,94.08l2.51,49.24,837.65-.34,2.01-1090.83-36.6-9.8Z"/>
  <g>
    <path class="cls-16" d="M842.63,118.18c-81.51-18.54-231.34-38.86-372.59-4.01-153.81,37.95-203.51,139.62-216.91,210.45-15.03,79.46-11.11,138.76,26.84,227.63,88.05,206.16-148.17,298.5-185.76,536.86-5,31.72-6.7,71.21-4.92,103.56.69,12.47,3.21,49.07,3.21,49.07l784.72-.17V129.1l-34.59-10.92Z"/>
    <path class="cls-3" d="M877.22,129.1c-58.04-22.57-277.09-56.95-459.26-5.44-152.44,43.1-203.51,139.62-216.91,210.45-15.03,79.46-11.11,138.76,26.84,227.63,88.05,206.16-148.17,298.5-185.76,536.86-4.52,28.68-2.95,112.92-2.57,143.31"/>
  </g>
  <path class="cls-8" d="M858.54,592.53c-2.93,39.5-16.04,67.34-17.37,70.17-30.08,64.21-96.78,112.39-172.21,111.37-105.32-1.43-190.71-87.17-190.71-194.69s85.39-194.69,190.71-194.69c75.2,0,139.44,44.17,170.49,108.72.82,1.7,15.78,33.3,18.48,65.51"/>
  <polygon class="cls-11" points="580.15 -37.98 753.19 -36.92 765.51 478.85 567.86 475.63 580.15 -37.98"/>
  <path class="cls-9" d="M842.63,1130.13s-16.81-.64-44.28.91c-39.14,2.21-93.68,34.57-134.98,34.54-45.66-.03-97.56-35.16-135.08-35.16s-69.28-1.09-69.28-1.09c0,0-5.82.9-9.62-3.15-3.8-4.05-4.47-9.68-4.47-9.68v-39.4s0-9.01,6.49-13.06c6.49-4.05,10.51-3.15,10.51-3.15h380.72l34.92-.09-.33,68.85-34.59.47Z"/>
  <ellipse class="cls-9" cx="669.53" cy="579.38" rx="142.19" ry="146.84"/>
  <line class="cls-6" x1="765.59" y1="481.46" x2="753.19" y2="-37.98"/>
  <line class="cls-6" x1="567.65" y1="486.15" x2="580.15" y2="-37.98"/>
  <g>
    <line class="cls-5" x1="737.05" y1="-37.51" x2="757.24" y2="1117.19"/>
    <line class="cls-5" x1="713.49" y1="-37.16" x2="721.12" y2="1116.35"/>
    <line class="cls-5" x1="685.15" y1="-37.33" x2="685.15" y2="1114.65"/>
    <line class="cls-5" x1="656.8" y1="-37.51" x2="649.16" y2="1117.19"/>
    <line class="cls-5" x1="629.25" y1="-37.98" x2="612.91" y2="1115.79"/>
    <line class="cls-5" x1="600.12" y1="-37.86" x2="576.78" y2="1115.79"/>
    <circle class="cls-15" cx="569.59" cy="1116.35" r="9"/>
    <circle class="cls-15" cx="605.71" cy="1116.35" r="9"/>
    <circle class="cls-15" cx="641.83" cy="1116.35" r="9"/>
    <circle class="cls-15" cx="677.96" cy="1116.35" r="9"/>
    <circle class="cls-15" cx="714.08" cy="1116.35" r="9"/>
    <circle class="cls-15" cx="750.2" cy="1116.35" r="9"/>
  </g>
  <rect class="cls-15" x="549.44" y="1069.49" width="227.85" height="8.9" rx="1.16" ry="1.16"/>
  <g>
    <g>
      <text class="cls-10" transform="translate(81.99 941.35) rotate(-64.73) scale(.62 1)"><tspan x="0" y="0">6</tspan></text>
      <text class="cls-10" transform="translate(89.5 925.42) rotate(-61.79) scale(.62 1)"><tspan x="0" y="0">4</tspan></text>
      <text class="cls-10" transform="translate(98.76 908.33) rotate(-59.94) scale(.62 1)"><tspan x="0" y="0">e</tspan></text>
      <text class="cls-10" transform="translate(103.69 899.81) rotate(-58.87) scale(.62 1)"><tspan x="0" y="0"> </tspan></text>
      <text class="cls-10" transform="translate(109.07 890.83) rotate(-57.63) scale(.62 1)"><tspan x="0" y="0">D</tspan></text>
      <text class="cls-10" transform="translate(119.04 875.18) rotate(-56.76) scale(.62 1)"><tspan x="0" y="0">i</tspan></text>
      <text class="cls-10" transform="translate(123.39 868.53) rotate(-56.32) scale(.62 1)"><tspan x="0" y="0">e</tspan></text>
      <text class="cls-10" transform="translate(128.9 860.26) rotate(-55.9) scale(.62 1)"><tspan x="0" y="0">s</tspan></text>
      <text class="cls-10" transform="translate(136.07 849.68) rotate(-55.65) scale(.62 1)"><tspan x="0" y="0"> </tspan></text>
      <text class="cls-10" transform="translate(142.04 840.94) rotate(-55.57) scale(.62 1)"><tspan x="0" y="0">N</tspan></text>
      <text class="cls-10" transform="translate(151.5 827.15) rotate(-55.74) scale(.62 1)"><tspan x="0" y="0">a</tspan></text>
      <text class="cls-10" transform="translate(158.83 816.38) rotate(-56.01) scale(.62 1)"><tspan x="0" y="0">t</tspan></text>
      <text class="cls-10" transform="translate(162.7 810.72) rotate(-56.59) scale(.62 1)"><tspan x="0" y="0">al</tspan></text>
      <text class="cls-10" transform="translate(174.12 793.42) rotate(-57.88) scale(.62 1)"><tspan x="0" y="0">is</tspan></text>
      <text class="cls-10" transform="translate(184.42 776.92) rotate(-59.28) scale(.62 1)"><tspan x="0" y="0"> </tspan></text>
      <text class="cls-10" transform="translate(190.09 767.42) rotate(-60.76) scale(.62 1)"><tspan x="0" y="0">d</tspan></text>
      <text class="cls-10" transform="translate(197.32 754.44) rotate(-62.51) scale(.62 1)"><tspan x="0" y="0">e</tspan></text>
      <text class="cls-10" transform="translate(202.14 745.14) rotate(-64.03) scale(.62 1)"><tspan x="0" y="0">r</tspan></text>
      <text class="cls-10" transform="translate(205.96 737.32) rotate(-65.82) scale(.62 1)"><tspan x="0" y="0"> </tspan></text>
      <text class="cls-10" transform="translate(210.66 726.88) rotate(-68.4) scale(.62 1)"><tspan x="0" y="0">C</tspan></text>
      <text class="cls-10" transform="translate(215.57 714.26) rotate(-70.84) scale(.62 1)"><tspan x="0" y="0">.</tspan></text>
      <text class="cls-10" transform="translate(218.13 707.19) rotate(-73.92) scale(.62 1)"><tspan x="0" y="0">S</tspan></text>
      <text class="cls-10" transform="translate(222.45 691.65) rotate(-77.4) scale(.62 1)"><tspan x="0" y="0">.</tspan></text>
      <text class="cls-10" transform="translate(224.31 683.96) rotate(-81.62) scale(.62 1)"><tspan x="0" y="0">R</tspan></text>
      <text class="cls-10" transform="translate(226.72 665.84) rotate(-86.25) scale(.62 1)"><tspan x="0" y="0">.</tspan></text>
      <text class="cls-10" transform="translate(227.25 658.16) rotate(-89.87) scale(.62 1)"><tspan x="0" y="0"> </tspan></text>
      <text class="cls-10" transform="translate(227.39 645.39) rotate(-96.33) scale(.62 1)"><tspan x="0" y="0">D</tspan></text>
      <text class="cls-10" transform="translate(224.82 624.19) rotate(-104.45) scale(.62 1)"><tspan x="0" y="0">el</tspan></text>
      <text class="cls-10" transform="translate(219.45 604.1) rotate(-111.87) scale(.62 1)"><tspan x="0" y="0">ft</tspan></text>
    </g>
    <text class="cls-1" transform="translate(81.82 941.22) rotate(-64.73) scale(.62 1)"><tspan x="0" y="0">6</tspan></text>
    <text class="cls-1" transform="translate(89.33 925.3) rotate(-61.79) scale(.62 1)"><tspan x="0" y="0">4</tspan></text>
    <text class="cls-1" transform="translate(98.59 908.2) rotate(-59.94) scale(.62 1)"><tspan x="0" y="0">e</tspan></text>
    <text class="cls-1" transform="translate(103.52 899.68) rotate(-58.87) scale(.62 1)"><tspan x="0" y="0"> </tspan></text>
    <text class="cls-1" transform="translate(108.9 890.7) rotate(-57.63) scale(.62 1)"><tspan x="0" y="0">D</tspan></text>
    <text class="cls-1" transform="translate(118.87 875.06) rotate(-56.76) scale(.62 1)"><tspan x="0" y="0">i</tspan></text>
    <text class="cls-1" transform="translate(123.22 868.4) rotate(-56.32) scale(.62 1)"><tspan x="0" y="0">e</tspan></text>
    <text class="cls-1" transform="translate(128.73 860.13) rotate(-55.9) scale(.62 1)"><tspan x="0" y="0">s</tspan></text>
    <text class="cls-1" transform="translate(135.9 849.56) rotate(-55.65) scale(.62 1)"><tspan x="0" y="0"> </tspan></text>
    <text class="cls-1" transform="translate(141.87 840.82) rotate(-55.57) scale(.62 1)"><tspan x="0" y="0">N</tspan></text>
    <text class="cls-1" transform="translate(151.34 827.02) rotate(-55.74) scale(.62 1)"><tspan x="0" y="0">a</tspan></text>
    <text class="cls-1" transform="translate(158.66 816.26) rotate(-56.01) scale(.62 1)"><tspan x="0" y="0">t</tspan></text>
    <text class="cls-1" transform="translate(162.53 810.59) rotate(-56.59) scale(.62 1)"><tspan x="0" y="0">al</tspan></text>
    <text class="cls-1" transform="translate(173.95 793.29) rotate(-57.88) scale(.62 1)"><tspan x="0" y="0">is</tspan></text>
    <text class="cls-1" transform="translate(184.25 776.8) rotate(-59.28) scale(.62 1)"><tspan x="0" y="0"> </tspan></text>
    <text class="cls-1" transform="translate(189.92 767.29) rotate(-60.76) scale(.62 1)"><tspan x="0" y="0">d</tspan></text>
    <text class="cls-1" transform="translate(197.15 754.31) rotate(-62.51) scale(.62 1)"><tspan x="0" y="0">e</tspan></text>
    <text class="cls-1" transform="translate(201.97 745.01) rotate(-64.03) scale(.62 1)"><tspan x="0" y="0">r</tspan></text>
    <text class="cls-1" transform="translate(205.79 737.19) rotate(-65.82) scale(.62 1)"><tspan x="0" y="0"> </tspan></text>
    <text class="cls-1" transform="translate(210.49 726.76) rotate(-68.4) scale(.62 1)"><tspan x="0" y="0">C</tspan></text>
    <text class="cls-1" transform="translate(215.4 714.13) rotate(-70.84) scale(.62 1)"><tspan x="0" y="0">.</tspan></text>
    <text class="cls-1" transform="translate(217.96 707.07) rotate(-73.92) scale(.62 1)"><tspan x="0" y="0">S</tspan></text>
    <text class="cls-1" transform="translate(222.28 691.52) rotate(-77.4) scale(.62 1)"><tspan x="0" y="0">.</tspan></text>
    <text class="cls-1" transform="translate(224.14 683.83) rotate(-81.62) scale(.62 1)"><tspan x="0" y="0">R</tspan></text>
    <text class="cls-1" transform="translate(226.55 665.72) rotate(-86.25) scale(.62 1)"><tspan x="0" y="0">.</tspan></text>
    <text class="cls-1" transform="translate(227.08 658.04) rotate(-89.88) scale(.62 1)"><tspan x="0" y="0"> </tspan></text>
    <text class="cls-1" transform="translate(227.22 645.27) rotate(-96.33) scale(.62 1)"><tspan x="0" y="0">D</tspan></text>
    <text class="cls-1" transform="translate(224.64 624.03) rotate(-104.46) scale(.62 1)"><tspan x="0" y="0">el</tspan></text>
    <text class="cls-1" transform="translate(219.28 603.97) rotate(-111.87) scale(.62 1)"><tspan x="0" y="0">ft</tspan></text>
  </g>
  <g>
    <g>
      <path class="cls-13" d="M119.75,425.65c-12.27-1.73-23.07-13.97-26.41-22.57-3.82-9.8-1.26-11.88-.66-10.33,5.93,15.63,18.21,27.76,28.09,29.14,6.06.85,9.65-2.71,10.74-10.52,2.47-17.53-14.75-41.9-35.04-62.96-.08,5.19-.11,10.06-.04,14.14.29,8.33-4.35,8.98-4.47,7.5-.2-7.83,0-17.39.24-25.98-15.54-15.51-32.05-28.73-42.38-35.05-1.55,17.99-1.85,36.31-.54,53.57.71,10.02,2.25,17.55,4.16,17.82,1.12.16,2.86-1.87,3.84-3.04,2.34-2.76,3.07-2.17,2.8-1.39-1.65,4.81-4.53,9.12-7.84,8.33-5.03-1.2-6.62-8.41-7.63-20.9-1.36-16.93-1.51-41.34,2.44-69.39,2.13-15.14,5.42-30.45,10.03-45.89l4.3.6c-4.34,14.67-7.63,29.98-9.8,45.44-.49,3.51-1.01,7.17-1.34,10.7l.39-.43c9.62,5.58,25.88,18.27,41.76,33.67.46-9.04,1.01-16.44,1.3-18.51,1.42-7.77,6.11-7.59,5.74-6.18-1.04,5.06-2.08,17.1-2.76,28.87,22.2,22.46,42.14,49.49,39.38,69.09-1.93,13.71-12.49,14.83-16.31,14.29Z"/>
      <path class="cls-13" d="M155.07,346.5c-35.91-9.65-108.67-97.37-133.51-124.04-1.04-1.11,3.22-3.3,4.26-2.19,24.95,26.87,96.84,112.86,130.89,122,8.86,2.38,14.51.57,16.48-6.74,1.55-5.75-.02-12.34-2.2-17.26-1.05-2.28,2.17-1.25,5.38,4.78,1.32,2.52,2.71,7.9,1.33,13.03-2.46,9.17-11.91,13.3-22.63,10.42Z"/>
      <path class="cls-13" d="M144,314.47c-10.25-5.4-20.67-36.73-15.35-46.84,1.88-3.56,5.93-4.7,11.52-3.57-1.31-2.69-2.61-5.74-3.77-8.72-.55-1.38,4.24-2.86,4.71-1.34,6.69,17.35,14.77,29.98,21.89,33.73,3.28,1.73,4.36,1.39,5.56-.89,4.58-8.69-15.97-75.01-30.63-103.47-4.79-8.53-8.61-15.09-10.7-18.01-.98-1.24,3.38-3.31,4.15-2,15.27,26.97,32.86,59.52,49.23,81.98-14.62-26.81-20.28-55.08-19.37-64.42.09-4.32,4.66-5.73,8.22-3.86,5.7,3,14.1,13.98,22.01,24.52,11,14.35,15.99,20.07,17.98,21.12.57.3.86.09,1.01-.19.45-.85-2.31-10.13-9.76-28.79-7.17-18.15-9.27-24.53-7.84-27.24.83-1.57,2.93-2.46,4.93-1.77,6,2.07,13.98,13.19,22.38,17.61,2.71,1.43,4.16.74,6.6-2.16.52-.64,2.08.19.58,3.04-1.65,3.13-4.64,5.01-9.48,2.46-5.84-3.08-13.92-12.61-18.46-15.73-1.49-.97-2.34-1.78-2.71-1.07-.37.71,2.28,7.75,8.5,23.58,8.28,20.55,10.84,28.81,8.96,32.38-1.05,1.99-4.23,2.5-6.37,1.38-4.98-2.63-12.55-12.44-20.19-22.46-11.55-15.37-17.25-21.82-20.38-23.47-.57-.3-1-.53-1.45.33-2.7,5.13,6.72,53.21,34.73,86.71,1.42,1.11,2.76,2,4.05,2.68,1.14.6-1.23,3.72-2.37,3.12-14.38-7.94-32.66-35.4-47.74-60.99,11.46,30.05,22.25,67.58,17.67,76.27-1.88,3.56-6.37,5.19-11.5,2.49-3.27-1.73-6.53-4.53-9.54-8.48,4.06,15.42,4.87,24.94,2.54,29.36-1.88,3.56-6.07,4.62-9.63,2.75ZM143.15,270.17c-.28-.51-.56-1.02-.83-1.53-5.57-2.21-8.1-1.9-9.45.66-4.05,7.69,5.82,38,13.51,42.05,1.57.83,2.45-.16,3.05-1.3,2.1-3.99-.12-18.07-6.28-39.88Z"/>
      <path class="cls-13" d="M225.14,177.88c-12.37-12.44-14.11-39.76-3.5-50.32,3.08-3.06,8.89-2.71,11.95.38,6.58,6.62,4.48,24.14-3.51,32.09-2.05,2.04-5.93,4.08-8.21,4.53,1.58,4.33,3.62,8.21,6.46,11.06,5.45,5.48,10.46,5.72,15.36.84,4.71-4.69,9.2-14.37,10.74-32.26.5-5.76.98-4.68,1.91-4.32,1.38.53,2.76,1.06,1.6,9.91-1.84,14.06-5.68,24.28-11.41,29.98-5.48,5.68-14.47,5.08-21.39-1.88ZM220.75,160.68c1.71-.34,4.22-1.92,5.7-3.4,6.05-6.02,8.6-22.4,3.95-27.08-1.7-1.71-3.41-1.6-5.24.21-5.82,5.79-7.11,18.87-4.41,30.26Z"/>
      <path class="cls-13" d="M256.87,164.62c-3.3-20.56-6.71-82.06-6.41-99.78-.03-1.52,4.6-.91,4.64.61-.41,14.33,1.49,56.22,3.94,82.53,5.96-41.66,12.86-58.13,17.03-60.87,1.88-1.24,5.27-.19,6.51,1.7,1.5,2.29,2,7.16,3.19,16.01,1.57,11.48,2.43,16.89,3.75,18.91,1.33,2.02,3.11,2.39,5.4.89,8.21-5.39,18.22-33.54,22.28-45.83.37-1.2,3.97.47,3.6,1.68-3.43,12.66-13.45,41.38-23.01,47.66-3.77,2.47-9.43,1.19-11.77-2.67-2.52-4.12-3.88-13.24-4.68-20.61-.93-8.44-1.74-13.49-2.09-14.03-.26-.4-.49-.45-.89-.18-2.96,1.94-11.1,23.85-16.95,75.07-.1,1.61-4.65.55-4.55-1.06Z"/>
      <path class="cls-13" d="M313.8,117.7c-8.53-26.68,15.07-74.44,30.86-79.49,5.88-1.71,11.11-.68,15.24,2.73,2.02,1.55-.56,4.07-1.01,3.7-4.08-3.26-7.28-3.76-11.58-2.38-14.92,4.6-37.53,50.19-29.64,74.87,2.45,7.67,7.85,11.35,13.99,9.39,12.57-4.02,39.15-37.19,61.18-73.47.78-1.26,3.54,1.57,2.81,2.99-11.17,18.44-43.15,68.55-62.16,74.62-7.82,2.5-16.56-3.16-19.69-12.97Z"/>
      <path class="cls-13" d="M384.67,83.44c-1.44-7.26,3.88-24.24,11.19-36.19-1.29.09-2.62.03-3.79-.07-1.48-.03-1.98-4.2-.5-4.17,8.3.48,20.36-.76,36.28-4.09,11.84-2.35,22.7-4.67,32.65-9.11,1.36-.6,3.25,3.13,1.89,3.73-11.02,4.82-22.45,7.58-33.19,9.71-6.95,1.38-12.98,2.41-18.57,3.2,2.78,1.58,4.41,4.05,5.14,7.68,2.35,11.84-11.5,33.79-22.4,35.96-4.1.82-7.95-2.03-8.7-6.64ZM391.86,85.79c8.37-1.66,21.78-22.54,20.02-31.38-.88-4.42-2.9-6.32-10.57-6.93-7.34,10.98-13.96,29.69-12.74,35.84.5,2.53,1.07,2.91,3.28,2.47Z"/>
    </g>
    <g>
      <path class="cls-4" d="M120.34,425.77c-12.27-1.73-23.07-13.97-26.41-22.57-3.82-9.8-1.26-11.88-.66-10.33,5.93,15.63,18.21,27.76,28.09,29.14,6.06.85,9.65-2.71,10.74-10.52,2.47-17.53-14.75-41.9-35.04-62.96-.08,5.19-.11,10.06-.04,14.14.29,8.33-4.35,8.98-4.47,7.5-.2-7.83,0-17.39.24-25.98-15.54-15.51-32.05-28.73-42.38-35.05-1.55,17.99-1.85,36.31-.54,53.57.71,10.02,2.25,17.55,4.16,17.82,1.12.16,2.86-1.87,3.84-3.04,2.34-2.76,3.07-2.17,2.8-1.39-1.65,4.81-4.53,9.12-7.84,8.33-5.03-1.2-6.62-8.41-7.63-20.9-1.36-16.93-1.51-41.34,2.44-69.39,2.13-15.14,5.42-30.45,10.03-45.89l4.3.6c-4.34,14.67-7.63,29.98-9.8,45.44-.49,3.51-1.01,7.17-1.34,10.7l.39-.43c9.62,5.58,25.88,18.27,41.76,33.67.46-9.04,1.01-16.44,1.3-18.51,1.42-7.77,6.11-7.59,5.74-6.18-1.04,5.06-2.08,17.1-2.76,28.87,22.2,22.46,42.14,49.49,39.38,69.09-1.93,13.71-12.49,14.83-16.31,14.29Z"/>
      <path class="cls-4" d="M155.65,346.62c-35.91-9.65-108.67-97.37-133.51-124.04-1.04-1.11,3.22-3.3,4.26-2.19,24.95,26.87,96.84,112.86,130.89,122,8.86,2.38,14.51.57,16.48-6.74,1.55-5.75-.02-12.34-2.2-17.26-1.05-2.28,2.17-1.25,5.38,4.78,1.32,2.52,2.71,7.9,1.33,13.03-2.46,9.17-11.91,13.3-22.63,10.42Z"/>
      <path class="cls-4" d="M144.59,314.58c-10.25-5.4-20.67-36.73-15.35-46.84,1.88-3.56,5.93-4.7,11.52-3.57-1.31-2.69-2.61-5.74-3.77-8.72-.55-1.38,4.24-2.86,4.71-1.34,6.69,17.35,14.77,29.98,21.89,33.73,3.28,1.73,4.36,1.39,5.56-.89,4.58-8.69-15.97-75.01-30.63-103.47-4.79-8.53-8.61-15.09-10.7-18.01-.98-1.24,3.38-3.31,4.15-2,15.27,26.97,32.86,59.52,49.23,81.98-14.62-26.81-20.28-55.08-19.37-64.42.09-4.32,4.66-5.73,8.22-3.86,5.7,3,14.1,13.98,22.01,24.52,11,14.35,15.99,20.07,17.98,21.12.57.3.86.09,1.01-.19.45-.85-2.31-10.13-9.76-28.79-7.17-18.15-9.27-24.53-7.84-27.24.83-1.57,2.93-2.46,4.93-1.77,6,2.07,13.98,13.19,22.38,17.61,2.71,1.43,4.16.74,6.6-2.16.52-.64,2.08.19.58,3.04-1.65,3.13-4.64,5.01-9.48,2.46-5.84-3.08-13.92-12.61-18.46-15.73-1.49-.97-2.34-1.78-2.71-1.07-.37.71,2.28,7.75,8.5,23.58,8.28,20.55,10.84,28.81,8.96,32.38-1.05,1.99-4.23,2.5-6.37,1.38-4.98-2.63-12.55-12.44-20.19-22.46-11.55-15.37-17.25-21.82-20.38-23.47-.57-.3-1-.53-1.45.33-2.7,5.13,6.72,53.21,34.73,86.71,1.42,1.11,2.76,2,4.05,2.68,1.14.6-1.23,3.72-2.37,3.12-14.38-7.94-32.66-35.4-47.74-60.99,11.46,30.05,22.25,67.58,17.67,76.27-1.88,3.56-6.37,5.19-11.5,2.49-3.27-1.73-6.53-4.53-9.54-8.48,4.06,15.42,4.87,24.94,2.54,29.36-1.88,3.56-6.07,4.62-9.63,2.75ZM143.73,270.28c-.28-.51-.56-1.02-.83-1.53-5.57-2.21-8.1-1.9-9.45.66-4.05,7.69,5.82,38,13.51,42.05,1.57.83,2.45-.16,3.05-1.3,2.1-3.99-.12-18.07-6.28-39.88Z"/>
      <path class="cls-4" d="M225.72,177.99c-12.37-12.44-14.11-39.76-3.5-50.32,3.08-3.06,8.89-2.71,11.95.38,6.58,6.62,4.48,24.14-3.51,32.09-2.05,2.04-5.93,4.08-8.21,4.53,1.58,4.33,3.62,8.21,6.46,11.06,5.45,5.48,10.46,5.72,15.36.84,4.71-4.69,9.2-14.37,10.74-32.26.5-5.76.98-4.68,1.91-4.32,1.38.53,2.76,1.06,1.6,9.91-1.84,14.06-5.68,24.28-11.41,29.98-5.48,5.68-14.47,5.08-21.39-1.88ZM221.33,160.79c1.71-.34,4.22-1.92,5.7-3.4,6.05-6.02,8.6-22.4,3.95-27.08-1.7-1.71-3.41-1.6-5.24.21-5.82,5.79-7.11,18.87-4.41,30.26Z"/>
      <path class="cls-4" d="M257.46,164.74c-3.3-20.56-6.71-82.06-6.41-99.78-.03-1.52,4.6-.91,4.64.61-.41,14.33,1.49,56.22,3.94,82.53,5.96-41.66,12.86-58.13,17.03-60.87,1.88-1.24,5.27-.19,6.51,1.7,1.5,2.29,2,7.16,3.19,16.01,1.57,11.48,2.43,16.89,3.75,18.91,1.33,2.02,3.11,2.39,5.4.89,8.21-5.39,18.22-33.54,22.28-45.83.37-1.2,3.97.47,3.6,1.68-3.43,12.66-13.45,41.38-23.01,47.66-3.77,2.47-9.43,1.19-11.77-2.67-2.52-4.12-3.88-13.24-4.68-20.61-.93-8.44-1.74-13.49-2.09-14.03-.26-.4-.49-.45-.89-.18-2.96,1.94-11.1,23.85-16.95,75.07-.1,1.61-4.65.55-4.55-1.06Z"/>
      <path class="cls-4" d="M314.38,117.81c-8.53-26.68,15.07-74.44,30.86-79.49,5.88-1.71,11.11-.68,15.24,2.73,2.02,1.55-.56,4.07-1.01,3.7-4.08-3.26-7.28-3.76-11.58-2.38-14.92,4.6-37.53,50.19-29.64,74.87,2.45,7.67,7.85,11.35,13.99,9.39,12.57-4.02,39.15-37.19,61.18-73.47.78-1.26,3.54,1.57,2.81,2.99-11.17,18.44-43.15,68.55-62.16,74.62-7.82,2.5-16.56-3.16-19.69-12.97Z"/>
      <path class="cls-4" d="M385.25,83.55c-1.44-7.26,3.88-24.24,11.19-36.19-1.29.09-2.62.03-3.79-.07-1.48-.03-1.98-4.2-.5-4.17,8.3.48,20.36-.76,36.28-4.09,11.84-2.35,22.7-4.67,32.65-9.11,1.36-.6,3.25,3.13,1.89,3.73-11.02,4.82-22.45,7.58-33.19,9.71-6.95,1.38-12.98,2.41-18.57,3.2,2.78,1.58,4.41,4.05,5.14,7.68,2.35,11.84-11.5,33.79-22.4,35.96-4.1.82-7.95-2.03-8.7-6.64ZM392.45,85.9c8.37-1.66,21.78-22.54,20.02-31.38-.88-4.42-2.9-6.32-10.57-6.93-7.34,10.98-13.96,29.69-12.74,35.84.5,2.53,1.07,2.91,3.28,2.47Z"/>
    </g>
  </g>
  <circle class="cls-12" cx="349.38" cy="973.92" r="13.97"/>
  <ellipse class="cls-12" cx="131" cy="1066.77" rx="9.89" ry="9.87"/>
  <g>
    <path class="cls-7" d="M305.95,1146.16s-18.32,18.25-23.56,30.77c-15.65,37.41-.23,64.99-.23,64.99"/>
    <g>
      <path class="cls-12" d="M359.7,324.47s-7.89-11.93-7.54-16.61c.35-4.68,9.62-17.25,9.62-17.25,0,0,1.33.12,2.31.64.99.52,2.22.68,3.05.68s3.12,1,4,1.84c.88.83,1.78,1.2,1.81.65s.46-1.68-.87-2.63-3.25-1.19-3.43-2.17.14-1.7.14-1.7c0,0,3.52,1.3,5.03.79s2.11-.71,2.23-1.12.93-.13,1.02-.87-.93-.74-1.4-.49-2.52.64-3.88.2-2.59-1.43-2.59-1.43c0,0,2.36-3.46,2.39-4.89s-.23-1.67-.64-1.74-.54.66-.56,1.03-2.59,4.28-2.59,4.28c0,0,.19-1.74-.45-1.78s-.71.38-.71.38c0,0,.2.52.02,1.25-.18.73-3.68,2.33-4.61,2.51-.93.18-1.89.03-2.61.59s-14.3,14.32-14.87,15.44c-.57,1.12-1.43,1.72-1.23,3.94s1.61,10.83,2.53,15.07c.92,4.24,2.83,8.68,2.83,8.68l-.11,1.91s3.73-4.15,6.11-5.53c1.49-.86,5.01-1.66,5.01-1.66Z"/>
      <path class="cls-12" d="M400.73,372.86s5.19,4.42,5.81,6.69c.62,2.27-.73,1.45-.82,2.94-.08,1.49.62,4.51.62,4.51l8.21,2.6s-2.15-8.17-3.9-11.88c-1.75-3.71-3.91-8.57-3.91-8.57l-6.01,3.72Z"/>
      <path class="cls-12" d="M284.34,415.76c-2.05,1.75-1.79,3.33-.73,4.45,2.04,2.14.87,1.34,2.73,2.96,2.92,2.56-.66,1.78-1.6,2.96-1.72,2.17,1.77,4.91,3.27,6.57,1.92,2.13,1.54,2.38,1.61,4.92.07,2.85.91,2.24,2.23,4.05.75,1.04.77.99,1.04,2.23.12.56-1.12,1.13-.81,1.9.34.84,1.17.56,1.74,1.01,2,1.57,4.71,1.39,4.12,4.06-.31,1.41-1.75,1.04-1.46,2.68.16.9,1.71,1.9,2.35,2.43,1.45,1.21,5.72,2.12,4.65,4.46,2.08,1.8,4-.42,5.32,2.53.61,1.37-.56,2.03.67,3.26.93.93,2.86.45,3.93.9,2.46,1.03,3.36,2.4,6.52,3.02,1.69.33,4.26.15,5.83.74,1.84.7,5.38-2.97,9.26.51,1.74,1.57,3.68,1.73,5.61,3.07,1.38.96,2.02,2.66,3.8,2.52,3.22-.25,3.69-2.87,7.02-1.59,1.84.71,2.05,2.1,4.37,1.99,1.68-.08,2.83-.74,4.56-.63,2.91.18,5.75,1.12,8.73,1.03,1.57-.05,3.32-.82,4.83-.54,3.55.66,6.24,4.09,10.23,4.13,2.03.02,3.16-1.12,5.27-.8,1.46.23,2.21,1.19,3.67.77,2.2-.63,2.52-2.34,5.16-2.52,2.48-.17,4.48.71,6.73-.52.82-.45.87-1.37,1.52-1.79,1.31-.83,2.53-.86,4.04-1.13,2.5-.46,3.03-.33,5.17-2.31,1.45-1.34,2.25-1.72,3.95-2.67,1.61-.9,3.57-1.8,4.62-3.55.3-.51.16-1.65.41-1.93,1.41-1.58,2.11-.62,4.06-1.76,1.35-.79-3.31.02-1.7-2.52.84-1.32,6.64-5.71,4.39-7.93,1.3,3.14,2.17,2.33,4.52-3.16,3.13-.45,7.02-5.39,5.13-7.66,4.64-1.14,3-2.32,3.15-5.04.08-1.45.64-2.15,1.03-3.53.69-2.48,1.75-3.5,2.25-5.42.25-.98.94-1.98,1.23-3.04.96-3.52-1.22-1.06-1.93-3.04-.87-2.44,2.14-1.85,2.96-2.88,1.49-1.88.06-4.13-1.48-5.22.85-1.93-.16-5.19.47-8.88.22-1.3,1.5-2.32,1.86-3.63.46-1.67.28-3.03-.14-4.66-2.23-.35-6.01,2.17-7.95,1.38-1.89-.78-7.8-2.97-10.72-2.65-1.53.17-7.9-3.96-12.85-5.62-3.24-1.09-5.61-.85-8.51-2.07-1.86-.78-3.36-3.15-5.59-2.86-2.61.35-3.8,3.58-5.49,5.39-2.66,2.85-2.38,8.54-5.78,7.11-1.61-.68-5.2-2.61-10.7-2.76-2.87-.08-3.32-2.27-7.39-2.72,0,0,2.99-3.55,1.04-8.65-1.95-5.1-7.26-13.59-8.46-18.69-1.21-5.1,7.47-13.65,9.59-13.35s14.89,8.56,16.21,13.39.24,9.14.24,9.14c0,0,5.17.75,6.66-.75,1.48-1.5,7.55-3.4,8.68-6.97,1.13-3.57,1.48-6.44,1.48-6.44,0,0-2.27.53-1.75-.38.52-.9.9-1.16.9-1.16,0,0-7.28-1.43-9.26-.98s-6.56-5.95-8.87-9.62c-2.31-3.67-10.2-12.51-13.66-14-3.46-1.49-5.19-2.14-5.19-2.14,0,0-7.07,4.82-8.56,4.74s-10.89,4.8-10.89,4.8l7.28-13.57.72-2.56s-10.63.11-14.46,8.77c-3.84,8.66-3.99,18.15-4.06,19.45-.07,1.3-1.05,25.47.36,27.04,1.4,1.57-1.92,14.43-1.92,14.43l-35.83,14.4s-4.64-3.61-7.19-1.33c-2.55,2.28.13,4.07-3.24,4.66-3.91.69-8.55-1.98-8.73-1.81-.85.81-4.48,2.93-2.03,6.05"/>
      <path class="cls-12" d="M373.42,330.78s-8.37,7.79-11.34,7.56c-2.97-.22-8.46,2.36-8.46,2.36,0,0,4.92-8.89,5.93-12.18,1.01-3.29,2.06-3.95,2.06-3.95l-.22-2.9,15.06,4.52-3.03,4.59Z"/>
      <path class="cls-12" d="M360.93,319.68c-.1,1.86,3.49,8.64,4.08,9.29.58.65,2.42,3.36,4.54,3.23,2.12-.13,6.43-3.46,7.59-7.44,1.15-3.97,1.73-8.25,1.73-8.25,0,0-2.33-3.86-4.31-2.85s-3.03-.23-3.73-.02-2.56,2.4-3.32,2.8-2.38-.75-2.65-.33-.54,2.95-1.54,3.21-2.38.36-2.38.36Z"/>
      <path class="cls-12" d="M359.8,316.64c.29-1.84,1.46-2.71,1.46-2.71,0,0-1.89-4.02,2.06-8.02,3.95-4,8.62-3.12,10.38-2.34,1.76.78,2.36,1.5,2.36,1.5,0,0,3.82,3.57,3.96,5.5s.59,5.67-.36,6.5c-.95.84-1.62,3.35-1.62,3.35l.84-3.89s-1.53-2.58-3.01-2.59-2.1.36-2.68.32-1.13-.48-1.97-.19-2.78,2.62-3.79,2.75-1.49-.61-1.97-.55-.68,2.27-1.27,2.8c0,0-2.7,1.71-3.54,1.05-.83-.67-1-2.58-.86-3.46Z"/>
      <path class="cls-12" d="M348.73,332.32l.11-1.93s-2.51-5.69-3.84-13.81c-1.32-8.12-1.25-7.6-1.25-7.6,0,0-.15,1.29-2.09,1s-4.3-3.03-4.77-2.97.5-2.21.86-2,1.5-5.13,3-5.42,2.87-.12,3-.58,5.1-.46,6.81.38c1.71.84,5.28.84,5.5.48s2.73.36,3.46,2.26c.73,1.9,1.33,3.71,1.33,3.71,0,0-.21,1.29-3.81,2.3-3.6,1.01-4.7.13-4.7.13,0,0,1.34,6.37,4.31,11.33,2.98,4.96,3.31,5.46,3.31,5.46,0,0-5.66,1.16-7.32,3.08s-3.92,4.18-3.92,4.18Z"/>
    </g>
    <path class="cls-12" d="M353.68,837.02s4.28,3.65,4.81,5.51c.53,1.86-1.46,4.64-3.49,4.72-2.02.08-9.15-1.43-9.39-1.79s-1.48-3.02-1.48-3.02l-.98-23.69s-.19.83-.47-.58c-.28-1.42.73-22.11,1.47-22.44s-1.55-4.89-1.64-7.14.77-14.15-.24-16.66c-1-2.51-.6-10.94-1.36-11.06s-2.18-.81-3.82,2.56c-1.64,3.37-8.27,13.71-8.38,14.77-.11,1.06-5.9,17.22-6.84,19.81-.94,2.59-9.56,23.23-9.56,23.23,0,0-.71.93-1.77.82s-2.44-.8-2.44-.8l-2.17,9.4s-1.62.82-1.56,2.17c.06,1.35.87,2.97,1.22,4.16.35,1.19-.1,4.96-.1,4.96l-3.97,2.12s-1.24-.85-1.67-.53-3.89,4.07-4.93,4.26-7.27,2.1-8.79,1.71-1-2.51-1-2.51c0,0,7.12-9.46,8.2-12.5,1.08-3.05,5.79-16.31,5.79-16.31,0,0-.69,1.38-.76-.27s6.5-20.85,9.48-25.17c2.98-4.33,3.36-13.21,3.3-14.71-.06-1.5,6-18.72,7.03-21.02,1.02-2.3,3.09-3.13,3.55-6.61s1.45-15.83.31-18.04c-1.14-2.21-2.36-2.61-2.63-5.6s-1.65-4.14-2.7-5.6c-1.05-1.46-.68-3.43-1.53-5.94s-2.24-3.4-2.45-4.87c-.21-1.47-.4-5.97-1-5.95s-2.17,1.89-4.3,4.98c-2.13,3.09-3.74,4.06-3.7,4.96s3.5,1.21,3.09,1.98-1.13,5.45-1.73,5.33,5.56,14.64,5.56,14.64c0,0,2.83,4.8,3.69,5.33s1.99.48,2.45,1.98c.46,1.5,2.14,5.49,1.75,5.67s-2.28-.64-2.6-1.47-.3-1.85-.87-1.88-.65,2.05-.64,2.28-.22,4.23-.26,4.69-.92,1-.92,1c0,0,.26,2.19-.4,2.61s-1.1.61-1.1.61c0,0-.84,1.5-1.24,1.29s-1.32-.68-1.32-.68c0,0-1.54-.39-1.5-.78s-.46-2.91-.46-2.91c0,0-1.91.19-1.92-1.5-.01-1.69-.65-8.87-.04-9.24s1.03-2.41.48-3.29-6.27-12.7-7.43-14.79c-1.16-2.09-2.33-1.88-3.88-2.6s-2.49-3-2.5-3.33,2.18-1.78,2.09-2.51-.87-6.1.22-8.29,11.67-16.2,12.56-17.75c.89-1.56,2.14-2.68,5.93-3.68,3.79-1,9.5-1.74,10.8-2.98,1.3-1.24,1.37-.85,1.37-.85,0,0,.95-3.02,2.56-3.6s2.81-.12,2.81-.12c0,0,1.63-.01,1.88-.92s2.57-9.96,4.47-11.73c1.9-1.77,3.45-3.8,5.56-4.4,2.12-.59,1.9-.36,1.9-.36,0,0,.09.84,1.05.86s3.09-.13,5.83,2.13c2.74,2.25,4.5,5.33,6.49,7.05s2.84,1.85,3.39,3.07.96,4.07.17,4.1-2.86,3.05-2.79,3.38-1.19,1.12-1.79.41-.82-2.11-1.69-1.34-.9,2.85-2.27,3.7-2.17,1.89-2.14,2.68c.03.79-.22,1.42-.73,1.44s-.85-.08-.3.97c.55,1.05,3.15,4.81,5.2,10.81,2.05,6,6.11,13.42,6.47,14.9.36,1.49.32,2.39,1.15,2.43s3.65,1.05,3.65,1.05c0,0-1.45,1.19-1.21,1.63s1.59,2.04,1.4,2.95-.23,1.81-.23,1.81c0,0,9.29,13.96,10.82,14.72,1.53.76,6.53,1.61,6.91,1.74s3.72,4.5,3.74,5.1-.12,2.48-.64,2.8-1.33.51-1.79.3-2.17-1.64-2.31-1.33.59,1.63.16,2.17-1.46-.69-2.1-1.64-2.31-1.48-2.76-1.46-2.47-1.63-3.04-2.73c-.57-1.1-14.63-14.27-14.63-14.27,0,0-.99-.26-1.36-.09s-2.04-.22-3.12-1.07c-1.09-.86-3.44-3.31-2.47-3.43s1.81.3,1.16-.95c-.65-1.25-6.09-11.16-6.09-11.16,0,0-.6,7.23.73,10.48,1.34,3.25,6.5,10.94,8.54,22.12,2.04,11.18,1.64,17.96.68,22.05-.96,4.09-1.55,8.85-1.06,9.84.49.99.34,5.39-.07,6.54-.4,1.14-1.5,9.98-1.26,10.3s.24,19.59.94,20.13-2.42,1.34-3,3.73c-.58,2.39-2.26,5.28-1.86,9.43.4,4.15,1.8,7.57,1.8,7.57Z"/>
    <path class="cls-12" d="M149.37,1050.48c0,2.9-1.21,5.75-.68,8.41.88,4.41,1.8,7.46,4.11,11.4s.84,5.05.22,9.2c-.32,2.18,1.44,4.2.62,6.35-.98,2.56,3.14,8.2,4.55,10.39.49.75.23,1.51.75,2.26.19-.32,2.07.13,2.26-.3,2.01.68.44,2.84.54,4.32.21,3.12,2.45,1.28,3.62,3.66.61,1.23-.9,2.58-.42,3.87-.16-.43,2.01,1.55,1.62,1.42.78.26,1.52-.23,2.26-.1,3.73.66,2.55,6.16,6.63,7.44,2.43.76,4.17-.69,6.29.96,1.44,1.12,1.38,1.99,3.38,2.27,1.48.21,2.01-1.23,3.04.9.42.87.01,2.2.17,3.16.61,3.68,4.26,7.86,8.16,7.7,1.65-.07,2.38-1.41,3.92-1.77,2.14-.49,3.85,1.14,5.88,1.51,2.86.52,4.92-.32,7.73.94,1.58.71,2.87,1.81,4.64,1.32,1-.27,1.46-1.56,2.49-1.76.68-.13,1.37.5,2.05.6,1.14.17,2.16.27,3.33.28s3.92-.55,4.8-.03c1.05.61,1.14,2.72,2.04,3.62,2.36-1.99,4.7-7.43,4.7-7.43-2.63-1.39-7.05-6.19-7.47-9.39-.4-3.03.46-6.9.46-10.1,0-4.17-.66-7.95-1.41-11.99-.65-3.46-2.21-4.69,1.92-7.45,1.44-.96.65-3.47.06-4.68-.98-1.99-2.03-2.91-1.46-5.32.46-1.97,1.8-1.93,2.76-3.59,1.19-2.04.1-2.94-.03-4.81-.08-1.14,1-2.87.64-4.23-.48-1.83-2.47-3.26-2.13-5.33.39-2.35,2.3-4.22,3.52-6.45.77-1.41,1.12-2.96,1.47-6.23.91-8.43-5.93-20.77-5.08-26.51,0,0,2.77-10.76,3.57-13.93.8-3.17,1.76-5.88,3.47-7.7s1.26-3.07,1.21-4.17,8.71-20.73,9.05-22.66.45-11.67.45-11.67c0,0-.45-10.21-2.01-14.18s-1.86-5.38-1.86-6.64-.8-2.97-1.16-3.27-.65-2.68.21-3.85c.87-1.17.87-1.96.64-2.11s-1.4-.68-1.96.75-.75,2.57-1.02,3.17-1.02-.3-1.21-.49-7.85-5.58-9.43-5.62-1.85.34-2,1.17,4.38,3.66,6.79,5.39c2.41,1.74,3.92,4.44,5.05,6.78s1.17,14.82,1.17,14.82l-1.85,12s-2.75,5.32-3.21,7.28-5.39,10.26-5.81,10.34-1.13-2.83-.94-3.43,1.21-2.98.91-3.7.49-.83.45-1.55,1.17-9.32-1.06-11.54c-2.23-2.23-2.9-1.96-2.9-1.96,0,0-.23-1.55-1.92-1.96s-7.8,1.12-10.01,4.13c-2.21,3-1.91,5.92-1.78,6.89.4,2.96,1.03,6.51,1.76,7.35.81.92.23,2.72.23,3.47s.23,2.41.6,2.75-.6,2.45-2.68,2.07c-2.07-.38-5.73-6.53-6.75-9.69s-1.51-7.02-1.51-7.02l-.32-8.42s-.21-9.76,1.08-14.93c1.28-5.17,2.34-5.77,4.79-6.26s7.54-.6,8.19-.6,1.81-1.06,1.62-1.58.75-.41,1.4-1.13c.64-.72-.75-1.77-2.15-1.47s-4.98-.04-6.79.72-4.41.94-4.49.15,2.45-3.47,1.66-4.49-1.74-.87-1.74-.87c0,0-1.85,2.87-1.81,3.73s-.79.83-1.96,1.55-4.68,8.68-5.28,12.94-1.05,7.37-1.2,9.81c-.13,2.08-.57,7.72-.75,8.15-.24.57.59,8.71.59,8.83s.68,3.13.72,4.04c.04.91.98,3.62,1.85,4.98s1.21,4.6,1.89,6.22c.68,1.62,2.64,4.68,2.49,6.07-.15,1.4-1.32,3.13-1.7,5.85-.38,2.72,1.66,6.6,1.7,7.13s1.36,3.96,1.3,4.49,0,.94,0,.94l-.05,10.79c0,3.06.37,6.94-1,9.74-1.33,2.72-5.91,8.12-9.44,7.63-.34-1.69,1.9-4.57,1.12-6.06-.5-.97-4.11-2.04-5.12-2.93-3.57-3.13-5.24-6.94-10.32-7.67-2.75-.4-5.09.27-7.74.34-4.09.11-5.12-2.41-5.32-5.92-.29-5.31,1.66-10.35,1.5-15.62l.31-2.14c-.85,1.79-2.56.88-4.09,1.13-2.77.46-2.03,1.8-3.36,3.67-1.53,2.15-3.88.89-5.92,1.97-1.65.87-3.31,3.31-4.3,4.94-1.9,3.15-.57,5.46-1.12,8.66-.35,2.04-.97,3.01-.65,5.26.17,1.17.47,2.14.41,3.44-.09,1.87-.23,4.23-1.23,5.89-.81,1.33-3.01,2.22-1.48,3.97"/>
    <path class="cls-12" d="M500.4,861.55s1.86,1.66,2.11,1.74,1.56,2.11,2.81,2.24,8.04,1.08,11.48,1.12c3.44.04,5.05,0,6.3.5s1.49,3.19,1.66,3.44,1.2,1.57,1.57,1.95.99,1.04,1.62,1.16,1.53.58,2.28,1.41,1.86,1.66,2.73,1.53,3.31,2.65,4.47,2.9,3.73.08,4.51.75c.79.66,1.7,1.86,2.57,2.24s6.42,4.43,7.54,5.67,8.77,10.2,9.84,10.99,4.22,5.09,4.72,6.54,0,2.44.79,3.19.7.58.83,1.28.95,1.49,1.16,1.66-.08.99-.25,1.49-1.37,1.41-1.37,1.41c0,0,.75,3.44.25,4.47s-3.94,4.47-4.39,4.6-2.61,1.49-3.15,1.08-2.49-1.82-2.53-2.65-1.16-2.36-1.24-2.49.83-3.56.95-3.85-.91-.41-.91-.41c0,0-5.27-7.35-12.18-13.48-6.9-6.13-19.55-13.03-19.55-13.03l.17,20.16s-4.53,4.25-8.95,4.69c-4.42.44-7.01.06-7.35-1.1s-3.77-1.13-3.58-1.74-2.02,2.82-1.58,5.91.46,4.09,1.58,6.46c1.13,2.37,1.73,4.03,1.62,7.4s-.55,11.82-1.17,13.1-1.95,1.57-1.95,2.07.29.75.62,2.24-.52,4.18-1.27,4.85.66,2.78-.29,5.67c-.95,2.9-1.79,7.55-1.79,8.01s.25,4.6.79,5.55.95,5.01.54,5.38.25.98,1.12,2.51-.21,2.94.54,5.3,2.11,4.85,2.2,7.04-.37,11.1-.7,13.13.08,9.65.7,11.64.91,4.64.83,4.89.5,5.72,1.04,7.08,1.33,1.33.79,3.89-1.99,7.21-1.95,7.54-5.88,1.2-6.05.75-.37-4.64-1.16-3.81-6.92,4.02-9.98,4.43c-3.07.41-10.19,1.12-10.48-.46-.29-1.57-.21-3.44.95-4.02s4.8-.12,6.38-1.66,3.73-3.69,4.14-6.25l.41-2.57s-4.47.58-4.89-.08-1.17-3.78-.22-7.39c.95-3.6,1.41-4.85.54-8.24s-5.3-28.22-6.05-31.2c-.75-2.98-.71-7.7-1.41-10.52s-5.55-18.27-5.8-25.81c-.25-7.54,4.14-30.07,4.14-30.07,0,0,.91-1.91-.5-1.99s-13.06.22-14.03-.63.63-6.99,1.84-7.9c1.22-.91,1.13-2.21,1.13-2.21,0,0-5.94,3.31-8.81,2.54s-5.27-2.1-5.61-4.92.77-5.36,3.04-7.4c2.26-2.04,3.87-2.37,3.87-1.88s-.44.83.66.44,3.09-.88,4.31-1.99c1.22-1.1,3.48-1.1,3.98-.88s.88.99,1.33-.39c.44-1.38,1.66-1.44,1.99-1.33s.22-.66,1.55-2.37c1.33-1.71,2.87-5.3,3.15-6.3.28-.99,4.53-1.88,4.53-1.88,0,0,2.37-1.27,2.37-2.37s-.83-2.43-.99-2.32-2.15.99-2.82.06-.72-2.65-.66-4.09c.06-1.44-.55-.66-1.16-.77s-.88-.44-.88-1.05,1.38-2.32-.39-2.6l-1.62,1.35s-.46.87-1.57.46-1.78-.17-1.86.04-.95.37-1.28.37-.95-.08-.95-.08c0,0-1.12,0-1.2-.25s-.99-.68-.41-1.89c.58-1.22.7-1.26.46-1.84s-.17-.79-.25-.99.04-1.04.04-1.04c0,0,.37-.21.46-.37s.7-.95.75-1.08.41-.62.54-.7,1.16.21.58-.29-1.2-.83-1.2-.83c0,0-.75-.5.25-1.08s2.82-1.91,2.82-1.91c0,0-1.91-.83-1.91-.99s1.2-.04,1.49,0,.62,1.57,1.74.58c1.12-.99.87-1.53.87-1.53,0,0,.08-.99.66-1.08s.9-.75.8-1.2-1.01-1.66.15-1.08,1.62.91,1.62.91c0,0-.08-.89.25-1.07s1.41-1.58,1.41-1.58c0,0,.95-.17,1.28-.33s1.57-1.24,1.62-1.37.33-1.37.95-1.66.75-.75,1.78-.66,1.78.35,1.86,0,.17-.69.46-.61,1.66.54,1.82.75.41,1.08.46,1.24,1.2,1.12,1.2,1.12c0,0,1.49.41,1.66.5s1.12.95,1.12.95l1.37,1.24,1.74.29.91.37s.04-.21,1.91.75.7,1.33,1.41,2.57.79,1.12.91,1.57.33.29.37.99-.12,2.15.04,2.65.58,1.53.58,1.53l-.25,1.91-.46.95s-.07,1.31-.21,1.86l-.14.55Z"/>
    <path class="cls-7" d="M406.15,956.34s2.43-94.84,36.63-131.22c30.31-32.25,74.31-40.03,74.31-40.03"/>
    <line class="cls-7" x1="434.74" y1="835.55" x2="440.75" y2="818.15"/>
    <path class="cls-12" d="M440.55,822.41s10.96-12.98,4.46-27.18c-4.89-10.68-5.63-21.42-5.53-24.37.03-.8-1.01-1.16-1.49-.52-2.87,3.85-9.1,16.15-6.96,31.12,2.61,18.21,9.52,20.95,9.52,20.95Z"/>
    <line class="cls-7" x1="432.85" y1="681.51" x2="431.47" y2="663.16"/>
    <path class="cls-12" d="M432.98,667.15s4.92-16.26-6.68-26.72c-8.72-7.86-13.66-17.43-14.74-20.18-.29-.75-1.39-.67-1.57.11-1.11,4.67-1.95,18.44,5.95,31.33,9.61,15.68,17.04,15.46,17.04,15.46Z"/>
    <circle class="cls-12" cx="400.24" cy="240.49" r="13.97"/>
    <path class="cls-12" d="M419.18,870.87s27.27-9.33,37.21-20.17c7.66-8.34,7.91-16.76,7.91-16.76,0,0-3.66,4.11-16.16,9.17-3.92,1.59-12.89,4.68-17.53,9.23-5.36,5.26-11.43,18.53-11.43,18.53Z"/>
    <path class="cls-12" d="M542.86,254.47s10.3-26.92,8.35-41.5c-1.5-11.23-7.8-16.81-7.8-16.81,0,0,.81,5.44-3.31,18.29-1.29,4.02-4.67,12.9-4.15,19.37.6,7.48,6.91,20.64,6.91,20.64Z"/>
    <path class="cls-12" d="M324.59,482.1s-10.28,13.09-25.19,9.67c-11.21-2.57-21.67-1.15-24.48-.47-.77.19-1.32-.74-.79-1.33,3.12-3.52,13.69-11.93,28.48-12.85,17.99-1.11,21.98,4.98,21.98,4.98Z"/>
    <path class="cls-12" d="M397.13,481.35s-25.32,13.76-40.03,13.75c-11.32,0-17.69-5.51-17.69-5.51,0,0,5.5.08,17.69-5.7,3.82-1.81,12.17-6.33,18.66-6.67,7.5-.39,21.37,4.12,21.37,4.12Z"/>
    <path class="cls-7" d="M539.67,1036.58s-49.94,1.5-104.34,15.72c-61.38,16.04-129.98,94.54-129.98,94.54,0,0-76.22-21.85-117.75-15.38-41.53,6.47-78.85-.94-77.23-36.43.52-11.31,4.94-28.34,28.89-29.28"/>
    <path class="cls-7" d="M271.85,924.42s-9.61-21.48-3.89-37.93c5.73-16.45,17.35-36.13,39.24-43.94,21.89-7.81,69.52,5.97,87.84,49.14,18.33,43.17,14.2,99.96-14.12,146.15-28.31,46.19-69.33,102.17-69.33,102.17"/>
    <path class="cls-12" d="M310.54,1142.97c3.98-4.38,6.67-9.86,8.95-15.26s4.28-11.29,5.55-17.17,1.21-11.82,1.2-17.73-.45-11.7-1.92-17.38c-1.96-7.55-5.5-14.62-9.21-21.44-.77-1.41-2.93-.15-2.16,1.26,3.27,6.01,6.39,12.18,8.37,18.75,1.61,5.34,2.27,10.83,2.39,16.4.07,3.34,0,6.68-.12,10.02-.09,2.58-.15,5.13-.61,7.67-.99,5.49-2.71,10.88-4.73,16.07-2.32,5.97-5.13,12.26-9.49,17.05-1.08,1.19.68,2.96,1.77,1.77h0Z"/>
    <path class="cls-12" d="M369.99,1057.53c2.24-3.11,2.66-7.61,3.08-11.3.53-4.67.68-9.38.7-14.07.05-11.85-.86-24.12-5.8-35.06-2.97-6.58-8.27-11.63-13.13-16.81-1.1-1.18-2.87.59-1.77,1.77,4.26,4.54,8.85,8.91,11.83,14.45,3.23,6.01,4.77,13.25,5.63,19.97.6,4.69.73,9.42.74,14.15s-.09,9.01-.48,13.49c-.21,2.38-.5,4.76-1.02,7.09-.39,1.75-.87,3.58-1.94,5.06-.94,1.31,1.23,2.56,2.16,1.26h0Z"/>
    <line class="cls-7" x1="421.44" y1="1056.9" x2="435.87" y2="1038.5"/>
    <path class="cls-12" d="M436.49,1039.78s18.17-10.81,16.3-30.16c-1.41-14.55,2.09-27.49,3.4-30.92.36-.94-.71-1.78-1.54-1.22-4.94,3.36-17.27,15.3-20.84,33.78-4.34,22.48,2.68,28.51,2.68,28.51Z"/>
    <circle class="cls-12" cx="553.4" cy="1035.55" r="13.46"/>
    <circle class="cls-12" cx="287.22" cy="895.57" r="9.95"/>
    <circle class="cls-12" cx="274.91" cy="931.19" r="9.95"/>
    <circle class="cls-12" cx="246.01" cy="899.37" r="9.95"/>
    <circle class="cls-12" cx="263.8" cy="854.59" r="9.95"/>
    <path class="cls-7" d="M288.79,853.57s-7.47,2.98-11.51,3.57-8.4-1.56-8.4-1.56"/>
    <path class="cls-7" d="M284.12,890.71s-4.84-10.21-3.91-17.2c.93-7,5.46-16.94,5.46-16.94"/>
    <path class="cls-7" d="M249.57,897.66s9.59,1.59,13.33-2.14,5.06-9.04,5.06-9.04"/>
    <path class="cls-7" d="M378.17,824.16s-4.93,10.24-5.65,18.17c-.72,7.92,1.65,20.03,1.65,20.03"/>
    <path class="cls-12" d="M408.71,788.3c.59-.7-.15-1.72-1-1.38-6.32,2.54-19.82,8.62-25.77,15.86-6.45,7.85-11.49,20.02-4.54,24.22,8.2,4.95,18.62-5.81,21.12-19.87,1.32-7.4,6.94-14.95,10.19-18.82Z"/>
    <path class="cls-12" d="M360.23,1094.76s35.65,8.38,53.67,3.45c13.88-3.8,19.83-12.68,19.83-12.68,0,0-6.71,1.95-23.59-1.06-5.29-.94-17.03-3.68-25.1-1.92-9.32,2.03-24.81,12.21-24.81,12.21Z"/>
    <path class="cls-12" d="M287.69,1026.42s16.81,30.36,18.13,33.74c2.4,6.12,8.11,10.06,14.04,6.7,5.88-3.33,5.41-11.85.88-16.5-3.96-4.07-33.05-23.94-33.05-23.94Z"/>
    <path class="cls-12" d="M534.28,384.09c2.93-5.34,4.29-11.54,5.23-17.51s1.5-12.3,1.25-18.45-1.78-11.89-3.23-17.62-3.22-10.86-5.94-15.84c-3.64-6.67-8.61-12.54-13.68-18.16-1.08-1.2-2.84.58-1.77,1.77,4.45,4.94,8.8,10.05,12.21,15.77,2.77,4.65,4.74,9.65,6.17,14.86.84,3.06,1.54,6.16,2.18,9.27.56,2.69,1.22,5.38,1.44,8.12.45,5.66.04,11.43-.68,17.04-.84,6.57-2.12,13.61-5.35,19.48-.77,1.41,1.38,2.67,2.16,1.26h0Z"/>
    <path class="cls-12" d="M484.82,276.13s23.44,25.6,25.52,28.57c3.76,5.39,10.24,7.89,15.21,3.23,4.94-4.61,2.49-12.79-3-16.25-4.8-3.03-37.73-15.55-37.73-15.55Z"/>
    <g>
      <path class="cls-12" d="M523.17,775.55s-11.16-4.4-12.17-7.34-.57-9.03,1.15-9.93c1.71-.91,6.52-5.65,11.09-4.95,4.57.69,7.47,4.09,8.99,7.31,1.52,3.22,2.04,9.04,2.04,9.04,0,0-3.29-.7-6.44.97-3.14,1.66-4.66,4.9-4.66,4.9Z"/>
      <path class="cls-12" d="M522.95,776.94s-12.18-6.74-13.04-6.31-4.18.4-5.57,2.95c-1.4,2.55.43,12.92,1.99,14.47s6.39,5.34,11.7,1.64c5.31-3.7,7.95-5.64,7.95-5.64,0,0-1.58-2.87-2.18-4.21-.34-.76-.84-2.91-.84-2.91Z"/>
      <path class="cls-12" d="M531.65,788.92s3.85,6.93,3.61,9.24c-.24,2.32-1.16,4.82-4.7,7.06s-5.12-.04-7.54-1.86-3.82.74-5.52-1.1-3.57-6.74-3.06-8.55,12.27-8.52,12.27-8.52c0,0,1.99,2.43,2.68,2.82s2.26.91,2.26.91Z"/>
      <path class="cls-12" d="M535.84,770.42s-1.69-6.94,1.52-8.64c3.21-1.7,10-3.92,14.32,1.66s3.95,9.71.62,12.93-8.3,3.66-8.3,3.66l-2.55-.85s-1.34-3.04-2.83-5.18-2.78-3.59-2.78-3.59Z"/>
      <path class="cls-12" d="M533.16,788.58s4.6,9.56,6.64,10.22c2.04.66,5.32,3.22,8.39,1.6,3.07-1.63,5.34-5.29,6.53-8.57,1.19-3.28-1.06-8.22-4.28-9.99-3.22-1.77-6.07-1.36-7.26-.55-1.19.81-3.3,3.57-4.78,4.91s-5.23,2.39-5.23,2.39Z"/>
      <path class="cls-12" d="M527.17,773.96s4.88-4.75,7.68-1.62c2.79,3.13,3.9,4.42,4.94,6.97,1.04,2.55-2.63,6-3.95,6.55s-4.85,1.25-5.69.61-3.26-3.73-4.36-6.71c-1.11-2.99,1.38-5.81,1.38-5.81Z"/>
    </g>
    <g>
      <path class="cls-12" d="M520.98,152.39s-8.15-5.89-8.35-8.48c-.21-2.6,1.41-7.44,2.99-7.82s6.47-3.23,10.03-1.72,5.21,4.88,5.78,7.8-.22,7.76-.22,7.76c0,0-2.53-1.25-5.43-.55s-4.8,3.01-4.8,3.01Z"/>
      <path class="cls-12" d="M520.51,153.48s-8.48-8-9.27-7.83-3.47-.54-5.13,1.23c-1.66,1.78-2.33,10.57-1.4,12.16.94,1.59,4.07,5.66,9.16,3.77,5.08-1.9,7.62-2.92,7.62-2.92,0,0-.69-2.66-.9-3.87-.12-.69-.08-2.54-.08-2.54Z"/>
      <path class="cls-12" d="M525.08,165s1.68,6.42,1.01,8.25c-.67,1.83-1.94,3.67-5.28,4.75-3.34,1.08-4.14-1.09-5.73-3.08-1.59-1.99-3.25-.19-4.25-2.04-1-1.85-1.49-6.21-.71-7.57.79-1.36,11.73-4.37,11.73-4.37,0,0,1.11,2.38,1.59,2.85s1.65,1.21,1.65,1.21Z"/>
      <path class="cls-12" d="M532.32,150.86s.07-5.98,3.03-6.69c2.96-.71,8.93-1.1,11.28,4.32,2.35,5.42,1.19,8.7-2.18,10.62s-7.5,1.25-7.5,1.25l-1.89-1.22s-.45-2.75-1.22-4.79-1.51-3.49-1.51-3.49Z"/>
      <path class="cls-12" d="M526.38,165.04s1.74,8.71,3.26,9.67,3.65,3.72,6.48,3.04,5.43-3.19,7.08-5.6c1.65-2.42.85-6.89-1.4-9s-4.65-2.36-5.78-1.95c-1.13.41-3.42,2.21-4.9,2.99s-4.74.85-4.74.85Z"/>
      <path class="cls-12" d="M524.55,151.93s4.95-2.84,6.57.28c1.62,3.12,2.25,4.4,2.56,6.68.31,2.29-3.38,4.32-4.57,4.5-1.18.18-4.2,0-4.74-.68s-1.87-3.7-2.15-6.35c-.28-2.65,2.33-4.42,2.33-4.42Z"/>
    </g>
    <g>
      <path class="cls-12" d="M310.73,272.24s-5.17-10.48-8.1-11.22c-2.94-.74-8.8.18-9.55,1.91-.74,1.74-4.95,6.78-3.91,11.17,1.04,4.38,4.58,6.92,7.82,8.13,3.25,1.22,8.94,1.25,8.94,1.25,0,0-.94-3.14.42-6.32,1.36-3.18,4.38-4.92,4.38-4.92Z"/>
      <path class="cls-12" d="M312.06,271.91s-7.53-11.27-7.17-12.15c.35-.88.05-4.09,2.41-5.65,2.36-1.56,12.57-.62,14.2.76,1.63,1.38,5.7,5.77,2.54,11.22s-4.83,8.17-4.83,8.17c0,0-2.91-1.3-4.26-1.78-.77-.27-2.89-.58-2.89-.58Z"/>
      <path class="cls-12" d="M324.39,279.39s7.03,3.17,9.26,2.76,4.58-1.51,6.47-5.13c1.89-3.62-.45-4.96-2.41-7.17s.41-3.76-1.51-5.27c-1.92-1.51-6.83-2.92-8.54-2.28s-7.28,12.59-7.28,12.59c0,0,2.52,1.73,2.96,2.38s1.06,2.12,1.06,2.12Z"/>
      <path class="cls-12" d="M306.77,284.94s-6.87-1.08-8.26,2.18c-1.39,3.26-3,10.02,2.77,13.76,5.76,3.74,9.74,3.05,12.6-.44,2.86-3.49,2.88-8.35,2.88-8.35l-1.03-2.41s-3.06-1.05-5.25-2.33c-2.19-1.28-3.71-2.41-3.71-2.41Z"/>
      <path class="cls-12" d="M324.18,280.88s9.65,3.69,10.45,5.62c.8,1.93,3.55,4.9,2.23,8.01s-4.71,5.61-7.79,7.03c-3.09,1.42-8.06-.36-10.04-3.35-1.98-2.98-1.81-5.79-1.12-7.01.69-1.22,3.2-3.49,4.38-5.04,1.18-1.55,1.89-5.27,1.89-5.27Z"/>
      <path class="cls-12" d="M309.32,276.11s-4.32,5.25-.98,7.77c3.34,2.52,4.72,3.52,7.34,4.34,2.62.82,5.75-3.12,6.19-4.47.44-1.36.84-4.93.14-5.71-.7-.78-3.97-2.93-7.03-3.79s-5.66,1.86-5.66,1.86Z"/>
    </g>
    <g>
      <path class="cls-12" d="M329.37,572.7s.6-13.99,3.46-16.22c2.86-2.23,9.74-4.06,11.39-2.51s8.71,5.05,9.69,10.35c.98,5.31-1.68,9.8-4.65,12.7-2.97,2.9-9.2,5.69-9.2,5.69,0,0-.49-3.9-3.52-6.73-3.03-2.84-7.18-3.28-7.18-3.28Z"/>
      <path class="cls-12" d="M327.74,572.99s2.81-16,2-16.79-2.03-4.46-5.37-5.03c-3.34-.57-14.09,5.39-15.21,7.7s-3.46,9.08,2.64,13.54c6.1,4.46,9.24,6.62,9.24,6.62,0,0,2.57-2.84,3.81-4.01.71-.67,2.89-2.03,2.89-2.03Z"/>
      <path class="cls-12" d="M317.84,587.15s-6.18,6.88-8.83,7.5-5.76.56-9.58-2.5c-3.82-3.06-1.91-5.66-.82-9.03,1.09-3.37-2.27-3.93-.88-6.51,1.38-2.58,6.08-6.5,8.27-6.63,2.19-.13,14.07,10.29,14.07,10.29,0,0-1.93,3.12-2.09,4.03-.17.92-.14,2.84-.14,2.84Z"/>
      <path class="cls-12" d="M340.25,584.32s7.01-4.5,10.11-1.6c3.1,2.9,8.13,9.54,3.62,16.43-4.51,6.89-9.21,8.05-14.03,5.61s-7.2-7.77-7.2-7.77l-.04-3.14s2.85-2.63,4.64-5.09c1.79-2.46,2.9-4.43,2.9-4.43Z"/>
      <path class="cls-12" d="M318.79,588.68s-8.8,8.71-8.75,11.21-1.53,7.09,1.43,9.86,7.87,3.88,11.94,3.94c4.07.06,8.67-4.29,9.39-8.52.73-4.23-.81-7.22-2.16-8.22-1.35-1-5.19-2.28-7.23-3.41-2.04-1.13-4.62-4.86-4.62-4.86Z"/>
      <path class="cls-12" d="M333.08,576.02s7.15,3.61,4.74,7.92c-2.41,4.3-3.42,6.04-5.85,8.17-2.44,2.13-7.68-.63-8.8-1.88s-3.25-4.92-2.86-6.09c.38-1.17,2.89-5.05,5.79-7.43s6.99-.69,6.99-.69Z"/>
    </g>
    <path class="cls-7" d="M311.01,566.75s-22.47-9.7-16.34-42.89c3.16-17.13,18.81-42.55,45.96-46.47,57.13-8.24,79.27,15.68,93.85,49.59,19.24,44.75,18.89,134.37-25.55,209.46-43.36,73.27-1.87,194.75-1.87,194.75"/>
    <path class="cls-7" d="M449.62,510.11s-9.85,10.24-10.57,18.17c-.72,7.92,2.22,19.71,2.22,19.71"/>
    <path class="cls-12" d="M486.25,480.79c.73-.55.23-1.71-.67-1.57-6.72,1.07-21.24,4.01-28.64,9.75-8.03,6.22-15.64,16.98-9.8,22.61,6.9,6.64,19.44-1.54,25-14.69,2.92-6.92,10.08-13.04,14.11-16.1Z"/>
    <path class="cls-7" d="M317.78,268.94s19.41-49.5,48.41-70.19c14.18-10.11,23.53-17.92,64.02-18.46,39.19-.52,90.45,11.11,111.19,72.85,22.7,67.59,5.52,146.79-51.32,167.74-19.4,7.15-66.26,22.82-51.38,113.16"/>
    <path class="cls-2" d="M400.24,240.49s4.48-39.6,31.54-51.34c23.93-10.39,38.31-4.4,38.31-4.4"/>
  </g>
  <path class="cls-7" d="M524.81,220.68s-8.95-24.22-5.26-42.39c3.69-18.17,3.19-11.7,3.19-11.7"/>
</svg>