<svg xmlns="http://www.w3.org/2000/svg" viewBox="0 0 863.8 667"><defs><style>.a{fill:#001e61;}.b{fill:#fff;}</style></defs><title>Logo4</title><path class="a" d="M634,273a60.08,60.08,0,0,1-73.4-9.3l-99-100.1a43.47,43.47,0,0,1-12.5-30.5V87h53V53h-53V0h-34V53h-53V87h53v46.2a43.14,43.14,0,0,1-12.6,30.5L303.4,263.8a60.22,60.22,0,0,1-73.5,9.3L72,179l88.1,315s137.5-28.2,271.7-28.2S703.5,494,703.5,494l88.1-315ZM165.6,448.4L110.9,255.7a1.47,1.47,0,0,1,2.5-1.4c7.8,7.8,30.8,53.8,54.2,193.7A1,1,0,0,1,165.6,448.4Z" transform="translate(0 0)"/><path class="a" d="M170,225.7l63.3,37.1a53.11,53.11,0,0,0,64.5-8.3l43-43.2L247.1,139Z" transform="translate(0 0)"/><circle class="a" cx="72.4" cy="169.7" r="40.7"/><circle class="a" cx="244.4" cy="113.7" r="40.7"/><path class="a" d="M432,476c-134,0-269.4,28-269.4,28l11.2,41.4C306,518.6,432,518,432,518s125.9,0.6,258.1,27.5l11.1-41.4C701.2,504,566,476,432,476Z" transform="translate(0 0)"/><path class="a" d="M693.8,225.7l-63.3,37.1a53.11,53.11,0,0,1-64.5-8.3l-43-43.2,93.7-72.2Z" transform="translate(0 0)"/><circle class="a" cx="791.3" cy="169.7" r="40.7"/><circle class="a" cx="619.3" cy="113.7" r="40.7"/><path class="b" d="M211.2,387.4c-5.1-36,16.5-67.7,55.2-73.2,16.1-2.3,28.8-.7,38.9,3.8l4.2,29.4L294,349.6c-1.3-2.6-3.3-11.8-4.4-18.9a57.43,57.43,0,0,0-21.2-.7c-25.8,3.6-39.6,25.3-35.7,52.9,4,28.3,22.8,45.4,49.8,41.6a57.77,57.77,0,0,0,22-8.1,162.46,162.46,0,0,1-1.5-21.2l15.5-2.2,4.2,29.4c-5.6,6.7-22.4,15.6-39.5,18.1C243,446.1,216.1,421.9,211.2,387.4Z" transform="translate(0 0)"/><path class="b" d="M336.3,420.2c-0.6-7.9,5-14.1,12.9-14.7s14.4,4.6,15,12.5A14,14,0,0,1,336.3,420.2Z" transform="translate(0 0)"/><path class="b" d="M376.6,421.7l-0.7-29.1,15.7-.4a152.69,152.69,0,0,1,1.9,19.1c5,1.9,11.5,3.2,20.6,3,13.8-.3,22.3-9,22-18.6-0.3-13.3-13.5-17.7-27.5-23.3-17.1-6.4-31.7-14-32.2-35.7-0.5-20.7,16.3-33.4,38.6-34,19-.5,31.1,4.2,35.8,7.6l0.7,28.9-15.7.4a166.57,166.57,0,0,1-1.8-18.8c-5-1.9-11.1-2.9-18.7-2.7-11.8.3-19.4,7.3-19.1,16.9,0.3,11.1,9.8,15.3,22.6,20.3,18.4,6.9,36.9,14.6,37.5,38.2,0.5,21-15.9,35.8-41.7,36.5C395.6,430.4,381.7,425.8,376.6,421.7Z" transform="translate(0 0)"/><path class="b" d="M468.9,415.4c0.2-7.9,6.5-13.5,14.4-13.2a13.54,13.54,0,0,1,13.6,14.1c-0.2,7.9-6.5,13.6-14.4,13.4A13.65,13.65,0,0,1,468.9,415.4Z" transform="translate(0 0)"/><path class="b" d="M507,414.9a68.94,68.94,0,0,1,14.7-.2l9.5-93.6a69.27,69.27,0,0,1-14.3-3.1l1.3-12.7,52.5,5.4c27.7,2.8,42.1,15.8,39.9,37.8-2,19.6-16.6,28.5-33.9,28.8v0.4c3.4,2.6,7.5,7.8,12.6,17.8l9.8,18.8c3.6,6.9,7.4,11,15.7,11.8l1.1,0.1a1.21,1.21,0,0,0,1.1-.1l-1.3,12.7a34.59,34.59,0,0,1-11.7.5c-11.6-1.2-17.5-4.8-22.4-15.3l-12.1-25.1c-8.3-17.2-12.2-20-19.9-20.8l-3.1-.3-4,39.1a95.57,95.57,0,0,1,13.2,3l-1.3,12.7-48.6-5Zm57.2-49.7c15.6,1.6,23.7-4.8,25-17.5,1.3-13.2-6.1-20.6-22-22.3L552,323.8l-4,39.6Z" transform="translate(0 0)"/><path class="b" d="M625.9,429.9c1.5-7.8,8.5-12.3,16.3-10.8s12.7,8.2,11.3,16a13.58,13.58,0,0,1-16.3,11C629.4,444.6,624.4,437.7,625.9,429.9Z" transform="translate(0 0)"/><path class="b" d="M432,199.5l-17.7,23.6a11.4,11.4,0,0,0,0,13.8L432,260.5l17.7-23.6a11.4,11.4,0,0,0,0-13.8Z" transform="translate(0 0)"/><path class="b" d="M214.1,504.8l-4.9,9.6a4.27,4.27,0,0,0,.9,5l7.9,7.4,4.9-9.6a4.27,4.27,0,0,0-.9-5Z" transform="translate(0 0)"/><path class="b" d="M323.2,490.4l-5.7,9.2a4.21,4.21,0,0,0,.4,5l7.2,8,5.7-9.2a4.21,4.21,0,0,0-.4-5Z" transform="translate(0 0)"/><path class="b" d="M432.3,485.7l-6.5,8.6a4.2,4.2,0,0,0,0,5l6.5,8.6,6.5-8.6a4.2,4.2,0,0,0,0-5Z" transform="translate(0 0)"/><path class="b" d="M541.2,490.4l-7.2,8a4.21,4.21,0,0,0-.4,5l5.7,9.2,7.2-8a4.21,4.21,0,0,0,.4-5Z" transform="translate(0 0)"/><path class="b" d="M649.9,504.8l-7.9,7.4a4.27,4.27,0,0,0-.9,5l4.9,9.6,7.9-7.4a4.27,4.27,0,0,0,.9-5Z" transform="translate(0 0)"/><path class="a" d="M203.5,562.8a31.81,31.81,0,0,1,15.3-8.6,47.09,47.09,0,0,1,15.9-.9c2.7,0.2,5.6.7,8.5,1.2a12.86,12.86,0,0,0,3.9.3c1-.9,2.2-1.8,3.4-2.8a17,17,0,0,1,10.9-3.5,9.84,9.84,0,0,1,8.3,4.4,8.14,8.14,0,0,1,1.4,3.7c0.8-1.2,1.6-2.3,2.5-3.4a34.64,34.64,0,0,1,7.3-7,33.28,33.28,0,0,1,4.2-2.5,20.18,20.18,0,0,1,5.9-1.8,17.17,17.17,0,0,1,6.4.3,13.53,13.53,0,0,1,6.7,3.9l0.1,0.1a8,8,0,0,1,2.1,6.9,7.73,7.73,0,0,1-5.7,6.2,1.26,1.26,0,0,0-.8.8c-0.7,1.3-1.4,2.6-2.1,3.8,61.3-5.2,107.1-5.5,125.4-5.3,0.5-.8,1-1.5,1.5-2.2l0.1-.1a15.75,15.75,0,0,1,10.3-5.8,13.23,13.23,0,0,1,11.3,4l0.1,0.2a17.59,17.59,0,0,1,2.7,4c30.4,0,98.5,1.6,183.5,12.3a27,27,0,0,1,11.6-8.6,26.21,26.21,0,0,1,18.9-.1l8.7,3.3-7.3,9.8c61.8,9.1,130.5,23.2,199.3,44.8,0,0-144-91.8-432-91.8S0,620,0,620c67.1-21.1,134.2-34.9,194.8-44.1C196.6,570,200.2,566,203.5,562.8Z" transform="translate(0 0)"/><path class="a" d="M326.2,586.9c5.7-.2,10.1,1.1,13.3,3.8a18.84,18.84,0,0,1,6.2,10.6,33.91,33.91,0,0,1,0,14.2,43.11,43.11,0,0,1-5.6,14.3,38,38,0,0,1-10.6,11.3,26.53,26.53,0,0,1-14.9,4.9c-5.6.3-9.9-1-13.1-3.8a20.32,20.32,0,0,1-6.2-10.7,33.91,33.91,0,0,1,0-14.2,45.18,45.18,0,0,1,5.5-14.3,38.94,38.94,0,0,1,10.5-11.3A27.49,27.49,0,0,1,326.2,586.9Zm-6.6,54.3c2.3-.6,4.2-2.2,5.8-5a36.39,36.39,0,0,0,3.7-9.8,58.05,58.05,0,0,0,1.5-12.1,54.14,54.14,0,0,0-.7-11.7,21.28,21.28,0,0,0-3.2-8.5,5.43,5.43,0,0,0-5.7-2.5c-2.3.5-4.3,2.1-5.9,4.8a37.12,37.12,0,0,0-3.7,9.9,59,59,0,0,0-1.5,12.2,48.2,48.2,0,0,0,.8,11.7,22.88,22.88,0,0,0,3.2,8.5C315.4,640.9,317.3,641.7,319.6,641.2Z" transform="translate(0 0)"/><path class="a" d="M397.1,631.9a8.13,8.13,0,0,0,4.2-1.7,20.83,20.83,0,0,0,4.4-4.1,37.92,37.92,0,0,0,4-6.1,59.71,59.71,0,0,0,3.2-7.3,1.94,1.94,0,0,1,1-1.5,1.4,1.4,0,0,1,1.2-.2,1.23,1.23,0,0,1,.8.9,3,3,0,0,1,0,1.9,43.11,43.11,0,0,1-3.1,8.1,45,45,0,0,1-5,7.8,31.69,31.69,0,0,1-6.7,6,16.61,16.61,0,0,1-8,2.7,11.21,11.21,0,0,1-6.3-1.3,9.74,9.74,0,0,1-4.3-5,21.73,21.73,0,0,1-1.5-8.6,42.69,42.69,0,0,1,2.3-12.3c2.5-8,4-13.6,4.5-17s-0.3-5.2-2.2-5.5c-1.3-.2-2.9.6-4.8,2.3s-3.9,4.6-6.1,8.7a122.58,122.58,0,0,0-6.9,16.2,229.61,229.61,0,0,0-7.1,24.7l-0.1-.1h-0.4c-3.8.3-6.6-1.1-8.3-4s-1.9-6.9-.6-12l10.3-40.6,1.4-.1a8.15,8.15,0,0,1,4.1.8,9.25,9.25,0,0,1,3.2,2.7,8.76,8.76,0,0,1,1.8,3.9,8.59,8.59,0,0,1-.1,4.5l-0.4,1.4a44.44,44.44,0,0,1,7.6-10.5,14.36,14.36,0,0,1,9.1-4.3c6.8-.4,10.9,1.8,12.5,6.7s0.9,12.4-2.1,22.4c-2.2,7.4-3.4,12.7-3.5,16C395,630.4,395.7,632,397.1,631.9Z" transform="translate(0 0)"/><path class="a" d="M441.6,612.1a2.84,2.84,0,0,1,1-1.5,1.72,1.72,0,0,1,1.2-.2,1.32,1.32,0,0,1,.9,1,2.55,2.55,0,0,1-.1,1.9,42.92,42.92,0,0,1-9.5,17c-4.1,4.3-8.5,6.5-13.3,6.6a11.33,11.33,0,0,1-6-1.2,8.69,8.69,0,0,1-3.8-4.2,17.77,17.77,0,0,1-1.1-7.4,44,44,0,0,1,1.9-10.7l6.9-23.7a14.78,14.78,0,0,1,4.5-6.7,11.85,11.85,0,0,1,7.2-2.7l6.9-.2c-1.9,6.4-3.7,12.3-5.3,17.8-0.7,2.3-1.4,4.7-2.1,7.1s-1.3,4.6-2,6.7-1.2,4-1.7,5.6-0.8,2.9-1.1,3.7c-1,3.4-1.4,5.8-1,7.2a2.27,2.27,0,0,0,2.3,2.1,5.3,5.3,0,0,0,2.7-1,15.73,15.73,0,0,0,3.6-3.1,35.56,35.56,0,0,0,4-5.6A32,32,0,0,0,441.6,612.1Zm-0.3-39.8a9.07,9.07,0,0,1-5.8,3.4,6.49,6.49,0,0,1-5.5-1.9,8.79,8.79,0,0,1-2.3-6.2,10.66,10.66,0,0,1,2.4-6.8,9.07,9.07,0,0,1,5.8-3.4,6.49,6.49,0,0,1,5.5,1.9,8.79,8.79,0,0,1,2.3,6.2A10.66,10.66,0,0,1,441.3,572.3Z" transform="translate(0 0)"/><path class="a" d="M484.2,630.5a8.76,8.76,0,0,0,4.3-1.3,22.41,22.41,0,0,0,4.7-3.8,38.78,38.78,0,0,0,4.4-5.7,43.4,43.4,0,0,0,3.7-7.1,2.33,2.33,0,0,1,1.1-1.4,1.31,1.31,0,0,1,1.2-.1,1.7,1.7,0,0,1,.8,1,2.65,2.65,0,0,1-.2,1.9,45.46,45.46,0,0,1-3.7,7.8,41.11,41.11,0,0,1-5.6,7.4,30.34,30.34,0,0,1-7.1,5.4,17,17,0,0,1-8.2,2.1,11,11,0,0,1-6.2-1.8,10.17,10.17,0,0,1-3.9-5.3,21.53,21.53,0,0,1-.8-8.7,42.56,42.56,0,0,1,3.3-12.1c3.1-7.8,5.1-13.3,5.8-16.6s0.1-5.2-1.8-5.7c-1.3-.3-3,0.3-5,1.9a34.37,34.37,0,0,0-6.8,8.2,120.93,120.93,0,0,0-8.1,15.6,221.2,221.2,0,0,0-9,24.1l-0.1-.1h-0.4c-3.8,0-6.5-1.6-8-4.6s-1.4-7.1.3-12l13.4-39.7h1.4a7,7,0,0,1,4,1.2,10.37,10.37,0,0,1,3,2.9,9.24,9.24,0,0,1,1.5,4,9.89,9.89,0,0,1-.4,4.5l-0.5,1.4a47.35,47.35,0,0,1,8.4-9.9,14.59,14.59,0,0,1,9.4-3.6c6.8,0.1,10.8,2.6,12,7.7s-0.1,12.4-3.9,22.2c-2.8,7.2-4.4,12.4-4.8,15.7C482.1,628.9,482.7,630.5,484.2,630.5Z" transform="translate(0 0)"/><path class="a" d="M540.7,582.9q11.85,0.75,16.2,9.3c-2.1,5.3-4.2,10.7-6.3,15.9q-2.7,6.75-5.7,14.4c-2,5.1-3.9,9.6-5.4,13.7a23.8,23.8,0,0,0,7.4-2.4,28.44,28.44,0,0,0,6.4-4.5,32.92,32.92,0,0,0,5.3-5.9,46.58,46.58,0,0,0,4-6.8,2.44,2.44,0,0,1,1.2-1.4,2,2,0,0,1,1.3-.1,1.65,1.65,0,0,1,.8,1,2.79,2.79,0,0,1-.3,1.9,44,44,0,0,1-4,7.3,37.37,37.37,0,0,1-5.9,6.8,36.75,36.75,0,0,1-7.9,5.4,31.54,31.54,0,0,1-10,3c-0.7,1.8-1.4,3.3-1.9,4.5a21.83,21.83,0,0,0-.9,2.4c-3.4,7.5-7.5,12.7-12.3,15.7a27.08,27.08,0,0,1-16.9,3.8q-7.2-.45-10.5-4.5a13.13,13.13,0,0,1-3.2-9.2,18.5,18.5,0,0,1,3.7-10.2,20.75,20.75,0,0,1,10.2-7.5,13.06,13.06,0,0,1-5-7.5,27.23,27.23,0,0,1-.5-11.1,46.39,46.39,0,0,1,3.8-12.4,39.07,39.07,0,0,1,8.1-11.3,38,38,0,0,1,12.2-8A35.79,35.79,0,0,1,540.7,582.9ZM506,663.2a7.64,7.64,0,0,0,5.4-1.9,25.33,25.33,0,0,0,5-5.9,66.52,66.52,0,0,0,4.6-8.9c1.4-3.4,2.9-7,4.4-10.8a15.13,15.13,0,0,0-8.2,1.6,26.61,26.61,0,0,0-11.5,11.5,23.14,23.14,0,0,0-2.5,6.7,12.22,12.22,0,0,0,0,5.4A2.81,2.81,0,0,0,506,663.2Zm36.7-73.9a4.14,4.14,0,0,0-1-1.6,3.68,3.68,0,0,0-2.6-1c-2.5-.2-5,0.8-7.5,2.9a35,35,0,0,0-6.9,8.1,65.57,65.57,0,0,0-5.6,10.9,73.78,73.78,0,0,0-3.6,11,27.58,27.58,0,0,0-.9,8.5c0.2,2.3,1.1,3.5,2.6,3.6a5.16,5.16,0,0,0,3.1-.8,16.22,16.22,0,0,0,3.1-2.4,26.8,26.8,0,0,0,2.9-3.6l2.7-4.2a112.94,112.94,0,0,0,5.6-11.5Z" transform="translate(0 0)"/><path class="a" d="M571.2,597.6a13.89,13.89,0,0,1,8.1-8,26.94,26.94,0,0,1,13.8-1.6,12.35,12.35,0,0,1,5.6,1.9,8.56,8.56,0,0,1,3,3.6,4,4,0,0,1,.1,3.2,3.94,3.94,0,0,1-1.8,2,3.1,3.1,0,0,1-2.5.2,3.15,3.15,0,0,1-1.8-2.3c-0.7-2.8-2.3-4.3-4.8-4.6a5.85,5.85,0,0,0-4.3,1.4,6.75,6.75,0,0,0-2.6,4.7,11.25,11.25,0,0,0,1.1,6.2c1,2,2,4.1,3.1,6.3a39.37,39.37,0,0,1,2.7,7.3,21.5,21.5,0,0,1-4.6,18,17.69,17.69,0,0,1-6.6,4.5,23.79,23.79,0,0,1-7.4,1.5,47,47,0,0,1-6.7-.2,23.54,23.54,0,0,1-7.2-1.8,10.5,10.5,0,0,1-4-2.8,6.47,6.47,0,0,1-1.6-3.2,6,6,0,0,1,.2-3,3.84,3.84,0,0,1,1.4-2.2,5.17,5.17,0,0,1,1.9-.8,3.13,3.13,0,0,1,1.9.4,2.74,2.74,0,0,1,1.3,1.3,4.51,4.51,0,0,1,.5,2.4c-0.1.7-.1,1.4-0.2,2a3.29,3.29,0,0,0,.4,1.7,3.19,3.19,0,0,0,1.9,1.3,8.52,8.52,0,0,0,3.6.4,10.48,10.48,0,0,0,3.9-1.5,12.3,12.3,0,0,0,3.6-3.6,17.84,17.84,0,0,0,2.6-5.9,10.7,10.7,0,0,0,.3-5,28.52,28.52,0,0,0-1.3-4.8c-0.6-1.6-1.3-3.2-2-4.8a27,27,0,0,1-1.8-5c-0.9,2-1.9,4.1-2.7,6.1s-1.8,3.8-2.7,5.4a4.79,4.79,0,0,1-1.7,2.1,1.11,1.11,0,0,1-1.3.2,1.67,1.67,0,0,1-.5-1.4,5.6,5.6,0,0,1,.7-2.5C566.1,609.4,569,603,571.2,597.6Z" transform="translate(0 0)"/><path class="a" d="M618.5,632.1a8.48,8.48,0,0,1,1.1,6.5,10.93,10.93,0,0,1-3.6,6.2,8.83,8.83,0,0,1-6.3,2.3,6.19,6.19,0,0,1-5.1-2.9,8.48,8.48,0,0,1-1.1-6.5,10.93,10.93,0,0,1,3.6-6.2,8.46,8.46,0,0,1,6.2-2.3A6.78,6.78,0,0,1,618.5,632.1Zm11.2-42.6,6.1-10.5c2.9-5,6.6-8.4,11.2-10.2a19.05,19.05,0,0,1,13.9-.1l-38.5,51.8-6.1-.9Z" transform="translate(0 0)"/><path class="a" d="M299.1,551a7.48,7.48,0,0,0-3.4-2,9.76,9.76,0,0,0-3.8-.2,18.15,18.15,0,0,0-3.8,1.1,19.31,19.31,0,0,0-3.2,1.9,31.33,31.33,0,0,0-5.9,5.6,51,51,0,0,0-4.5,6.9c-1.3,2.5-2.6,5-3.7,7.6s-2.2,5.2-3.3,7.7-2.1,4.8-3.3,7.2a49.45,49.45,0,0,1-8.1,10.5,15.37,15.37,0,0,1-4.5,1.9l0.9-6c0.7-5.3,1.4-10.5,2.3-15.7a71.69,71.69,0,0,1,3.9-14.2c0.9-.5,1.7-1,2.5-1.4a7.61,7.61,0,0,0,2-2c1-1.3,1.2-2.4.7-3.2a2.93,2.93,0,0,0-2.7-1.2,9.18,9.18,0,0,0-6.4,2.1,53.45,53.45,0,0,0-4.7,4,25,25,0,0,1-8.2-.2,76.85,76.85,0,0,0-7.8-1.1,41.27,41.27,0,0,0-13.6.7,25.14,25.14,0,0,0-12,6.8c-3.2,3.1-5.8,6.2-7,10.5s-0.9,6.5,1.3,9.1c2.4,2.7,7.1,4.9,10.2,6.2,0.6,0.3,1.8-.3,1.3-0.8-9.8-12.2,2.8-17.8,9.2-20.7a37.49,37.49,0,0,1,11.3-3.1,108.69,108.69,0,0,0,11.2-1.8c-0.5.9-1,1.8-1.4,2.7s-0.8,1.9-1.3,2.8a80.28,80.28,0,0,0-4.5,13.6c-1.1,4.7-2,9.4-2.7,14.2s-1.4,9.6-2,14.4-1.4,9.6-2.2,14.3c-0.7,4.2-1.6,8.6-2.7,13a37,37,0,0,1-5.2,12,15.26,15.26,0,0,1-7.8,6.1,11.33,11.33,0,0,1-9.8-.9,13.27,13.27,0,0,1-5.7-6.4,31.09,31.09,0,0,1-2.5-8.6,33.11,33.11,0,0,1-.1-8.9,45.07,45.07,0,0,1,2.1-8.8,37.1,37.1,0,0,1,6.8-11.4,19.6,19.6,0,0,1,4.1-4.1,33.59,33.59,0,0,1,7.3-4.2,21.83,21.83,0,0,1,7.5-1.9,10.42,10.42,0,0,1,1.1-.1,1,1,0,0,0,1-.4,2.14,2.14,0,0,0-.8-1.5,7.88,7.88,0,0,0-1.4-1.2,15.12,15.12,0,0,0-6.1-2.3,17.71,17.71,0,0,0-6.5.3,24.15,24.15,0,0,0-6.9,3.2,14.91,14.91,0,0,0-3.5,3,30.73,30.73,0,0,0-5.3,7A39,39,0,0,0,194,621a41,41,0,0,0-1.6,9.7,53.81,53.81,0,0,0,.5,10.6,42.21,42.21,0,0,0,2.7,10,28.94,28.94,0,0,0,5.1,8.3,20.67,20.67,0,0,0,7.5,5.2,19,19,0,0,0,9.9.8,20.11,20.11,0,0,0,6.8-2.2,30.7,30.7,0,0,0,5.8-4.2,37.82,37.82,0,0,0,4.9-5.6,47.63,47.63,0,0,0,3.9-6.4,76.26,76.26,0,0,0,5.9-15.5c1.4-5.5,2.6-10.9,3.7-16.4l2-10.7a6.84,6.84,0,0,1,4.3-.7,9.69,9.69,0,0,1,4.4,2.8,11.58,11.58,0,0,1,2.3,3.7,22.53,22.53,0,0,1,1.4,4.4,35.45,35.45,0,0,1,.7,4.7c0.2,1.6.3,3,.4,4.3a60.11,60.11,0,0,0,.9,8.3,44,44,0,0,0,2.2,8.1,33.41,33.41,0,0,0,3.7,7.3,23.58,23.58,0,0,0,5.8,6,21.22,21.22,0,0,0,6.8,3.2,11.43,11.43,0,0,0,7.3-.3,11.68,11.68,0,0,0,5.8-4.2c0.1-.1.2-0.4,0.5-0.8a6.11,6.11,0,0,0,.7-1.4,2.4,2.4,0,0,0,.2-1.4c0-.4-0.3-0.6-0.8-0.5a26,26,0,0,1-3.9.5,8.86,8.86,0,0,1-3.9-.6,9.76,9.76,0,0,1-3.5-2.5,28,28,0,0,1-2.5-3.5,51.23,51.23,0,0,1-4.1-8.5c-1.1-3-2.1-6-2.9-8.9-0.6-1.8-1.2-3.7-1.9-5.6s-1.6-3.9-2.5-5.9a30,30,0,0,0-3.3-5.4,25.24,25.24,0,0,0-4.1-4.5,18.26,18.26,0,0,0-5.1-2.9,4.88,4.88,0,0,1,.7-0.3,31.19,31.19,0,0,0,5.5-3.7,58.8,58.8,0,0,0,8.8-8.5c2.7-3.2,5.1-6.4,7.3-9.6a151.32,151.32,0,0,0,8.4-15.4c1.1-2.1,2.2-4.3,3.5-6.6a7.93,7.93,0,0,1,5.2-4.2,0.77,0.77,0,0,0,.5-0.6A0.73,0.73,0,0,1,299.1,551Z" transform="translate(0 0)"/></svg>