<?xml version="1.0" encoding="utf-8"?>
<!-- Generator: Adobe Illustrator 16.0.0, SVG Export Plug-In . SVG Version: 6.00 Build 0)  -->
<!DOCTYPE svg PUBLIC "-//W3C//DTD SVG 1.1//EN" "http://www.w3.org/Graphics/SVG/1.1/DTD/svg11.dtd">
<svg version="1.1" id="Layer_1" xmlns="http://www.w3.org/2000/svg" xmlns:xlink="http://www.w3.org/1999/xlink" x="0px" y="0px"
	 width="440.978px" height="436.478px" viewBox="0 0 440.978 436.478" enable-background="new 0 0 440.978 436.478"
	 xml:space="preserve">
<g>
	<defs>
		<rect id="SVGID_1_" width="440.978" height="436.478"/>
	</defs>
	<clipPath id="SVGID_2_">
		<use xlink:href="#SVGID_1_"  overflow="visible"/>
	</clipPath>
	<path clip-path="url(#SVGID_2_)" fill="#FFFFFF" d="M141.011,106.637c0,0-75.126-26.36-56.109,54.2c0,0-60.881,11.12-53.894,50.027
		c0,0,3.992,46.32,72.857,31.498c0,0-9.48,25.806,30.939,27.997c0,0,24.858-2.254,35.966-21.202l3.578-11.484l89.927-5.788
		c0,0,14.539,31.784,71.136,23.446c0,0,27.446-5.157,34.932-42.615c0,0,35.779-12.439,35.769-43.291c0,0,2.114-35.815-51.737-44.401
		c0,0,10.722-22.08,4.268-36.666c0,0-13.543-34.998-54.93-12.093c-41.357,22.889-184.797,32.084-184.797,32.084"/>
</g>
<g>
	<defs>
		<rect id="SVGID_3_" width="440.978" height="436.478"/>
	</defs>
	<clipPath id="SVGID_4_">
		<use xlink:href="#SVGID_3_"  overflow="visible"/>
	</clipPath>
	<path clip-path="url(#SVGID_4_)" fill="#9D3479" d="M355.582,173.978c-9.19,58.162-67.577,97.264-130.408,87.334
		c-62.832-9.929-106.316-65.127-97.125-123.289c9.19-58.162,67.576-97.263,130.408-87.334
		C321.288,60.618,364.773,115.816,355.582,173.978"/>
	<polyline clip-path="url(#SVGID_4_)" fill="none" stroke="#FFFFFF" stroke-width="4" stroke-miterlimit="10" points="
		201.433,292.875 208.518,320.917 242.556,322.529 254.93,296.843 	"/>
	<path clip-path="url(#SVGID_4_)" fill="#9D3479" d="M126.875,150.115c0,0,5.337,73.207,66.775,149.366
		c0,0,50.854,9.199,62.896,5.491c0,0,110.05-86.561,99.9-155.011L126.875,150.115z"/>
	<path clip-path="url(#SVGID_4_)" fill="#EC6726" d="M351.449,173.325c-8.857,56.049-65.122,93.729-125.671,84.161
		c-60.549-9.567-102.454-62.761-93.597-118.81c8.857-56.049,65.121-93.729,125.671-84.161
		C318.401,64.083,360.307,117.276,351.449,173.325"/>
	<path clip-path="url(#SVGID_4_)" fill="#EC6726" d="M131.035,151.069c0,0,6.089,71.907,65.147,145.116c0,0,6.98,1.365,15.696,2.766
		l10.656,1.541c4.938,0.66,6.32,0.938,11.094,1.296l10.407,0.641c4.644,0.089,8.75-0.171,11.301-0.972
		c0,0,106.755-84.736,96.998-150.536L131.035,151.069z"/>
	<polygon clip-path="url(#SVGID_4_)" fill="#EC6726" points="205.189,316.847 206.979,343.804 239.408,346.839 246.171,320.683 	"/>
	<path clip-path="url(#SVGID_4_)" fill="#FFFFFF" d="M255.814,54.213c0,0-195.46,15.744-43.936,244.738l10.656,1.54l11.094,1.297
		l10.407,0.64C244.035,302.427,426.018,132.898,255.814,54.213"/>
	<path clip-path="url(#SVGID_4_)" fill="#EC6726" d="M255.814,54.111c0,0-108.936,28.075-33.28,246.38l11.094,1.296
		C252.651,275.16,320.723,122.913,255.814,54.111"/>
	<path clip-path="url(#SVGID_4_)" fill="#EC6726" d="M72.981,79.411c0,0,23.198-5.866,42.532,7c0,0,1.817-6.135,5.387-12.43
		c3.571-6.295,8.893-12.75,12.393-16.023c1.091-1.02,1.402-1.443,1.402-1.443S114.7,68.021,113.293,76.744
		C113.293,76.744,87.335,68.744,72.981,79.411"/>
</g>
<g>
	<defs>
		<rect id="SVGID_5_" width="440.978" height="436.478"/>
	</defs>
	<clipPath id="SVGID_6_">
		<use xlink:href="#SVGID_5_"  overflow="visible"/>
	</clipPath>
	<path clip-path="url(#SVGID_6_)" fill="#EC6726" d="M107.778,170.145c0,0,135.283-66.438,262.57,4.535l-1.566,35.875l36.276,15.072
		l-21.176,16.971l10.339,31.69l-34.925-15.943l-0.227-13.389c0,0-81.08-66.984-231.298-6.125l0.72,16.264l-49.311,11.163
		l19.033-30.8l-25.234-20.29L111.628,204L107.778,170.145z"/>
	
		<path clip-path="url(#SVGID_6_)" fill="none" stroke="#9D3479" stroke-width="4" stroke-linecap="round" stroke-linejoin="round" stroke-miterlimit="10" d="
		M107.778,170.145c0,0,135.283-66.438,262.57,4.535l-1.566,35.875l36.276,15.072l-21.176,16.971l10.339,31.69l-34.925-15.943
		l-0.227-13.389c0,0-81.08-66.984-231.298-6.125l0.72,16.264l-49.311,11.163l19.033-30.8l-25.234-20.29L111.628,204L107.778,170.145
		z"/>
	
		<line clip-path="url(#SVGID_6_)" fill="none" stroke="#9D3479" stroke-width="4" stroke-linecap="round" stroke-miterlimit="10" x1="111.628" y1="204" x2="115.678" y2="243.194"/>
	
		<line clip-path="url(#SVGID_6_)" fill="none" stroke="#9D3479" stroke-width="4" stroke-linecap="round" stroke-miterlimit="10" x1="115.678" y1="243.194" x2="127.772" y2="238.831"/>
	
		<line clip-path="url(#SVGID_6_)" fill="none" stroke="#9D3479" stroke-width="4" stroke-linecap="round" stroke-miterlimit="10" x1="368.782" y1="210.555" x2="366.886" y2="250.944"/>
	
		<line clip-path="url(#SVGID_6_)" fill="none" stroke="#9D3479" stroke-width="4" stroke-linecap="round" stroke-miterlimit="10" x1="359.07" y1="244.956" x2="366.887" y2="250.943"/>
</g>
<g>
	<defs>
		<rect id="SVGID_7_" width="440.978" height="436.478"/>
	</defs>
	<clipPath id="SVGID_8_">
		<use xlink:href="#SVGID_7_"  overflow="visible"/>
	</clipPath>
	<path clip-path="url(#SVGID_8_)" fill="#FFFFFF" d="M78.305,355.828c-1.021,0.001-1.991-0.382-2.805-1.104
		c-0.82-0.752-1.29-1.597-1.417-2.531c-0.162-1.192-0.059-3.73,2.206-12.834c2.129-8.634,6.135-19.969,11.906-33.687
		c3.428-8.185,7.694-17.085,12.679-26.451c2.46-4.653,4.33-7.658,5.716-9.183c1.488-1.607,3.056-2.529,4.674-2.75
		c0.196-0.026,0.39-0.04,0.581-0.04c0.747,0,1.455,0.197,2.104,0.586c1.117,0.656,1.804,1.658,1.972,2.889
		c0.139,1.018,0.05,2.17-0.263,3.425c-1.168,4.844-2.169,11.617-2.973,20.115c-1.029,11.237-1.21,21.092-0.541,29.382
		c1.503-6.122,3.262-12.113,5.258-17.908c2.501-7.185,5.982-16.348,10.349-27.242c4.433-11.038,6-13.825,6.792-14.962
		c1.471-2.11,3.227-3.318,5.218-3.589c0.261-0.036,0.506-0.053,0.736-0.053c1.943,0,3.314,1.197,3.578,3.125
		c0.128,0.94-0.08,2.049-0.634,3.39c-0.38,0.953-1.607,3.735-3.743,8.479c-6.827,15.478-11.69,28.252-14.451,37.953
		c-2.523,8.736-4.581,17.343-6.122,25.583c-0.621,3.291-1.46,5.749-2.566,7.516c-1.717,2.812-3.781,4.409-6.125,4.728
		c-0.232,0.032-0.458,0.047-0.679,0.047c-1.594,0-3.746-0.761-4.947-4.388c-0.357-1.005-0.709-2.803-1.092-5.616
		c-1.261-9.241-1.758-19.759-1.48-31.258c0.149-5.486,0.384-10.433,0.704-14.803c-2.346,4.851-5.093,11.225-8.218,19.076
		c-4.322,10.896-7.342,21.049-8.976,30.173c-0.962,5.379-1.483,6.942-1.792,7.65c-1.308,3.108-3.483,4.025-5.075,4.242
		C78.685,355.815,78.493,355.828,78.305,355.828"/>
	<path clip-path="url(#SVGID_8_)" fill="#9D3479" d="M140.498,261.892c0.936,0,1.468,0.465,1.595,1.395
		c0.078,0.574-0.089,1.36-0.5,2.354c-0.379,0.951-1.619,3.759-3.719,8.424c-6.899,15.641-11.75,28.382-14.551,38.226
		c-2.549,8.831-4.604,17.419-6.164,25.764c-0.567,3.01-1.332,5.283-2.295,6.822c-1.407,2.304-2.973,3.571-4.7,3.807
		c-0.14,0.019-0.276,0.028-0.409,0.028c-1.367,0-2.382-1.005-3.048-3.017c-0.318-0.896-0.654-2.647-1.01-5.257
		c-1.251-9.173-1.739-19.487-1.462-30.94c0.272-10.046,0.828-18.155,1.668-24.33c-3.13,4.571-7.477,13.843-13.039,27.815
		c-4.393,11.077-7.422,21.264-9.087,30.561c-0.687,3.847-1.24,6.248-1.656,7.204c-0.769,1.825-1.939,2.845-3.512,3.061
		c-0.103,0.014-0.204,0.021-0.304,0.021c-0.534,0-1.026-0.201-1.476-0.601c-0.446-0.408-0.701-0.844-0.764-1.304
		c-0.199-1.458,0.523-5.484,2.165-12.082c2.114-8.575,6.051-19.708,11.808-33.394c3.421-8.168,7.622-16.931,12.601-26.289
		c2.362-4.467,4.173-7.391,5.431-8.775c1.158-1.252,2.313-1.958,3.465-2.114c0.105-0.015,0.208-0.021,0.309-0.021
		c0.382,0,0.741,0.102,1.078,0.301c0.594,0.351,0.934,0.831,1.018,1.444c0.104,0.77,0.03,1.659-0.223,2.67
		c-1.199,4.972-2.206,11.775-3.023,20.41c-1.272,13.895-1.265,25.565,0.023,35.006c0.178,1.306,0.507,3.294,0.989,5.964
		c1.893-9.913,4.421-19.466,7.587-28.654c2.5-7.183,5.938-16.233,10.314-27.15c3.24-8.066,5.432-12.919,6.577-14.562
		c1.144-1.641,2.426-2.558,3.847-2.752C140.196,261.903,140.352,261.892,140.498,261.892 M140.498,257.892
		c-0.325,0-0.664,0.023-1.007,0.069c-2.568,0.352-4.784,1.84-6.589,4.429c-0.92,1.319-2.548,4.259-7.007,15.357
		c-4.38,10.929-7.872,20.122-10.38,27.326c-0.602,1.749-1.183,3.515-1.742,5.297c0.083-4.932,0.384-10.251,0.904-15.932
		c0.794-8.394,1.78-15.072,2.929-19.837c0.367-1.473,0.47-2.878,0.297-4.148c-0.25-1.833-1.299-3.379-2.954-4.352
		c-0.927-0.554-2.008-0.854-3.105-0.854c-0.281,0-0.567,0.02-0.85,0.059c-2.089,0.284-4.061,1.416-5.861,3.361
		c-1.544,1.698-3.452,4.747-6.03,9.621c-5.009,9.413-9.302,18.37-12.754,26.613c-5.809,13.808-9.848,25.243-12.003,33.981
		c-2.325,9.345-2.453,12.051-2.244,13.58c0.132,0.97,0.59,2.399,2.026,3.713l0.021,0.02l0.021,0.019
		c1.185,1.056,2.615,1.613,4.135,1.613c0.279,0,0.563-0.02,0.844-0.058c1.725-0.235,4.885-1.259,6.658-5.471
		c0.383-0.878,0.926-2.562,1.908-8.053c1.61-8.992,4.594-19.015,8.867-29.79c1.335-3.352,2.598-6.43,3.788-9.229
		c-0.05,1.35-0.095,2.737-0.134,4.161c-0.28,11.618,0.224,22.242,1.498,31.588c0.403,2.959,0.77,4.817,1.189,6.014
		c1.726,5.162,5.351,5.72,6.832,5.72c0.312,0,0.632-0.021,0.949-0.064c2.968-0.405,5.516-2.317,7.574-5.686
		c1.218-1.944,2.145-4.629,2.812-8.167c1.531-8.188,3.575-16.73,6.076-25.395c2.741-9.63,7.573-22.317,14.368-37.721
		c2.813-6.248,3.502-7.875,3.765-8.533c0.686-1.666,0.934-3.105,0.757-4.4C145.66,259.842,143.427,257.892,140.498,257.892"/>
	<path clip-path="url(#SVGID_8_)" fill="#FFFFFF" d="M136.084,342.502c-2.721,0-5.089-0.909-7.037-2.702
		c-1.654-1.563-2.679-3.782-3.066-6.615c-0.953-6.995,1.38-14.32,6.935-21.771c4.635-6.247,8.97-9.568,13.251-10.151
		c0.302-0.041,0.602-0.062,0.897-0.062c1.113,0,2.186,0.287,3.188,0.854c1.673,1.011,2.667,2.534,2.926,4.433
		c0.333,2.441-0.31,5.377-1.965,8.977c-3.039,6.665-8.209,11.854-15.377,15.436c0.076,0.252,0.19,0.459,0.343,0.628
		c0.361,0.402,0.98,0.918,2.355,0.918c0.283,0,0.589-0.022,0.909-0.065c4.168-0.568,8.784-4.748,13.719-12.423
		c1.32-1.99,2.579-2.994,3.975-3.184c0.145-0.021,0.292-0.03,0.438-0.03c0.608,0,1.524,0.178,2.433,1.026
		c0.641,0.646,0.985,1.302,1.081,2.008c0.295,2.162-1.17,5.11-4.899,9.858c-2.594,3.319-5.512,6.176-8.67,8.486
		c-3.281,2.398-6.526,3.831-9.646,4.256C137.266,342.46,136.664,342.502,136.084,342.502 M143.752,312.499
		c-0.367,0.314-0.813,0.737-1.346,1.306c-1.654,1.742-3.074,3.9-4.249,6.452c0.225-0.193,0.435-0.386,0.63-0.578
		C140.962,317.471,142.638,315.049,143.752,312.499"/>
	<path clip-path="url(#SVGID_8_)" fill="#9D3479" d="M147.065,303.201c0.768,0,1.503,0.198,2.204,0.596
		c1.107,0.67,1.75,1.657,1.928,2.961c0.278,2.035-0.323,4.658-1.8,7.871c-3.04,6.669-8.296,11.706-15.768,15.109l0.141,1.035
		c0.115,0.846,0.425,1.547,0.932,2.103c0.936,1.047,2.213,1.57,3.832,1.57c0.375,0,0.768-0.028,1.179-0.084
		c4.798-0.654,9.841-5.096,15.132-13.323c0.94-1.417,1.794-2.18,2.562-2.284c0.056-0.007,0.112-0.011,0.168-0.011
		c0.363,0,0.72,0.162,1.07,0.487c0.272,0.275,0.426,0.549,0.463,0.816c0.204,1.497-1.293,4.281-4.491,8.353
		c-2.497,3.195-5.257,5.897-8.278,8.107c-3.022,2.21-5.934,3.507-8.735,3.889c-0.522,0.071-1.028,0.107-1.519,0.107
		c-2.215,0-4.109-0.725-5.683-2.174c-1.301-1.23-2.114-3.036-2.439-5.416c-0.884-6.486,1.301-13.254,6.556-20.305
		c4.261-5.74,8.233-8.862,11.918-9.365C146.649,303.214,146.858,303.201,147.065,303.201 M134.283,325.074
		c2.561-1.287,4.531-2.611,5.91-3.973c2.403-2.438,4.214-5.069,5.433-7.895c0.45-1,0.625-1.864,0.526-2.593
		c-0.093-0.681-0.431-1.02-1.013-1.02c-0.075,0-0.155,0.005-0.238,0.018c-0.999,0.136-2.316,1.076-3.955,2.824
		C138.006,315.536,135.786,319.748,134.283,325.074 M147.065,299.201c-0.386,0-0.779,0.026-1.168,0.08
		c-4.842,0.659-9.614,4.239-14.59,10.944c-5.874,7.88-8.334,15.698-7.307,23.229c0.449,3.296,1.679,5.914,3.654,7.78l0.019,0.02
		l0.02,0.017c2.329,2.146,5.153,3.232,8.392,3.232c0.669,0,1.361-0.048,2.059-0.144c3.454-0.471,7.006-2.026,10.557-4.625
		c3.306-2.418,6.357-5.402,9.068-8.871c4.144-5.277,5.682-8.569,5.302-11.356c-0.107-0.788-0.469-1.962-1.581-3.088l-0.058-0.058
		l-0.06-0.057c-1.385-1.291-2.83-1.562-3.797-1.562c-0.236,0-0.474,0.016-0.708,0.048c-2.041,0.278-3.539,1.677-4.465,2.81
		c0.22-0.432,0.432-0.87,0.634-1.313c1.813-3.944,2.51-7.241,2.124-10.07c-0.343-2.518-1.664-4.539-3.821-5.844l-0.05-0.03
		l-0.05-0.028C149.933,299.576,148.528,299.201,147.065,299.201"/>
	<path clip-path="url(#SVGID_8_)" fill="#FFFFFF" d="M157.902,340.43c-0.993,0-3.361-0.438-3.914-4.5
		c-0.16-1.176,0.082-2.313,0.721-3.383c0.238-0.43,0.745-1.176,2.393-3.03c2.092-2.448,3.931-4.935,5.443-7.358
		c1.312-2.082,2.266-3.58,2.895-4.541c-0.201-0.943-0.365-1.871-0.487-2.769c-0.146-1.068-0.287-2.405-0.422-3.972
		c-0.287-3.16-0.391-4.146-0.428-4.415c-0.345-2.857-0.275-4.741,0.216-5.957c0.686-1.762,2.056-2.88,3.849-3.124
		c0.213-0.029,0.424-0.044,0.63-0.044c1.004,0,1.952,0.344,2.741,0.995l0.096,0.084c0.923,0.867,1.476,1.928,1.644,3.158
		c0.085,0.62,0.137,1.456,0.16,2.557c0.004,0.273,0.017,0.569,0.037,0.887c0.343-0.506,0.712-1.049,1.106-1.629
		c4.668-6.994,6.737-8.154,8.277-8.364c0.151-0.021,0.301-0.031,0.45-0.031c0.605,0,1.509,0.172,2.369,0.99
		c0.72,0.747,1.13,1.589,1.254,2.5c0.211,1.551-0.411,3.174-1.851,4.822c-3.986,4.648-7.345,9.525-9.979,14.493
		c0.022,0.263,0.041,0.458,0.059,0.587c0.387,2.837,0.71,4.795,0.958,5.817c0.057,0.214,0.116,0.362,0.164,0.461
		c0.305-0.188,1.126-0.863,2.436-3.133c1.812-3.132,3.112-5.658,3.865-7.511c0.403-0.959,1.602-3.811,4.23-4.17
		c0.179-0.024,0.348-0.035,0.509-0.035c1.323,0,2.846,0.793,3.149,3.021c0.209,1.538-0.104,4.313-4.424,12.184
		c-1.778,3.229-3.452,5.785-4.976,7.6c-1.883,2.205-3.9,3.46-6.006,3.748c-0.32,0.043-0.631,0.064-0.932,0.064
		c-1.968,0-4.611-0.886-6.019-5.102c-0.183-0.503-0.369-1.099-0.557-1.788c-0.39,0.653-0.817,1.371-1.281,2.156
		c-4.276,7.283-6.297,8.483-7.844,8.694C158.251,340.418,158.073,340.43,157.902,340.43"/>
	<path clip-path="url(#SVGID_8_)" fill="#9D3479" d="M183.309,296.995c0.354,0,0.684,0.146,0.993,0.439
		c0.364,0.38,0.581,0.82,0.649,1.319c0.13,0.959-0.329,2.038-1.377,3.237c-4.25,4.957-7.754,10.087-10.51,15.389
		c0.045,0.62,0.084,1.045,0.115,1.275c0.398,2.917,0.73,4.924,0.997,6.021c0.364,1.371,1.022,2.057,1.975,2.057
		c0.096,0,0.195-0.008,0.296-0.021c1.152-0.157,2.487-1.551,4.004-4.182c1.867-3.226,3.196-5.812,3.986-7.756
		c0.768-1.826,1.65-2.806,2.649-2.942c0.083-0.011,0.162-0.017,0.237-0.017c0.661,0,1.051,0.431,1.168,1.29
		c0.241,1.767-1.158,5.417-4.195,10.952c-1.724,3.128-3.31,5.554-4.755,7.275c-1.552,1.814-3.133,2.832-4.745,3.052
		c-0.227,0.031-0.448,0.046-0.662,0.046c-1.917,0-3.29-1.245-4.122-3.734c-0.501-1.377-1.027-3.515-1.578-6.411
		c-0.647,0.989-1.94,3.119-3.878,6.394c-2.919,4.973-5.049,7.549-6.393,7.732c-0.09,0.012-0.177,0.018-0.261,0.018
		c-1.036,0-1.681-0.922-1.932-2.769c-0.1-0.729,0.059-1.435,0.473-2.116c0.251-0.464,0.968-1.364,2.154-2.699
		c2.192-2.564,4.074-5.108,5.645-7.63c1.671-2.651,2.783-4.387,3.337-5.205c-0.277-1.174-0.492-2.317-0.644-3.43
		c-0.141-1.038-0.279-2.328-0.411-3.874c-0.235-2.587-0.381-4.091-0.439-4.514c-0.292-2.424-0.262-4.069,0.089-4.938
		c0.434-1.115,1.189-1.745,2.264-1.892c0.122-0.018,0.243-0.025,0.36-0.025c0.545,0,1.034,0.179,1.469,0.538
		c0.582,0.546,0.926,1.203,1.031,1.97c0.073,0.538,0.12,1.313,0.141,2.327c0.016,0.975,0.123,2.192,0.322,3.651
		c0.078,0.574,0.22,1.475,0.426,2.696c0.648-0.986,1.997-2.988,4.049-6.006c3.214-4.815,5.511-7.318,6.893-7.508
		C183.19,296.999,183.25,296.995,183.309,296.995 M183.309,292.995c-0.239,0-0.482,0.017-0.72,0.049
		c-2.369,0.323-4.604,2.153-7.787,6.524c-0.393-0.977-1-1.86-1.797-2.608l-0.094-0.089l-0.1-0.082
		c-1.152-0.949-2.539-1.451-4.013-1.451c-0.297,0-0.6,0.021-0.901,0.063c-2.506,0.342-4.493,1.945-5.45,4.401
		c-0.613,1.519-0.721,3.65-0.333,6.869l0.003,0.031l0.005,0.031c0.022,0.163,0.108,0.914,0.419,4.337
		c0.134,1.569,0.28,2.94,0.431,4.051c0.093,0.685,0.209,1.385,0.346,2.093c-0.612,0.948-1.427,2.23-2.46,3.869
		c-1.463,2.347-3.234,4.742-5.277,7.136c-1.717,1.934-2.289,2.765-2.607,3.334c-0.852,1.442-1.186,3.047-0.968,4.649
		c0.788,5.778,4.712,6.228,5.896,6.228c0.264,0,0.534-0.018,0.801-0.055c2.66-0.362,5.018-2.635,8.454-8.254
		c2.147,3.845,5.489,4.311,6.977,4.311c0.393,0,0.798-0.027,1.202-0.083c2.607-0.354,5.045-1.841,7.245-4.416
		c1.653-1.968,3.352-4.558,5.218-7.943c4.566-8.321,4.935-11.368,4.655-13.422c-0.447-3.282-2.899-4.751-5.131-4.751
		c-0.255,0-0.517,0.019-0.778,0.054c-2.495,0.34-4.445,2.142-5.795,5.354c-0.68,1.672-1.806,3.882-3.365,6.613
		c-0.071-0.488-0.148-1.031-0.23-1.633c2.521-4.654,5.698-9.228,9.456-13.611c1.813-2.075,2.596-4.23,2.303-6.38
		c-0.182-1.333-0.778-2.559-1.724-3.547l-0.065-0.067l-0.068-0.063C185.997,293.528,184.701,292.995,183.309,292.995"/>
	<path clip-path="url(#SVGID_8_)" fill="#FFFFFF" d="M193.139,334.798c-0.487,0-1.357-0.194-2.245-1.102
		c-0.807-0.824-1.608-2.276-1.578-3.662l0.357-6.325c0.423-4.717,1.969-12.174,4.04-19.527c0.404-1.481,1.385-4.521,2.982-9.233
		c-2.952,1.286-3.602,1.517-4.062,1.579c-0.338,0.046-0.666,0.068-0.987,0.068c-0.921,0-1.798-0.185-2.608-0.55
		c-2.127-0.978-2.753-2.519-2.906-3.641c-0.144-1.061-0.027-3.088,2.367-4.773c0.728-0.496,9.624-4.186,10.2-4.418
		c1.07-0.434,2.272-1.017,3.788-1.752c1.112-2.714,2.753-6.019,5.506-11.107c1.615-2.975,2.732-4.885,3.418-5.843
		c1.251-1.717,2.514-2.635,3.872-2.82c0.164-0.023,0.325-0.034,0.487-0.034c0.975,0,1.942,0.387,2.873,1.149
		c1.001,0.826,1.581,1.789,1.727,2.866c0.159,1.157-0.068,3.064-2.956,8.434c-0.294,0.535-0.586,1.081-0.868,1.621
		c2.636-1.001,5.515-1.983,7.207-2.214c0.423-0.058,0.831-0.087,1.213-0.087c2.785,0,4.667,1.611,5.036,4.311
		c0.231,1.706-0.369,3.209-1.692,4.235c-0.471,0.378-1.31,0.835-4.072,1.483l-0.149,0.035l-0.153,0.012
		c-0.661,0.1-4.687,1.362-9.986,3.72c-1.295,0.586-2.591,1.193-3.853,1.807c-2.053,4.499-3.872,9.499-5.412,14.875
		c-1.789,6.172-3.025,12.164-3.781,18.321l-0.817,7.686c-0.152,2.308-2.294,4.976-4.922,4.976
		C195.163,334.887,193.142,334.798,193.139,334.798"/>
	<path clip-path="url(#SVGID_8_)" fill="#9D3479" d="M215.771,263.659c0.502,0,1.037,0.231,1.604,0.695
		c0.598,0.494,0.937,1.024,1.014,1.591c0.154,1.13-0.759,3.535-2.737,7.216c-1.313,2.394-2.542,4.891-3.141,6.346
		c4.649-1.963,9.424-3.726,11.511-4.01c0.335-0.046,0.649-0.069,0.942-0.069c1.802,0,2.819,0.861,3.055,2.581
		c0.136,1-0.177,1.795-0.938,2.386c-0.399,0.32-1.501,0.692-3.303,1.116c-0.746,0.057-5.049,1.396-10.645,3.885
		c-1.544,0.699-3.063,1.415-4.557,2.15c-2.228,4.779-4.168,10.048-5.818,15.809c-2.38,8.21-3.366,14.737-3.844,18.628l-0.82,7.719
		c-0.1,1.511-1.564,3.187-2.933,3.187l-1.926-0.087c-0.839,0-1.945-1.637-1.921-2.722l0.354-6.255
		c0.4-4.449,1.879-11.683,3.969-19.1c0.501-1.84,1.973-6.315,4.415-13.425c-1.133,0.464-7.083,3.164-7.691,3.247
		c-0.245,0.033-0.484,0.05-0.718,0.05c-0.637,0-1.232-0.124-1.784-0.373c-1.04-0.478-1.622-1.174-1.747-2.088
		c-0.148-1.087,0.363-2.042,1.536-2.867c0.324-0.221,7.09-3.103,9.799-4.2c1.296-0.524,2.695-1.218,4.607-2.144
		c1.148-2.946,2.901-6.453,5.697-11.617c1.557-2.87,2.652-4.747,3.285-5.631c0.895-1.228,1.734-1.896,2.517-2.003
		C215.626,263.664,215.698,263.659,215.771,263.659 M215.771,259.659c-0.253,0-0.508,0.017-0.758,0.051
		c-1.925,0.263-3.629,1.444-5.209,3.611c-0.488,0.681-1.366,2.021-3.568,6.078c-2.558,4.726-4.173,7.946-5.303,10.595
		c-1.17,0.565-2.136,1.023-2.986,1.367c-0.094,0.038-9.484,3.875-10.549,4.602l-0.026,0.017l-0.025,0.019
		c-3.261,2.295-3.403,5.169-3.197,6.678c0.312,2.288,1.746,4.129,4.039,5.182c1.095,0.494,2.249,0.739,3.455,0.739
		c0.412,0,0.836-0.029,1.258-0.087c0.167-0.021,0.328-0.051,0.525-0.102c-0.821,2.485-1.366,4.228-1.648,5.264
		c-2.125,7.541-3.659,14.952-4.094,19.794l-0.006,0.066l-0.004,0.065l-0.354,6.255l-0.004,0.069l-0.001,0.07
		c-0.046,2.099,1.079,4.013,2.147,5.104c1.318,1.347,2.686,1.676,3.643,1.703l1.877,0.085l0.089,0.004h0.09
		c3.414,0,6.623-3.179,6.917-6.826l0.81-7.624c0.744-6.042,1.958-11.92,3.712-17.969c1.442-5.033,3.126-9.716,5.018-13.954
		c1.04-0.499,2.099-0.993,3.164-1.474c4.995-2.223,8.606-3.361,9.461-3.555l0.148-0.012l0.301-0.069
		c2.587-0.608,3.912-1.116,4.863-1.867c1.868-1.463,2.753-3.673,2.426-6.069c-0.508-3.726-3.197-6.041-7.018-6.041
		c-0.473,0-0.972,0.035-1.482,0.105c-0.784,0.106-1.771,0.349-2.863,0.673c1.678-3.563,1.931-5.356,1.733-6.801
		c-0.149-1.095-0.692-2.699-2.431-4.136C218.612,260.198,217.22,259.659,215.771,259.659"/>
	<path clip-path="url(#SVGID_8_)" fill="#FFFFFF" d="M192.767,404.367c-1.916,0-3.62-0.813-4.926-2.351
		c-0.998-1.191-1.552-2.654-1.656-4.359c-0.148-2.406,0.338-5.601,1.489-9.765c1.094-3.962,2.8-8.855,5.071-14.546
		c5.821-14.432,12.024-26.585,18.439-36.129c5.5-8.23,10.281-12.36,14.615-12.627c0.131-0.008,0.261-0.013,0.389-0.013
		c1.592,0,3.015,0.623,4.117,1.802c1.136,1.156,1.782,2.598,1.883,4.247c0.364,5.919-3.947,15.455-13.179,29.155
		c-4.035,5.943-8.988,12.009-14.723,18.034c-1.435,1.505-3.375,3.502-5.817,5.992c-0.883,2.812-1.55,5.127-1.985,6.889
		c-0.294,1.194-0.441,1.987-0.513,2.503c0.596-0.392,1.567-1.251,2.965-3.142c0.894-1.24,2.265-3.583,4.061-6.941
		c1.079-2.011,2.449-3.081,4.071-3.18c0.103-0.008,0.203-0.011,0.298-0.011c1.957,0,3.299,1.272,3.418,3.242
		c0.091,1.472-0.446,4.13-5.453,11.671c-4.058,6.149-8.028,9.263-12.134,9.515C193.052,404.362,192.908,404.367,192.767,404.367
		 M222.25,336.338c-1.302,1.229-3.783,4.23-8.021,11.572c-2.657,4.568-5.283,9.812-7.851,15.672
		c4.424-5.494,8.468-11.735,12.082-18.653C220.849,340.356,221.849,337.776,222.25,336.338"/>
	<path clip-path="url(#SVGID_8_)" fill="#9D3479" d="M226.188,326.579c1.043,0,1.929,0.389,2.656,1.168
		c0.828,0.842,1.277,1.843,1.348,3.003c0.332,5.413-3.948,14.718-12.841,27.915c-3.987,5.872-8.824,11.796-14.512,17.772
		c-1.496,1.566-3.54,3.671-6.133,6.313c-0.975,3.087-1.696,5.576-2.162,7.468c-0.466,1.892-0.677,3.205-0.632,3.939
		c0.056,0.913,0.5,1.369,1.33,1.369c0.049,0,0.099-0.001,0.151-0.004c1.392-0.087,3.109-1.511,5.152-4.275
		c0.966-1.34,2.371-3.735,4.217-7.187c0.731-1.363,1.541-2.073,2.431-2.129c0.06-0.003,0.118-0.005,0.175-0.005
		c0.892,0,1.366,0.455,1.422,1.363c0.101,1.663-1.606,5.144-5.124,10.444c-3.658,5.542-7.188,8.415-10.59,8.624
		c-0.104,0.006-0.207,0.009-0.309,0.009c-1.334,0-2.468-0.547-3.401-1.646c-0.711-0.848-1.106-1.911-1.185-3.187
		c-0.132-2.165,0.342-5.202,1.421-9.11c1.08-3.908,2.747-8.687,5.001-14.337c5.795-14.364,11.875-26.283,18.242-35.755
		c5.083-7.607,9.442-11.523,13.077-11.746C226.011,326.582,226.1,326.579,226.188,326.579 M200.258,373.276
		c7.619-7.374,14.278-16.516,19.975-27.421c2.951-5.653,4.373-9.368,4.265-11.147c-0.049-0.807-0.407-1.212-1.071-1.212
		c-0.036,0-0.072,0.002-0.107,0.004c-2.128,0.13-5.735,4.6-10.821,13.411C208.284,354.155,204.203,362.944,200.258,373.276
		 M226.188,322.579c-0.168,0-0.339,0.005-0.512,0.016c-5.07,0.312-10.204,4.605-16.158,13.517
		c-6.485,9.647-12.754,21.925-18.625,36.48c-2.305,5.776-4.035,10.74-5.147,14.769c-1.21,4.38-1.719,7.788-1.558,10.42
		c0.131,2.142,0.842,3.997,2.112,5.512c1.716,2.019,3.946,3.075,6.466,3.075c0.182,0,0.367-0.005,0.554-0.018
		c4.776-0.292,9.252-3.698,13.684-10.412c5.283-7.961,5.899-10.9,5.777-12.892c-0.185-3.014-2.411-5.119-5.414-5.119
		c-0.136,0-0.276,0.004-0.42,0.014c-0.01,0.001-0.021,0.001-0.031,0.002c5.314-5.694,9.931-11.416,13.744-17.03
		c9.626-14.286,13.921-23.944,13.524-30.407c-0.129-2.098-0.977-4.008-2.454-5.527C230.246,323.408,228.33,322.579,226.188,322.579"
		/>
	<path clip-path="url(#SVGID_8_)" fill="#FFFFFF" d="M220.177,402.557c-3.129,0-5.739-1.094-7.758-3.251
		c-1.536-1.684-2.393-3.974-2.567-6.825c-0.431-7.044,2.439-14.177,8.53-21.195c5.087-5.886,9.657-8.877,13.968-9.14
		c0.139-0.01,0.277-0.014,0.414-0.014c1.292,0,2.505,0.372,3.604,1.107c1.591,1.131,2.47,2.723,2.588,4.636
		c0.15,2.461-0.709,5.341-2.627,8.806c-3.524,6.421-9.064,11.213-16.48,14.253c0.057,0.258,0.156,0.473,0.296,0.652
		c0.371,0.482,1.045,1.105,2.735,1.105c0.148,0,0.301-0.004,0.456-0.015c4.198-0.257,9.111-4.083,14.603-11.37
		c1.462-1.886,2.792-2.795,4.201-2.88l0.198-0.006c0.669,0,1.662,0.209,2.589,1.208c0.594,0.697,0.887,1.377,0.931,2.086
		c0.133,2.181-1.547,5.011-5.618,9.469c-2.831,3.117-5.953,5.749-9.276,7.818c-3.446,2.148-6.79,3.336-9.935,3.528
		C220.74,402.548,220.456,402.557,220.177,402.557 M229.109,373.17c-0.391,0.286-0.867,0.675-1.441,1.203
		c-1.777,1.614-3.354,3.661-4.715,6.118c0.239-0.175,0.463-0.352,0.671-0.529C225.958,377.921,227.81,375.63,229.109,373.17"/>
	<path clip-path="url(#SVGID_8_)" fill="#9D3479" d="M232.764,364.132c0.894,0,1.725,0.257,2.491,0.77
		c1.055,0.75,1.623,1.783,1.704,3.098c0.125,2.05-0.669,4.621-2.381,7.714c-3.526,6.426-9.141,11.059-16.844,13.897l0.064,1.044
		c0.052,0.852,0.309,1.573,0.773,2.165c0.959,1.248,2.395,1.872,4.307,1.872c0.188,0,0.382-0.006,0.58-0.019
		c4.832-0.296,10.19-4.351,16.078-12.162c1.043-1.345,1.951-2.04,2.725-2.088c0.026-0.001,0.051-0.002,0.077-0.002
		c0.396,0,0.771,0.188,1.122,0.568c0.251,0.295,0.385,0.579,0.401,0.85c0.093,1.508-1.607,4.173-5.099,7.997
		c-2.727,3-5.68,5.489-8.856,7.469c-3.179,1.98-6.179,3.057-9,3.229c-0.247,0.016-0.49,0.023-0.729,0.023
		c-2.566,0-4.665-0.873-6.299-2.619c-1.206-1.324-1.883-3.183-2.03-5.581c-0.401-6.534,2.281-13.121,8.044-19.762
		c4.674-5.409,8.868-8.228,12.58-8.455C232.57,364.135,232.667,364.132,232.764,364.132 M218.732,385.009
		c2.649-1.094,4.712-2.269,6.188-3.523c2.577-2.254,4.579-4.743,6.004-7.47c0.523-0.964,0.761-1.813,0.716-2.548
		c-0.044-0.73-0.396-1.096-1.054-1.096c-0.039,0-0.078,0.001-0.118,0.004c-1.006,0.062-2.39,0.903-4.153,2.524
		C223.152,375.773,220.626,379.809,218.732,385.009 M232.764,360.132c-0.178,0-0.356,0.005-0.537,0.017
		c-4.877,0.298-9.901,3.516-15.361,9.832c-6.442,7.422-9.476,15.035-9.011,22.622c0.204,3.319,1.235,6.021,3.067,8.03l0.017,0.019
		l0.018,0.02c2.379,2.543,5.567,3.887,9.22,3.887c0.319,0,0.645-0.01,0.975-0.031c3.48-0.213,7.138-1.501,10.87-3.827
		c3.477-2.166,6.74-4.916,9.701-8.174c4.525-4.955,6.304-8.124,6.131-10.932c-0.049-0.791-0.32-1.987-1.345-3.193l-0.056-0.065
		l-0.06-0.064c-1.105-1.193-2.546-1.85-4.056-1.85c-0.107,0-0.215,0.003-0.323,0.01c-2.056,0.126-3.652,1.41-4.66,2.471
		c0.251-0.415,0.495-0.837,0.73-1.265c2.101-3.797,3.041-7.034,2.866-9.883c-0.155-2.537-1.323-4.65-3.377-6.111l-0.047-0.034
		l-0.05-0.032C236.045,360.618,234.459,360.132,232.764,360.132"/>
	<path clip-path="url(#SVGID_8_)" fill="#FFFFFF" d="M249.236,401.337c-1.583,0-3.815-0.608-5.463-3.512
		c-0.832-1.396-1.315-2.948-1.416-4.578c-0.176-2.867,0.727-6.831,2.757-12.119c1.731-4.382,3.223-7.884,4.438-10.428
		c1.188-2.379,1.427-3.071,1.473-3.228l0.046-0.14c0.436-1.17,0.828-2.062,1.2-2.728c0.761-1.421,2.059-2.272,3.637-2.369
		l0.222-0.006c0.949,0,1.832,0.373,2.554,1.079c0.79,0.838,1.211,1.818,1.275,2.896c0.089,1.441-0.302,4.208-4.15,12.878
		c-3.103,6.893-3.72,9.708-3.799,10.801c0.725-0.495,2.172-1.874,4.537-5.706c1.107-1.808,2.266-4.124,3.443-6.884
		c-0.073-0.752-0.122-1.343-0.148-1.771c-0.195-3.203,0.248-6.082,1.323-8.557c1.919-4.437,4.912-5.527,7.085-5.662
		c0.108-0.007,0.213-0.01,0.314-0.01c1.802,0,3.795,1.103,3.983,4.195c0.145,2.329-0.547,5.396-2.105,9.314
		c0.547-0.332,1.246-0.844,2.124-1.631c2.351-2.15,3.384-2.62,4.283-2.674l0.188-0.006c0.938,0,1.845,0.414,2.697,1.229l0.086,0.089
		c0.694,0.752,1.073,1.587,1.126,2.48c0.124,1.998-0.917,4.092-3.181,6.396c-2.483,2.469-5.432,3.816-8.778,4.021
		c-0.162,0.01-0.326,0.015-0.492,0.015c-0.807,0-1.655-0.112-2.563-0.343c-1.859,3.587-3.487,6.284-4.957,8.216
		c-4.239,5.659-7.953,8.518-11.345,8.725C249.498,401.333,249.366,401.337,249.236,401.337"/>
	<path clip-path="url(#SVGID_8_)" fill="#9D3479" d="M268.565,363.296c1.23,0,1.893,0.772,1.987,2.317
		c0.159,2.591-0.962,6.483-3.36,11.674c0.618,0.085,1.138,0.127,1.558,0.127c0.11,0,0.216-0.003,0.313-0.009
		c1.275-0.078,2.889-0.992,4.838-2.741c1.543-1.414,2.565-2.137,3.068-2.168c0.022-0.001,0.045-0.002,0.067-0.002
		c0.405,0,0.845,0.227,1.313,0.675c0.374,0.405,0.574,0.819,0.601,1.244c0.085,1.393-0.786,3.018-2.612,4.875
		c-2.122,2.109-4.614,3.252-7.475,3.429c-0.122,0.007-0.244,0.011-0.37,0.011c-1.038,0-2.229-0.253-3.575-0.76
		c-2.11,4.204-3.956,7.345-5.536,9.421c-3.839,5.125-7.13,7.771-9.875,7.939c-0.091,0.006-0.181,0.009-0.271,0.009
		c-1.536,0-2.777-0.832-3.725-2.499c-0.692-1.159-1.079-2.398-1.159-3.714c-0.157-2.552,0.72-6.311,2.627-11.278
		c1.714-4.335,3.172-7.764,4.377-10.281c0.898-1.802,1.426-2.979,1.587-3.533c0.4-1.072,0.759-1.889,1.073-2.452
		c0.452-0.843,1.123-1.292,2.013-1.346c0.033-0.002,0.067-0.003,0.1-0.003c0.425,0,0.809,0.17,1.153,0.508
		c0.415,0.44,0.643,0.97,0.681,1.588c0.105,1.74-1.222,5.724-3.983,11.946c-2.767,6.146-4.092,10.186-3.973,12.119
		c0.072,1.182,0.55,1.771,1.434,1.771c0.042,0,0.086-0.001,0.13-0.004c1.662-0.101,3.889-2.411,6.678-6.929
		c1.234-2.017,2.495-4.559,3.781-7.625c-0.098-0.964-0.161-1.698-0.191-2.201c-0.178-2.9,0.209-5.446,1.161-7.639
		c1.224-2.83,3.014-4.317,5.373-4.462C268.438,363.299,268.503,363.296,268.565,363.296 M268.565,359.296
		c-0.142,0-0.289,0.005-0.438,0.015c-2.122,0.13-4.856,0.96-7.061,3.844c-0.243-0.412-0.534-0.8-0.871-1.157l-0.055-0.058
		l-0.056-0.056c-1.087-1.066-2.492-1.653-3.956-1.653c-0.113,0-0.229,0.003-0.343,0.01c-2.251,0.138-4.172,1.382-5.276,3.414
		c-0.415,0.749-0.845,1.724-1.314,2.979l-0.052,0.14l-0.041,0.143c-0.014,0.043-0.219,0.643-1.326,2.863l-0.015,0.029l-0.014,0.029
		c-1.251,2.616-2.72,6.063-4.488,10.536c-2.149,5.6-3.093,9.837-2.9,12.995c0.119,1.938,0.689,3.781,1.695,5.481
		c2.234,3.902,5.457,4.486,7.182,4.486c0.169,0,0.342-0.006,0.515-0.016c4.068-0.249,8.146-3.279,12.833-9.535
		c1.335-1.755,2.797-4.116,4.426-7.159c0.505,0.067,0.999,0.101,1.483,0.101c0.209,0,0.413-0.007,0.614-0.02
		c3.847-0.235,7.229-1.777,10.05-4.583c2.718-2.764,3.944-5.355,3.784-7.957c-0.057-0.939-0.391-2.348-1.654-3.714l-0.083-0.09
		l-0.088-0.085c-1.543-1.475-3.07-1.785-4.08-1.785c-0.105,0-0.209,0.004-0.313,0.01c-0.818,0.051-1.596,0.296-2.495,0.827
		c0.286-1.464,0.389-2.774,0.316-3.962C274.288,361.175,271.356,359.296,268.565,359.296"/>
	<path clip-path="url(#SVGID_8_)" fill="#FFFFFF" d="M283.66,401.763c-3.131,0-5.741-1.094-7.761-3.253
		c-1.534-1.682-2.391-3.972-2.565-6.823c-0.432-7.046,2.438-14.178,8.529-21.196c5.086-5.885,9.657-8.876,13.97-9.14
		c0.139-0.01,0.277-0.014,0.414-0.014c1.292,0,2.504,0.372,3.603,1.107c1.592,1.132,2.47,2.725,2.588,4.637
		c0.15,2.461-0.709,5.341-2.626,8.805c-3.523,6.423-9.064,11.214-16.48,14.253c0.058,0.258,0.155,0.473,0.296,0.652
		c0.371,0.483,1.044,1.105,2.731,1.105c0.149,0,0.303-0.004,0.459-0.015c4.2-0.257,9.114-4.082,14.604-11.369
		c1.461-1.886,2.789-2.794,4.198-2.881l0.198-0.006c0.67,0,1.664,0.209,2.59,1.208c0.595,0.697,0.889,1.378,0.932,2.087
		c0.134,2.179-1.546,5.009-5.618,9.468c-2.833,3.118-5.955,5.75-9.276,7.819c-3.446,2.147-6.79,3.335-9.934,3.528
		C284.223,401.754,283.938,401.763,283.66,401.763 M292.592,372.375c-0.391,0.286-0.866,0.675-1.441,1.203
		c-1.777,1.615-3.354,3.662-4.716,6.12c0.24-0.177,0.465-0.354,0.674-0.531C289.44,377.128,291.291,374.837,292.592,372.375"/>
	<path clip-path="url(#SVGID_8_)" fill="#9D3479" d="M296.247,363.337c0.894,0,1.724,0.257,2.49,0.771
		c1.055,0.75,1.623,1.782,1.704,3.097c0.125,2.05-0.668,4.621-2.38,7.714c-3.526,6.426-9.142,11.059-16.845,13.898l0.063,1.044
		c0.052,0.851,0.31,1.572,0.773,2.165c0.959,1.248,2.395,1.872,4.307,1.872c0.189,0,0.382-0.007,0.58-0.019
		c4.833-0.297,10.192-4.351,16.079-12.163c1.043-1.345,1.95-2.04,2.724-2.088c0.026-0.001,0.051-0.002,0.077-0.002
		c0.396,0,0.771,0.189,1.122,0.569c0.251,0.295,0.385,0.579,0.401,0.849c0.093,1.508-1.607,4.173-5.099,7.997
		c-2.727,3-5.68,5.49-8.856,7.469c-3.178,1.981-6.179,3.058-9,3.23c-0.247,0.015-0.49,0.022-0.729,0.022
		c-2.565,0-4.665-0.873-6.299-2.619c-1.206-1.323-1.883-3.183-2.03-5.58c-0.399-6.534,2.281-13.121,8.045-19.763
		c4.675-5.409,8.868-8.228,12.58-8.455C296.054,363.34,296.15,363.337,296.247,363.337 M282.216,384.214
		c2.648-1.094,4.712-2.268,6.187-3.522c2.578-2.254,4.579-4.743,6.004-7.471c0.523-0.964,0.762-1.813,0.717-2.548
		c-0.044-0.729-0.396-1.096-1.055-1.096c-0.039,0-0.078,0.001-0.118,0.004c-1.006,0.062-2.39,0.904-4.152,2.525
		C286.636,374.979,284.108,379.014,282.216,384.214 M296.247,359.337c-0.178,0-0.356,0.005-0.537,0.018
		c-4.877,0.298-9.901,3.515-15.361,9.832c-6.442,7.422-9.476,15.034-9.011,22.621c0.203,3.32,1.235,6.022,3.066,8.03l0.018,0.021
		l0.018,0.019c2.379,2.542,5.567,3.886,9.22,3.886c0.319,0,0.645-0.01,0.975-0.03c3.48-0.214,7.138-1.501,10.87-3.827
		c3.477-2.165,6.74-4.916,9.701-8.174c4.525-4.955,6.304-8.124,6.131-10.933c-0.049-0.791-0.32-1.986-1.344-3.192l-0.057-0.066
		l-0.06-0.064c-1.104-1.192-2.546-1.85-4.056-1.85c-0.107,0-0.215,0.003-0.323,0.01c-2.055,0.126-3.651,1.41-4.659,2.472
		c0.253-0.415,0.495-0.837,0.73-1.266c2.1-3.796,3.04-7.032,2.865-9.883c-0.155-2.537-1.323-4.65-3.377-6.111l-0.047-0.033
		l-0.05-0.032C299.527,359.824,297.941,359.337,296.247,359.337"/>
	<path clip-path="url(#SVGID_8_)" fill="#FFFFFF" d="M310.361,397.01c-1.915,0-3.618-0.813-4.924-2.349
		c-0.998-1.191-1.553-2.655-1.657-4.361c-0.147-2.406,0.338-5.601,1.489-9.765c1.093-3.959,2.799-8.853,5.07-14.546
		c5.82-14.434,12.024-26.587,18.439-36.13c5.499-8.229,10.28-12.359,14.615-12.626c0.131-0.008,0.261-0.013,0.389-0.013
		c1.591,0,3.015,0.623,4.117,1.801c1.139,1.159,1.783,2.601,1.884,4.248c0.363,5.92-3.948,15.456-13.18,29.155
		c-4.035,5.943-8.988,12.009-14.723,18.034c-1.438,1.505-3.375,3.502-5.817,5.992c-0.887,2.824-1.554,5.14-1.983,6.888
		c-0.296,1.194-0.442,1.987-0.515,2.504c0.596-0.392,1.567-1.251,2.965-3.142c0.895-1.241,2.266-3.584,4.061-6.941
		c1.079-2.011,2.449-3.081,4.072-3.181c0.103-0.007,0.202-0.01,0.298-0.01c1.955,0,3.297,1.272,3.418,3.24
		c0.09,1.475-0.448,4.134-5.453,11.673c-4.06,6.149-8.029,9.263-12.135,9.514C310.646,397.005,310.503,397.01,310.361,397.01
		 M339.846,328.982c-1.302,1.229-3.783,4.23-8.021,11.572c-2.658,4.57-5.284,9.814-7.852,15.673
		c4.424-5.494,8.468-11.735,12.083-18.654C338.443,333,339.443,330.419,339.846,328.982"/>
	<path clip-path="url(#SVGID_8_)" fill="#9D3479" d="M343.783,319.222c1.043,0,1.929,0.389,2.657,1.167
		c0.827,0.843,1.276,1.844,1.348,3.004c0.332,5.413-3.949,14.718-12.842,27.915c-3.988,5.872-8.825,11.796-14.513,17.772
		c-1.495,1.566-3.539,3.671-6.133,6.313c-0.976,3.087-1.696,5.576-2.162,7.468c-0.467,1.892-0.677,3.204-0.632,3.938
		c0.057,0.914,0.499,1.37,1.33,1.37c0.05,0,0.1-0.001,0.15-0.004c1.392-0.086,3.109-1.511,5.152-4.275
		c0.966-1.34,2.371-3.735,4.217-7.186c0.73-1.364,1.541-2.074,2.431-2.13c0.061-0.003,0.118-0.005,0.175-0.005
		c0.892,0,1.366,0.455,1.421,1.363c0.103,1.663-1.604,5.144-5.121,10.444c-3.658,5.542-7.189,8.415-10.592,8.624
		c-0.104,0.006-0.207,0.009-0.309,0.009c-1.334,0-2.468-0.547-3.401-1.646c-0.711-0.848-1.105-1.91-1.184-3.187
		c-0.133-2.165,0.341-5.202,1.421-9.11c1.079-3.908,2.746-8.687,5-14.337c5.794-14.364,11.875-26.283,18.242-35.755
		c5.084-7.607,9.441-11.522,13.077-11.746C343.606,319.225,343.695,319.222,343.783,319.222 M317.853,365.919
		c7.62-7.375,14.278-16.516,19.975-27.421c2.952-5.653,4.375-9.368,4.267-11.147c-0.051-0.807-0.408-1.212-1.073-1.212
		c-0.035,0-0.071,0.001-0.108,0.004c-2.126,0.13-5.733,4.6-10.821,13.411C325.878,346.798,321.798,355.587,317.853,365.919
		 M343.783,315.222c-0.169,0-0.339,0.005-0.512,0.016c-5.069,0.312-10.204,4.605-16.157,13.517
		c-6.487,9.648-12.756,21.926-18.626,36.48c-2.304,5.773-4.034,10.737-5.147,14.769c-1.209,4.38-1.719,7.788-1.558,10.42
		c0.132,2.143,0.842,3.997,2.112,5.512c1.716,2.02,3.945,3.075,6.466,3.075c0.182,0,0.367-0.005,0.553-0.018
		c4.777-0.292,9.253-3.698,13.686-10.412c5.282-7.959,5.898-10.9,5.776-12.892c-0.185-3.014-2.411-5.119-5.414-5.119
		c-0.136,0-0.275,0.004-0.42,0.014c-0.01,0.001-0.021,0.001-0.03,0.002c5.313-5.694,9.932-11.416,13.743-17.03
		c9.626-14.286,13.923-23.944,13.526-30.407c-0.129-2.098-0.977-4.008-2.454-5.526C347.842,316.051,345.926,315.222,343.783,315.222
		"/>
</g>
<g>
	<defs>
		<rect id="SVGID_9_" width="440.978" height="436.478"/>
	</defs>
	<clipPath id="SVGID_10_">
		<use xlink:href="#SVGID_9_"  overflow="visible"/>
	</clipPath>
	<path clip-path="url(#SVGID_10_)" fill="#FFFFFF" d="M203.609,197.775c-1.444,1.046-5.03,2.683-9.791,3.601
		c-13.694,2.638-22.349-4.317-24.456-15.25c-2.512-13.041,5.734-22.131,17.724-24.442c4.643-0.895,8.345-0.663,10.075-0.229
		l-0.554,7.253c-1.906-0.4-4.564-0.597-7.797,0.026c-7.053,1.359-11.777,6.581-10.131,15.123
		c1.471,7.631,7.105,11.565,15.038,10.037c2.763-0.533,5.603-1.612,7.283-2.703L203.609,197.775z"/>
	<path clip-path="url(#SVGID_10_)" fill="#FFFFFF" d="M213.529,198.72c-3.035,0.327-5.479-1.686-5.81-4.741
		c-0.341-3.172,1.624-5.6,4.779-5.94c3.094-0.332,5.468,1.571,5.875,4.794c0.329,3.056-1.572,5.535-4.784,5.881L213.529,198.72z"/>
	<path clip-path="url(#SVGID_10_)" fill="#FFFFFF" d="M223.997,187.787c2.423,1.159,6.282,2.283,10.173,2.188
		c4.189-0.101,6.362-1.836,6.302-4.387c-0.06-2.436-2.009-3.78-6.896-5.286c-6.759-2.156-11.275-5.644-11.413-11.326
		c-0.162-6.668,5.521-11.853,14.977-12.084c4.608-0.111,7.92,0.678,10.343,1.721l-1.863,7.123c-1.575-0.715-4.534-1.745-8.424-1.65
		c-3.95,0.096-5.822,1.939-5.773,3.911c0.061,2.493,2.301,3.541,7.614,5.326c7.184,2.378,10.563,5.893,10.697,11.401
		c0.159,6.551-4.853,12.244-15.925,12.512c-4.609,0.113-9.187-0.995-11.491-2.157L223.997,187.787z"/>
	<path clip-path="url(#SVGID_10_)" fill="#FFFFFF" d="M259.723,197.721c-3.046-0.197-5.11-2.597-4.912-5.664
		c0.205-3.184,2.558-5.24,5.724-5.036c3.106,0.201,5.118,2.481,4.969,5.726c-0.198,3.068-2.495,5.186-5.721,4.978L259.723,197.721z"
		/>
	<path clip-path="url(#SVGID_10_)" fill="#FFFFFF" d="M276.481,159.603c2.979-0.033,7.286,0.334,12.128,1.141
		c5.905,0.985,9.896,2.532,12.356,5.237c2.114,2.235,2.965,5.141,2.373,8.688c-0.813,4.863-4.978,7.638-8.603,8.268l-0.028,0.171
		c2.594,1.55,3.709,4.324,4.12,8.038c0.504,4.613,0.845,9.844,1.364,11.46l-9.212-1.537c-0.398-1.243-0.886-4.5-1.216-9.435
		c-0.31-5.051-1.812-6.595-5.521-7.273l-2.658-0.443l-2.53,15.161l-8.916-1.487L276.481,159.603z M282.636,177.624l3.544,0.592
		c4.486,0.749,7.506-0.983,8.069-4.359c0.583-3.489-1.592-5.734-5.725-6.423c-2.185-0.365-3.442-0.457-4.121-0.394L282.636,177.624z
		"/>
	<path clip-path="url(#SVGID_10_)" fill="#FFFFFF" d="M308.049,205.93c-2.941-0.819-4.468-3.593-3.643-6.554
		c0.856-3.074,3.58-4.602,6.638-3.752c2.998,0.836,4.498,3.482,3.684,6.627c-0.825,2.961-3.507,4.562-6.622,3.695L308.049,205.93z"
		/>
</g>
<g>
	<defs>
		<rect id="SVGID_11_" width="440.978" height="436.478"/>
	</defs>
	<clipPath id="SVGID_12_">
		<use xlink:href="#SVGID_11_"  overflow="visible"/>
	</clipPath>
	<path clip-path="url(#SVGID_12_)" fill="#EC6726" d="M109.14,37.829c0,0,38.521,3.197,47.904,26.889
		c0,0,20.084-28.552,39.154-30.32c0,0-11.632-3.249-37.894,12.13C158.304,46.527,134.598,29.595,109.14,37.829"/>
</g>
</svg>
