<?xml version="1.0" standalone="no"?>
<!DOCTYPE svg PUBLIC "-//W3C//DTD SVG 1.1//EN" "http://www.w3.org/Graphics/SVG/1.1/DTD/svg11.dtd" >
<svg xmlns="http://www.w3.org/2000/svg">
<metadata></metadata>
<defs>
<font id="rieslingregular" horiz-adv-x="415" >
<font-face units-per-em="2048" ascent="1638" descent="-410" />
<missing-glyph horiz-adv-x="624" />
<glyph horiz-adv-x="2048" />
<glyph horiz-adv-x="2048" />
<glyph unicode="&#xd;" horiz-adv-x="862" d="M-18 -102q0 180 129 319l12 -14q-123 -129 -123 -305q0 -184 130 -313.5t312 -129.5q152 0 259.5 129t107.5 314q0 182 -107.5 311t-259.5 129q-113 0 -211 -51q-27 -14 -55 -15q-39 0 -67.5 26t-28.5 62q0 45 51 72q43 25 100 25q37 0 56 -2q-72 66 -72 163 q0 94 65.5 159t159.5 65q113 0 181 -88q41 27 41 67q0 35 -29 60l10 14q35 -29 35 -74q0 -49 -47 -82q33 -59 33 -121q0 -94 -64.5 -159.5t-159.5 -65.5q-66 0 -114 31q-20 10 -52 10q-45 0 -77 -18q-41 -20 -41 -58q0 -59 43 -59q14 0 26 4q102 53 217 53q190 0 324.5 -134 t134.5 -324q0 -193 -133 -327t-326 -134t-326.5 134t-133.5 327zM303 618q0 -86 40 -146t97 -60t97.5 60t40.5 146q0 84 -40 145.5t-98 61.5q-57 0 -97 -60t-40 -147z" />
<glyph unicode=" "  horiz-adv-x="624" />
<glyph unicode="&#x09;" horiz-adv-x="624" />
<glyph unicode="&#xa0;" horiz-adv-x="624" />
<glyph unicode="!" horiz-adv-x="192" d="M37 39q0 53 53 53t53 -53t-53 -53t-53 53zM45 152v1093h88v-1093h-88z" />
<glyph unicode="&#x22;" horiz-adv-x="313" d="M45 1034v213h88v-213h-88zM186 1034v213h90v-213h-90z" />
<glyph unicode="#" horiz-adv-x="538" d="M31 842l4 18h149l27 152h-150l2 18h150l33 180h18l-33 -180h95l32 180h17l-31 -180h158l-4 -18h-158l-27 -152h158l-2 -18h-160l-39 -230h-18l41 230h-94l-41 -230h-17l39 230h-149zM201 860h94l27 152h-95z" />
<glyph unicode="$" horiz-adv-x="731" d="M70 455l73 24q70 -193 232 -192v612q-80 10 -127 60.5t-43 117.5q4 70 49 117t113 47h8v143h18v-145q59 -10 97 -55t38 -107q0 -39 -18 -82l-25 11q16 39 17 69q0 49 -31 87t-78 48v-233q139 -16 233.5 -127t92.5 -254q-2 -137 -96.5 -234.5t-229.5 -105.5v-154h-18v154 q-209 0 -305 199zM283 1096q0 -101 92 -119v235h-6q-35 0 -60.5 -30.5t-25.5 -85.5zM393 287q102 10 171 98t69 211t-67.5 204t-172.5 97v-610z" />
<glyph unicode="%" horiz-adv-x="1439" d="M51 913q0 145 102.5 248t247.5 103t247 -103t102 -248q0 -143 -101.5 -245.5t-247.5 -102.5q-145 0 -247.5 101.5t-102.5 246.5zM123 913q0 -137 82 -235t196 -98q113 0 195 98t82 235q0 139 -81 237.5t-196 98.5t-196.5 -98t-81.5 -238zM489 -4l467 1253l19 -8 l-467 -1251zM719 334q0 145 102.5 246.5t247.5 101.5t246.5 -101.5t101.5 -246.5t-102.5 -247.5t-245.5 -102.5q-145 0 -247.5 102t-102.5 248zM791 334q0 -139 81.5 -237.5t196.5 -98.5t196 98.5t81 237.5t-81 236.5t-196 97.5t-196.5 -98.5t-81.5 -235.5z" />
<glyph unicode="&#x26;" horiz-adv-x="962" d="M31 422q0 137 81 249.5t210 162.5q18 6 51 18l-64 88q-31 53 -28 117q4 84 61 143.5t141 59.5t143.5 -59.5t59.5 -143.5q0 -113 -90 -162q-16 -14 -123 -39l363 -524q8 57 8 90q0 152 -76 268l178 103l6 -15l-104 -61q88 -125 88 -295q0 -92 -41 -178l172 -248h-106 l-115 166q-135 -180 -363 -180q-186 0 -319 129t-133 311zM47 422q0 -172 132 -297t304 -125q100 0 186.5 61.5t131.5 163.5l-418 611q-16 -4 -53 -21q-125 -45 -204 -152.5t-79 -240.5zM362 1077q0 -51 17 -84l84 -121q84 18 110 29q97 45 97 156q0 78 -54.5 133t-130.5 55 q-51 0 -87 -45t-36 -123z" />
<glyph unicode="'" horiz-adv-x="184" d="M45 1034v213h88v-213h-88z" />
<glyph unicode="(" horiz-adv-x="276" d="M37 616q2 229 45 394.5t149 353.5l15 -6q-92 -166 -113 -352q-4 -47 -6 -390q0 -35 -2 -116v-105q0 -319 121 -538l-15 -7q-109 193 -152.5 363t-41.5 403z" />
<glyph unicode=")" horiz-adv-x="278" d="M33 -143q74 135 100 272q20 106 21 274v103q-2 78 -2 110q-2 334 -9 390q-18 184 -110 352l14 6q106 -188 149.5 -354.5t43.5 -393.5q0 -238 -41 -403q-43 -172 -152 -363z" />
<glyph unicode="*" d="M37 1092q0 18 16 18h105l-76 76q-6 6 -6 12q0 18 18 19q6 0 12 -7l78 -77v108q0 16 19 16q18 0 18 -16v-106l72 75q6 6 12 7q18 0 19 -19q0 -6 -5 -12l-73 -76h104q18 0 19 -18q-1 -19 -19 -19h-106l75 -74q6 -6 7 -12q0 -18 -21 -18q-6 0 -12 6l-72 72v-103 q0 -16 -18 -16t-19 16v107l-75 -76q-6 -6 -13 -6q-18 0 -18 18q0 6 6 12l74 74h-105q-16 0 -16 19z" />
<glyph unicode="+" d="M51 532v89h113v112h88v-112h113v-89h-113v-112h-88v112h-113z" />
<glyph unicode="," horiz-adv-x="251" d="M72 43q0 59 57 59q23 0 41 -17t18 -42q0 -119 -90 -158l-8 21q63 25 72 90q-12 -12 -33 -12q-23 0 -40 18t-17 41z" />
<glyph unicode="-" d="M51 532v89h314v-89h-314z" />
<glyph unicode="." horiz-adv-x="251" d="M72 43q0 59 57 59q23 0 41 -17t18 -42q0 -23 -18 -41t-41 -18t-40 18t-17 41z" />
<glyph unicode="/" horiz-adv-x="569" d="M45 -4l467 1253l16 -8l-467 -1251z" />
<glyph unicode="0" horiz-adv-x="1366" d="M39 610q0 268 185.5 463t451.5 195q268 0 461.5 -185.5t193.5 -449.5q0 -270 -185 -464t-450 -194q-270 0 -463.5 185.5t-193.5 449.5zM125 610q0 -256 168 -436t401 -180q231 0 392 188.5t161 450.5q0 258 -169 439t-402 177q-229 -4 -390 -190.5t-161 -448.5z" />
<glyph unicode="1" horiz-adv-x="200" d="M8 1169l78 78h88v-1247h-88v1214l-61 -61z" />
<glyph unicode="2" horiz-adv-x="731" d="M35 37q0 188 67 373q104 291 355 485q55 41 108 82q45 43 45 100q0 78 -36.5 123t-88.5 45q-76 0 -131 -56t-55 -134q0 -47 23 -88l-13 -4q-23 41 -22 94q0 84 59.5 143.5t142.5 59.5q84 0 141.5 -59.5t61.5 -143.5q4 -76 -57 -144q-72 -63 -141 -125 q-375 -334 -422 -755q102 102 209 102q66 0 120 -20q6 -4 97 -47q100 -49 182 -48q180 4 205 140h18q-6 -51 -31 -90q-57 -90 -190 -93q-125 -2 -208 32t-193 34q-125 0 -244 -68q-2 25 -2 62z" />
<glyph unicode="3" horiz-adv-x="817" d="M-184 352q0 106 41 201l16 -8q-39 -94 -39 -193q0 -201 142.5 -342t342.5 -141q172 0 292 141.5t120 341.5q0 201 -118.5 338t-290.5 137q-113 0 -162 -20l284 422h-399v18h516l-254 -393q221 0 367.5 -145.5t146.5 -356.5q0 -207 -147.5 -354.5t-354.5 -147.5 q-209 0 -356 147.5t-147 354.5z" />
<glyph unicode="4" horiz-adv-x="509" d="M4 430l406 928v-912h82v-16h-82v-430h-88v430h-318zM33 446h289v662z" />
<glyph unicode="5" horiz-adv-x="962" d="M8 352q0 106 41 201l17 -8q-39 -94 -39 -193q0 -201 142 -342t343 -141q172 0 292 141.5t120 341.5q0 201 -120 338t-292 137q-111 0 -174 -24l-107 -45l97 489h424v-18h-334l-78 -395q90 20 158 20q221 0 368.5 -145.5t147.5 -356.5q0 -207 -147.5 -354.5t-354.5 -147.5 q-209 0 -356.5 147.5t-147.5 354.5z" />
<glyph unicode="6" horiz-adv-x="1116" d="M37 649q0 309 146.5 517t381.5 231v-19q-215 -49 -327 -243q-84 -147 -101 -351q158 229 434 230q215 0 369 -152.5t154 -369.5t-154 -371t-369 -154t-354 143.5t-170 381.5q-10 80 -10 157zM156 492q0 -207 121.5 -354.5t293.5 -147.5q170 0 294 148.5t124 353.5 q0 207 -123 353t-295 146q-174 0 -294.5 -146.5t-120.5 -352.5z" />
<glyph unicode="7" horiz-adv-x="532" d="M-20 -160l401 1389h-326v18h422l-407 -1407h-90z" />
<glyph unicode="8" horiz-adv-x="962" d="M31 422q0 137 81 249.5t210 162.5q53 20 81 24q-129 63 -122 199q4 84 61 143.5t141 59.5t143.5 -59.5t59.5 -143.5q0 -113 -88 -162q147 -45 242.5 -179t95.5 -294q0 -180 -133 -310t-320 -130q-186 0 -319 129t-133 311zM47 422q0 -172 132 -297t304 -125 q147 0 254 124t107 298q0 170 -95.5 281.5t-244.5 127.5q-39 4 -72 17q-33 -8 -102 -33q-125 -45 -204 -152.5t-79 -240.5zM362 1077q0 -152 150 -166q20 -2 61 -10q97 45 97 156q0 78 -54.5 133t-130.5 55q-51 0 -87 -45t-36 -123z" />
<glyph unicode="9" horiz-adv-x="1116" d="M35 758q0 217 153.5 370.5t368.5 153.5t356 -143t170 -381q10 -78 11 -156q0 -309 -146.5 -518t-382.5 -229v16q215 51 328 246q84 147 98 348q-156 -227 -434 -227q-215 0 -368.5 152.5t-153.5 367.5zM141 758q0 -205 123 -352.5t293 -147.5q174 0 296 146.5t122 353.5 t-123 355.5t-295 148.5q-170 0 -293 -148.5t-123 -355.5z" />
<glyph unicode=":" horiz-adv-x="251" d="M72 43q0 59 57 59q23 0 41 -17t18 -42q0 -23 -18 -41t-41 -18t-40 18t-17 41zM72 639q0 59 57 59q23 0 41 -17t18 -42q0 -23 -18 -41t-41 -18t-40 18t-17 41z" />
<glyph unicode=";" horiz-adv-x="251" d="M72 43q0 59 57 59q23 0 41 -17t18 -42q0 -119 -90 -158l-8 21q63 25 72 90q-12 -12 -33 -12q-23 0 -40 18t-17 41zM72 639q0 59 57 59q23 0 41 -17t18 -42q0 -23 -18 -41t-41 -18t-40 18t-17 41z" />
<glyph unicode="&#x3c;" horiz-adv-x="356" d="M27 580l223 221l61 -62l-159 -159l159 -162l-61 -62z" />
<glyph unicode="=" d="M51 455v88h314v-88h-314zM51 621v88h314v-88h-314z" />
<glyph unicode="&#x3e;" horiz-adv-x="356" d="M51 418l160 162l-160 159l64 62l221 -221l-221 -224z" />
<glyph unicode="?" horiz-adv-x="962" d="M31 825q0 182 132 311.5t320 129.5q186 0 319.5 -129.5t133.5 -311.5q0 -152 -102 -280q-117 -143 -297 -158v-240h-91v269h58q150 16 245 127.5t95 281.5q0 174 -106.5 299t-254.5 125q-172 0 -304 -126t-132 -298h-16zM438 39q0 53 54 53q53 0 53 -53t-53 -53t-54 53z " />
<glyph unicode="@" horiz-adv-x="1349" d="M27 614q0 268 185 462t450 194q268 0 460.5 -185.5t192.5 -449.5q0 -131 -86 -231.5t-207 -100.5h-72v113q-104 -135 -276 -135q-145 0 -248.5 102t-103.5 248q0 145 103 247.5t249 102.5q145 0 246.5 -102.5t101.5 -247.5v-297q82 0 145.5 91t63.5 210q0 258 -168 439 t-401 177q-229 -4 -389 -190.5t-160 -446.5q0 -258 168 -437t399 -179q211 0 364 119l23 -39q-135 -98 -387 -98q-268 0 -460.5 185t-192.5 449zM393 631q0 -139 82 -238.5t199 -99.5q115 0 195.5 99.5t80.5 238.5q0 137 -81 236.5t-195 99.5q-117 0 -199 -98.5t-82 -237.5z " />
<glyph unicode="A" horiz-adv-x="503" d="M12 0l240 1346l235 -1346h-90l-75 432h-216l-75 -432h-19zM111 451h208l-104 593z" />
<glyph unicode="B" horiz-adv-x="823" d="M59 0v1247h234q119 0 207 -66.5t88 -156.5q0 -74 -57.5 -131t-147.5 -80q168 -29 278.5 -142t110.5 -263q0 -168 -140 -288t-339 -120h-234zM147 20h146q162 0 275.5 114t113.5 274t-113.5 274.5t-275.5 114.5h-146v-777zM147 819h146q84 0 144.5 60.5t60.5 144.5 q0 80 -66.5 141.5t-138.5 61.5h-146v-408z" />
<glyph unicode="C" horiz-adv-x="1286" d="M39 610q0 268 185.5 463t451.5 195q166 0 311.5 -77t235.5 -210l-56 -33q-76 139 -208 221q-129 80 -276 80h-7q-229 -4 -390 -190.5t-161 -448.5q0 -256 168 -436t401 -180q152 0 278 85t197 228l58 -35q-86 -137 -225.5 -217t-305.5 -80q-270 0 -463.5 185.5 t-193.5 449.5z" />
<glyph unicode="D" horiz-adv-x="995" d="M43 0v1243h236q266 0 458.5 -178t192.5 -432q0 -258 -185.5 -445.5t-447.5 -187.5h-254zM131 20h166q229 0 388 179.5t159 433.5q0 246 -167 418t-398 172h-148v-1203z" />
<glyph unicode="E" d="M43 0v1247h313v-18h-225v-410h264v-18h-264v-783h264v-18h-352z" />
<glyph unicode="F" horiz-adv-x="413" d="M43 0v1245h311v-18h-223v-410h262v-18h-262v-799h-88z" />
<glyph unicode="G" horiz-adv-x="1366" d="M39 610q0 268 185.5 463t451.5 195q150 0 304.5 -80t242.5 -207l-56 -33q-76 139 -208 221q-129 80 -276 80h-7q-229 -4 -390 -190.5t-161 -448.5q0 -256 168 -436t401 -180q231 0 392 188.5t161 450.5q0 84 -22 168h-547v18h627q26 -96 26 -186q0 -270 -185 -464 t-450 -194q-270 0 -463.5 185.5t-193.5 449.5z" />
<glyph unicode="H" horiz-adv-x="481" d="M43 0v1247h88v-428h223v428h90v-1247h-90v801h-223v-801h-88z" />
<glyph unicode="I" horiz-adv-x="200" d="M45 0v1247h88v-1247h-88z" />
<glyph unicode="J" horiz-adv-x="503" d="M47 180q0 84 59.5 142.5t141.5 58.5v-19q-76 0 -130.5 -53t-54.5 -129q0 -78 55.5 -129t135.5 -51q51 0 85 51t34 129v1067h88v-1067q0 -84 -61.5 -145.5t-145.5 -61.5q-86 0 -146.5 61.5t-60.5 145.5z" />
<glyph unicode="K" horiz-adv-x="479" d="M43 0v1245h88v-432l287 430h24l-247 -369l264 -874h-92l-236 778v-778h-88z" />
<glyph unicode="L" d="M43 0v1247h88v-1229h264v-18h-352z" />
<glyph unicode="M" horiz-adv-x="727" d="M53 0v1346l324 -1264l325 1261v-1343h-88v930l-272 -1065l-270 1055v-920h-19z" />
<glyph unicode="N" horiz-adv-x="563" d="M39 0v1346l459 -1184v1085h16v-1380l-457 1188v-1055h-18z" />
<glyph unicode="O" horiz-adv-x="1359" d="M39 608q0 268 185.5 462t449.5 194q268 0 460.5 -184.5t192.5 -448.5q0 -268 -185.5 -462t-449.5 -194q-268 0 -460.5 184.5t-192.5 448.5zM125 608q0 -256 168 -435t399 -179q229 0 390 187.5t161 449.5q0 258 -168 439q-164 177 -389 177h-10q-229 -4 -390 -191.5 t-161 -447.5z" />
<glyph unicode="P" horiz-adv-x="819" d="M59 0v1245h234q197 0 337 -119.5t140 -285.5q0 -160 -127 -281q-137 -131 -350 -131h-146v-428h-88zM147 451h146q160 0 272.5 113.5t112.5 275.5q0 158 -112.5 270.5t-272.5 112.5h-146v-772z" />
<glyph unicode="Q" horiz-adv-x="1366" d="M39 610q0 268 185.5 463t451.5 195q268 0 461.5 -185.5t193.5 -449.5q0 -184 -92 -340t-244 -242q199 -399 459 -399q51 0 95 44q39 39 39 89q0 7 -1 14q-6 59 -51 97t-109 38v19q70 0 120.5 -43t56.5 -111q1 -8 1 -16q0 -62 -42 -110q-47 -54 -129 -54q-338 0 -514 397 q-106 -41 -224 -41q-270 0 -463.5 185.5t-193.5 449.5zM125 610q0 -256 168 -436t401 -180q111 0 211 47q-98 195 -270 195q-150 0 -246 -62l-12 19q111 73 248 73h4q221 0 348 -184q123 86 196.5 233.5t73.5 317.5q0 258 -169 439q-165 177 -392 177h-10 q-229 -4 -390 -190.5t-161 -448.5z" />
<glyph unicode="R" horiz-adv-x="823" d="M59 0v1247h234q199 0 339 -119.5t140 -287.5q0 -131 -94 -244q-100 -123 -258 -158q100 -41 180 -196q51 -119 105 -238q84 -168 204 -262q113 -90 228 -90q57 0 98 33q49 41 49 114q0 59 -53 97t-121 38v19q72 0 132.5 -44t60.5 -110q0 -180 -187 -180q-319 0 -489 346 q-47 139 -95 279q-82 184 -239 184h-146v-428h-88zM147 451h146q162 0 275.5 113.5t113.5 275.5q0 160 -113.5 272.5t-275.5 112.5h-146v-774z" />
<glyph unicode="S" horiz-adv-x="962" d="M31 422q0 137 81 249.5t210 162.5l8 -19q-125 -45 -204 -152.5t-79 -240.5q0 -172 132 -297t304 -125q147 0 254 124t107 298q0 170 -95.5 281.5t-244.5 127.5q-104 12 -166 74q-57 57 -57 139v13q4 84 61 143.5t141 59.5t143.5 -59.5t59.5 -143.5q0 -49 -24 -94l-11 4 q23 41 23 88q0 78 -55.5 134t-133.5 56q-51 0 -87 -45t-36 -123q0 -152 150 -166q182 -18 303 -161.5t121 -327.5q0 -180 -133 -310t-320 -130q-186 0 -319 129t-133 311z" />
<glyph unicode="T" horiz-adv-x="481" d="M20 1229v18h445v-18h-178v-1229h-88v1229h-179z" />
<glyph unicode="U" horiz-adv-x="501" d="M47 180v1065h88v-1065q0 -78 35 -129t84 -51q80 0 135 51t55 129v1065h17v-1065q0 -84 -60.5 -145.5t-146.5 -61.5q-84 0 -145.5 61.5t-61.5 145.5z" />
<glyph unicode="V" horiz-adv-x="501" d="M6 1245h92l183 -1044l182 1044h18l-239 -1343z" />
<glyph unicode="W" horiz-adv-x="819" d="M6 1247h92l183 -1046l104 598l-78 448h90l33 -192l35 192h18l-43 -243l140 -803l184 1046h18l-239 -1345l-150 846l-149 -846z" />
<glyph unicode="X" horiz-adv-x="583" d="M4 0l256 670l-186 577h96l141 -442l170 442h21l-180 -471l251 -776h-96l-209 641l-245 -641h-19z" />
<glyph unicode="Y" horiz-adv-x="509" d="M25 1245h90l164 -796l163 796h17l-164 -801v-444h-88v350z" />
<glyph unicode="Z" horiz-adv-x="538" d="M29 0l362 1229h-307v18h403l-364 -1229h364v-18h-458z" />
<glyph unicode="[" horiz-adv-x="260" d="M43 -72v1389h184v-17h-96v-1353h98v-19h-186z" />
<glyph unicode="\" horiz-adv-x="569" d="M45 1241l16 8l467 -1253l-16 -6z" />
<glyph unicode="]" horiz-adv-x="260" d="M35 -53h96v1353h-96v17h186v-1389h-186v19z" />
<glyph unicode="^" horiz-adv-x="251" d="M23 1346l106 104l107 -107l-19 -20l-88 90l-88 -88z" />
<glyph unicode="_" horiz-adv-x="819" d="M0 -201h852v-18h-852v18z" />
<glyph unicode="`" horiz-adv-x="174" d="M23 1432l20 18l104 -104l-18 -21z" />
<glyph unicode="a" horiz-adv-x="935" d="M37 410q0 182 129 310t309 128q182 0 310 -128t128 -310v-410h-90v143q-131 -172 -348 -172q-180 0 -309 129t-129 310zM127 410q0 -174 102.5 -297t245.5 -123q145 0 247.5 123t102.5 297t-102 296.5t-248 122.5q-143 0 -245.5 -122.5t-102.5 -296.5z" />
<glyph unicode="b" horiz-adv-x="933" d="M37 408v837h90v-573q123 172 346 172q182 0 309 -127t127 -309q0 -180 -128 -308.5t-308 -128.5t-308 128t-128 309zM127 408q0 -172 101.5 -295t244.5 -123t245.5 123t102.5 295q0 174 -101.5 295.5t-246.5 121.5q-143 0 -244.5 -121.5t-101.5 -295.5z" />
<glyph unicode="c" horiz-adv-x="907" d="M37 416q0 182 128 309t308 127q123 0 226.5 -63.5t158.5 -167.5l-70 -31q-43 111 -126.5 177.5t-188.5 66.5q-143 0 -244.5 -122t-101.5 -296t101.5 -297t244.5 -123q104 0 190.5 69.5t127.5 180.5l73 -27q-55 -109 -159.5 -174t-231.5 -65q-180 0 -308 128t-128 308z " />
<glyph unicode="d" horiz-adv-x="935" d="M23 410q0 182 129 310t309 128q223 0 350 -174v573h88v-837q0 -180 -128 -309.5t-310 -129.5q-180 0 -309 129t-129 310zM113 410q0 -174 102 -297t246 -123q145 0 247.5 123t102.5 297t-102.5 296.5t-247.5 122.5q-143 0 -245.5 -122.5t-102.5 -296.5z" />
<glyph unicode="e" horiz-adv-x="921" d="M37 410q0 182 129 310t309 128q125 0 228.5 -63.5t158.5 -170.5l-727 -297q27 -141 122 -234t218 -93q106 0 191.5 68.5t128.5 181.5l71 -27q-55 -109 -159.5 -175.5t-231.5 -66.5q-180 0 -309 129t-129 310zM127 410q0 -25 4 -74l653 270q-43 102 -126 162.5t-183 60.5 q-143 0 -245.5 -122.5t-102.5 -296.5z" />
<glyph unicode="f" horiz-adv-x="346" d="M45 0v1018q0 100 70.5 171t171.5 71h47v-19h-47q-63 0 -108.5 -65.5t-45.5 -157.5v-199h201v-18h-201v-801h-88z" />
<glyph unicode="g" horiz-adv-x="706" d="M35 412q0 59 71 98q61 35 127 35q16 0 27 -2q-61 51 -61 131q0 70 50 120t122 50q121 0 159 -113q35 4 58 49q17 32 17 64q0 6 -1 12l78 -41q-10 -43 -64 -74q-43 -25 -81 -26q4 -25 4 -41q0 -72 -50.5 -122t-119.5 -50q-45 0 -80 22q-25 4 -45 4q-51 0 -90 -24.5 t-39 -67.5q0 -61 61 -61q27 0 60 24q135 102 303 103q209 0 356 -146.5t147 -355.5t-147 -355.5t-356 -146.5q-207 0 -354.5 146.5t-147.5 355.5q0 106 41 199l16 -6q-39 -94 -39 -193q0 -201 142.5 -343t341.5 -142q172 0 292.5 142t120.5 343t-120.5 343t-292.5 142 q-160 0 -301 -106q-59 -45 -114 -45h-5q-86 2 -86 78zM289 674q0 -61 24.5 -107.5t57.5 -46.5t57.5 46.5t24.5 107.5t-25 106t-57 45q-33 0 -57.5 -45t-24.5 -106z" />
<glyph unicode="h" horiz-adv-x="514" d="M45 0v1245h88v-500q51 100 162 101q72 0 124 -54.5t52 -125.5v-666h-86v666q0 68 -27.5 114.5t-62.5 46.5q-61 0 -106.5 -38.5t-55.5 -100.5v-688h-88z" />
<glyph unicode="i" horiz-adv-x="184" d="M45 0v819h90v-819h-90zM45 926q0 45 43 45q49 0 49 -45t-49 -45q-43 0 -43 45z" />
<glyph unicode="j" horiz-adv-x="180" d="M-158 -426h49q61 0 107.5 67.5t46.5 159.5v1018h90v-1018q0 -102 -71.5 -173.5t-172.5 -71.5h-49v18zM45 926q0 45 43 45q49 0 49 -45t-49 -45q-43 0 -43 45z" />
<glyph unicode="k" horiz-adv-x="501" d="M45 0v1247h88v-678l283 250h26l-239 -211l280 -608h-98l-252 545v-545h-88z" />
<glyph unicode="l" horiz-adv-x="184" d="M45 0v1245h88v-1245h-88z" />
<glyph unicode="m" horiz-adv-x="849" d="M45 0v819h88v-80q51 100 162 101q129 0 168 -123q43 123 172 123q72 0 125 -53.5t53 -127.5v-659h-90v659q0 66 -26.5 114t-61.5 48q-63 0 -109.5 -42t-52.5 -103v-676h-88v659q0 68 -26.5 115t-63.5 47q-61 0 -106.5 -40t-55.5 -99v-682h-88z" />
<glyph unicode="n" horiz-adv-x="514" d="M45 0v817h88v-80q51 100 162 101q72 0 124 -54.5t52 -126.5v-657h-86v657q0 66 -27.5 114t-62.5 48q-61 0 -106.5 -40t-55.5 -101v-678h-88z" />
<glyph unicode="o" horiz-adv-x="933" d="M37 408q0 182 128 309t308 127q182 0 309 -127t127 -309q0 -180 -128 -308.5t-308 -128.5t-308 128t-128 309zM127 408q0 -172 101.5 -295t244.5 -123t245.5 123t102.5 295q0 174 -101.5 295.5t-246.5 121.5q-143 0 -244.5 -121.5t-101.5 -295.5z" />
<glyph unicode="p" horiz-adv-x="935" d="M37 406q0 182 128 310t310 128t310 -128t128 -310q0 -180 -128 -309.5t-310 -129.5q-225 0 -348 176v-573h-90v836zM127 406q0 -174 102.5 -297t245.5 -123q145 0 247.5 123t102.5 297t-102 296.5t-248 122.5q-143 0 -245.5 -122.5t-102.5 -296.5z" />
<glyph unicode="q" horiz-adv-x="935" d="M31 406q0 182 128 310t310 128t310 -128t128 -310v-836h-90v573q-123 -176 -348 -176q-182 0 -310 128t-128 311zM119 406q0 -174 102.5 -297t247.5 -123q143 0 245.5 123t102.5 297t-102.5 296.5t-245.5 122.5q-145 0 -247.5 -122.5t-102.5 -296.5z" />
<glyph unicode="r" horiz-adv-x="307" d="M45 0v819h88v-20q31 43 94 43q56 -1 56 -56q0 -53 -56 -53q-55 0 -55 53q0 16 12 33q-41 -16 -51 -67v-752h-88z" />
<glyph unicode="s" horiz-adv-x="729" d="M-317 0q0 106 41 199l16 -6q-39 -94 -39 -193q0 -201 142.5 -343t340.5 -142q172 0 293 142t121 343q0 346 -348 412q-104 20 -166 78q-58 55 -57 135v10q4 86 61 145.5t141 59.5t143.5 -60.5t59.5 -144.5q0 -49 -22 -94l-11 6q20 39 21 88q0 78 -55.5 134t-131.5 56 q-51 0 -87.5 -45t-36.5 -123q0 -137 151 -165q195 -37 307 -160q121 -129 121 -332q0 -209 -147.5 -355.5t-356.5 -146.5q-207 0 -354 146.5t-147 355.5z" />
<glyph unicode="t" horiz-adv-x="256" d="M18 801v18h70v217h88v-217h66v-18h-66v-801h-88v801h-70z" />
<glyph unicode="u" horiz-adv-x="442" d="M27 160v659h18v-659q0 -66 47 -114t115 -48q35 0 61.5 48t26.5 114v659h90v-659q0 -74 -52 -127t-126 -53t-127 53t-53 127z" />
<glyph unicode="v" horiz-adv-x="466" d="M18 819h91l167 -690l166 690h19l-221 -917z" />
<glyph unicode="w" horiz-adv-x="784" d="M18 819h91l167 -690l93 383l-74 307h92l29 -117l28 117h19l-39 -157l129 -533l168 690h20l-225 -917l-139 571l-137 -571z" />
<glyph unicode="x" horiz-adv-x="501" d="M-2 819h98l156 -342l156 342h22l-168 -364l209 -455h-98l-160 346l-158 -346h-20l168 369z" />
<glyph unicode="y" horiz-adv-x="466" d="M18 817h91l167 -688l166 688h19l-303 -1247h-17l86 369z" />
<glyph unicode="z" horiz-adv-x="501" d="M16 0l365 801h-322v18h428l-366 -801h362v-18h-467z" />
<glyph unicode="{" horiz-adv-x="333" d="M31 205q0 61 61.5 152.5t61.5 140.5q0 88 -88 120q88 29 88 127q0 49 -61.5 140.5t-61.5 152.5q0 18 4 37q41 195 237 240l4 -21q-186 -39 -223 -223q-12 -66 80 -156q98 -96 98 -141q0 -18 -8 -35q-33 -74 -110 -118q76 -39 110 -117q8 -16 8 -35q0 -45 -90 -133 t-90 -146q0 -88 72 -157q63 -66 153 -84l-4 -19q-195 41 -237 238q-4 18 -4 37z" />
<glyph unicode="|" horiz-adv-x="184" d="M45 0v1245h88v-1245h-88z" />
<glyph unicode="}" horiz-adv-x="333" d="M37 -51q90 18 157.5 85.5t67.5 155.5q0 57 -90 145.5t-90 133.5q0 18 8 35q35 78 111 117q-78 45 -111 118q-8 16 -8 35q0 45 98 141q92 90 80 156q-37 186 -223 223l4 21q197 -45 238 -240q4 -18 4 -37q0 -61 -61.5 -152t-61.5 -141q0 -98 88 -127q-88 -33 -88 -120 q0 -49 61.5 -140.5t61.5 -152.5q0 -19 -4 -37q-43 -197 -238 -238z" />
<glyph unicode="~" horiz-adv-x="294" d="M29 1368q18 49 71 53q18 2 45 -13t43 -15q47 2 60 26l14 -6q-20 -53 -72 -55q-16 0 -41.5 14t-46.5 12q-45 -2 -55 -24z" />
<glyph unicode="&#xa1;" horiz-adv-x="192" d="M37 1204q0 53 53 53t53 -53t-53 -53t-53 53zM45 -2v1094h88v-1094h-88z" />
<glyph unicode="&#xa2;" horiz-adv-x="894" d="M37 805q0 180 124 306t302 130v209h18v-209q121 -2 221.5 -65.5t155.5 -165.5l-70 -31q-41 109 -122.5 175.5t-184.5 68.5v-836q102 2 186.5 70.5t123.5 177.5l73 -27q-55 -106 -156.5 -171.5t-226.5 -67.5v-215h-18v215q-178 4 -302 131t-124 305zM127 805 q0 -170 98.5 -292t237.5 -126v836q-139 -4 -237.5 -126t-98.5 -292z" />
<glyph unicode="&#xa3;" horiz-adv-x="577" d="M35 532v21h112v504q0 84 60.5 143.5t142.5 59.5q84 0 143.5 -59.5t59.5 -143.5q0 -53 -23 -94l-10 4q20 39 21 88q0 78 -55.5 134t-131.5 56q-51 0 -82 -41q-35 -47 -34 -127v-524h110v-21h-110v-514h262v-18h-353v532h-112z" />
<glyph unicode="&#xa4;" horiz-adv-x="933" d="M37 408q0 246 207 370l-111 187l17 12l110 -189q92 55 213 56q121 0 225 -62l115 195l14 -12l-112 -193q194 -128 194 -364q0 -240 -207 -371l125 -213l-16 -10l-125 213q-104 -55 -213 -56q-102 0 -201 49l-120 -206l-19 10l121 205q-98 57 -157.5 158.5t-59.5 220.5z M127 408q0 -172 101.5 -295t244.5 -123t245.5 123t102.5 295q0 174 -101.5 295.5t-246.5 121.5q-143 0 -244.5 -121.5t-101.5 -295.5z" />
<glyph unicode="&#xa5;" horiz-adv-x="509" d="M25 1245h90l164 -796l163 796h17l-164 -801h111v-88h-111v-75h111v-91h-111v-190h-88v190h-115v91h115v69l-2 6h-113v88h94z" />
<glyph unicode="&#xa7;" horiz-adv-x="731" d="M37 166l74 24q72 -203 251 -192q100 6 169 96t69 213q0 33 -6 60q-94 -106 -232 -111q-227 -6 -325 199l74 24q72 -201 251 -192q139 6 207 164q-59 135 -207 157q-197 31 -190 180q4 98 82 144q-86 47 -82 145q2 70 48 117t114 47q25 0 28 -2q57 -10 96.5 -55t39.5 -107 q0 -35 -21 -82l-22 11q16 45 16 69q0 49 -31.5 87t-77.5 48q-4 0 -26 2q-35 0 -59.5 -31.5t-24.5 -84.5q0 -104 110 -119q139 -18 233.5 -129t92.5 -252q0 -70 -33 -137q35 -76 33 -152q-4 -137 -98 -236.5t-228 -103.5q-225 -6 -325 199zM252 807q0 -102 110 -119 q141 -20 236 -133q2 14 2 41q0 121 -66.5 203t-171.5 98q-23 4 -65 16q-45 -31 -45 -106z" />
<glyph unicode="&#xa8;" horiz-adv-x="305" d="M45 1374q0 49 47 49q18 0 33.5 -15.5t15.5 -33.5q0 -16 -15 -31.5t-34 -15.5q-18 0 -32.5 15.5t-14.5 31.5zM170 1374q0 49 47 49q16 0 32.5 -15.5t16.5 -33.5q0 -16 -16.5 -31.5t-32.5 -15.5q-18 0 -32.5 15.5t-14.5 31.5z" />
<glyph unicode="&#xa9;" horiz-adv-x="1286" d="M41 621q0 264 186.5 450t450.5 186t451.5 -186t187.5 -450q0 -266 -187.5 -452.5t-451.5 -186.5t-450.5 186t-186.5 453zM76 621q0 -248 177 -425.5t425 -177.5q250 0 426 177.5t176 425.5t-177 425t-425 177t-425 -177.5t-177 -424.5zM174 614q0 219 151.5 377 t366.5 158q285 0 447 -236l-49 -28q-61 111 -168 177t-228 64q-184 -2 -313 -152.5t-129 -359.5t134 -353t323 -144q121 0 224 70.5t159 185.5l49 -31q-158 -248 -430 -248q-219 0 -378 151.5t-159 368.5z" />
<glyph unicode="&#xaa;" horiz-adv-x="608" d="M25 977q0 119 82.5 203t201.5 84t202 -84t83 -203v-264h-59v92q-84 -111 -226 -111q-119 0 -201.5 83t-82.5 200zM82 977q0 -113 66.5 -192.5t160.5 -79.5t161 79.5t67 192.5t-67 193.5t-161 80.5t-160.5 -80.5t-66.5 -193.5z" />
<glyph unicode="&#xab;" horiz-adv-x="462" d="M47 580l156 221l45 -62l-113 -159l113 -162l-45 -62zM219 580l156 221l43 -62l-111 -159l111 -162l-43 -62z" />
<glyph unicode="&#xac;" d="M27 532v89h358v-187h-74v98h-284z" />
<glyph unicode="&#xad;" d="M51 532v89h314v-89h-314z" />
<glyph unicode="&#xae;" horiz-adv-x="903" d="M29 844q0 176 122.5 298t297.5 122q176 0 297.5 -122t121.5 -298q0 -174 -121.5 -297t-297.5 -123q-174 0 -297 123t-123 297zM63 844q0 -158 114 -271.5t272 -113.5q160 0 272.5 113.5t112.5 271.5q0 160 -113 272.5t-272 112.5q-158 0 -272 -112.5t-114 -272.5z M285 522v654h127q104 0 179 -65t75 -153q0 -66 -45.5 -125t-120.5 -83q43 -29 80 -107q29 -59 55 -121h-68q-23 68 -45 135q-39 82 -110 82h-64v-217h-63zM348 768h64q78 0 134 56t56 134t-56.5 133.5t-133.5 55.5h-64v-379z" />
<glyph unicode="&#xaf;" horiz-adv-x="309" d="M23 1372l2 27h258l2 -27h-262z" />
<glyph unicode="&#xb0;" horiz-adv-x="321" d="M20 1122q0 55 38 94t96 39q55 0 94 -39t39 -94q0 -57 -39 -95t-94 -38q-57 0 -95.5 38t-38.5 95zM37 1122q0 -47 33.5 -81.5t83.5 -34.5q47 0 80.5 34.5t33.5 81.5t-33.5 81t-80.5 34q-49 0 -83 -34t-34 -81z" />
<glyph unicode="&#xb1;" d="M51 225v90h314v-90h-314zM51 532v89h113v112h88v-112h113v-89h-113v-112h-88v112h-113z" />
<glyph unicode="&#xb4;" horiz-adv-x="174" d="M23 1346l106 104l18 -18l-106 -107z" />
<glyph unicode="&#xb6;" horiz-adv-x="622" d="M6 950q0 123 85 210t212 87h275v-1247h-91l2 1149h-98v-1149h-88v657q-121 -4 -209 83t-88 210z" />
<glyph unicode="&#xb7;" horiz-adv-x="251" d="M72 555q0 59 57 59q23 0 41 -17t18 -42q0 -23 -18 -40t-41 -17t-40 17t-17 40z" />
<glyph unicode="&#xb8;" horiz-adv-x="292" d="M53 -322q35 -18 78 -18q92 0 92 68q0 102 -162 102v205h56v-152q39 0 82 -41q51 -48 51 -114q0 -63 -64 -101q-55 -33 -133 -33v84z" />
<glyph unicode="&#xba;" horiz-adv-x="608" d="M25 977q0 119 81.5 202t200.5 83t202 -83t83 -202q0 -117 -83 -200t-202 -83t-200.5 83t-81.5 200zM82 977q0 -113 66.5 -192.5t158.5 -79.5q94 0 161 79.5t67 192.5t-67 192.5t-161 79.5q-92 0 -158.5 -79.5t-66.5 -192.5z" />
<glyph unicode="&#xbb;" horiz-adv-x="462" d="M41 418l113 162l-113 159l45 62l154 -221l-154 -224zM211 418l113 162l-113 159l45 62l156 -221l-156 -224z" />
<glyph unicode="&#xbf;" horiz-adv-x="962" d="M31 430q0 154 102 283q115 143 297 157v240h88v-268q-37 0 -57 -2q-150 -16 -244 -125q-96 -115 -96 -285q0 -174 106.5 -298t255.5 -124q172 0 303.5 125t131.5 297h18q0 -180 -133 -309t-320 -129q-186 0 -319 128t-133 310zM420 1219q0 53 53 53t53 -53t-53 -54 q-53 0 -53 54z" />
<glyph unicode="&#xc0;" horiz-adv-x="503" d="M12 0l240 1346l235 -1346h-90l-75 432h-216l-75 -432h-19zM111 451h208l-104 593zM129 1470l21 19l104 -105l-16 -20z" />
<glyph unicode="&#xc1;" horiz-adv-x="503" d="M12 0l240 1346l235 -1346h-90l-75 432h-216l-75 -432h-19zM111 451h208l-104 593zM248 1393l104 104l21 -16l-107 -109z" />
<glyph unicode="&#xc2;" horiz-adv-x="503" d="M12 0l240 1346l235 -1346h-90l-75 432h-216l-75 -432h-19zM111 451h208l-104 593zM145 1346l107 104l106 -107l-18 -20l-88 90l-88 -88z" />
<glyph unicode="&#xc3;" horiz-adv-x="503" d="M12 0l240 1346l235 -1346h-90l-75 432h-216l-75 -432h-19zM111 451h208l-104 593zM131 1368q20 49 72 53q18 2 45.5 -14t44.5 -14q45 2 57 26l15 -6q-20 -53 -72 -55q-16 0 -42 14t-44 12q-47 -2 -57 -24z" />
<glyph unicode="&#xc4;" horiz-adv-x="503" d="M12 0l240 1346l235 -1346h-90l-75 432h-216l-75 -432h-19zM111 451h208l-104 593zM141 1374q0 49 47 49q16 0 33 -15.5t17 -33.5q0 -16 -16.5 -31.5t-33.5 -15.5q-18 0 -32.5 15.5t-14.5 31.5zM266 1374q0 49 47 49q16 0 32.5 -15.5t16.5 -33.5q0 -16 -16 -31.5 t-33 -15.5q-18 0 -32.5 15.5t-14.5 31.5z" />
<glyph unicode="&#xc5;" horiz-adv-x="503" d="M12 0l240 1346l235 -1346h-90l-75 432h-216l-75 -432h-19zM111 451h208l-104 593zM152 1470q0 41 29.5 70t70.5 29t69.5 -29t28.5 -70t-28.5 -70.5t-69.5 -29.5t-70.5 30t-29.5 70zM178 1470q0 -31 21.5 -52t52.5 -21q72 -1 72 73q0 72 -72 72q-74 0 -74 -72z" />
<glyph unicode="&#xc6;" horiz-adv-x="794" d="M12 0l441 1245l266 2v-18h-223v-410h262v-18h-262v-783h262v-18h-361l2 432h-215l-153 -432h-19zM190 451h209v593z" />
<glyph unicode="&#xc7;" horiz-adv-x="1286" d="M39 610q0 268 185.5 463t451.5 195q166 0 311.5 -77t235.5 -210l-56 -33q-76 139 -208 221t-283 80q-229 -4 -390 -190.5t-161 -448.5q0 -256 168 -436t401 -180q152 0 278 85t197 228l58 -35q-86 -137 -225.5 -217t-305.5 -80h-30v-28q39 0 82 -41q51 -49 51 -115 q0 -61 -60.5 -97t-136.5 -36v84q35 -18 76 -18q94 0 94 67q0 104 -162 105v84q-242 31 -406.5 210t-164.5 420z" />
<glyph unicode="&#xc8;" d="M43 0v1247h313v-18h-225v-410h264v-18h-264v-783h264v-18h-352zM94 1432l21 18l104 -104l-18 -21z" />
<glyph unicode="&#xc9;" d="M43 0v1247h313v-18h-225v-410h264v-18h-264v-783h264v-18h-352zM195 1346l104 104l20 -18l-108 -107z" />
<glyph unicode="&#xca;" d="M43 0v1247h313v-18h-225v-410h264v-18h-264v-783h264v-18h-352zM115 1346l104 104l107 -107l-19 -20l-88 90l-88 -88z" />
<glyph unicode="&#xcb;" d="M43 0v1247h313v-18h-225v-410h264v-18h-264v-783h264v-18h-352zM94 1374q0 49 49 49q16 0 31.5 -15.5t15.5 -33.5q0 -16 -15 -31.5t-32 -15.5q-49 0 -49 47zM219 1374q0 49 47 49q18 0 33.5 -15.5t15.5 -33.5q0 -16 -15 -31.5t-34 -15.5q-18 0 -32.5 15.5t-14.5 31.5z " />
<glyph unicode="&#xcc;" horiz-adv-x="200" d="M-41 1432l21 18l104 -104l-18 -21zM45 0v1247h88v-1247h-88z" />
<glyph unicode="&#xcd;" horiz-adv-x="200" d="M45 0v1247h88v-1247h-88zM74 1346l104 104l21 -18l-109 -107z" />
<glyph unicode="&#xce;" horiz-adv-x="200" d="M-25 1346l105 104l106 -107l-16 -20l-90 90l-86 -88zM45 0v1247h88v-1247h-88z" />
<glyph unicode="&#xcf;" horiz-adv-x="200" d="M-20 1374q0 18 15 33.5t34 15.5q16 0 31.5 -15.5t15.5 -33.5q0 -16 -15.5 -31.5t-31.5 -15.5q-18 0 -33.5 15.5t-15.5 31.5zM45 0v1247h88v-1247h-88zM104 1374q0 18 15.5 33.5t34.5 15.5q16 0 31.5 -15.5t15.5 -33.5q0 -16 -15.5 -31.5t-31.5 -15.5q-18 0 -34 15.5 t-16 31.5z" />
<glyph unicode="&#xd1;" horiz-adv-x="563" d="M39 0v1346l459 -1184v1085h16v-1380l-457 1188v-1055h-18zM168 1368q18 49 72 53q18 2 44.5 -13t43.5 -15q45 2 59 26l14 -6q-25 -53 -71 -55q-16 0 -42 14t-46 12q-45 -2 -58 -24z" />
<glyph unicode="&#xd2;" horiz-adv-x="1359" d="M39 608q0 268 185.5 462t449.5 194q268 0 460.5 -184.5t192.5 -448.5q0 -268 -185.5 -462t-449.5 -194q-268 0 -460.5 184.5t-192.5 448.5zM125 608q0 -256 168 -435t399 -179q229 0 390 187.5t161 449.5q0 258 -168 439t-399 177q-229 -4 -390 -191.5t-161 -447.5z M565 1432l19 18l106 -104l-18 -21z" />
<glyph unicode="&#xd3;" horiz-adv-x="1359" d="M39 608q0 268 185.5 462t449.5 194q268 0 460.5 -184.5t192.5 -448.5q0 -268 -185.5 -462t-449.5 -194q-268 0 -460.5 184.5t-192.5 448.5zM125 608q0 -256 168 -435t399 -179q229 0 390 187.5t161 449.5q0 258 -168 439t-399 177q-229 -4 -390 -191.5t-161 -447.5z M643 1346l105 104l20 -18l-106 -107z" />
<glyph unicode="&#xd4;" horiz-adv-x="1359" d="M39 608q0 268 185.5 462t449.5 194q268 0 460.5 -184.5t192.5 -448.5q0 -268 -185.5 -462t-449.5 -194q-268 0 -460.5 184.5t-192.5 448.5zM125 608q0 -256 168 -435t399 -179q229 0 390 187.5t161 449.5q0 258 -168 439t-399 177q-229 -4 -390 -191.5t-161 -447.5z M567 1346l105 104l106 -107l-18 -20l-88 90l-88 -88z" />
<glyph unicode="&#xd5;" horiz-adv-x="1359" d="M39 608q0 268 185.5 462t449.5 194q268 0 460.5 -184.5t192.5 -448.5q0 -268 -185.5 -462t-449.5 -194q-268 0 -460.5 184.5t-192.5 448.5zM125 608q0 -256 168 -435t399 -179q229 0 390 187.5t161 449.5q0 258 -168 439t-399 177q-229 -4 -390 -191.5t-161 -447.5z M567 1368q18 49 70 53q20 2 47 -13t43 -15q45 2 57 26l15 -6q-20 -53 -70 -55q-16 0 -43 14t-45 12q-45 -2 -57 -24z" />
<glyph unicode="&#xd6;" horiz-adv-x="1359" d="M39 608q0 268 185.5 462t449.5 194q268 0 460.5 -184.5t192.5 -448.5q0 -268 -185.5 -462t-449.5 -194q-268 0 -460.5 184.5t-192.5 448.5zM125 608q0 -256 168 -435t399 -179q229 0 390 187.5t161 449.5q0 258 -168 439t-399 177q-229 -4 -390 -191.5t-161 -447.5z M565 1374q0 49 47 49q16 0 33 -15.5t17 -33.5q0 -16 -16.5 -31.5t-33.5 -15.5q-18 0 -32.5 15.5t-14.5 31.5zM690 1374q0 49 47 49q16 0 31.5 -15.5t15.5 -33.5q0 -16 -15 -31.5t-32 -15.5q-18 0 -32.5 15.5t-14.5 31.5z" />
<glyph unicode="&#xd8;" horiz-adv-x="1359" d="M39 608q0 268 185.5 462t449.5 194q117 0 221 -37l35 96l18 -6l-37 -96q184 -70 299 -228q117 -163 117 -362q0 -268 -185.5 -462t-449.5 -194q-113 0 -223 39l-37 -94l-16 6l33 94q-182 72 -293 230q-117 162 -117 358zM125 608q0 -184 92 -335.5t242 -225.5l426 1157 q-94 45 -209 43q-229 -4 -390 -191.5t-161 -447.5zM477 39q96 -45 215 -45q229 0 390 187.5t161 449.5q0 186 -95 339.5t-245 225.5z" />
<glyph unicode="&#xd9;" horiz-adv-x="501" d="M47 180v1065h88v-1065q0 -78 35 -129t84 -51q80 0 135 51t55 129v1065h17v-1065q0 -84 -60.5 -145.5t-146.5 -61.5q-84 0 -145.5 61.5t-61.5 145.5zM152 1432l18 18l106 -104l-18 -21z" />
<glyph unicode="&#xda;" horiz-adv-x="501" d="M47 180v1065h88v-1065q0 -78 35 -129t84 -51q80 0 135 51t55 129v1065h17v-1065q0 -84 -60.5 -145.5t-146.5 -61.5q-84 0 -145.5 61.5t-61.5 145.5zM266 1346l105 104l18 -18l-106 -107z" />
<glyph unicode="&#xdb;" horiz-adv-x="501" d="M47 180v1065h88v-1065q0 -78 35 -129t84 -51q80 0 135 51t55 129v1065h17v-1065q0 -84 -60.5 -145.5t-146.5 -61.5q-84 0 -145.5 61.5t-61.5 145.5zM168 1346l104 104l107 -107l-17 -20l-90 90l-88 -88z" />
<glyph unicode="&#xdc;" horiz-adv-x="501" d="M47 180v1065h88v-1065q0 -78 35 -129t84 -51q80 0 135 51t55 129v1065h17v-1065q0 -84 -60.5 -145.5t-146.5 -61.5q-84 0 -145.5 61.5t-61.5 145.5zM152 1374q0 49 47 49q18 0 33.5 -15.5t15.5 -33.5q0 -16 -15.5 -31.5t-33.5 -15.5t-32.5 15.5t-14.5 31.5zM276 1374 q0 49 48 49q18 0 33.5 -15.5t15.5 -33.5q0 -16 -15.5 -31.5t-33.5 -15.5t-33 15.5t-15 31.5z" />
<glyph unicode="&#xde;" horiz-adv-x="1366" d="M111 2q41 117 142 190.5t230 73.5q137 0 244 -96q96 -90 139 -233q25 -80 74 -138q57 -68 125 -67q39 0 78 22q61 37 61 119q0 70 -48 117t-116 47h-16q-10 -2 -16 -2q68 -20 67 -90q0 -37 -27.5 -64.5t-64.5 -27.5t-64.5 27.5t-27.5 64.5q0 43 31 69q47 41 118 41 q76 0 129.5 -53t53.5 -129q0 -74 -53.5 -127t-129.5 -53q-170 0 -235 182q-127 348 -320 348q-256 0 -356 -229z" />
<glyph unicode="&#xdf;" horiz-adv-x="741" d="M8 123v115h45v757q0 104 58.5 172t152.5 80q96 12 180 -59.5t84 -163.5q0 -76 -47 -119q-14 -12 -90 -57q-47 -27 -47 -62q0 -51 92 -102q147 -80 168 -96q92 -74 92 -180q0 -170 -127 -303.5t-305 -137.5v23q141 0 245.5 128t104.5 290q0 90 -90 149q-84 45 -170 92 q-90 55 -90 133q0 82 93.5 135.5t91.5 106.5q-4 88 -57.5 151.5t-127.5 51.5q-66 -10 -100 -84q-31 -61 -31 -146v-997h-80v123h-45z" />
<glyph unicode="&#xe0;" horiz-adv-x="935" d="M37 410q0 182 129 310t309 128q182 0 310 -128t128 -310v-410h-90v143q-131 -172 -348 -172q-180 0 -309 129t-129 310zM127 410q0 -174 102.5 -297t245.5 -123q145 0 247.5 123t102.5 297t-102 296.5t-248 122.5q-143 0 -245.5 -122.5t-102.5 -296.5zM354 1004l21 18 l104 -104l-18 -21z" />
<glyph unicode="&#xe1;" horiz-adv-x="935" d="M37 410q0 182 129 310t309 128q182 0 310 -128t128 -310v-410h-90v143q-131 -172 -348 -172q-180 0 -309 129t-129 310zM127 410q0 -174 102.5 -297t245.5 -123q145 0 247.5 123t102.5 297t-102 296.5t-248 122.5q-143 0 -245.5 -122.5t-102.5 -296.5zM457 924l106 106 l19 -18l-107 -107z" />
<glyph unicode="&#xe2;" horiz-adv-x="935" d="M37 410q0 182 129 310t309 128q182 0 310 -128t128 -310v-410h-90v143q-131 -172 -348 -172q-180 0 -309 129t-129 310zM127 410q0 -174 102.5 -297t245.5 -123q145 0 247.5 123t102.5 297t-102 296.5t-248 122.5q-143 0 -245.5 -122.5t-102.5 -296.5zM367 946l104 105 l109 -107l-19 -20l-90 90l-86 -88z" />
<glyph unicode="&#xe3;" horiz-adv-x="935" d="M37 410q0 182 129 310t309 128q182 0 310 -128t128 -310v-410h-90v143q-131 -172 -348 -172q-180 0 -309 129t-129 310zM127 410q0 -174 102.5 -297t245.5 -123q145 0 247.5 123t102.5 297t-102 296.5t-248 122.5q-143 0 -245.5 -122.5t-102.5 -296.5zM352 940 q18 49 72 53q18 2 45 -13t43 -15q47 2 59 26l15 -6q-20 -51 -72 -55q-16 -2 -42 13t-44 13q-47 -2 -57 -22z" />
<glyph unicode="&#xe4;" horiz-adv-x="935" d="M37 410q0 182 129 310t309 128q182 0 310 -128t128 -310v-410h-90v143q-131 -172 -348 -172q-180 0 -309 129t-129 310zM127 410q0 -174 102.5 -297t245.5 -123q145 0 247.5 123t102.5 297t-102 296.5t-248 122.5q-143 0 -245.5 -122.5t-102.5 -296.5zM365 983 q0 47 49 47q16 0 31.5 -14.5t15.5 -32.5q0 -16 -15.5 -31.5t-31.5 -15.5q-18 0 -33.5 15.5t-15.5 31.5zM489 983q0 47 50 47q16 0 31.5 -14.5t15.5 -32.5q0 -16 -15.5 -31.5t-31.5 -15.5q-49 0 -50 47z" />
<glyph unicode="&#xe5;" horiz-adv-x="935" d="M37 410q0 182 129 310t309 128q182 0 310 -128t128 -310v-410h-90v143q-131 -172 -348 -172q-180 0 -309 129t-129 310zM127 410q0 -174 102.5 -297t245.5 -123q145 0 247.5 123t102.5 297t-102 296.5t-248 122.5q-143 0 -245.5 -122.5t-102.5 -296.5zM373 1014 q0 41 28.5 69.5t69.5 28.5t70.5 -28.5t29.5 -69.5t-29.5 -72t-70.5 -31t-69.5 31t-28.5 72zM399 1014q0 -31 20.5 -53.5t51.5 -22.5t52.5 22.5t21.5 53.5q0 72 -74 71q-72 0 -72 -71z" />
<glyph unicode="&#xe6;" horiz-adv-x="1695" d="M37 410q0 182 129 310t309 128q129 0 234.5 -68.5t160.5 -181.5q55 113 161 181.5t235 68.5q125 0 228 -63.5t159 -170.5l-727 -297q27 -141 122 -234t218 -93q106 0 191 68.5t128 181.5l74 -27q-57 -111 -161.5 -176.5t-231.5 -65.5q-221 0 -353 179v-150h-90v143 q-131 -172 -348 -172q-180 0 -309 129t-129 310zM127 410q0 -174 102.5 -297t245.5 -123q145 0 247.5 123t102.5 297t-102 296.5t-248 122.5q-143 0 -245.5 -122.5t-102.5 -296.5zM918 410q0 -25 4 -74l655 270q-45 102 -128 162.5t-183 60.5q-143 0 -245.5 -122.5 t-102.5 -296.5z" />
<glyph unicode="&#xe7;" horiz-adv-x="919" d="M37 416q0 182 128 309t308 127q123 0 226.5 -63.5t158.5 -167.5l-70 -31q-43 111 -126.5 177.5t-188.5 66.5q-143 0 -244.5 -122t-101.5 -296t101.5 -297t244.5 -123q104 0 190.5 69.5t127.5 180.5l73 -27q-55 -109 -159.5 -174t-231.5 -65h-20v-33q39 0 82 -41 q49 -49 49 -115q0 -61 -64 -100q-55 -33 -131 -33v84q35 -18 76 -18q92 0 92 67q0 104 -160 105v90q-154 27 -257 148.5t-103 281.5z" />
<glyph unicode="&#xe8;" horiz-adv-x="921" d="M37 410q0 182 129 310t309 128q125 0 228.5 -63.5t158.5 -170.5l-727 -297q27 -141 122 -234t218 -93q106 0 191.5 68.5t128.5 181.5l71 -27q-55 -109 -159.5 -175.5t-231.5 -66.5q-180 0 -309 129t-129 310zM127 410q0 -25 4 -74l653 270q-43 102 -126 162.5t-183 60.5 q-143 0 -245.5 -122.5t-102.5 -296.5zM354 1004l21 18l104 -104l-18 -21z" />
<glyph unicode="&#xe9;" horiz-adv-x="921" d="M37 410q0 182 129 310t309 128q125 0 228.5 -63.5t158.5 -170.5l-727 -297q27 -141 122 -234t218 -93q106 0 191.5 68.5t128.5 181.5l71 -27q-55 -109 -159.5 -175.5t-231.5 -66.5q-180 0 -309 129t-129 310zM127 410q0 -25 4 -74l653 270q-43 102 -126 162.5t-183 60.5 q-143 0 -245.5 -122.5t-102.5 -296.5zM457 924l106 106l19 -18l-107 -107z" />
<glyph unicode="&#xea;" horiz-adv-x="921" d="M37 410q0 182 129 310t309 128q125 0 228.5 -63.5t158.5 -170.5l-727 -297q27 -141 122 -234t218 -93q106 0 191.5 68.5t128.5 181.5l71 -27q-55 -109 -159.5 -175.5t-231.5 -66.5q-180 0 -309 129t-129 310zM127 410q0 -25 4 -74l653 270q-43 102 -126 162.5t-183 60.5 q-143 0 -245.5 -122.5t-102.5 -296.5zM367 946l104 105l109 -107l-19 -20l-90 90l-86 -88z" />
<glyph unicode="&#xeb;" horiz-adv-x="921" d="M37 410q0 182 129 310t309 128q125 0 228.5 -63.5t158.5 -170.5l-727 -297q27 -141 122 -234t218 -93q106 0 191.5 68.5t128.5 181.5l71 -27q-55 -109 -159.5 -175.5t-231.5 -66.5q-180 0 -309 129t-129 310zM127 410q0 -25 4 -74l653 270q-43 102 -126 162.5t-183 60.5 q-143 0 -245.5 -122.5t-102.5 -296.5zM365 983q0 47 49 47q16 0 31.5 -14.5t15.5 -32.5q0 -16 -15.5 -31.5t-31.5 -15.5q-18 0 -33.5 15.5t-15.5 31.5zM489 983q0 47 50 47q16 0 31.5 -14.5t15.5 -32.5q0 -16 -15.5 -31.5t-31.5 -15.5q-49 0 -50 47z" />
<glyph unicode="&#xec;" horiz-adv-x="184" d="M-20 997l20 19l104 -107l-16 -18zM45 0v819h90v-819h-90z" />
<glyph unicode="&#xed;" horiz-adv-x="184" d="M45 0v819h90v-819h-90zM80 924l104 106l21 -18l-107 -107z" />
<glyph unicode="&#xee;" horiz-adv-x="184" d="M-18 946l106 105l107 -107l-19 -20l-88 90l-88 -88zM45 0v819h90v-819h-90z" />
<glyph unicode="&#xef;" horiz-adv-x="184" d="M-20 983q0 47 49 47q16 0 31.5 -14.5t15.5 -32.5q0 -16 -15.5 -31.5t-31.5 -15.5q-18 0 -33.5 15.5t-15.5 31.5zM45 0v819h90v-819h-90zM104 983q0 47 50 47q16 0 31.5 -14.5t15.5 -32.5q0 -16 -15.5 -31.5t-31.5 -15.5q-18 0 -34 15.5t-16 31.5z" />
<glyph unicode="&#xf1;" horiz-adv-x="514" d="M45 0v817h88v-80q51 100 162 101q72 0 124 -54.5t52 -126.5v-657h-86v657q0 66 -27.5 114t-62.5 48q-61 0 -106.5 -40t-55.5 -101v-678h-88zM143 940q20 49 72 53q18 2 46 -14t44 -14q45 2 57 26l15 -6q-20 -51 -70 -55q-16 -2 -42.5 13t-45.5 13q-47 -2 -57 -22z" />
<glyph unicode="&#xf2;" horiz-adv-x="933" d="M37 408q0 182 128 309t308 127q182 0 309 -127t127 -309q0 -180 -128 -308.5t-308 -128.5t-308 128t-128 309zM127 408q0 -172 101.5 -295t244.5 -123t245.5 123t102.5 295q0 174 -101.5 295.5t-246.5 121.5q-143 0 -244.5 -121.5t-101.5 -295.5zM354 1004l21 18 l104 -104l-18 -21z" />
<glyph unicode="&#xf3;" horiz-adv-x="933" d="M37 408q0 182 128 309t308 127q182 0 309 -127t127 -309q0 -180 -128 -308.5t-308 -128.5t-308 128t-128 309zM127 408q0 -172 101.5 -295t244.5 -123t245.5 123t102.5 295q0 174 -101.5 295.5t-246.5 121.5q-143 0 -244.5 -121.5t-101.5 -295.5zM457 924l106 106l19 -18 l-107 -107z" />
<glyph unicode="&#xf4;" horiz-adv-x="933" d="M37 408q0 182 128 309t308 127q182 0 309 -127t127 -309q0 -180 -128 -308.5t-308 -128.5t-308 128t-128 309zM127 408q0 -172 101.5 -295t244.5 -123t245.5 123t102.5 295q0 174 -101.5 295.5t-246.5 121.5q-143 0 -244.5 -121.5t-101.5 -295.5zM367 946l104 105 l109 -107l-19 -20l-90 90l-86 -88z" />
<glyph unicode="&#xf5;" horiz-adv-x="933" d="M37 408q0 182 128 309t308 127q182 0 309 -127t127 -309q0 -180 -128 -308.5t-308 -128.5t-308 128t-128 309zM127 408q0 -172 101.5 -295t244.5 -123t245.5 123t102.5 295q0 174 -101.5 295.5t-246.5 121.5q-143 0 -244.5 -121.5t-101.5 -295.5zM352 940q18 49 72 53 q18 2 45 -13t43 -15q47 2 59 26l15 -6q-20 -51 -72 -55q-16 -2 -42 13t-44 13q-47 -2 -57 -22z" />
<glyph unicode="&#xf6;" horiz-adv-x="933" d="M37 408q0 182 128 309t308 127q182 0 309 -127t127 -309q0 -180 -128 -308.5t-308 -128.5t-308 128t-128 309zM127 408q0 -172 101.5 -295t244.5 -123t245.5 123t102.5 295q0 174 -101.5 295.5t-246.5 121.5q-143 0 -244.5 -121.5t-101.5 -295.5zM365 983q0 47 49 47 q16 0 31.5 -14.5t15.5 -32.5q0 -16 -15.5 -31.5t-31.5 -15.5q-18 0 -33.5 15.5t-15.5 31.5zM489 983q0 47 50 47q16 0 31.5 -14.5t15.5 -32.5q0 -16 -15.5 -31.5t-31.5 -15.5q-49 0 -50 47z" />
<glyph unicode="&#xf7;" d="M51 532v89h314v-89h-314zM150 414q0 57 59 57q57 0 57 -57q0 -23 -17.5 -41.5t-39.5 -18.5q-25 0 -42 18.5t-17 41.5zM150 733q0 59 59 60q57 -1 57 -60q0 -57 -57 -57q-59 0 -59 57z" />
<glyph unicode="&#xf8;" horiz-adv-x="933" d="M37 408q0 182 128 309t308 127q72 0 133 -19l84 224l17 -7l-82 -225q127 -47 205.5 -158.5t78.5 -250.5q0 -180 -128 -308.5t-308 -128.5q-80 0 -154 29q-23 -57 -79 -211l-17 8l78 209q-119 53 -191.5 160.5t-72.5 241.5zM127 408q0 -119 50 -218.5t134 -152.5l285 762 q-53 27 -123 26q-143 0 -244.5 -121.5t-101.5 -295.5zM328 27q74 -37 145 -37q143 0 245.5 123t102.5 295q0 127 -57 230t-150 153q-141 -381 -286 -764z" />
<glyph unicode="&#xf9;" horiz-adv-x="442" d="M27 160v659h18v-659q0 -66 47 -114t115 -48q35 0 61.5 48t26.5 114v659h90v-659q0 -74 -52 -127t-126 -53t-127 53t-53 127zM90 1004l21 18l104 -104l-16 -21z" />
<glyph unicode="&#xfa;" horiz-adv-x="442" d="M27 160v659h18v-659q0 -66 47 -114t115 -48q35 0 61.5 48t26.5 114v659h90v-659q0 -74 -52 -127t-126 -53t-127 53t-53 127zM195 924l104 106l20 -18l-108 -107z" />
<glyph unicode="&#xfb;" horiz-adv-x="442" d="M27 160v659h18v-659q0 -66 47 -114t115 -48q35 0 61.5 48t26.5 114v659h90v-659q0 -74 -52 -127t-126 -53t-127 53t-53 127zM96 946l105 105l106 -107l-16 -20l-90 90l-86 -88z" />
<glyph unicode="&#xfc;" horiz-adv-x="442" d="M27 160v659h18v-659q0 -66 47 -114t115 -48q35 0 61.5 48t26.5 114v659h90v-659q0 -74 -52 -127t-126 -53t-127 53t-53 127zM102 983q0 47 48 47q18 0 33.5 -14.5t15.5 -32.5q0 -16 -16.5 -31.5t-32.5 -15.5q-18 0 -33 15.5t-15 31.5zM225 983q0 47 49 47q16 0 32 -14.5 t16 -32.5q0 -16 -15.5 -31.5t-32.5 -15.5q-18 0 -33.5 15.5t-15.5 31.5z" />
<glyph unicode="&#xfe;" horiz-adv-x="739" d="M20 412q0 59 74 98q61 35 127 35q16 0 27 -2q-61 51 -62 131q0 70 50.5 120t121.5 50q121 0 160 -113q27 -16 74 -16q88 0 88 78q0 59 -49 81q8 -16 8 -30q0 -53 -55 -53t-56 53q0 55 56 55q115 0 114 -106q0 -43 -30.5 -70t-75.5 -27q-35 0 -66 11q0 -4 2 -17v-16 q0 -72 -50 -122t-120 -50q-45 0 -79 22q-25 4 -46 4q-51 0 -90 -24.5t-39 -67.5q0 -61 62 -61q27 0 59 24q133 102 303 103q209 0 355.5 -146.5t146.5 -355.5t-146.5 -355.5t-355.5 -146.5q-207 0 -354 146.5t-147 355.5q0 106 41 199l16 -6q-39 -94 -39 -193 q0 -201 142.5 -343t340.5 -142q172 0 293 142t121 343t-121 343t-293 142q-160 0 -301 -106q-61 -47 -118 -45q-88 2 -89 78zM276 674q0 -61 25 -107.5t57 -46.5q33 0 57.5 46.5t24.5 107.5t-24.5 106t-57.5 45t-57.5 -45t-24.5 -106z" />
<glyph unicode="&#xff;" horiz-adv-x="466" d="M18 817h91l167 -688l166 688h19l-303 -1247h-17l86 369zM152 983q0 47 47 47q49 0 49 -47q0 -16 -15.5 -31.5t-33.5 -15.5t-32.5 15.5t-14.5 31.5zM276 983q0 47 48 47q49 0 49 -47q0 -16 -15.5 -31.5t-33.5 -15.5t-33 15.5t-15 31.5z" />
<glyph unicode="&#x152;" horiz-adv-x="1660" d="M39 608q0 268 185.5 462t449.5 194q180 0 333.5 -89.5t239.5 -240.5v313h314v-18h-226v-410h264v-18h-264v-783h264v-18h-352v311q-82 -152 -229.5 -244t-325.5 -92q-268 0 -460.5 184.5t-192.5 448.5zM125 608q0 -256 168 -435t399 -179q229 0 390 187.5t161 449.5 q0 258 -168 439t-399 177q-229 -4 -390 -191.5t-161 -447.5z" />
<glyph unicode="&#x153;" horiz-adv-x="1685" d="M37 408q0 182 128 309t308 127q127 0 232.5 -66.5t160.5 -175.5q53 111 158.5 178.5t235.5 67.5q125 0 227 -63.5t158 -170.5l-725 -297q25 -141 121 -234t219 -93q104 0 189 68.5t128 181.5l74 -27q-55 -109 -161 -175.5t-230 -66.5q-129 0 -234.5 67.5t-159.5 176.5 q-55 -111 -159.5 -177.5t-233.5 -66.5q-180 0 -308 128t-128 309zM127 408q0 -172 101.5 -295t244.5 -123t245.5 123t102.5 295q0 174 -101.5 295.5t-246.5 121.5q-143 0 -244.5 -121.5t-101.5 -295.5zM909 410q0 -37 6 -74l654 270q-45 102 -127 162.5t-182 60.5 q-145 0 -248 -122.5t-103 -296.5z" />
<glyph unicode="&#x178;" horiz-adv-x="509" d="M25 1245h90l164 -796l163 796h17l-164 -801v-444h-88v350zM158 1374q0 18 15 33.5t34 15.5q16 0 31.5 -15.5t15.5 -33.5q0 -16 -15.5 -31.5t-31.5 -15.5q-18 0 -33.5 15.5t-15.5 31.5zM283 1374q0 18 15 33.5t34 15.5q16 0 31.5 -15.5t15.5 -33.5q0 -16 -15.5 -31.5 t-31.5 -15.5q-18 0 -33.5 15.5t-15.5 31.5z" />
<glyph unicode="&#x2c6;" horiz-adv-x="251" d="M23 1346l106 104l107 -107l-19 -20l-88 90l-88 -88z" />
<glyph unicode="&#x2dc;" horiz-adv-x="294" d="M29 1368q18 49 71 53q18 2 45 -13t43 -15q47 2 60 26l14 -6q-20 -53 -72 -55q-16 0 -41.5 14t-46.5 12q-45 -2 -55 -24z" />
<glyph unicode="&#x2000;" horiz-adv-x="784" />
<glyph unicode="&#x2001;" horiz-adv-x="1569" />
<glyph unicode="&#x2002;" horiz-adv-x="784" />
<glyph unicode="&#x2003;" horiz-adv-x="1569" />
<glyph unicode="&#x2004;" horiz-adv-x="523" />
<glyph unicode="&#x2005;" horiz-adv-x="392" />
<glyph unicode="&#x2006;" horiz-adv-x="261" />
<glyph unicode="&#x2007;" horiz-adv-x="261" />
<glyph unicode="&#x2008;" horiz-adv-x="196" />
<glyph unicode="&#x2009;" horiz-adv-x="313" />
<glyph unicode="&#x200a;" horiz-adv-x="87" />
<glyph unicode="&#x2010;" d="M51 532v89h314v-89h-314z" />
<glyph unicode="&#x2011;" d="M51 532v89h314v-89h-314z" />
<glyph unicode="&#x2012;" d="M51 532v89h314v-89h-314z" />
<glyph unicode="&#x2013;" d="M2 532v89h414v-89h-414z" />
<glyph unicode="&#x2014;" horiz-adv-x="833" d="M4 532v89h836v-89h-836z" />
<glyph unicode="&#x2018;" horiz-adv-x="278" d="M74 1096q0 121 90 155l6 -18q-63 -27 -70 -92q10 12 31 12q59 0 59 -57q0 -59 -59 -60q-23 0 -40 17.5t-17 42.5z" />
<glyph unicode="&#x2019;" horiz-adv-x="251" d="M72 1190q0 59 57 59q23 0 41 -17t18 -42q0 -119 -90 -158l-8 21q63 25 72 90q-12 -12 -33 -13q-23 0 -40 18.5t-17 41.5z" />
<glyph unicode="&#x201a;" horiz-adv-x="251" d="M72 43q0 59 57 59q23 0 41 -17t18 -42q0 -119 -90 -158l-8 21q63 25 72 90q-12 -12 -33 -12q-23 0 -40 18t-17 41z" />
<glyph unicode="&#x201c;" horiz-adv-x="434" d="M74 1096q0 121 90 155l6 -18q-63 -27 -70 -92q10 12 31 12q59 0 59 -57q0 -59 -59 -60q-23 0 -40 17.5t-17 42.5zM250 1096q0 121 90 155l8 -18q-66 -27 -72 -92q10 12 31 12q60 0 60 -57q0 -59 -60 -60q-23 0 -40 17.5t-17 42.5z" />
<glyph unicode="&#x201d;" horiz-adv-x="380" d="M72 1190q0 59 57 59q23 0 41 -17t18 -42q0 -119 -90 -158l-8 21q63 25 72 90q-12 -12 -33 -13q-23 0 -40 18.5t-17 41.5zM227 1190q0 59 60 59q23 0 41 -17t18 -42q0 -121 -92 -158l-6 21q61 25 71 90q-14 -12 -32 -13q-25 0 -42.5 18.5t-17.5 41.5z" />
<glyph unicode="&#x201e;" horiz-adv-x="413" d="M72 43q0 59 57 59q23 0 41 -17t18 -42q0 -119 -90 -158l-8 21q63 25 72 90q-12 -12 -33 -12q-23 0 -40 18t-17 41zM252 43q0 59 57 59q23 0 41.5 -17t18.5 -42q0 -119 -90 -158l-9 21q61 23 72 90q-12 -12 -33 -12q-23 0 -40 18t-17 41z" />
<glyph unicode="&#x2022;" horiz-adv-x="380" d="M51 498q0 102 41 176t98 74t99.5 -74t42.5 -176q0 -100 -42 -174t-100 -74q-57 0 -98 73.5t-41 174.5z" />
<glyph unicode="&#x2026;" horiz-adv-x="774" d="M72 43q0 59 57 59q23 0 41 -17t18 -42q0 -23 -18 -41t-41 -18t-40 18t-17 41zM344 43q0 59 59 59q23 0 40.5 -17t17.5 -42q0 -23 -17.5 -41t-40.5 -18q-25 0 -42 18t-17 41zM618 43q0 59 58 59q23 0 41 -17t18 -42q0 -23 -18.5 -41t-40.5 -18q-23 0 -40.5 18t-17.5 41z " />
<glyph unicode="&#x202f;" horiz-adv-x="313" />
<glyph unicode="&#x2039;" horiz-adv-x="333" d="M47 580l156 221l45 -62l-113 -159l113 -162l-45 -62z" />
<glyph unicode="&#x203a;" horiz-adv-x="333" d="M70 418l112 162l-112 159l45 62l153 -221l-153 -224z" />
<glyph unicode="&#x205f;" horiz-adv-x="392" />
<glyph unicode="&#x2122;" horiz-adv-x="780" d="M16 1214v29h291v-29h-108v-757h-72v757h-111zM322 457v837l16 2l194 -747l193 745l16 -2v-835h-71v514l-152 -590h-16l-152 582v-506h-28z" />
<glyph unicode="&#xe000;" horiz-adv-x="819" d="M0 0v819h819v-819h-819z" />
</font>
</defs>
</svg>
