<svg xmlns="http://www.w3.org/2000/svg" viewBox="0 0 75 75"><defs><style>.cls-1{fill:#4d4d4d;}</style></defs><title>keuze</title><g id="Layer_2" data-name="Layer 2"><g id="Layer_1-2" data-name="Layer 1"><path class="cls-1" d="M66.21,0H8.79A8.8,8.8,0,0,0,0,8.79V66.21A8.8,8.8,0,0,0,8.79,75H66.21A8.8,8.8,0,0,0,75,66.21V8.79A8.8,8.8,0,0,0,66.21,0Zm2.93,66.21a2.93,2.93,0,0,1-2.93,2.93H8.79a2.93,2.93,0,0,1-2.93-2.93V35.74H69.14ZM5.86,29.88V8.79A2.93,2.93,0,0,1,8.79,5.86H66.21a2.93,2.93,0,0,1,2.93,2.93V29.88ZM59.1,11.7l4.14,4.14-9.75,9.73-9.84-9.71,4.11-4.17,5.71,5.63Zm2.28,37.23H13.62V43.07H61.38Zm0,13.18H13.62V56.25H61.38Z"/></g></g></svg>